<?xml version="1.0" encoding="utf-8" standalone="no"?>
<!DOCTYPE svg PUBLIC "-//W3C//DTD SVG 1.1//EN"
  "http://www.w3.org/Graphics/SVG/1.1/DTD/svg11.dtd">
<!-- Created with matplotlib (http://matplotlib.org/) -->
<svg height="108pt" version="1.1" viewBox="0 0 240 108" width="240pt" xmlns="http://www.w3.org/2000/svg" xmlns:xlink="http://www.w3.org/1999/xlink">
 <defs>
  <style type="text/css">
*{stroke-linecap:butt;stroke-linejoin:round;}
  </style>
 </defs>
 <g id="figure_1">
  <g id="patch_1">
   <path d="M 0 108 
L 240 108 
L 240 0 
L 0 0 
z
" style="fill:#ffffff;"/>
  </g>
  <g id="axes_1">
   <g id="patch_2">
    <path d="M 30 96.12 
L 216 96.12 
L 216 12.96 
L 30 12.96 
z
" style="fill:#ffffff;"/>
   </g>
   <g id="matplotlib.axis_1">
    <g id="xtick_1">
     <g id="line2d_1">
      <path clip-path="url(#p038f352205)" d="M 38.454545 96.12 
L 38.454545 12.96 
" style="fill:none;stroke:#b0b0b0;stroke-linecap:square;stroke-width:0.8;"/>
     </g>
     <g id="line2d_2">
      <defs>
       <path d="M 0 0 
L 0 3.5 
" id="mfe357326fa" style="stroke:#000000;stroke-width:0.8;"/>
      </defs>
      <g>
       <use style="stroke:#000000;stroke-width:0.8;" x="38.454545" xlink:href="#mfe357326fa" y="96.12"/>
      </g>
     </g>
     <g id="text_1">
      <!-- $0$ -->
      <defs>
       <path d="M 42 31.640625 
C 42 37.75 41.90625 48.125 37.703125 56.109375 
C 34 63.109375 28.09375 65.59375 22.90625 65.59375 
C 18.09375 65.59375 12 63.40625 8.203125 56.203125 
C 4.203125 48.71875 3.796875 39.4375 3.796875 31.640625 
C 3.796875 25.953125 3.90625 17.28125 7 9.671875 
C 11.296875 -0.609375 19 -2 22.90625 -2 
C 27.5 -2 34.5 -0.109375 38.59375 9.375 
C 41.59375 16.28125 42 24.359375 42 31.640625 
z
M 22.90625 -0.40625 
C 16.5 -0.40625 12.703125 5.078125 11.296875 12.6875 
C 10.203125 18.5625 10.203125 27.15625 10.203125 32.75 
C 10.203125 40.4375 10.203125 46.828125 11.5 52.921875 
C 13.40625 61.390625 19 64 22.90625 64 
C 27 64 32.296875 61.296875 34.203125 53.125 
C 35.5 47.4375 35.59375 40.734375 35.59375 32.75 
C 35.59375 26.25 35.59375 18.265625 34.40625 12.375 
C 32.296875 1.484375 26.40625 -0.40625 22.90625 -0.40625 
z
" id="CMR17-48"/>
      </defs>
      <g transform="translate(35.963878 110.038498)scale(0.1 -0.1)">
       <use transform="scale(0.996264)" xlink:href="#CMR17-48"/>
      </g>
     </g>
    </g>
    <g id="xtick_2">
     <g id="line2d_3">
      <path clip-path="url(#p038f352205)" d="M 72.340499 96.12 
L 72.340499 12.96 
" style="fill:none;stroke:#b0b0b0;stroke-linecap:square;stroke-width:0.8;"/>
     </g>
     <g id="line2d_4">
      <g>
       <use style="stroke:#000000;stroke-width:0.8;" x="72.340499" xlink:href="#mfe357326fa" y="96.12"/>
      </g>
     </g>
     <g id="text_2">
      <!-- $100$ -->
      <defs>
       <path d="M 26.59375 63.40625 
C 26.59375 65.5 26.5 65.5 25.09375 65.5 
C 21.203125 61.1875 15.296875 59.796875 9.703125 59.796875 
C 9.40625 59.796875 8.90625 59.796875 8.796875 59.5 
C 8.703125 59.296875 8.703125 59.09375 8.703125 57 
C 11.796875 57 17 57.59375 21 59.984375 
L 21 7.203125 
C 21 3.6875 20.796875 2.5 12.203125 2.5 
L 9.203125 2.5 
L 9.203125 0 
C 14 0 19 0 23.796875 0 
C 28.59375 0 33.59375 0 38.40625 0 
L 38.40625 2.5 
L 35.40625 2.5 
C 26.796875 2.5 26.59375 3.59375 26.59375 7.15625 
z
" id="CMR17-49"/>
      </defs>
      <g transform="translate(64.868496 110.038498)scale(0.1 -0.1)">
       <use transform="scale(0.996264)" xlink:href="#CMR17-49"/>
       <use transform="translate(45.690477 0)scale(0.996264)" xlink:href="#CMR17-48"/>
       <use transform="translate(91.380954 0)scale(0.996264)" xlink:href="#CMR17-48"/>
      </g>
     </g>
    </g>
    <g id="xtick_3">
     <g id="line2d_5">
      <path clip-path="url(#p038f352205)" d="M 106.226453 96.12 
L 106.226453 12.96 
" style="fill:none;stroke:#b0b0b0;stroke-linecap:square;stroke-width:0.8;"/>
     </g>
     <g id="line2d_6">
      <g>
       <use style="stroke:#000000;stroke-width:0.8;" x="106.226453" xlink:href="#mfe357326fa" y="96.12"/>
      </g>
     </g>
     <g id="text_3">
      <!-- $200$ -->
      <defs>
       <path d="M 41.703125 15.453125 
L 39.90625 15.453125 
C 38.90625 8.375 38.09375 7.171875 37.703125 6.5625 
C 37.203125 5.765625 30 5.765625 28.59375 5.765625 
L 9.40625 5.765625 
C 13 9.671875 20 16.75 28.5 24.953125 
C 34.59375 30.734375 41.703125 37.53125 41.703125 47.421875 
C 41.703125 59.21875 32.296875 66 21.796875 66 
C 10.796875 66 4.09375 56.3125 4.09375 47.34375 
C 4.09375 43.4375 7 42.9375 8.203125 42.9375 
C 9.203125 42.9375 12.203125 43.546875 12.203125 47.03125 
C 12.203125 50.109375 9.59375 51 8.203125 51 
C 7.59375 51 7 50.90625 6.59375 50.703125 
C 8.5 59.21875 14.296875 63.40625 20.40625 63.40625 
C 29.09375 63.40625 34.796875 56.515625 34.796875 47.421875 
C 34.796875 38.734375 29.703125 31.25 24 24.75 
L 4.09375 2.28125 
L 4.09375 0 
L 39.296875 0 
z
" id="CMR17-50"/>
      </defs>
      <g transform="translate(98.75445 110.038498)scale(0.1 -0.1)">
       <use transform="scale(0.996264)" xlink:href="#CMR17-50"/>
       <use transform="translate(45.690477 0)scale(0.996264)" xlink:href="#CMR17-48"/>
       <use transform="translate(91.380954 0)scale(0.996264)" xlink:href="#CMR17-48"/>
      </g>
     </g>
    </g>
    <g id="xtick_4">
     <g id="line2d_7">
      <path clip-path="url(#p038f352205)" d="M 140.112407 96.12 
L 140.112407 12.96 
" style="fill:none;stroke:#b0b0b0;stroke-linecap:square;stroke-width:0.8;"/>
     </g>
     <g id="line2d_8">
      <g>
       <use style="stroke:#000000;stroke-width:0.8;" x="140.112407" xlink:href="#mfe357326fa" y="96.12"/>
      </g>
     </g>
     <g id="text_4">
      <!-- $300$ -->
      <defs>
       <path d="M 22.09375 33.703125 
C 31 33.703125 34.90625 25.96875 34.90625 17.03125 
C 34.90625 5 28.5 0.390625 22.703125 0.390625 
C 17.40625 0.390625 8.796875 3.03125 6.09375 10.828125 
C 6.59375 10.625 7.09375 10.625 7.59375 10.625 
C 10 10.625 11.796875 12.21875 11.796875 14.8125 
C 11.796875 17.703125 9.59375 19 7.59375 19 
C 5.90625 19 3.296875 18.203125 3.296875 14.46875 
C 3.296875 5.234375 12.296875 -2 22.90625 -2 
C 34 -2 42.5 6.71875 42.5 16.953125 
C 42.5 26.671875 34.5 33.703125 25 34.796875 
C 32.59375 36.375 39.90625 43.0625 39.90625 52.015625 
C 39.90625 59.6875 32 65.296875 23 65.296875 
C 13.90625 65.296875 5.90625 59.828125 5.90625 52.015625 
C 5.90625 48.59375 8.5 48 9.796875 48 
C 11.90625 48 13.703125 49.296875 13.703125 51.890625 
C 13.703125 54.46875 11.90625 55.765625 9.796875 55.765625 
C 9.40625 55.765625 8.90625 55.765625 8.5 55.578125 
C 11.40625 61.859375 19.296875 63 22.796875 63 
C 26.296875 63 32.90625 61.328125 32.90625 51.875 
C 32.90625 49.109375 32.5 44.1875 29.09375 39.84375 
C 26.09375 36 22.703125 36 19.40625 35.6875 
C 18.90625 35.6875 16.59375 35.453125 16.203125 35.453125 
C 15.5 35.359375 15.09375 35.265625 15.09375 34.5 
C 15.09375 33.796875 15.203125 33.703125 17.203125 33.703125 
z
" id="CMR17-51"/>
      </defs>
      <g transform="translate(132.640404 110.038498)scale(0.1 -0.1)">
       <use transform="scale(0.996264)" xlink:href="#CMR17-51"/>
       <use transform="translate(45.690477 0)scale(0.996264)" xlink:href="#CMR17-48"/>
       <use transform="translate(91.380954 0)scale(0.996264)" xlink:href="#CMR17-48"/>
      </g>
     </g>
    </g>
    <g id="xtick_5">
     <g id="line2d_9">
      <path clip-path="url(#p038f352205)" d="M 173.99836 96.12 
L 173.99836 12.96 
" style="fill:none;stroke:#b0b0b0;stroke-linecap:square;stroke-width:0.8;"/>
     </g>
     <g id="line2d_10">
      <g>
       <use style="stroke:#000000;stroke-width:0.8;" x="173.99836" xlink:href="#mfe357326fa" y="96.12"/>
      </g>
     </g>
     <g id="text_5">
      <!-- $400$ -->
      <defs>
       <path d="M 33.59375 64.40625 
C 33.59375 66.5 33.5 66.5 31.703125 66.5 
L 2 19.59375 
L 2 17 
L 27.796875 17 
L 27.796875 7.140625 
C 27.796875 3.5 27.59375 2.5 20.59375 2.5 
L 18.703125 2.5 
L 18.703125 0 
C 21.90625 0 27.296875 0 30.703125 0 
C 34.09375 0 39.5 0 42.703125 0 
L 42.703125 2.5 
L 40.796875 2.5 
C 33.796875 2.5 33.59375 3.5 33.59375 7.140625 
L 33.59375 17 
L 43.796875 17 
L 43.796875 19.59375 
L 33.59375 19.59375 
z
M 28.09375 57.859375 
L 28.09375 19.59375 
L 4 19.59375 
z
" id="CMR17-52"/>
      </defs>
      <g transform="translate(166.526357 110.038498)scale(0.1 -0.1)">
       <use transform="scale(0.996264)" xlink:href="#CMR17-52"/>
       <use transform="translate(45.690477 0)scale(0.996264)" xlink:href="#CMR17-48"/>
       <use transform="translate(91.380954 0)scale(0.996264)" xlink:href="#CMR17-48"/>
      </g>
     </g>
    </g>
    <g id="xtick_6">
     <g id="line2d_11">
      <path clip-path="url(#p038f352205)" d="M 207.884314 96.12 
L 207.884314 12.96 
" style="fill:none;stroke:#b0b0b0;stroke-linecap:square;stroke-width:0.8;"/>
     </g>
     <g id="line2d_12">
      <g>
       <use style="stroke:#000000;stroke-width:0.8;" x="207.884314" xlink:href="#mfe357326fa" y="96.12"/>
      </g>
     </g>
     <g id="text_6">
      <!-- $500$ -->
      <defs>
       <path d="M 11.40625 57.6875 
C 12.40625 57.28125 16.5 56 20.703125 56 
C 30 56 35.09375 61.109375 38 64.0625 
C 38 64.953125 38 65.5 37.40625 65.5 
C 37.296875 65.5 37.09375 65.5 36.296875 65.046875 
C 32.796875 63.40625 28.703125 62.078125 23.703125 62.078125 
C 20.703125 62.078125 16.203125 62.484375 11.296875 64.671875 
C 10.203125 65.171875 10 65.171875 9.90625 65.171875 
C 9.40625 65.171875 9.296875 65.0625 9.296875 63.078125 
L 9.296875 34.421875 
C 9.296875 32.640625 9.296875 32.140625 10.296875 32.140625 
C 10.796875 32.140625 11 32.34375 11.5 33.03125 
C 14.703125 37.515625 19.09375 39.40625 24.09375 39.40625 
C 27.59375 39.40625 35.09375 37.21875 35.09375 20.140625 
C 35.09375 16.953125 35.09375 11.171875 32.09375 6.578125 
C 29.59375 2.484375 25.703125 0.390625 21.40625 0.390625 
C 14.796875 0.390625 8.09375 5 6.296875 12.71875 
C 6.703125 12.609375 7.5 12.421875 7.90625 12.421875 
C 9.203125 12.421875 11.703125 13.125 11.703125 16.21875 
C 11.703125 18.90625 9.796875 20 7.90625 20 
C 5.59375 20 4.09375 18.59375 4.09375 15.796875 
C 4.09375 7.09375 11 -2 21.59375 -2 
C 31.90625 -2 41.703125 6.875 41.703125 19.75 
C 41.703125 31.71875 33.90625 41 24.203125 41 
C 19.09375 41 14.796875 39.109375 11.40625 35.53125 
z
" id="CMR17-53"/>
      </defs>
      <g transform="translate(200.412311 110.038498)scale(0.1 -0.1)">
       <use transform="scale(0.996264)" xlink:href="#CMR17-53"/>
       <use transform="translate(45.690477 0)scale(0.996264)" xlink:href="#CMR17-48"/>
       <use transform="translate(91.380954 0)scale(0.996264)" xlink:href="#CMR17-48"/>
      </g>
     </g>
    </g>
    <g id="text_7">
     <!-- $k$ (iteration) -->
     <defs>
      <path d="M 28.09375 66.515625 
C 28.203125 66.921875 28.40625 67.515625 28.40625 68 
C 28.40625 69 27.40625 69 27.203125 69 
C 27.09375 69 23.5 68.640625 21.703125 68.390625 
C 20 68.390625 18.5 68.09375 16.703125 68.09375 
C 14.296875 67.890625 13.59375 67.796875 13.59375 66 
C 13.59375 65 14.59375 65 15.59375 65 
C 20.703125 65 20.703125 64.109375 20.703125 63.125 
C 20.703125 62.734375 20.703125 62.53125 20.203125 60.75 
L 5.90625 3.875 
C 5.5 2.375 5.5 2.1875 5.5 1.578125 
C 5.5 -0.59375 7.203125 -1 8.203125 -1 
C 11 -1 11.59375 1.203125 12.40625 4.296875 
L 17.09375 22.953125 
C 24.296875 22.15625 28.59375 19.15625 28.59375 14.375 
C 28.59375 13.765625 28.59375 13.375 28.296875 11.875 
C 27.90625 10.375 27.90625 9.1875 27.90625 8.6875 
C 27.90625 2.890625 31.703125 -1 36.796875 -1 
C 41.40625 -1 43.796875 3.1875 44.59375 4.59375 
C 46.703125 8.28125 48 13.875 48 14.265625 
C 48 14.765625 47.59375 15.171875 47 15.171875 
C 46.09375 15.171875 46 14.765625 45.59375 13.171875 
C 44.203125 7.984375 42.09375 1 37 1 
C 35 1 33.703125 2 33.703125 5.78125 
C 33.703125 7.6875 34.09375 9.875 34.5 11.375 
C 34.90625 13.171875 34.90625 13.265625 34.90625 14.46875 
C 34.90625 20.359375 29.59375 23.65625 20.40625 24.84375 
C 24 27.046875 27.59375 30.9375 29 32.4375 
C 34.703125 38.8125 38.59375 42.015625 43.203125 42.015625 
C 45.5 42.015625 46.09375 41.40625 46.796875 40.8125 
C 43.09375 40.40625 41.703125 37.8125 41.703125 35.828125 
C 41.703125 33.421875 43.59375 32.625 45 32.625 
C 47.703125 32.625 50.09375 34.921875 50.09375 38.125 
C 50.09375 41.015625 47.796875 44 43.296875 44 
C 37.796875 44 33.296875 40.109375 26.203125 32.125 
C 25.203125 30.9375 21.5 27.140625 17.796875 25.75 
z
" id="CMMI12-107"/>
      <path d="M 30.59375 -24.390625 
C 30.59375 -24.296875 30.59375 -24.09375 30.296875 -23.796875 
C 25.703125 -19.125 13.40625 -6.359375 13.40625 24.703125 
C 13.40625 55.765625 25.5 68.421875 30.40625 73.390625 
C 30.40625 73.5 30.59375 73.703125 30.59375 74 
C 30.59375 74.296875 30.296875 74.5 29.90625 74.5 
C 28.796875 74.5 20.296875 67.125 15.40625 56.15625 
C 10.40625 45.109375 9 34.359375 9 24.8125 
C 9 17.625 9.703125 5.484375 15.703125 -7.359375 
C 20.5 -17.734375 28.703125 -25 29.90625 -25 
C 30.40625 -25 30.59375 -24.796875 30.59375 -24.390625 
z
" id="CMR17-40"/>
      <path d="M 15.5 61.078125 
C 15.5 63.265625 13.703125 65.15625 11.40625 65.15625 
C 9.203125 65.15625 7.296875 63.375 7.296875 61.078125 
C 7.296875 58.890625 9.09375 57 11.40625 57 
C 13.59375 57 15.5 58.796875 15.5 61.078125 
z
M 3.796875 42.28125 
L 3.796875 39.703125 
C 9.40625 39.703125 10.203125 39.09375 10.203125 34.328125 
L 10.203125 6.671875 
C 10.203125 2.875 9.796875 2.390625 3.40625 2.390625 
L 3.40625 -0.203125 
C 5.796875 0 10.09375 0 12.59375 0 
C 15 0 19.09375 0 21.40625 -0.203125 
L 21.40625 2.390625 
C 15.5 2.390625 15.296875 2.984375 15.296875 6.5625 
L 15.296875 43.375 
z
" id="CMR17-105"/>
      <path d="M 15.09375 40 
L 29.09375 40 
L 29.09375 42.578125 
L 15.09375 42.578125 
L 15.09375 61 
L 13.296875 61 
C 13.09375 50.703125 9.59375 41.6875 1.09375 41.6875 
L 1.09375 40 
L 9.796875 40 
L 9.796875 12.046875 
C 9.796875 10.15625 9.796875 -1 21.40625 -1 
C 27.296875 -1 30.703125 4.78125 30.703125 12.140625 
L 30.703125 17.8125 
L 28.90625 17.8125 
L 28.90625 12.234375 
C 28.90625 5.375 26.203125 0.796875 22 0.796875 
C 19.09375 0.796875 15.09375 2.78125 15.09375 11.84375 
z
" id="CMR17-116"/>
      <path d="M 38.09375 23 
C 38.5 23.40625 38.5 23.609375 38.5 24.625 
C 38.5 34.96875 33.09375 44 21.703125 44 
C 11.09375 44 2.703125 33.890625 2.703125 21.609375 
C 2.703125 8.609375 12.203125 -1 22.796875 -1 
C 34 -1 38.40625 9.484375 38.40625 11.5625 
C 38.40625 12.25 37.796875 12.25 37.59375 12.25 
C 36.90625 12.25 36.796875 12.046875 36.40625 10.875 
C 34.203125 4.140625 28.703125 0.796875 23.5 0.796875 
C 19.203125 0.796875 14.90625 3.171875 12.203125 7.5 
C 9.09375 12.546875 9.09375 18.375 9.09375 23 
z
M 9.203125 24.5 
C 9.90625 39.140625 17.59375 42.40625 21.59375 42.40625 
C 28.40625 42.40625 33 35.890625 33.09375 24.5 
z
" id="CMR17-101"/>
      <path d="M 15 23.390625 
C 15 33 19.09375 42 26.59375 42 
C 27.296875 42 28 41.90625 28.703125 41.59375 
C 28.703125 41.59375 26.5 40.890625 26.5 38.3125 
C 26.5 35.90625 28.40625 34.90625 29.90625 34.90625 
C 31.09375 34.90625 33.296875 35.609375 33.296875 38.40625 
C 33.296875 41.609375 30.09375 43.59375 26.703125 43.59375 
C 19.09375 43.59375 15.796875 36.203125 14.796875 32.703125 
L 14.703125 32.703125 
L 14.703125 43.59375 
L 3.09375 42.5 
L 3.09375 39.90625 
C 9 39.90625 9.90625 39.296875 9.90625 34.5 
L 9.90625 6.6875 
C 9.90625 2.875 9.5 2.390625 3.09375 2.390625 
L 3.09375 -0.203125 
C 5.5 0 10.09375 0 12.703125 0 
C 15.59375 0 20.703125 0 23.40625 -0.203125 
L 23.40625 2.390625 
C 16.203125 2.390625 15 2.390625 15 6.875 
z
" id="CMR17-114"/>
      <path d="M 36 25.828125 
C 36 32.375 36 35.84375 31.796875 39.734375 
C 28.09375 43 23.796875 44 20.40625 44 
C 12.5 44 6.796875 37.609375 6.796875 30.796875 
C 6.796875 27 9.796875 27 10.40625 27 
C 11.703125 27 14 27.78125 14 30.53125 
C 14 33 12.09375 34.078125 10.40625 34.078125 
C 10 34.078125 9.5 33.96875 9.203125 33.875 
C 11.296875 40.5 16.703125 42.40625 20.203125 42.40625 
C 25.203125 42.40625 30.703125 37.953125 30.703125 29.453125 
L 30.703125 25 
C 24.796875 25 17.703125 24.203125 12.09375 21.203125 
C 5.796875 17.703125 4 12.703125 4 8.90625 
C 4 1.203125 13 -1 18.296875 -1 
C 23.796875 -1 28.90625 2.171875 31.09375 7.984375 
C 31.296875 3.640625 34.09375 -0.28125 38.5 -0.28125 
C 40.59375 -0.28125 45.90625 1.09375 45.90625 8.859375 
L 45.90625 14.375 
L 44.09375 14.375 
L 44.09375 8.78125 
C 44.09375 2.78125 41.40625 2 40.09375 2 
C 36 2 36 7.15625 36 11.53125 
z
M 30.703125 13.59375 
C 30.703125 4.953125 24.5 0.59375 19 0.59375 
C 14 0.59375 10.09375 4.296875 10.09375 8.90625 
C 10.09375 11.890625 11.40625 17.1875 17.203125 20.390625 
C 22 23.09375 27.5 23.5 30.703125 23.5 
z
" id="CMR17-97"/>
      <path d="M 43.09375 21.1875 
C 43.09375 34 33.796875 44 22.90625 44 
C 12 44 2.703125 34 2.703125 21.1875 
C 2.703125 8.609375 12 -1 22.90625 -1 
C 33.796875 -1 43.09375 8.609375 43.09375 21.1875 
z
M 22.90625 0.796875 
C 18.203125 0.796875 14.203125 3.59375 11.90625 7.5 
C 9.40625 11.984375 9.09375 17.59375 9.09375 22 
C 9.09375 26.203125 9.296875 31.40625 11.90625 35.90625 
C 13.90625 39.203125 17.796875 42.40625 22.90625 42.40625 
C 27.40625 42.40625 31.203125 39.90625 33.59375 36.40625 
C 36.703125 31.703125 36.703125 25.109375 36.703125 22 
C 36.703125 18.09375 36.5 12.109375 33.796875 7.296875 
C 31 2.703125 26.703125 0.796875 22.90625 0.796875 
z
" id="CMR17-111"/>
      <path d="M 41.5 30.203125 
C 41.5 35.296875 40.5 43.59375 28.703125 43.59375 
C 20.796875 43.59375 16.703125 37.5 15.203125 33.5 
L 15.09375 33.5 
L 15.09375 43.59375 
L 3.296875 42.5 
L 3.296875 39.90625 
C 9.203125 39.90625 10.09375 39.296875 10.09375 34.5 
L 10.09375 6.6875 
C 10.09375 2.875 9.703125 2.390625 3.296875 2.390625 
L 3.296875 -0.203125 
C 5.703125 0 10.09375 0 12.703125 0 
C 15.296875 0 19.796875 0 22.203125 -0.203125 
L 22.203125 2.390625 
C 15.796875 2.390625 15.40625 2.78125 15.40625 6.6875 
L 15.40625 25.90625 
C 15.40625 35.109375 21 42 28 42 
C 35.40625 42 36.203125 35.40625 36.203125 30.59375 
L 36.203125 6.6875 
C 36.203125 2.875 35.796875 2.390625 29.40625 2.390625 
L 29.40625 -0.203125 
C 31.796875 0 36.203125 0 38.796875 0 
C 41.40625 0 45.90625 0 48.296875 -0.203125 
L 48.296875 2.390625 
C 41.90625 2.390625 41.5 2.78125 41.5 6.6875 
z
" id="CMR17-110"/>
      <path d="M 26.296875 24.703125 
C 26.296875 31.875 25.59375 44.015625 19.59375 56.859375 
C 14.796875 67.234375 6.59375 74.5 5.40625 74.5 
C 5.09375 74.5 4.703125 74.390625 4.703125 73.890625 
C 4.703125 73.703125 4.796875 73.59375 4.90625 73.390625 
C 9.703125 68.40625 21.90625 55.75 21.90625 24.75 
C 21.90625 -6.359375 9.796875 -19.015625 4.90625 -24.015625 
C 4.796875 -24.203125 4.703125 -24.3125 4.703125 -24.5 
C 4.703125 -25 5.09375 -25 5.40625 -25 
C 6.5 -25 15 -17.625 19.90625 -6.65625 
C 24.90625 4.390625 26.296875 15.140625 26.296875 24.703125 
z
" id="CMR17-41"/>
     </defs>
     <g transform="translate(96.159619 123.447657)scale(0.1 -0.1)">
      <use transform="scale(0.996264)" xlink:href="#CMMI12-107"/>
      <use transform="translate(84.155167 0)scale(0.996264)" xlink:href="#CMR17-40"/>
      <use transform="translate(119.435935 0)scale(0.996264)" xlink:href="#CMR17-105"/>
      <use transform="translate(144.306993 0)scale(0.996264)" xlink:href="#CMR17-116"/>
      <use transform="translate(179.587761 0)scale(0.996264)" xlink:href="#CMR17-101"/>
      <use transform="translate(220.073422 0)scale(0.996264)" xlink:href="#CMR17-114"/>
      <use transform="translate(255.354189 0)scale(0.996264)" xlink:href="#CMR17-97"/>
      <use transform="translate(301.044666 0)scale(0.996264)" xlink:href="#CMR17-116"/>
      <use transform="translate(336.325434 0)scale(0.996264)" xlink:href="#CMR17-105"/>
      <use transform="translate(361.196493 0)scale(0.996264)" xlink:href="#CMR17-111"/>
      <use transform="translate(406.88697 0)scale(0.996264)" xlink:href="#CMR17-110"/>
      <use transform="translate(457.78234 0)scale(0.996264)" xlink:href="#CMR17-41"/>
     </g>
    </g>
   </g>
   <g id="matplotlib.axis_2">
    <g id="ytick_1">
     <g id="line2d_13">
      <path clip-path="url(#p038f352205)" d="M 30 92.386935 
L 216 92.386935 
" style="fill:none;stroke:#b0b0b0;stroke-linecap:square;stroke-width:0.8;"/>
     </g>
     <g id="line2d_14">
      <defs>
       <path d="M 0 0 
L -3.5 0 
" id="m88001ccfd2" style="stroke:#000000;stroke-width:0.8;"/>
      </defs>
      <g>
       <use style="stroke:#000000;stroke-width:0.8;" x="30" xlink:href="#m88001ccfd2" y="92.386935"/>
      </g>
     </g>
     <g id="text_8">
      <!-- $0$ -->
      <g transform="translate(18.018665 95.846185)scale(0.1 -0.1)">
       <use transform="scale(0.996264)" xlink:href="#CMR17-48"/>
      </g>
     </g>
    </g>
    <g id="ytick_2">
     <g id="line2d_15">
      <path clip-path="url(#p038f352205)" d="M 30 66.682914 
L 216 66.682914 
" style="fill:none;stroke:#b0b0b0;stroke-linecap:square;stroke-width:0.8;"/>
     </g>
     <g id="line2d_16">
      <g>
       <use style="stroke:#000000;stroke-width:0.8;" x="30" xlink:href="#m88001ccfd2" y="66.682914"/>
      </g>
     </g>
     <g id="text_9">
      <!-- $5$ -->
      <g transform="translate(18.018665 70.142163)scale(0.1 -0.1)">
       <use transform="scale(0.996264)" xlink:href="#CMR17-53"/>
      </g>
     </g>
    </g>
    <g id="ytick_3">
     <g id="line2d_17">
      <path clip-path="url(#p038f352205)" d="M 30 40.978893 
L 216 40.978893 
" style="fill:none;stroke:#b0b0b0;stroke-linecap:square;stroke-width:0.8;"/>
     </g>
     <g id="line2d_18">
      <g>
       <use style="stroke:#000000;stroke-width:0.8;" x="30" xlink:href="#m88001ccfd2" y="40.978893"/>
      </g>
     </g>
     <g id="text_10">
      <!-- $10$ -->
      <g transform="translate(13.037329 44.438142)scale(0.1 -0.1)">
       <use transform="scale(0.996264)" xlink:href="#CMR17-49"/>
       <use transform="translate(45.690477 0)scale(0.996264)" xlink:href="#CMR17-48"/>
      </g>
     </g>
    </g>
    <g id="ytick_4">
     <g id="line2d_19">
      <path clip-path="url(#p038f352205)" d="M 30 15.274872 
L 216 15.274872 
" style="fill:none;stroke:#b0b0b0;stroke-linecap:square;stroke-width:0.8;"/>
     </g>
     <g id="line2d_20">
      <g>
       <use style="stroke:#000000;stroke-width:0.8;" x="30" xlink:href="#m88001ccfd2" y="15.274872"/>
      </g>
     </g>
     <g id="text_11">
      <!-- $15$ -->
      <g transform="translate(13.037329 18.734121)scale(0.1 -0.1)">
       <use transform="scale(0.996264)" xlink:href="#CMR17-49"/>
       <use transform="translate(45.690477 0)scale(0.996264)" xlink:href="#CMR17-53"/>
      </g>
     </g>
    </g>
    <g id="text_12">
     <!-- $F$ (N) -->
     <defs>
      <path d="M 29.703125 32.109375 
L 39.296875 32.109375 
C 46.90625 32.109375 47.5 30.40625 47.5 27.515625 
C 47.5 26.21875 47.296875 24.828125 46.796875 22.625 
C 46.59375 22.234375 46.5 21.734375 46.5 21.53125 
C 46.5 20.828125 46.90625 20.4375 47.59375 20.4375 
C 48.40625 20.4375 48.5 20.828125 48.90625 22.421875 
L 54.703125 45.859375 
C 54.703125 46.265625 54.40625 46.859375 53.703125 46.859375 
C 52.796875 46.859375 52.703125 46.46875 52.296875 44.734375 
C 50.203125 37.125 48.203125 35 39.5 35 
L 30.40625 35 
L 36.90625 61.34375 
C 37.796875 64.90625 38 64.90625 42.09375 64.90625 
L 55.5 64.90625 
C 68 64.90625 69.796875 61.21875 69.796875 54.125 
C 69.796875 53.53125 69.796875 51.328125 69.5 48.734375 
C 69.40625 48.34375 69.203125 47.046875 69.203125 46.640625 
C 69.203125 45.84375 69.703125 45.546875 70.296875 45.546875 
C 71 45.546875 71.40625 45.953125 71.59375 47.734375 
L 73.703125 65.21875 
C 73.703125 65.546875 73.90625 66.609375 73.90625 66.828125 
C 73.90625 68 73 68 71.203125 68 
L 23.796875 68 
C 21.90625 68 20.90625 68 20.90625 66.078125 
C 20.90625 64.90625 21.59375 64.90625 23.296875 64.90625 
C 29.5 64.90625 29.5 64.265625 29.5 63.28125 
C 29.5 62.78125 29.40625 62.375 29.09375 61.28125 
L 15.59375 7.390625 
C 14.703125 3.890625 14.5 2.890625 7.5 2.890625 
C 5.59375 2.890625 4.59375 2.890625 4.59375 1.09375 
C 4.59375 0 5.5 0 6.09375 0 
C 8 0 10 0 11.90625 0 
L 24.90625 0 
C 27.09375 0 29.5 0 31.703125 0 
C 32.59375 0 33.796875 0 33.796875 1.796875 
C 33.796875 2.890625 33.203125 2.890625 31 2.890625 
C 23.09375 2.890625 22.90625 3.578125 22.90625 5.0625 
C 22.90625 5.5625 23.09375 6.34375 23.296875 7.015625 
z
" id="CMMI12-70"/>
      <path d="M 20.5 66.40625 
C 19.796875 67.5 19.703125 67.5 17.796875 67.5 
L 5.09375 67.5 
L 5.09375 65 
L 7 65 
C 11 65 12.796875 64.515625 13.09375 64.40625 
L 13.09375 9.53125 
C 13.09375 7.046875 13.09375 2.390625 5.09375 2.390625 
L 5.09375 -0.203125 
C 7.40625 0 11.59375 0 14.09375 0 
C 16.59375 0 20.796875 0 23.09375 -0.203125 
L 23.09375 2.390625 
C 15.09375 2.390625 15.09375 7.046875 15.09375 9.53125 
L 15.09375 63.015625 
C 15.796875 62.421875 15.796875 62.21875 16.5 61.234375 
L 53.59375 1.1875 
C 54.296875 0 54.59375 0 55.09375 0 
C 56.09375 0 56.09375 0.296875 56.09375 2.171875 
L 56.09375 57.890625 
C 56.09375 60.359375 56.09375 65 64.09375 65 
L 64.09375 67.59375 
C 61.796875 67.5 57.59375 67.5 55.09375 67.5 
C 52.59375 67.5 48.40625 67.5 46.09375 67.59375 
L 46.09375 65 
C 54.09375 65 54.09375 60.34375 54.09375 57.859375 
L 54.09375 11.921875 
z
" id="CMR17-78"/>
     </defs>
     <g transform="translate(6.546669 67.705929)rotate(-90)scale(0.1 -0.1)">
      <use transform="scale(0.996264)" xlink:href="#CMMI12-70"/>
      <use transform="translate(106.772759 0)scale(0.996264)" xlink:href="#CMR17-40"/>
      <use transform="translate(142.053527 0)scale(0.996264)" xlink:href="#CMR17-78"/>
      <use transform="translate(211.125956 0)scale(0.996264)" xlink:href="#CMR17-41"/>
     </g>
    </g>
   </g>
   <g id="line2d_21">
    <path clip-path="url(#p038f352205)" d="M 38.454545 23.727751 
L 38.793405 23.727751 
L 38.793405 92.183291 
L 39.132265 92.183291 
L 39.132265 16.889904 
L 39.471124 16.889904 
L 39.471124 25.32005 
L 39.809984 25.32005 
L 39.809984 82.767932 
L 40.148843 82.767932 
L 40.148843 17.451208 
L 40.487703 17.451208 
L 40.487703 18.227877 
L 40.826562 18.227877 
L 40.826562 59.944642 
L 41.165422 59.944642 
L 41.165422 22.088569 
L 41.504281 22.088569 
L 41.504281 74.64997 
L 41.843141 74.64997 
L 41.843141 40.07173 
L 42.182 40.07173 
L 42.182 65.213898 
L 42.52086 65.213898 
L 42.52086 58.470902 
L 42.859719 58.470902 
L 42.859719 54.824529 
L 43.198579 54.824529 
L 43.198579 55.792153 
L 43.537439 55.792153 
L 43.537439 52.861124 
L 43.876298 52.861124 
L 43.876298 38.602719 
L 44.215158 38.602719 
L 44.215158 36.881025 
L 44.554017 36.881025 
L 44.554017 36.275268 
L 44.892877 36.275268 
L 44.892877 35.937318 
L 45.231736 35.937318 
L 45.231736 34.087587 
L 45.570596 34.087587 
L 45.570596 27.624189 
L 45.909455 27.624189 
L 45.909455 25.817301 
L 46.248315 25.817301 
L 46.248315 25.231655 
L 46.587174 25.231655 
L 46.587174 24.008355 
L 46.926034 24.008355 
L 46.926034 21.836298 
L 47.264893 21.836298 
L 47.264893 19.895985 
L 47.603753 19.895985 
L 47.603753 18.712533 
L 47.942612 18.712533 
L 47.942612 16.956457 
L 48.281472 16.956457 
L 48.281472 16.765504 
L 55.736382 16.815707 
L 55.736382 17.034326 
L 56.075241 17.034326 
L 56.075241 17.640897 
L 56.414101 17.640897 
L 56.414101 19.736639 
L 56.75296 19.736639 
L 56.75296 24.582632 
L 57.09182 24.582632 
L 57.09182 33.939497 
L 57.43068 33.939497 
L 57.43068 44.20073 
L 57.769539 44.20073 
L 57.769539 53.015776 
L 58.108399 53.015776 
L 58.108399 57.834032 
L 58.447258 57.834032 
L 58.447258 63.171377 
L 58.786118 63.171377 
L 58.786118 68.485022 
L 59.124977 68.485022 
L 59.124977 70.864318 
L 59.463837 70.864318 
L 59.463837 72.020848 
L 59.802696 72.020848 
L 59.802696 72.610163 
L 60.141556 72.610163 
L 60.141556 72.906082 
L 60.480415 72.906082 
L 60.480415 73.044551 
L 61.158134 73.095328 
L 61.158134 72.519883 
L 61.496994 72.519883 
L 61.496994 71.522294 
L 61.835854 71.522294 
L 61.835854 70.930183 
L 62.174713 70.930183 
L 62.174713 70.570166 
L 62.513573 70.570166 
L 62.513573 74.958389 
L 62.852432 74.958389 
L 62.852432 75.631681 
L 63.191292 75.631681 
L 63.191292 75.80743 
L 63.530151 75.80743 
L 63.530151 79.016979 
L 63.869011 79.016979 
L 63.869011 80.667569 
L 64.20787 80.667569 
L 64.20787 82.138641 
L 64.54673 82.138641 
L 64.54673 81.821331 
L 64.885589 81.821331 
L 64.885589 81.94032 
L 65.224449 81.94032 
L 65.224449 81.52469 
L 65.563308 81.52469 
L 65.563308 81.77302 
L 65.902168 81.77302 
L 65.902168 81.191009 
L 66.579887 81.162193 
L 66.579887 79.93743 
L 66.918747 79.93743 
L 66.918747 82.111719 
L 67.257606 82.111719 
L 67.257606 82.999624 
L 67.596466 82.999624 
L 67.596466 83.491208 
L 67.935325 83.491208 
L 67.935325 83.748714 
L 68.274185 83.748714 
L 68.274185 83.872626 
L 68.951904 83.912302 
L 68.951904 85.966791 
L 69.290763 85.966791 
L 69.290763 86.874774 
L 69.629623 86.874774 
L 69.629623 87.395542 
L 69.968482 87.395542 
L 69.968482 88.070907 
L 70.307342 88.070907 
L 70.307342 88.878781 
L 70.646201 88.878781 
L 70.646201 89.448509 
L 70.985061 89.448509 
L 70.985061 89.851639 
L 71.323921 89.851639 
L 71.323921 90.325792 
L 71.66278 90.325792 
L 71.66278 90.898585 
L 72.00164 90.898585 
L 72.00164 91.244908 
L 72.340499 91.244908 
L 72.340499 91.540149 
L 72.679359 91.540149 
L 72.679359 91.652579 
L 73.018218 91.652579 
L 73.018218 91.386395 
L 73.357078 91.386395 
L 73.357078 90.924031 
L 73.695937 90.924031 
L 73.695937 90.266186 
L 74.034797 90.266186 
L 74.034797 89.364359 
L 74.373656 89.364359 
L 74.373656 88.24429 
L 74.712516 88.24429 
L 74.712516 87.015324 
L 75.051375 87.015324 
L 75.051375 85.835081 
L 75.390235 85.835081 
L 75.390235 84.819476 
L 75.729095 84.819476 
L 75.729095 83.998136 
L 76.067954 83.998136 
L 76.067954 82.177704 
L 76.406814 82.177704 
L 76.406814 82.4702 
L 76.745673 82.4702 
L 76.745673 82.748622 
L 77.423392 82.671382 
L 77.423392 82.532043 
L 77.762252 82.532043 
L 77.762252 82.411656 
L 78.101111 82.411656 
L 78.101111 82.26917 
L 78.439971 82.26917 
L 78.439971 82.10006 
L 78.77883 82.10006 
L 78.77883 81.907749 
L 79.11769 81.907749 
L 79.11769 80.738972 
L 79.456549 80.738972 
L 79.456549 79.340978 
L 79.795409 79.340978 
L 79.795409 78.302881 
L 80.134269 78.302881 
L 80.134269 77.55103 
L 80.473128 77.55103 
L 80.473128 77.013243 
L 80.811988 77.013243 
L 80.811988 76.825722 
L 81.150847 76.825722 
L 81.150847 77.211513 
L 81.489707 77.211513 
L 81.489707 77.642193 
L 81.828566 77.642193 
L 81.828566 77.948627 
L 82.167426 77.948627 
L 82.167426 78.136281 
L 83.522864 78.205818 
L 83.522864 78.447135 
L 83.861723 78.447135 
L 83.861723 79.128021 
L 84.200583 79.128021 
L 84.200583 79.90951 
L 84.539443 79.90951 
L 84.539443 80.628155 
L 84.878302 80.628155 
L 84.878302 81.274342 
L 85.217162 81.274342 
L 85.217162 81.855581 
L 85.556021 81.855581 
L 85.556021 82.380504 
L 85.894881 82.380504 
L 85.894881 83.080248 
L 86.23374 83.080248 
L 86.23374 83.833554 
L 86.5726 83.833554 
L 86.5726 84.189208 
L 86.911459 84.189208 
L 86.911459 84.326174 
L 87.250319 84.326174 
L 87.250319 81.591197 
L 87.589178 81.591197 
L 87.589178 79.477659 
L 87.928038 79.477659 
L 87.928038 78.793726 
L 88.266897 78.793726 
L 88.266897 79.333689 
L 88.944617 79.250032 
L 88.944617 75.360354 
L 89.283476 75.360354 
L 89.283476 73.656534 
L 89.622336 73.656534 
L 89.622336 73.938463 
L 89.961195 73.938463 
L 89.961195 73.546791 
L 90.300055 73.546791 
L 90.300055 73.216949 
L 90.638914 73.216949 
L 90.638914 72.870007 
L 90.977774 72.870007 
L 90.977774 72.534381 
L 91.316633 72.534381 
L 91.316633 71.804341 
L 91.655493 71.804341 
L 91.655493 71.461932 
L 91.994352 71.461932 
L 91.994352 71.156276 
L 92.333212 71.156276 
L 92.333212 70.816108 
L 92.672071 70.816108 
L 92.672071 70.486976 
L 93.010931 70.486976 
L 93.010931 70.169017 
L 93.34979 70.169017 
L 93.34979 69.862348 
L 93.68865 69.862348 
L 93.68865 69.56688 
L 94.02751 69.56688 
L 94.02751 69.282056 
L 94.366369 69.282056 
L 94.366369 69.007902 
L 94.705229 69.007902 
L 94.705229 68.744896 
L 95.044088 68.744896 
L 95.044088 68.49205 
L 95.382948 68.49205 
L 95.382948 68.249454 
L 95.721807 68.249454 
L 95.721807 68.017316 
L 96.060667 68.017316 
L 96.060667 67.438001 
L 96.399526 67.438001 
L 96.399526 66.358712 
L 96.738386 66.358712 
L 96.738386 65.974209 
L 97.077245 65.974209 
L 97.077245 65.811982 
L 97.416105 65.811982 
L 97.416105 63.447889 
L 97.754964 63.447889 
L 97.754964 62.881029 
L 98.771543 62.869761 
L 98.771543 64.020046 
L 99.110403 64.020046 
L 99.110403 64.697685 
L 99.788122 64.610683 
L 99.788122 64.569197 
L 100.126981 64.569197 
L 100.126981 64.322851 
L 100.465841 64.322851 
L 100.465841 64.685372 
L 100.8047 64.685372 
L 100.8047 65.373864 
L 101.14356 65.373864 
L 101.14356 64.815825 
L 101.482419 64.815825 
L 101.482419 63.305278 
L 101.821279 63.305278 
L 101.821279 62.207204 
L 102.160138 62.207204 
L 102.160138 61.948334 
L 102.837858 62.015064 
L 102.837858 61.678463 
L 103.176717 61.678463 
L 103.176717 61.175634 
L 103.515577 61.175634 
L 103.515577 62.012578 
L 103.854436 62.012578 
L 103.854436 61.587749 
L 104.193296 61.587749 
L 104.193296 59.752803 
L 104.532155 59.752803 
L 104.532155 58.039363 
L 105.209874 57.971942 
L 105.209874 58.502585 
L 105.548734 58.502585 
L 105.548734 59.211173 
L 105.887593 59.211173 
L 105.887593 60.199776 
L 106.226453 60.199776 
L 106.226453 61.734769 
L 106.565312 61.734769 
L 106.565312 63.493457 
L 106.904172 63.493457 
L 106.904172 64.953994 
L 107.243032 64.953994 
L 107.243032 67.22993 
L 107.581891 67.22993 
L 107.581891 68.829318 
L 107.920751 68.829318 
L 107.920751 70.030759 
L 108.25961 70.030759 
L 108.25961 70.931744 
L 108.59847 70.931744 
L 108.59847 71.949612 
L 108.937329 71.949612 
L 108.937329 72.771597 
L 109.276189 72.771597 
L 109.276189 73.414753 
L 109.615048 73.414753 
L 109.615048 73.895457 
L 109.953908 73.895457 
L 109.953908 74.192792 
L 110.292767 74.192792 
L 110.292767 73.958514 
L 110.631627 73.958514 
L 110.631627 73.793438 
L 110.970486 73.793438 
L 110.970486 68.943746 
L 111.309346 68.943746 
L 111.309346 66.08391 
L 111.648206 66.08391 
L 111.648206 65.15929 
L 112.664784 65.220521 
L 112.664784 65.796399 
L 113.003644 65.796399 
L 113.003644 66.507823 
L 113.342503 66.507823 
L 113.342503 66.974249 
L 113.681363 66.974249 
L 113.681363 67.29741 
L 114.020222 67.29741 
L 114.020222 67.536846 
L 114.359082 67.536846 
L 114.359082 67.725738 
L 114.697941 67.725738 
L 114.697941 68.289036 
L 115.036801 68.289036 
L 115.036801 68.590605 
L 115.37566 68.590605 
L 115.37566 68.271295 
L 115.71452 68.271295 
L 115.71452 67.829127 
L 116.053379 67.829127 
L 116.053379 67.501392 
L 116.392239 67.501392 
L 116.392239 67.328611 
L 117.408818 67.34617 
L 117.408818 67.12894 
L 117.747677 67.12894 
L 117.747677 67.299332 
L 118.086537 67.299332 
L 118.086537 67.681016 
L 118.425396 67.681016 
L 118.425396 68.756369 
L 118.764256 68.756369 
L 118.764256 69.798033 
L 119.103115 69.798033 
L 119.103115 70.563751 
L 119.441975 70.563751 
L 119.441975 70.964146 
L 120.119694 70.891065 
L 120.119694 70.720337 
L 120.797413 70.616408 
L 120.797413 70.542229 
L 121.475132 70.478009 
L 121.475132 70.412235 
L 122.491711 70.458656 
L 122.491711 69.482241 
L 122.83057 69.482241 
L 122.83057 68.500551 
L 123.16943 68.500551 
L 123.16943 67.949162 
L 123.508289 67.949162 
L 123.508289 67.657032 
L 123.847149 67.657032 
L 123.847149 66.68827 
L 124.186008 66.68827 
L 124.186008 66.371797 
L 124.524868 66.371797 
L 124.524868 66.5265 
L 124.863727 66.5265 
L 124.863727 67.363348 
L 125.202587 67.363348 
L 125.202587 68.414779 
L 125.541447 68.414779 
L 125.541447 69.258055 
L 125.880306 69.258055 
L 125.880306 69.862606 
L 126.219166 69.862606 
L 126.219166 70.288421 
L 126.558025 70.288421 
L 126.558025 70.568078 
L 126.896885 70.568078 
L 126.896885 70.228802 
L 127.235744 70.228802 
L 127.235744 69.976298 
L 127.574604 69.976298 
L 127.574604 69.775692 
L 127.913463 69.775692 
L 127.913463 69.066496 
L 128.252323 69.066496 
L 128.252323 67.822636 
L 128.591182 67.822636 
L 128.591182 66.747553 
L 128.930042 66.747553 
L 128.930042 65.835682 
L 129.268901 65.835682 
L 129.268901 65.179888 
L 129.607761 65.179888 
L 129.607761 66.066862 
L 129.946621 66.066862 
L 129.946621 67.04458 
L 130.28548 67.04458 
L 130.28548 67.779763 
L 130.62434 67.779763 
L 130.62434 68.000196 
L 130.963199 68.000196 
L 130.963199 67.600031 
L 131.302059 67.600031 
L 131.302059 66.877858 
L 131.640918 66.877858 
L 131.640918 65.968134 
L 131.979778 65.968134 
L 131.979778 64.964924 
L 132.318637 64.964924 
L 132.318637 63.45715 
L 132.657497 63.45715 
L 132.657497 61.458652 
L 132.996356 61.458652 
L 132.996356 59.577583 
L 133.335216 59.577583 
L 133.335216 59.417494 
L 133.674075 59.417494 
L 133.674075 60.877126 
L 134.012935 60.877126 
L 134.012935 63.17803 
L 134.351794 63.17803 
L 134.351794 65.291951 
L 134.690654 65.291951 
L 134.690654 66.794587 
L 135.029514 66.794587 
L 135.029514 68.207105 
L 135.368373 68.207105 
L 135.368373 69.423649 
L 135.707233 69.423649 
L 135.707233 70.93674 
L 136.046092 70.93674 
L 136.046092 72.300334 
L 136.384952 72.300334 
L 136.384952 73.134071 
L 136.723811 73.134071 
L 136.723811 73.629296 
L 137.062671 73.629296 
L 137.062671 73.955545 
L 137.40153 73.955545 
L 137.40153 74.147607 
L 139.095828 74.090992 
L 139.095828 73.963348 
L 139.773547 73.977194 
L 139.773547 74.178361 
L 140.112407 74.178361 
L 140.112407 74.409595 
L 140.451266 74.409595 
L 140.451266 74.634191 
L 140.790126 74.634191 
L 140.790126 74.864408 
L 141.128985 74.864408 
L 141.128985 74.98992 
L 141.806704 75.075192 
L 141.806704 75.145748 
L 142.484423 75.146244 
L 142.484423 74.852359 
L 143.501002 74.882075 
L 143.501002 75.056142 
L 143.839862 75.056142 
L 143.839862 75.475575 
L 144.517581 75.421245 
L 144.517581 75.180719 
L 144.85644 75.180719 
L 144.85644 74.803685 
L 145.1953 74.803685 
L 145.1953 74.334415 
L 145.534159 74.334415 
L 145.534159 73.813805 
L 145.873019 73.813805 
L 145.873019 73.278491 
L 146.211878 73.278491 
L 146.211878 72.758849 
L 146.550738 72.758849 
L 146.550738 72.27727 
L 146.889597 72.27727 
L 146.889597 71.847201 
L 147.228457 71.847201 
L 147.228457 71.47435 
L 147.567316 71.47435 
L 147.567316 71.158007 
L 147.906176 71.158007 
L 147.906176 70.892989 
L 148.245036 70.892989 
L 148.245036 70.671151 
L 148.583895 70.671151 
L 148.583895 70.484186 
L 148.922755 70.484186 
L 148.922755 70.323271 
L 149.261614 70.323271 
L 149.261614 70.180516 
L 149.600474 70.180516 
L 149.600474 70.049904 
L 149.939333 70.049904 
L 149.939333 69.926112 
L 150.278193 69.926112 
L 150.278193 69.805524 
L 150.617052 69.805524 
L 150.617052 69.685505 
L 150.955912 69.685505 
L 150.955912 69.564243 
L 151.294771 69.564243 
L 151.294771 69.440774 
L 151.633631 69.440774 
L 151.633631 69.314791 
L 151.97249 69.314791 
L 151.97249 69.186331 
L 152.31135 69.186331 
L 152.31135 69.05508 
L 152.65021 69.05508 
L 152.65021 68.92198 
L 152.989069 68.92198 
L 152.989069 68.786851 
L 153.327929 68.786851 
L 153.327929 68.650513 
L 153.666788 68.650513 
L 153.666788 68.513089 
L 154.005648 68.513089 
L 154.005648 68.375283 
L 154.344507 68.375283 
L 154.344507 68.236964 
L 154.683367 68.236964 
L 154.683367 68.098771 
L 155.022226 68.098771 
L 155.022226 67.96083 
L 155.361086 67.96083 
L 155.361086 67.823117 
L 155.699945 67.823117 
L 155.699945 67.68611 
L 156.038805 67.68611 
L 156.038805 67.54986 
L 156.377664 67.54986 
L 156.377664 67.414309 
L 156.716524 67.414309 
L 156.716524 67.279883 
L 157.055383 67.279883 
L 157.055383 67.146433 
L 157.394243 67.146433 
L 157.394243 67.014054 
L 157.733103 67.014054 
L 157.733103 66.726754 
L 158.071962 66.726754 
L 158.071962 66.561007 
L 159.4274 66.624744 
L 159.4274 66.706288 
L 160.105119 66.782249 
L 160.105119 66.842552 
L 162.477136 66.760793 
L 162.477136 66.686871 
L 162.815996 66.686871 
L 162.815996 66.539894 
L 163.154855 66.539894 
L 163.154855 66.4278 
L 163.832574 66.345119 
L 163.832574 66.281671 
L 164.849153 66.18578 
L 164.849153 66.144245 
L 165.865731 66.060964 
L 165.865731 66.017401 
L 166.88231 65.924682 
L 166.88231 65.87629 
L 167.898889 65.777181 
L 167.898889 65.727865 
L 168.915467 65.631192 
L 168.915467 65.584784 
L 169.932046 65.688739 
L 169.932046 65.960601 
L 170.270905 65.960601 
L 170.270905 66.22672 
L 170.609765 66.22672 
L 170.609765 66.476405 
L 170.948625 66.476405 
L 170.948625 66.68487 
L 171.287484 66.68487 
L 171.287484 66.816693 
L 171.965203 66.892924 
L 171.965203 66.928809 
L 173.659501 66.842503 
L 173.659501 66.789005 
L 174.33722 66.728921 
L 174.33722 66.663855 
L 175.692658 66.622053 
L 175.692658 66.466854 
L 176.031518 66.466854 
L 176.031518 66.216206 
L 176.370377 66.216206 
L 176.370377 65.769432 
L 176.709237 65.769432 
L 176.709237 65.37799 
L 177.048096 65.37799 
L 177.048096 65.169335 
L 178.064675 65.151088 
L 178.064675 65.012686 
L 178.403534 65.012686 
L 178.403534 64.895123 
L 179.081253 64.796324 
L 179.081253 64.748229 
L 179.420113 64.748229 
L 179.420113 64.915236 
L 179.758972 64.915236 
L 179.758972 65.301177 
L 180.097832 65.301177 
L 180.097832 65.698682 
L 180.436692 65.698682 
L 180.436692 66.039063 
L 180.775551 66.039063 
L 180.775551 66.308413 
L 181.114411 66.308413 
L 181.114411 66.512711 
L 181.45327 66.512711 
L 181.45327 66.663764 
L 182.130989 66.773425 
L 182.130989 66.852053 
L 183.147568 66.946478 
L 183.147568 66.973281 
L 186.536163 67.060811 
L 186.536163 67.164401 
L 187.213882 67.254782 
L 187.213882 67.32439 
L 189.585899 67.433824 
L 189.585899 67.543876 
L 189.924759 67.543876 
L 189.924759 67.72513 
L 190.263618 67.72513 
L 190.263618 67.898137 
L 190.602478 67.898137 
L 190.602478 68.040777 
L 191.619056 68.140343 
L 191.619056 68.16255 
L 193.652214 68.142723 
L 193.652214 68.035524 
L 194.329933 67.932507 
L 194.329933 67.847419 
L 195.007652 67.780993 
L 195.007652 67.73028 
L 196.36309 67.640231 
L 196.36309 67.574207 
L 205.851157 67.473541 
L 205.851157 67.446203 
L 207.545455 67.352293 
L 207.545455 67.330854 
L 207.545455 67.330854 
" style="fill:none;stroke:#1f77b4;stroke-linecap:square;stroke-width:1.5;"/>
   </g>
   <g id="line2d_22">
    <path clip-path="url(#p038f352205)" d="M 38.454545 16.74 
L 41.165422 16.74 
L 41.165422 17.077239 
L 48.281472 16.993119 
L 48.281472 16.949829 
L 48.959191 16.915922 
L 48.959191 22.634411 
L 49.298051 22.634411 
L 49.298051 90.287261 
L 49.63691 90.287261 
L 49.63691 16.884329 
L 49.97577 16.884329 
L 49.97577 70.893818 
L 50.314629 70.893818 
L 50.314629 16.983167 
L 50.653489 16.983167 
L 50.653489 92.34 
L 50.992348 92.34 
L 50.992348 26.522754 
L 51.331208 26.522754 
L 51.331208 92.303669 
L 51.670067 92.303669 
L 51.670067 81.515082 
L 52.008927 81.515082 
L 52.008927 67.573356 
L 52.347786 67.573356 
L 52.347786 69.372321 
L 52.686646 69.372321 
L 52.686646 55.302302 
L 53.025506 55.302302 
L 53.025506 44.596374 
L 53.364365 44.596374 
L 53.364365 55.022226 
L 53.703225 55.022226 
L 53.703225 42.239105 
L 54.042084 42.239105 
L 54.042084 58.929091 
L 54.380944 58.929091 
L 54.380944 36.32704 
L 54.719803 36.32704 
L 54.719803 62.51185 
L 55.058663 62.51185 
L 55.058663 36.576938 
L 55.397522 36.576938 
L 55.397522 65.88414 
L 55.736382 65.88414 
L 55.736382 37.03009 
L 56.075241 37.03009 
L 56.075241 60.659047 
L 56.414101 60.659047 
L 56.414101 42.67976 
L 56.75296 42.67976 
L 56.75296 55.635884 
L 57.09182 55.635884 
L 57.09182 49.845939 
L 57.43068 49.845939 
L 57.43068 61.545674 
L 57.769539 61.545674 
L 57.769539 59.721137 
L 58.108399 59.721137 
L 58.108399 67.61106 
L 58.447258 67.61106 
L 58.447258 74.362722 
L 58.786118 74.362722 
L 58.786118 81.321286 
L 59.124977 81.321286 
L 59.124977 78.875777 
L 59.463837 78.875777 
L 59.463837 79.667398 
L 59.802696 79.667398 
L 59.802696 79.18224 
L 60.141556 79.18224 
L 60.141556 79.069901 
L 60.480415 79.069901 
L 60.480415 78.773819 
L 60.819275 78.773819 
L 60.819275 78.521013 
L 61.158134 78.521013 
L 61.158134 77.811108 
L 61.496994 77.811108 
L 61.496994 77.091978 
L 61.835854 77.091978 
L 61.835854 76.733637 
L 62.174713 76.733637 
L 62.174713 76.273428 
L 62.513573 76.273428 
L 62.513573 74.453923 
L 63.191292 74.36638 
L 63.191292 76.182801 
L 63.530151 76.182801 
L 63.530151 79.314888 
L 63.869011 79.314888 
L 63.869011 79.458984 
L 64.20787 79.458984 
L 64.20787 77.690061 
L 64.54673 77.690061 
L 64.54673 77.954821 
L 64.885589 77.954821 
L 64.885589 77.501646 
L 65.224449 77.501646 
L 65.224449 77.919751 
L 65.563308 77.919751 
L 65.563308 77.258814 
L 65.902168 77.258814 
L 65.902168 77.927624 
L 66.241028 77.927624 
L 66.241028 79.000923 
L 66.579887 79.000923 
L 66.579887 83.640414 
L 66.918747 83.640414 
L 66.918747 84.984453 
L 67.257606 84.984453 
L 67.257606 85.598622 
L 67.596466 85.598622 
L 67.596466 85.843422 
L 68.951904 85.739016 
L 68.951904 86.211252 
L 69.290763 86.211252 
L 69.290763 86.697191 
L 69.629623 86.697191 
L 69.629623 86.961474 
L 69.968482 86.961474 
L 69.968482 87.504286 
L 70.307342 87.504286 
L 70.307342 88.211122 
L 70.646201 88.211122 
L 70.646201 88.618405 
L 70.985061 88.618405 
L 70.985061 88.863841 
L 71.323921 88.863841 
L 71.323921 89.253334 
L 71.66278 89.253334 
L 71.66278 89.839077 
L 72.00164 89.839077 
L 72.00164 89.15722 
L 72.340499 89.15722 
L 72.340499 84.40653 
L 72.679359 84.40653 
L 72.679359 77.980355 
L 73.018218 77.980355 
L 73.018218 77.141936 
L 74.034797 77.156023 
L 74.034797 77.006525 
L 74.373656 77.006525 
L 74.373656 76.757214 
L 74.712516 76.757214 
L 74.712516 76.414397 
L 75.051375 76.414397 
L 75.051375 76.016035 
L 75.390235 76.016035 
L 75.390235 75.621337 
L 75.729095 75.621337 
L 75.729095 75.272246 
L 76.067954 75.272246 
L 76.067954 79.961565 
L 76.406814 79.961565 
L 76.406814 81.892761 
L 76.745673 81.892761 
L 76.745673 81.740259 
L 77.084533 81.740259 
L 77.084533 81.912051 
L 77.762252 81.906076 
L 77.762252 81.686425 
L 78.101111 81.686425 
L 78.101111 81.398806 
L 78.439971 81.398806 
L 78.439971 81.081861 
L 78.77883 81.081861 
L 78.77883 80.745875 
L 79.11769 80.745875 
L 79.11769 80.044193 
L 79.456549 80.044193 
L 79.456549 79.144496 
L 79.795409 79.144496 
L 79.795409 78.282817 
L 80.134269 78.282817 
L 80.134269 77.535298 
L 80.473128 77.535298 
L 80.473128 76.898198 
L 80.811988 76.898198 
L 80.811988 78.447802 
L 81.150847 78.447802 
L 81.150847 79.297907 
L 81.489707 79.297907 
L 81.489707 79.56505 
L 82.167426 79.585237 
L 82.167426 79.453492 
L 82.506285 79.453492 
L 82.506285 79.210396 
L 82.845145 79.210396 
L 82.845145 78.880093 
L 83.184004 78.880093 
L 83.184004 78.478187 
L 83.522864 78.478187 
L 83.522864 79.76154 
L 83.861723 79.76154 
L 83.861723 81.472562 
L 84.200583 81.472562 
L 84.200583 82.630216 
L 84.539443 82.630216 
L 84.539443 83.604179 
L 84.878302 83.604179 
L 84.878302 84.458966 
L 85.217162 84.458966 
L 85.217162 85.21918 
L 85.556021 85.21918 
L 85.556021 85.899829 
L 85.894881 85.899829 
L 85.894881 85.657254 
L 86.23374 85.657254 
L 86.23374 84.248617 
L 86.5726 84.248617 
L 86.5726 83.238269 
L 86.911459 83.238269 
L 86.911459 82.540167 
L 87.250319 82.540167 
L 87.250319 78.089416 
L 87.589178 78.089416 
L 87.589178 74.236157 
L 87.928038 74.236157 
L 87.928038 72.137277 
L 88.266897 72.137277 
L 88.266897 75.751489 
L 88.605757 75.751489 
L 88.605757 77.158146 
L 88.944617 77.158146 
L 88.944617 65.669224 
L 89.283476 65.669224 
L 89.283476 55.122677 
L 89.622336 55.122677 
L 89.622336 56.876696 
L 89.961195 56.876696 
L 89.961195 56.610225 
L 90.300055 56.610225 
L 90.300055 56.728254 
L 90.977774 56.779192 
L 90.977774 56.850541 
L 91.316633 56.850541 
L 91.316633 54.83958 
L 91.655493 54.83958 
L 91.655493 54.525087 
L 91.994352 54.525087 
L 91.994352 54.750756 
L 92.333212 54.750756 
L 92.333212 54.924935 
L 92.672071 54.924935 
L 92.672071 55.109241 
L 93.010931 55.109241 
L 93.010931 55.299581 
L 93.34979 55.299581 
L 93.34979 55.496759 
L 93.68865 55.496759 
L 93.68865 55.700442 
L 94.02751 55.700442 
L 94.02751 55.908962 
L 94.366369 55.908962 
L 94.366369 56.123163 
L 94.705229 56.123163 
L 94.705229 56.343351 
L 95.044088 56.343351 
L 95.044088 56.567726 
L 95.382948 56.567726 
L 95.382948 56.796585 
L 95.721807 56.796585 
L 95.721807 57.02935 
L 96.060667 57.02935 
L 96.060667 57.371661 
L 96.399526 57.371661 
L 96.399526 57.833449 
L 96.738386 57.833449 
L 96.738386 58.075875 
L 97.077245 58.075875 
L 97.077245 58.346387 
L 97.416105 58.346387 
L 97.416105 55.047038 
L 97.754964 55.047038 
L 97.754964 54.53903 
L 98.093824 54.53903 
L 98.093824 54.985763 
L 98.432684 54.985763 
L 98.432684 55.434002 
L 98.771543 55.434002 
L 98.771543 58.054921 
L 99.110403 58.054921 
L 99.110403 59.899003 
L 99.449262 59.899003 
L 99.449262 60.218698 
L 99.788122 60.218698 
L 99.788122 60.483652 
L 100.465841 60.489177 
L 100.465841 62.257745 
L 100.8047 62.257745 
L 100.8047 65.249928 
L 101.14356 65.249928 
L 101.14356 64.070952 
L 101.482419 64.070952 
L 101.482419 62.663033 
L 101.821279 62.663033 
L 101.821279 61.501996 
L 102.160138 61.501996 
L 102.160138 61.000487 
L 102.837858 60.958912 
L 102.837858 60.546138 
L 103.176717 60.546138 
L 103.176717 57.198384 
L 103.515577 57.198384 
L 103.515577 51.339412 
L 103.854436 51.339412 
L 103.854436 44.492634 
L 104.193296 44.492634 
L 104.193296 40.392496 
L 104.532155 40.392496 
L 104.532155 42.748643 
L 104.871015 42.748643 
L 104.871015 47.880495 
L 105.209874 47.880495 
L 105.209874 52.897286 
L 105.548734 52.897286 
L 105.548734 57.967056 
L 105.887593 57.967056 
L 105.887593 61.796587 
L 106.226453 61.796587 
L 106.226453 65.099487 
L 106.565312 65.099487 
L 106.565312 68.055429 
L 106.904172 68.055429 
L 106.904172 69.996201 
L 107.243032 69.996201 
L 107.243032 73.33605 
L 107.581891 73.33605 
L 107.581891 75.037496 
L 107.920751 75.037496 
L 107.920751 76.167147 
L 108.25961 76.167147 
L 108.25961 76.918407 
L 108.59847 76.918407 
L 108.59847 77.551672 
L 108.937329 77.551672 
L 108.937329 78.015075 
L 109.276189 78.015075 
L 109.276189 78.333416 
L 109.615048 78.333416 
L 109.615048 78.604432 
L 109.953908 78.604432 
L 109.953908 79.754993 
L 110.292767 79.754993 
L 110.292767 80.286967 
L 110.631627 80.286967 
L 110.631627 80.507255 
L 110.970486 80.507255 
L 110.970486 76.461207 
L 111.309346 76.461207 
L 111.309346 73.518426 
L 111.648206 73.518426 
L 111.648206 72.219872 
L 111.987065 72.219872 
L 111.987065 71.737576 
L 112.325925 71.737576 
L 112.325925 71.559745 
L 113.342503 71.455242 
L 113.342503 71.438564 
L 114.697941 71.366044 
L 114.697941 72.624379 
L 115.036801 72.624379 
L 115.036801 73.576524 
L 115.37566 73.576524 
L 115.37566 75.462358 
L 115.71452 75.462358 
L 115.71452 76.830993 
L 116.053379 76.830993 
L 116.053379 77.560365 
L 116.392239 77.560365 
L 116.392239 77.869074 
L 117.069958 77.886822 
L 117.069958 77.537963 
L 117.408818 77.537963 
L 117.408818 75.791383 
L 117.747677 75.791383 
L 117.747677 74.241089 
L 118.086537 74.241089 
L 118.086537 73.010998 
L 118.425396 73.010998 
L 118.425396 71.855155 
L 118.764256 71.855155 
L 118.764256 71.548216 
L 119.103115 71.548216 
L 119.103115 71.886909 
L 119.441975 71.886909 
L 119.441975 71.420416 
L 119.780834 71.420416 
L 119.780834 70.755876 
L 120.119694 70.755876 
L 120.119694 70.180881 
L 120.458553 70.180881 
L 120.458553 69.628291 
L 120.797413 69.628291 
L 120.797413 69.092495 
L 121.136273 69.092495 
L 121.136273 68.575451 
L 121.475132 68.575451 
L 121.475132 68.082553 
L 121.813992 68.082553 
L 121.813992 67.126109 
L 122.152851 67.126109 
L 122.152851 64.54865 
L 122.491711 64.54865 
L 122.491711 64.923038 
L 122.83057 64.923038 
L 122.83057 65.074136 
L 123.16943 65.074136 
L 123.16943 65.455339 
L 123.508289 65.455339 
L 123.508289 65.934152 
L 123.847149 65.934152 
L 123.847149 66.571151 
L 124.186008 66.571151 
L 124.186008 67.275314 
L 124.524868 67.275314 
L 124.524868 67.98702 
L 124.863727 67.98702 
L 124.863727 68.852304 
L 125.202587 68.852304 
L 125.202587 69.521656 
L 125.541447 69.521656 
L 125.541447 69.958029 
L 125.880306 69.958029 
L 125.880306 70.216717 
L 126.219166 70.216717 
L 126.219166 70.356894 
L 126.896885 70.414569 
L 126.896885 70.204698 
L 127.235744 70.204698 
L 127.235744 70.057494 
L 127.913463 69.95897 
L 127.913463 69.593298 
L 128.252323 69.593298 
L 128.252323 68.64625 
L 128.591182 68.64625 
L 128.591182 67.84246 
L 128.930042 67.84246 
L 128.930042 67.162999 
L 129.268901 67.162999 
L 129.268901 66.85912 
L 129.607761 66.85912 
L 129.607761 67.318818 
L 129.946621 67.318818 
L 129.946621 66.083982 
L 130.28548 66.083982 
L 130.28548 64.434207 
L 130.62434 64.434207 
L 130.62434 62.594918 
L 130.963199 62.594918 
L 130.963199 60.910923 
L 131.302059 60.910923 
L 131.302059 59.396461 
L 131.640918 59.396461 
L 131.640918 58.039691 
L 131.979778 58.039691 
L 131.979778 56.837784 
L 132.318637 56.837784 
L 132.318637 54.438823 
L 132.657497 54.438823 
L 132.657497 51.413724 
L 132.996356 51.413724 
L 132.996356 53.675195 
L 133.335216 53.675195 
L 133.335216 58.229684 
L 133.674075 58.229684 
L 133.674075 63.668645 
L 134.012935 63.668645 
L 134.012935 67.406641 
L 134.351794 67.406641 
L 134.351794 70.003025 
L 134.690654 70.003025 
L 134.690654 72.084596 
L 135.029514 72.084596 
L 135.029514 73.496788 
L 135.368373 73.496788 
L 135.368373 74.3295 
L 135.707233 74.3295 
L 135.707233 74.842436 
L 136.046092 74.842436 
L 136.046092 75.546135 
L 136.384952 75.546135 
L 136.384952 75.935984 
L 136.723811 75.935984 
L 136.723811 76.231949 
L 137.74039 76.192955 
L 137.74039 75.988727 
L 138.079249 75.988727 
L 138.079249 75.71939 
L 138.418109 75.71939 
L 138.418109 75.414087 
L 138.756968 75.414087 
L 138.756968 75.094554 
L 139.095828 75.094554 
L 139.095828 74.775602 
L 139.434688 74.775602 
L 139.434688 74.96958 
L 139.773547 74.96958 
L 139.773547 75.616694 
L 140.112407 75.616694 
L 140.112407 76.11632 
L 140.451266 76.11632 
L 140.451266 76.477422 
L 140.790126 76.477422 
L 140.790126 76.341766 
L 141.128985 76.341766 
L 141.128985 75.908689 
L 141.467845 75.908689 
L 141.467845 75.719547 
L 142.484423 75.633061 
L 142.484423 76.073316 
L 142.823283 76.073316 
L 142.823283 76.633086 
L 143.162142 76.633086 
L 143.162142 77.234507 
L 143.501002 77.234507 
L 143.501002 77.804345 
L 143.839862 77.804345 
L 143.839862 78.284562 
L 144.178721 78.284562 
L 144.178721 76.640798 
L 144.517581 76.640798 
L 144.517581 75.020865 
L 144.85644 75.020865 
L 144.85644 73.501362 
L 145.1953 73.501362 
L 145.1953 72.142539 
L 145.534159 72.142539 
L 145.534159 70.983347 
L 145.873019 70.983347 
L 145.873019 70.040538 
L 146.211878 70.040538 
L 146.211878 69.310557 
L 146.550738 69.310557 
L 146.550738 68.774104 
L 146.889597 68.774104 
L 146.889597 68.402078 
L 147.228457 68.402078 
L 147.228457 68.161236 
L 147.567316 68.161236 
L 147.567316 68.018836 
L 150.278193 67.915721 
L 150.278193 67.899044 
L 151.633631 67.796267 
L 151.633631 67.74868 
L 152.65021 67.641706 
L 152.65021 67.584899 
L 153.327929 67.526913 
L 153.327929 67.468655 
L 154.005648 67.410647 
L 154.005648 67.353303 
L 154.683367 67.296476 
L 154.683367 67.240738 
L 155.699945 67.13234 
L 155.699945 67.079698 
L 156.716524 66.977473 
L 156.716524 66.927956 
L 157.733103 66.83183 
L 157.733103 67.215516 
L 158.071962 67.215516 
L 158.071962 67.679361 
L 158.410822 67.679361 
L 158.410822 68.103634 
L 158.749681 68.103634 
L 158.749681 68.457868 
L 159.088541 68.457868 
L 159.088541 68.730037 
L 159.4274 68.730037 
L 159.4274 68.918698 
L 160.105119 69.029336 
L 160.105119 69.070467 
L 161.121698 68.98583 
L 161.121698 68.880715 
L 161.460557 68.880715 
L 161.460557 68.746044 
L 161.799417 68.746044 
L 161.799417 68.589571 
L 162.138277 68.589571 
L 162.138277 68.418191 
L 162.477136 68.418191 
L 162.477136 68.237577 
L 163.154855 68.163265 
L 163.154855 68.108039 
L 164.171434 68.005608 
L 164.171434 67.94734 
L 164.849153 67.881431 
L 164.849153 67.80774 
L 165.526872 67.726365 
L 165.526872 67.638731 
L 166.204591 67.546671 
L 166.204591 67.450954 
L 166.88231 67.353813 
L 166.88231 67.25624 
L 167.560029 67.159496 
L 167.560029 67.064132 
L 168.237748 66.971857 
L 168.237748 66.88231 
L 168.915467 66.796386 
L 168.915467 66.714227 
L 169.593186 66.635984 
L 169.593186 66.894255 
L 169.932046 66.894255 
L 169.932046 67.313594 
L 170.270905 67.313594 
L 170.270905 67.657966 
L 170.609765 67.657966 
L 170.609765 67.934731 
L 171.287484 67.844872 
L 171.287484 67.755936 
L 171.965203 67.667195 
L 171.965203 67.578389 
L 172.642922 67.488668 
L 172.642922 67.39804 
L 173.320641 67.306757 
L 173.320641 67.214788 
L 173.99836 67.122449 
L 173.99836 67.030159 
L 174.676079 66.938007 
L 174.676079 66.464251 
L 175.014939 66.464251 
L 175.014939 65.924332 
L 175.353799 65.924332 
L 175.353799 65.374239 
L 175.692658 65.374239 
L 175.692658 64.818234 
L 176.031518 64.818234 
L 176.031518 64.43319 
L 176.370377 64.43319 
L 176.370377 64.789404 
L 176.709237 64.789404 
L 176.709237 65.349282 
L 177.048096 65.349282 
L 177.048096 65.816885 
L 177.386956 65.816885 
L 177.386956 66.098319 
L 177.725815 66.098319 
L 177.725815 66.249865 
L 178.064675 66.249865 
L 178.064675 66.131307 
L 178.742394 66.029927 
L 178.742394 65.941925 
L 179.081253 65.941925 
L 179.081253 66.362827 
L 179.420113 66.362827 
L 179.420113 66.662453 
L 179.758972 66.662453 
L 179.758972 67.33144 
L 180.097832 67.33144 
L 180.097832 67.661734 
L 180.436692 67.661734 
L 180.436692 67.822685 
L 185.180725 67.716553 
L 185.180725 67.692152 
L 186.875023 67.790046 
L 186.875023 67.827831 
L 189.585899 67.773705 
L 189.585899 68.362892 
L 189.924759 68.362892 
L 189.924759 68.617043 
L 190.263618 68.617043 
L 190.263618 68.72985 
L 191.957916 68.650337 
L 191.957916 68.616677 
L 193.313354 68.509839 
L 193.313354 68.419115 
L 193.652214 68.419115 
L 193.652214 68.192583 
L 193.991073 68.192583 
L 193.991073 68.07541 
L 194.668792 68.002804 
L 194.668792 67.94985 
L 195.685371 67.867464 
L 195.685371 67.832118 
L 196.36309 67.798805 
L 196.36309 67.950274 
L 197.040809 68.057351 
L 197.040809 68.110782 
L 199.751685 68.006405 
L 199.751685 67.971128 
L 200.768264 67.896051 
L 200.768264 67.856864 
L 201.784842 67.776287 
L 201.784842 67.734766 
L 202.801421 67.650399 
L 202.801421 67.607697 
L 203.818 67.5209 
L 203.818 67.441141 
L 204.495719 67.350283 
L 204.495719 67.273596 
L 205.173438 67.206547 
L 205.173438 67.145609 
L 206.190016 67.035344 
L 206.190016 66.983893 
L 207.206595 66.885734 
L 207.206595 66.838583 
L 207.545455 66.838583 
L 207.545455 66.79229 
" style="fill:none;stroke:#ff7f0e;stroke-linecap:square;stroke-width:1.5;"/>
   </g>
   <g id="line2d_23">
    <path clip-path="url(#p038f352205)" d="M 38.454545 88.07845 
L 38.793405 88.07845 
L 38.793405 81.506939 
L 39.132265 81.506939 
L 39.132265 68.057554 
L 39.471124 68.057554 
L 39.471124 40.450897 
L 39.809984 40.450897 
L 39.809984 28.101143 
L 40.148843 28.101143 
L 40.148843 23.599856 
L 40.487703 23.599856 
L 40.487703 21.647585 
L 40.826562 21.647585 
L 40.826562 20.27293 
L 41.165422 20.27293 
L 41.165422 19.286154 
L 41.504281 19.286154 
L 41.504281 18.60013 
L 41.843141 18.60013 
L 41.843141 18.476755 
L 42.182 18.476755 
L 42.182 18.286346 
L 42.52086 18.286346 
L 42.52086 18.162588 
L 43.198579 18.086313 
L 43.198579 17.985852 
L 43.876298 17.896173 
L 43.876298 17.649114 
L 44.215158 17.649114 
L 44.215158 17.436888 
L 44.892877 17.390327 
L 44.892877 17.592552 
L 45.231736 17.592552 
L 45.231736 17.908189 
L 45.570596 17.908189 
L 45.570596 18.36117 
L 45.909455 18.36117 
L 45.909455 18.971045 
L 46.248315 18.971045 
L 46.248315 19.690794 
L 46.587174 19.690794 
L 46.587174 20.619013 
L 46.926034 20.619013 
L 46.926034 21.786938 
L 47.264893 21.786938 
L 47.264893 23.882523 
L 47.603753 23.882523 
L 47.603753 26.734803 
L 47.942612 26.734803 
L 47.942612 29.924366 
L 48.281472 29.924366 
L 48.281472 32.657909 
L 48.620332 32.657909 
L 48.620332 34.755093 
L 48.959191 34.755093 
L 48.959191 36.466118 
L 49.298051 36.466118 
L 49.298051 37.74955 
L 49.63691 37.74955 
L 49.63691 38.637347 
L 49.97577 38.637347 
L 49.97577 39.139947 
L 50.314629 39.139947 
L 50.314629 39.825 
L 50.653489 39.825 
L 50.653489 42.116759 
L 50.992348 42.116759 
L 50.992348 43.549143 
L 51.331208 43.549143 
L 51.331208 43.884146 
L 51.670067 43.884146 
L 51.670067 40.882438 
L 52.008927 40.882438 
L 52.008927 39.081728 
L 52.347786 39.081728 
L 52.347786 37.963055 
L 52.686646 37.963055 
L 52.686646 40.80453 
L 53.025506 40.80453 
L 53.025506 41.695465 
L 53.364365 41.695465 
L 53.364365 42.308424 
L 55.736382 42.260755 
L 55.736382 41.983069 
L 56.075241 41.983069 
L 56.075241 41.731259 
L 56.414101 41.731259 
L 56.414101 41.500903 
L 56.75296 41.500903 
L 56.75296 41.312156 
L 57.09182 41.312156 
L 57.09182 41.141323 
L 57.43068 41.141323 
L 57.43068 40.983541 
L 57.769539 40.983541 
L 57.769539 40.836824 
L 58.108399 40.836824 
L 58.108399 40.704045 
L 58.786118 40.606581 
L 58.786118 40.578562 
L 59.463837 40.585479 
L 59.463837 42.073783 
L 59.802696 42.073783 
L 59.802696 49.833246 
L 60.141556 49.833246 
L 60.141556 57.967012 
L 60.480415 57.967012 
L 60.480415 69.70676 
L 60.819275 69.70676 
L 60.819275 76.404417 
L 61.158134 76.404417 
L 61.158134 80.188358 
L 61.496994 80.188358 
L 61.496994 82.557179 
L 61.835854 82.557179 
L 61.835854 84.158371 
L 62.174713 84.158371 
L 62.174713 85.301986 
L 62.513573 85.301986 
L 62.513573 86.152605 
L 62.852432 86.152605 
L 62.852432 86.804625 
L 63.191292 86.804625 
L 63.191292 86.941964 
L 63.530151 86.941964 
L 63.530151 86.411734 
L 63.869011 86.411734 
L 63.869011 85.887145 
L 64.20787 85.887145 
L 64.20787 85.37549 
L 64.54673 85.37549 
L 64.54673 84.883618 
L 64.885589 84.883618 
L 64.885589 84.417543 
L 65.224449 84.417543 
L 65.224449 83.982298 
L 65.563308 83.982298 
L 65.563308 83.581772 
L 65.902168 83.581772 
L 65.902168 83.218572 
L 66.241028 83.218572 
L 66.241028 82.894267 
L 66.579887 82.894267 
L 66.579887 82.609195 
L 66.918747 82.609195 
L 66.918747 82.366573 
L 67.257606 82.366573 
L 67.257606 82.166824 
L 67.596466 82.166824 
L 67.596466 81.907681 
L 67.935325 81.907681 
L 67.935325 81.651878 
L 68.274185 81.651878 
L 68.274185 81.431608 
L 68.613044 81.431608 
L 68.613044 81.245828 
L 68.951904 81.245828 
L 68.951904 81.37876 
L 69.290763 81.37876 
L 69.290763 81.637765 
L 69.629623 81.637765 
L 69.629623 81.943573 
L 69.968482 81.943573 
L 69.968482 82.468144 
L 70.307342 82.468144 
L 70.307342 82.872331 
L 70.646201 82.872331 
L 70.646201 83.238944 
L 70.985061 83.238944 
L 70.985061 83.570197 
L 71.323921 83.570197 
L 71.323921 83.865885 
L 71.66278 83.865885 
L 71.66278 84.13042 
L 72.00164 84.13042 
L 72.00164 84.379945 
L 72.340499 84.379945 
L 72.340499 84.700998 
L 72.679359 84.700998 
L 72.679359 85.103314 
L 73.018218 85.103314 
L 73.018218 85.458323 
L 73.357078 85.458323 
L 73.357078 85.764025 
L 73.695937 85.764025 
L 73.695937 86.027102 
L 74.034797 86.027102 
L 74.034797 86.252957 
L 74.373656 86.252957 
L 74.373656 86.445984 
L 74.712516 86.445984 
L 74.712516 86.609756 
L 75.051375 86.609756 
L 75.051375 86.747242 
L 75.390235 86.747242 
L 75.390235 86.860876 
L 76.067954 86.95269 
L 76.067954 87.024353 
L 78.101111 86.918506 
L 78.101111 86.756017 
L 78.439971 86.756017 
L 78.439971 86.577903 
L 78.77883 86.577903 
L 78.77883 86.3806 
L 79.11769 86.3806 
L 79.11769 86.166932 
L 79.456549 86.166932 
L 79.456549 85.93645 
L 79.795409 85.93645 
L 79.795409 85.644119 
L 80.134269 85.644119 
L 80.134269 85.331574 
L 80.473128 85.331574 
L 80.473128 85.010018 
L 80.811988 85.010018 
L 80.811988 84.676318 
L 81.150847 84.676318 
L 81.150847 84.253234 
L 81.489707 84.253234 
L 81.489707 83.078546 
L 81.828566 83.078546 
L 81.828566 81.90242 
L 82.167426 81.90242 
L 82.167426 80.761909 
L 82.506285 80.761909 
L 82.506285 79.689623 
L 82.845145 79.689623 
L 82.845145 78.710752 
L 83.184004 78.710752 
L 83.184004 77.841417 
L 83.522864 77.841417 
L 83.522864 77.9943 
L 83.861723 77.9943 
L 83.861723 78.134884 
L 85.556021 78.127729 
L 85.556021 77.98574 
L 85.894881 77.98574 
L 85.894881 77.803555 
L 86.23374 77.803555 
L 86.23374 77.619629 
L 86.5726 77.619629 
L 86.5726 77.433157 
L 86.911459 77.433157 
L 86.911459 77.307571 
L 87.589178 77.253148 
L 87.589178 77.175072 
L 87.928038 77.175072 
L 87.928038 76.991659 
L 88.266897 76.991659 
L 88.266897 76.803619 
L 88.605757 76.803619 
L 88.605757 76.445127 
L 88.944617 76.445127 
L 88.944617 75.911478 
L 89.283476 75.911478 
L 89.283476 75.416555 
L 89.622336 75.416555 
L 89.622336 74.958996 
L 89.961195 74.958996 
L 89.961195 74.51873 
L 90.300055 74.51873 
L 90.300055 74.094586 
L 90.638914 74.094586 
L 90.638914 73.704784 
L 90.977774 73.704784 
L 90.977774 73.346752 
L 91.316633 73.346752 
L 91.316633 73.017795 
L 91.655493 73.017795 
L 91.655493 72.753825 
L 91.994352 72.753825 
L 91.994352 72.528155 
L 92.333212 72.528155 
L 92.333212 72.318949 
L 92.672071 72.318949 
L 92.672071 72.124304 
L 93.010931 72.124304 
L 93.010931 71.942447 
L 93.34979 71.942447 
L 93.34979 71.76206 
L 93.68865 71.76206 
L 93.68865 71.582366 
L 94.02751 71.582366 
L 94.02751 71.413781 
L 94.366369 71.413781 
L 94.366369 71.255104 
L 94.705229 71.255104 
L 94.705229 70.791377 
L 95.044088 70.791377 
L 95.044088 70.37267 
L 95.382948 70.37267 
L 95.382948 70.009984 
L 95.721807 70.009984 
L 95.721807 69.692908 
L 96.060667 69.692908 
L 96.060667 69.413089 
L 96.399526 69.413089 
L 96.399526 69.163907 
L 96.738386 69.163907 
L 96.738386 68.940093 
L 97.077245 68.940093 
L 97.077245 68.735545 
L 97.416105 68.735545 
L 97.416105 67.680893 
L 97.754964 67.680893 
L 97.754964 66.397943 
L 98.093824 66.397943 
L 98.093824 65.33477 
L 98.432684 65.33477 
L 98.432684 64.470987 
L 98.771543 64.470987 
L 98.771543 63.781478 
L 99.110403 63.781478 
L 99.110403 63.397357 
L 99.788122 63.292382 
L 99.788122 63.25845 
L 100.465841 63.344636 
L 100.465841 63.487269 
L 100.8047 63.487269 
L 100.8047 63.663284 
L 101.14356 63.663284 
L 101.14356 63.85793 
L 101.482419 63.85793 
L 101.482419 64.061596 
L 101.821279 64.061596 
L 101.821279 64.261967 
L 102.160138 64.261967 
L 102.160138 64.433217 
L 102.498998 64.433217 
L 102.498998 64.58439 
L 102.837858 64.58439 
L 102.837858 65.000633 
L 103.176717 65.000633 
L 103.176717 65.451983 
L 103.515577 65.451983 
L 103.515577 65.842097 
L 103.854436 65.842097 
L 103.854436 66.185947 
L 104.193296 66.185947 
L 104.193296 66.494446 
L 104.532155 66.494446 
L 104.532155 66.607119 
L 104.871015 66.607119 
L 104.871015 66.789902 
L 105.209874 66.789902 
L 105.209874 66.955742 
L 105.548734 66.955742 
L 105.548734 67.11108 
L 105.887593 67.11108 
L 105.887593 67.260412 
L 106.226453 67.260412 
L 106.226453 67.406656 
L 106.565312 67.406656 
L 106.565312 67.551811 
L 106.904172 67.551811 
L 106.904172 68.174936 
L 107.243032 68.174936 
L 107.243032 68.852005 
L 107.581891 68.852005 
L 107.581891 69.424877 
L 107.920751 69.424877 
L 107.920751 69.705993 
L 108.25961 69.705993 
L 108.25961 69.58501 
L 109.615048 69.67379 
L 109.615048 69.774789 
L 109.953908 69.774789 
L 109.953908 69.944769 
L 110.631627 70.020677 
L 110.631627 70.10441 
L 111.309346 70.192947 
L 111.309346 70.2838 
L 111.987065 70.375362 
L 111.987065 70.463257 
L 112.664784 70.54063 
L 112.664784 70.978629 
L 113.003644 70.978629 
L 113.003644 71.36447 
L 113.342503 71.36447 
L 113.342503 71.690805 
L 113.681363 71.690805 
L 113.681363 71.969526 
L 114.020222 71.969526 
L 114.020222 72.209664 
L 114.359082 72.209664 
L 114.359082 72.417919 
L 114.697941 72.417919 
L 114.697941 72.599489 
L 115.036801 72.599489 
L 115.036801 72.730979 
L 115.37566 72.730979 
L 115.37566 72.867942 
L 115.71452 72.867942 
L 115.71452 73.046314 
L 116.731099 72.96935 
L 116.731099 72.897457 
L 117.069958 72.897457 
L 117.069958 72.723539 
L 117.408818 72.723539 
L 117.408818 72.598783 
L 117.747677 72.598783 
L 117.747677 72.316602 
L 118.086537 72.316602 
L 118.086537 71.696286 
L 118.425396 71.696286 
L 118.425396 71.154506 
L 118.764256 71.154506 
L 118.764256 70.681871 
L 119.103115 70.681871 
L 119.103115 70.269732 
L 119.441975 70.269732 
L 119.441975 69.910473 
L 119.780834 69.910473 
L 119.780834 69.597233 
L 120.119694 69.597233 
L 120.119694 69.324201 
L 120.458553 69.324201 
L 120.458553 69.086276 
L 120.797413 69.086276 
L 120.797413 68.867828 
L 121.136273 68.867828 
L 121.136273 68.674548 
L 121.475132 68.674548 
L 121.475132 68.507723 
L 121.813992 68.507723 
L 121.813992 68.361874 
L 123.16943 68.259394 
L 123.16943 68.195145 
L 123.847149 68.135252 
L 123.847149 67.872825 
L 124.186008 67.872825 
L 124.186008 67.590376 
L 124.524868 67.590376 
L 124.524868 67.309878 
L 124.863727 67.309878 
L 124.863727 67.027549 
L 125.202587 67.027549 
L 125.202587 66.773395 
L 125.541447 66.773395 
L 125.541447 66.545461 
L 125.880306 66.545461 
L 125.880306 66.341947 
L 126.219166 66.341947 
L 126.219166 66.161066 
L 126.558025 66.161066 
L 126.558025 66.001176 
L 126.896885 66.001176 
L 126.896885 66.394006 
L 127.235744 66.394006 
L 127.235744 66.745854 
L 127.574604 66.745854 
L 127.574604 66.953318 
L 127.913463 66.953318 
L 127.913463 67.06649 
L 128.930042 67.148031 
L 128.930042 67.231771 
L 129.946621 67.247741 
L 129.946621 67.641792 
L 130.28548 67.641792 
L 130.28548 67.968802 
L 130.62434 67.968802 
L 130.62434 68.498362 
L 130.963199 68.498362 
L 130.963199 69.335132 
L 131.302059 69.335132 
L 131.302059 70.248592 
L 131.640918 70.248592 
L 131.640918 70.91044 
L 131.979778 70.91044 
L 131.979778 70.573088 
L 132.318637 70.573088 
L 132.318637 70.436888 
L 133.335216 70.509739 
L 133.335216 70.609064 
L 133.674075 70.609064 
L 133.674075 70.726191 
L 134.690654 70.710279 
L 134.690654 70.527155 
L 135.029514 70.527155 
L 135.029514 70.13386 
L 135.368373 70.13386 
L 135.368373 69.733024 
L 135.707233 69.733024 
L 135.707233 69.406985 
L 136.384952 69.305152 
L 136.384952 69.06362 
L 136.723811 69.06362 
L 136.723811 68.816931 
L 137.062671 68.816931 
L 137.062671 68.57008 
L 137.40153 68.57008 
L 137.40153 68.341254 
L 137.74039 68.341254 
L 137.74039 68.145915 
L 138.079249 68.145915 
L 138.079249 67.97983 
L 138.418109 67.97983 
L 138.418109 67.839156 
L 138.756968 67.839156 
L 138.756968 67.721053 
L 139.434688 67.623395 
L 139.434688 67.54368 
L 140.112407 67.479225 
L 140.112407 67.427688 
L 140.451266 67.427688 
L 140.451266 67.189238 
L 140.790126 67.189238 
L 140.790126 66.878018 
L 141.128985 66.878018 
L 141.128985 66.606631 
L 141.467845 66.606631 
L 141.467845 66.371422 
L 142.823283 66.477944 
L 142.823283 66.516391 
L 144.178721 66.619106 
L 144.178721 66.650446 
L 144.85644 66.680767 
L 144.85644 66.765619 
L 145.1953 66.765619 
L 145.1953 66.889431 
L 145.534159 66.889431 
L 145.534159 67.000761 
L 146.211878 67.101186 
L 146.211878 67.19202 
L 146.889597 67.274429 
L 146.889597 67.349361 
L 147.567316 67.417618 
L 147.567316 67.466206 
L 148.245036 67.513715 
L 148.245036 67.61973 
L 148.583895 67.61973 
L 148.583895 67.841416 
L 148.922755 67.841416 
L 148.922755 68.041562 
L 149.261614 68.041562 
L 149.261614 68.203175 
L 149.600474 68.203175 
L 149.600474 68.335466 
L 150.278193 68.44331 
L 150.278193 68.530758 
L 150.955912 68.601134 
L 150.955912 68.65724 
L 151.633631 68.70126 
L 151.633631 68.788922 
L 152.989069 68.691754 
L 152.989069 68.636462 
L 153.666788 68.577684 
L 153.666788 68.516381 
L 154.344507 68.453426 
L 154.344507 68.389604 
L 155.022226 68.32546 
L 155.022226 68.261591 
L 155.699945 68.198395 
L 155.699945 68.136244 
L 156.377664 68.075444 
L 156.377664 68.016242 
L 157.055383 67.958837 
L 157.055383 67.903344 
L 158.071962 67.798633 
L 158.071962 67.749479 
L 159.088541 67.657893 
L 159.088541 67.615426 
L 160.105119 67.537057 
L 160.105119 67.501101 
L 161.460557 67.405511 
L 161.460557 67.377586 
L 163.154855 67.283766 
L 163.154855 67.264496 
L 166.204591 67.160592 
L 166.204591 67.153022 
L 170.948625 67.256623 
L 170.948625 67.294706 
L 172.642922 67.404183 
L 172.642922 67.422879 
L 178.064675 67.530247 
L 178.064675 67.568147 
L 179.758972 67.674324 
L 179.758972 67.711959 
L 184.503006 67.616487 
L 184.503006 67.58636 
L 185.858444 67.49194 
L 185.858444 67.460691 
L 187.552742 67.349957 
L 187.552742 67.324071 
L 189.24704 67.230281 
L 189.24704 67.20954 
L 191.619056 67.109352 
L 191.619056 67.096639 
L 203.47914 67.205848 
L 203.47914 67.210962 
L 207.545455 67.238983 
L 207.545455 67.241044 
" style="fill:none;stroke:#2ca02c;stroke-linecap:square;stroke-width:1.5;"/>
   </g>
   <g id="line2d_24">
    <path clip-path="url(#p038f352205)" d="M 38.454545 16.760459 
L 47.264893 16.869445 
L 47.264893 16.878892 
L 48.620332 16.966282 
L 48.620332 17.020456 
L 49.298051 17.092378 
L 49.298051 17.188044 
L 49.63691 17.188044 
L 49.63691 17.313267 
L 49.97577 17.313267 
L 49.97577 17.476413 
L 50.314629 17.476413 
L 50.314629 17.735601 
L 50.653489 17.735601 
L 50.653489 18.214027 
L 50.992348 18.214027 
L 50.992348 18.961068 
L 51.331208 18.961068 
L 51.331208 20.169965 
L 51.670067 20.169965 
L 51.670067 24.122915 
L 52.008927 24.122915 
L 52.008927 31.067449 
L 52.347786 31.067449 
L 52.347786 40.653602 
L 52.686646 40.653602 
L 52.686646 48.919078 
L 53.025506 48.919078 
L 53.025506 56.454816 
L 53.364365 56.454816 
L 53.364365 61.511488 
L 55.397522 61.511488 
L 55.397522 62.524021 
L 55.736382 62.524021 
L 55.736382 68.164935 
L 56.075241 68.164935 
L 56.075241 72.771898 
L 56.414101 72.771898 
L 56.414101 76.469672 
L 56.75296 76.469672 
L 56.75296 79.108569 
L 57.09182 79.108569 
L 57.09182 81.196054 
L 57.43068 81.196054 
L 57.43068 82.881479 
L 57.769539 82.881479 
L 57.769539 84.253166 
L 58.108399 84.253166 
L 58.108399 85.344552 
L 58.447258 85.344552 
L 58.447258 86.061915 
L 58.786118 86.061915 
L 58.786118 86.255757 
L 59.463837 86.208387 
L 59.463837 85.832932 
L 59.802696 85.832932 
L 59.802696 85.146791 
L 60.141556 85.146791 
L 60.141556 84.354281 
L 60.480415 84.354281 
L 60.480415 83.556828 
L 60.819275 83.556828 
L 60.819275 83.103593 
L 61.158134 83.103593 
L 61.158134 82.885129 
L 62.852432 82.990218 
L 62.852432 83.12221 
L 63.191292 83.12221 
L 63.191292 83.484471 
L 63.530151 83.484471 
L 63.530151 84.14144 
L 63.869011 84.14144 
L 63.869011 84.708207 
L 64.20787 84.708207 
L 64.20787 85.199825 
L 64.54673 85.199825 
L 64.54673 85.628203 
L 64.885589 85.628203 
L 64.885589 86.002891 
L 65.224449 86.002891 
L 65.224449 86.33164 
L 65.563308 86.33164 
L 65.563308 86.620745 
L 65.902168 86.620745 
L 65.902168 86.875444 
L 66.241028 86.875444 
L 66.241028 87.100104 
L 66.579887 87.100104 
L 66.579887 87.298301 
L 66.918747 87.298301 
L 66.918747 87.464346 
L 67.257606 87.464346 
L 67.257606 87.59668 
L 67.596466 87.59668 
L 67.596466 87.777334 
L 67.935325 87.777334 
L 67.935325 87.942662 
L 68.274185 87.942662 
L 68.274185 88.094477 
L 68.613044 88.094477 
L 68.613044 88.233694 
L 69.290763 88.327642 
L 69.290763 88.397581 
L 69.968482 88.459568 
L 69.968482 88.513564 
L 72.679359 88.442026 
L 72.679359 88.271961 
L 73.018218 88.271961 
L 73.018218 88.083829 
L 73.357078 88.083829 
L 73.357078 87.888307 
L 73.695937 87.888307 
L 73.695937 87.685986 
L 74.034797 87.685986 
L 74.034797 87.477518 
L 74.373656 87.477518 
L 74.373656 87.263573 
L 74.712516 87.263573 
L 74.712516 87.044814 
L 75.051375 87.044814 
L 75.051375 86.822029 
L 75.390235 86.822029 
L 75.390235 86.595925 
L 75.729095 86.595925 
L 75.729095 86.367328 
L 76.067954 86.367328 
L 76.067954 86.136927 
L 76.406814 86.136927 
L 76.406814 85.905555 
L 76.745673 85.905555 
L 76.745673 85.673964 
L 77.084533 85.673964 
L 77.084533 85.460046 
L 77.762252 85.567019 
L 77.762252 85.260757 
L 78.101111 85.260757 
L 78.101111 84.784264 
L 78.439971 84.784264 
L 78.439971 84.293253 
L 78.77883 84.293253 
L 78.77883 83.775285 
L 79.11769 83.775285 
L 79.11769 83.251738 
L 79.456549 83.251738 
L 79.456549 82.725669 
L 79.795409 82.725669 
L 79.795409 82.199688 
L 80.134269 82.199688 
L 80.134269 81.678026 
L 80.473128 81.678026 
L 80.473128 81.044055 
L 80.811988 81.044055 
L 80.811988 80.402247 
L 81.150847 80.402247 
L 81.150847 79.876004 
L 81.489707 79.876004 
L 81.489707 80.259432 
L 81.828566 80.259432 
L 81.828566 80.578303 
L 82.167426 80.578303 
L 82.167426 80.83847 
L 82.506285 80.83847 
L 82.506285 81.04543 
L 82.845145 81.04543 
L 82.845145 81.204314 
L 83.184004 81.204314 
L 83.184004 81.319934 
L 83.522864 81.319934 
L 83.522864 80.721214 
L 83.861723 80.721214 
L 83.861723 80.075035 
L 84.200583 80.075035 
L 84.200583 79.432148 
L 84.539443 79.432148 
L 84.539443 78.934045 
L 84.878302 78.934045 
L 84.878302 78.496846 
L 85.217162 78.496846 
L 85.217162 78.065449 
L 85.556021 78.065449 
L 85.556021 77.405342 
L 85.894881 77.405342 
L 85.894881 76.785751 
L 86.23374 76.785751 
L 86.23374 76.198977 
L 86.5726 76.198977 
L 86.5726 75.632241 
L 86.911459 75.632241 
L 86.911459 75.098449 
L 87.250319 75.098449 
L 87.250319 74.603746 
L 87.589178 74.603746 
L 87.589178 74.128768 
L 87.928038 74.128768 
L 87.928038 73.584238 
L 88.266897 73.584238 
L 88.266897 73.070919 
L 88.605757 73.070919 
L 88.605757 72.4649 
L 88.944617 72.4649 
L 88.944617 71.753966 
L 89.283476 71.753966 
L 89.283476 71.088183 
L 89.622336 71.088183 
L 89.622336 70.467304 
L 89.961195 70.467304 
L 89.961195 69.888815 
L 90.300055 69.888815 
L 90.300055 69.350587 
L 90.638914 69.350587 
L 90.638914 68.852019 
L 90.977774 68.852019 
L 90.977774 68.391339 
L 91.316633 68.391339 
L 91.316633 67.966779 
L 91.655493 67.966779 
L 91.655493 67.663558 
L 91.994352 67.663558 
L 91.994352 67.422847 
L 92.333212 67.422847 
L 92.333212 67.198195 
L 92.672071 67.198195 
L 92.672071 66.988619 
L 93.010931 66.988619 
L 93.010931 66.793163 
L 93.34979 66.793163 
L 93.34979 66.527988 
L 93.68865 66.527988 
L 93.68865 66.212992 
L 94.02751 66.212992 
L 94.02751 65.955973 
L 94.366369 65.955973 
L 94.366369 65.744747 
L 95.044088 65.697003 
L 95.044088 65.616033 
L 95.721807 65.505917 
L 95.721807 65.378987 
L 96.060667 65.378987 
L 96.060667 65.243512 
L 96.399526 65.243512 
L 96.399526 65.105164 
L 96.738386 65.105164 
L 96.738386 64.931789 
L 97.077245 64.931789 
L 97.077245 64.452332 
L 97.416105 64.452332 
L 97.416105 63.361928 
L 97.754964 63.361928 
L 97.754964 62.174618 
L 98.093824 62.174618 
L 98.093824 61.237699 
L 98.432684 61.237699 
L 98.432684 60.506045 
L 98.771543 60.506045 
L 98.771543 59.940803 
L 99.110403 59.940803 
L 99.110403 59.729378 
L 99.788122 59.825436 
L 99.788122 59.965294 
L 100.126981 59.965294 
L 100.126981 60.497899 
L 100.465841 60.497899 
L 100.465841 60.934031 
L 100.8047 60.934031 
L 100.8047 61.302674 
L 101.14356 61.302674 
L 101.14356 61.623376 
L 101.482419 61.623376 
L 101.482419 61.909135 
L 101.821279 61.909135 
L 101.821279 62.120282 
L 102.837858 62.15842 
L 102.837858 62.252497 
L 103.176717 62.252497 
L 103.176717 62.401366 
L 103.515577 62.401366 
L 103.515577 62.582392 
L 103.854436 62.582392 
L 103.854436 62.787141 
L 104.193296 62.787141 
L 104.193296 63.009069 
L 104.532155 63.009069 
L 104.532155 63.336091 
L 105.548734 63.403409 
L 105.548734 63.489368 
L 105.887593 63.489368 
L 105.887593 63.601874 
L 106.226453 63.601874 
L 106.226453 63.73614 
L 106.565312 63.73614 
L 106.565312 63.88848 
L 106.904172 63.88848 
L 106.904172 64.212507 
L 107.243032 64.212507 
L 107.243032 64.603822 
L 107.581891 64.603822 
L 107.581891 65.011357 
L 107.920751 65.011357 
L 107.920751 65.317869 
L 108.25961 65.317869 
L 108.25961 65.434914 
L 108.59847 65.434914 
L 108.59847 65.549418 
L 108.937329 65.549418 
L 108.937329 65.745674 
L 109.276189 65.745674 
L 109.276189 65.95311 
L 109.615048 65.95311 
L 109.615048 66.157695 
L 109.953908 66.157695 
L 109.953908 66.403198 
L 110.292767 66.403198 
L 110.292767 66.787103 
L 110.631627 66.787103 
L 110.631627 67.129899 
L 110.970486 67.129899 
L 110.970486 67.438916 
L 111.309346 67.438916 
L 111.309346 67.719641 
L 111.648206 67.719641 
L 111.648206 67.976634 
L 111.987065 67.976634 
L 111.987065 68.205217 
L 112.325925 68.205217 
L 112.325925 68.393288 
L 112.664784 68.393288 
L 112.664784 68.559287 
L 113.003644 68.559287 
L 113.003644 68.756327 
L 113.342503 68.756327 
L 113.342503 68.974426 
L 113.681363 68.974426 
L 113.681363 69.203709 
L 114.020222 69.203709 
L 114.020222 69.437195 
L 114.359082 69.437195 
L 114.359082 69.669738 
L 114.697941 69.669738 
L 114.697941 69.897871 
L 115.036801 69.897871 
L 115.036801 70.026612 
L 116.053379 70.101412 
L 116.053379 70.375183 
L 116.392239 70.375183 
L 116.392239 70.86283 
L 116.731099 70.86283 
L 116.731099 71.244328 
L 117.069958 71.244328 
L 117.069958 71.547363 
L 117.408818 71.547363 
L 117.408818 71.776143 
L 118.086537 71.834577 
L 118.086537 71.632118 
L 118.425396 71.632118 
L 118.425396 71.417362 
L 118.764256 71.417362 
L 118.764256 71.198432 
L 119.103115 71.198432 
L 119.103115 70.981401 
L 119.441975 70.981401 
L 119.441975 70.770744 
L 119.780834 70.770744 
L 119.780834 70.569492 
L 120.119694 70.569492 
L 120.119694 70.379769 
L 120.458553 70.379769 
L 120.458553 70.202718 
L 120.797413 70.202718 
L 120.797413 70.041263 
L 121.136273 70.041263 
L 121.136273 69.892539 
L 121.475132 69.892539 
L 121.475132 69.755397 
L 122.83057 69.694933 
L 122.83057 69.564885 
L 123.16943 69.564885 
L 123.16943 69.441965 
L 123.847149 69.334997 
L 123.847149 69.000609 
L 124.186008 69.000609 
L 124.186008 68.658877 
L 124.524868 68.658877 
L 124.524868 68.356013 
L 124.863727 68.356013 
L 124.863727 68.08611 
L 125.202587 68.08611 
L 125.202587 67.839854 
L 125.541447 67.839854 
L 125.541447 67.616343 
L 125.880306 67.616343 
L 125.880306 67.414456 
L 126.219166 67.414456 
L 126.219166 67.23309 
L 126.558025 67.23309 
L 126.558025 67.071013 
L 126.896885 67.071013 
L 126.896885 66.172457 
L 127.235744 66.172457 
L 127.235744 65.370339 
L 127.574604 65.370339 
L 127.574604 64.816104 
L 127.913463 64.816104 
L 127.913463 64.417602 
L 128.252323 64.417602 
L 128.252323 64.121173 
L 128.591182 64.121173 
L 128.591182 63.243561 
L 128.930042 63.243561 
L 128.930042 62.773774 
L 129.268901 62.773774 
L 129.268901 62.476962 
L 129.607761 62.476962 
L 129.607761 62.253821 
L 129.946621 62.253821 
L 129.946621 61.340912 
L 130.28548 61.340912 
L 130.28548 60.736535 
L 130.62434 60.736535 
L 130.62434 60.408215 
L 130.963199 60.408215 
L 130.963199 60.095572 
L 131.640918 60.040327 
L 131.640918 60.73367 
L 131.979778 60.73367 
L 131.979778 62.685789 
L 132.318637 62.685789 
L 132.318637 64.554442 
L 132.657497 64.554442 
L 132.657497 65.997683 
L 132.996356 65.997683 
L 132.996356 67.404398 
L 133.335216 67.404398 
L 133.335216 68.443349 
L 133.674075 68.443349 
L 133.674075 68.943145 
L 134.690654 69.050217 
L 134.690654 69.143232 
L 135.029514 69.143232 
L 135.029514 69.287412 
L 135.707233 69.392142 
L 135.707233 69.461515 
L 137.40153 69.548275 
L 137.40153 69.624182 
L 138.418109 69.727013 
L 138.418109 69.758885 
L 141.806704 69.671167 
L 141.806704 69.581216 
L 142.484423 69.496635 
L 142.484423 69.418884 
L 143.162142 69.347263 
L 143.162142 69.281127 
L 143.839862 69.219946 
L 143.839862 69.163225 
L 144.85644 69.061466 
L 144.85644 69.038524 
L 148.583895 69.145387 
L 148.583895 69.162784 
L 149.261614 69.23754 
L 149.261614 69.31394 
L 149.939333 69.385139 
L 149.939333 69.45119 
L 150.617052 69.51212 
L 150.617052 69.567976 
L 151.633631 69.664923 
L 151.633631 69.706522 
L 151.97249 69.706522 
L 151.97249 69.550723 
L 152.31135 69.550723 
L 152.31135 69.344459 
L 152.65021 69.344459 
L 152.65021 69.156158 
L 152.989069 69.156158 
L 152.989069 68.985305 
L 153.327929 68.985305 
L 153.327929 68.831301 
L 153.666788 68.831301 
L 153.666788 68.693568 
L 154.005648 68.693568 
L 154.005648 68.571291 
L 154.683367 68.463788 
L 154.683367 68.370322 
L 155.361086 68.290038 
L 155.361086 68.222171 
L 156.377664 68.12049 
L 156.377664 68.085063 
L 160.782838 68.179988 
L 160.782838 68.21237 
L 162.138277 68.316064 
L 162.138277 68.351544 
L 163.493715 68.456069 
L 163.493715 68.489319 
L 164.849153 68.581052 
L 164.849153 68.608272 
L 166.88231 68.712689 
L 166.88231 68.726504 
L 174.676079 68.653087 
L 174.676079 68.614192 
L 175.692658 68.528015 
L 175.692658 68.481202 
L 176.709237 68.381149 
L 176.709237 68.32835 
L 177.725815 68.218006 
L 177.725815 68.161089 
L 178.403534 68.101281 
L 178.403534 68.039047 
L 179.081253 67.975195 
L 179.081253 67.910325 
L 179.758972 67.842262 
L 179.758972 67.772433 
L 180.436692 67.701727 
L 180.436692 67.630918 
L 181.114411 67.5607 
L 181.114411 67.491636 
L 181.79213 67.424269 
L 181.79213 67.359061 
L 182.469849 67.296288 
L 182.469849 67.233073 
L 183.147568 67.170422 
L 183.147568 67.110992 
L 184.164146 67.002374 
L 184.164146 66.953249 
L 185.180725 66.865536 
L 185.180725 66.826905 
L 186.875023 66.715965 
L 186.875023 66.697446 
L 197.040809 66.802581 
L 197.040809 66.816058 
L 200.090545 66.924576 
L 200.090545 66.937097 
L 203.818 67.040859 
L 203.818 67.05243 
L 206.867735 67.155836 
L 206.867735 67.169708 
L 207.545455 67.183656 
L 207.545455 67.197636 
" style="fill:none;stroke:#d62728;stroke-linecap:square;stroke-width:1.5;"/>
   </g>
   <g id="patch_3">
    <path d="M 30 96.12 
L 30 12.96 
" style="fill:none;stroke:#000000;stroke-linecap:square;stroke-linejoin:miter;stroke-width:0.8;"/>
   </g>
   <g id="patch_4">
    <path d="M 216 96.12 
L 216 12.96 
" style="fill:none;stroke:#000000;stroke-linecap:square;stroke-linejoin:miter;stroke-width:0.8;"/>
   </g>
   <g id="patch_5">
    <path d="M 30 96.12 
L 216 96.12 
" style="fill:none;stroke:#000000;stroke-linecap:square;stroke-linejoin:miter;stroke-width:0.8;"/>
   </g>
   <g id="patch_6">
    <path d="M 30 12.96 
L 216 12.96 
" style="fill:none;stroke:#000000;stroke-linecap:square;stroke-linejoin:miter;stroke-width:0.8;"/>
   </g>
   <g id="legend_1">
    <g id="patch_7">
     <path d="M 142.877912 76.708713 
L 209 76.708713 
Q 211 76.708713 211 74.708713 
L 211 19.96 
Q 211 17.96 209 17.96 
L 142.877912 17.96 
Q 140.877912 17.96 140.877912 19.96 
L 140.877912 74.708713 
Q 140.877912 76.708713 142.877912 76.708713 
z
" style="fill:#ffffff;opacity:0.8;stroke:#cccccc;stroke-linejoin:miter;"/>
    </g>
    <g id="line2d_25">
     <path d="M 144.877912 25.46 
L 164.877912 25.46 
" style="fill:none;stroke:#1f77b4;stroke-linecap:square;stroke-width:1.5;"/>
    </g>
    <g id="line2d_26"/>
    <g id="text_13">
     <!-- $F_1$ TD3 -->
     <defs>
      <path d="M 62.203125 67.59375 
L 4.5 67.59375 
L 2.796875 45.59375 
L 4.59375 45.59375 
C 5.90625 62.125 7.296875 65 22.703125 65 
C 24.5 65 27.40625 65 28.203125 64.90625 
C 30.09375 64.609375 30.09375 63.40625 30.09375 61.125 
L 30.09375 7.171875 
C 30.09375 3.59375 29.796875 2.5 21.5 2.5 
L 18.703125 2.5 
L 18.703125 0 
C 23.5 0 28.5 0 33.40625 0 
C 38.296875 0 43.296875 0 48.09375 0 
L 48.09375 2.5 
L 45.296875 2.5 
C 37 2.5 36.703125 3.59375 36.703125 7.171875 
L 36.703125 61.125 
C 36.703125 63.3125 36.703125 64.515625 38.5 64.90625 
C 39.296875 65 42.203125 65 44 65 
C 59.296875 65 60.796875 62.125 62.09375 45.59375 
L 63.90625 45.59375 
z
" id="CMR17-84"/>
      <path d="M 5.203125 68 
L 5.203125 65.40625 
C 12.09375 65.40625 13.203125 65.40625 13.203125 60.9375 
L 13.203125 7.0625 
C 13.203125 2.59375 12.09375 2.59375 5.203125 2.59375 
L 5.203125 0 
L 37 0 
C 53.09375 0 66 14.734375 66 33.453125 
C 66 52.28125 53.296875 68 37 68 
z
M 23.796875 2.59375 
C 19.796875 2.59375 19.59375 3.078125 19.59375 6.46875 
L 19.59375 61.53125 
C 19.59375 64.921875 19.796875 65.40625 23.796875 65.40625 
L 35 65.40625 
C 43.296875 65.40625 58.59375 60.53125 58.59375 33.453125 
C 58.59375 19.40625 54.5 13.734375 52.59375 11.046875 
C 50.203125 7.96875 44.5 2.59375 35 2.59375 
z
" id="CMR17-68"/>
     </defs>
     <g transform="translate(172.877912 28.96)scale(0.1 -0.1)">
      <use transform="translate(0 14.943915)scale(0.996264)" xlink:href="#CMMI12-70"/>
      <use transform="translate(63.148204 0)scale(0.697382)" xlink:href="#CMR17-49"/>
      <use transform="translate(125.705484 14.943915)scale(0.996264)" xlink:href="#CMR17-84"/>
      <use transform="translate(192.215365 14.943915)scale(0.996264)" xlink:href="#CMR17-68"/>
      <use transform="translate(262.608921 14.943915)scale(0.996264)" xlink:href="#CMR17-51"/>
     </g>
    </g>
    <g id="line2d_27">
     <path d="M 144.877912 39.397178 
L 164.877912 39.397178 
" style="fill:none;stroke:#ff7f0e;stroke-linecap:square;stroke-width:1.5;"/>
    </g>
    <g id="line2d_28"/>
    <g id="text_14">
     <!-- $F_2$ TD3 -->
     <g transform="translate(172.877912 42.897178)scale(0.1 -0.1)">
      <use transform="translate(0 14.943915)scale(0.996264)" xlink:href="#CMMI12-70"/>
      <use transform="translate(63.148204 0)scale(0.697382)" xlink:href="#CMR17-50"/>
      <use transform="translate(125.705484 14.943915)scale(0.996264)" xlink:href="#CMR17-84"/>
      <use transform="translate(192.215365 14.943915)scale(0.996264)" xlink:href="#CMR17-68"/>
      <use transform="translate(262.608921 14.943915)scale(0.996264)" xlink:href="#CMR17-51"/>
     </g>
    </g>
    <g id="line2d_29">
     <path d="M 144.877912 53.334357 
L 164.877912 53.334357 
" style="fill:none;stroke:#2ca02c;stroke-linecap:square;stroke-width:1.5;"/>
    </g>
    <g id="line2d_30"/>
    <g id="text_15">
     <!-- $F_1$ SAC -->
     <defs>
      <path d="M 43.796875 67.03125 
C 43.796875 68.8125 43.703125 68.921875 43.09375 68.921875 
C 42.5 68.921875 42.296875 68.515625 41.90625 67.625 
L 38.90625 61.046875 
C 35.09375 66.515625 29.296875 69 23 69 
C 12.796875 69 4.59375 60.953125 4.59375 50.828125 
C 4.59375 47.75 5.296875 43.375 8.703125 39.21875 
C 12.40625 34.65625 15.90625 33.859375 23.90625 31.765625 
C 26.90625 30.96875 31.90625 29.671875 32.90625 29.28125 
C 38.59375 26.90625 41.59375 20.953125 41.59375 15.390625 
C 41.59375 8.234375 36.5 0.59375 27.796875 0.59375 
C 17.09375 0.59375 7.09375 6.546875 6.40625 20.484375 
C 6.296875 22.078125 6.203125 22.171875 5.5 22.171875 
C 4.703125 22.171875 4.59375 22.078125 4.59375 20.078125 
L 4.59375 -0.015625 
C 4.59375 -1.796875 4.703125 -1.90625 5.296875 -1.90625 
C 6 -1.90625 6.203125 -1.40625 7.59375 1.6875 
C 7.703125 1.984375 7.703125 2.1875 9.59375 5.953125 
C 14.59375 -0.609375 23 -2 27.796875 -2 
C 38.703125 -2 46.40625 7.046875 46.40625 17.5625 
C 46.40625 22.71875 44.5 26.6875 43.40625 28.484375 
C 39.203125 34.84375 34.703125 36.03125 29.90625 37.21875 
C 29.203125 37.53125 29 37.53125 23.40625 38.90625 
C 18 40.296875 15.703125 41 13.203125 43.6875 
C 10.40625 46.75 9.40625 49.9375 9.40625 53.109375 
C 9.40625 59.5625 14.59375 66.609375 23.09375 66.609375 
C 33.703125 66.609375 40.296875 59.15625 41.796875 46.765625 
C 42.09375 44.96875 42.203125 44.875 42.90625 44.875 
C 43.796875 44.875 43.796875 45.171875 43.796875 46.859375 
z
" id="CMR17-83"/>
      <path d="M 36.296875 68.40625 
C 35.796875 69.703125 35.59375 70 34.59375 70 
C 33.59375 70 33.40625 69.703125 32.90625 68.40625 
L 11.703125 8.84375 
C 9.796875 3.484375 5.796875 2.390625 2.296875 2.390625 
L 2.296875 -0.203125 
C 4.09375 0 8.09375 0 10 0 
C 12.5 0 16.5 0 18.90625 -0.203125 
L 18.90625 2.390625 
C 14.203125 2.390625 13.5 5.640625 13.5 6.859375 
C 13.5 7.765625 13.703125 8.28125 13.90625 8.890625 
L 19.203125 24 
L 45.40625 24 
L 51.40625 6.90625 
C 51.90625 5.703125 51.90625 5.5 51.90625 5.109375 
C 51.90625 2.390625 47.59375 2.390625 45.703125 2.390625 
L 45.703125 0 
C 48.59375 0 53.796875 0 56.90625 0 
C 59.5 0 64.5 0 66.90625 -0.203125 
L 66.90625 2.390625 
C 61.59375 2.390625 59.796875 2.390625 58.5 6.046875 
z
M 32.296875 60.828125 
L 44.5 26.59375 
L 20.09375 26.59375 
z
" id="CMR17-65"/>
      <path d="M 62.09375 67.015625 
C 62.09375 68.796875 62 68.90625 61.40625 68.90625 
C 61 68.90625 60.90625 68.796875 60.203125 67.609375 
L 55.796875 59.25 
C 50.90625 65.421875 44.90625 69 37.203125 69 
C 20.09375 69 4.59375 54 4.59375 33.5625 
C 4.59375 12.90625 20.09375 -2 37.296875 -2 
C 52.59375 -2 62.09375 11.40625 62.09375 22.828125 
C 62.09375 23.8125 62.09375 24.21875 61.203125 24.21875 
C 60.40625 24.21875 60.40625 23.921875 60.296875 23.03125 
C 59.5 9.140625 49.5 0.59375 38.703125 0.59375 
C 28.5 0.59375 12.203125 7.734375 12.203125 33.546875 
C 12.203125 59.453125 28.796875 66.40625 38.5 66.40625 
C 49.796875 66.40625 58 56.6875 59.90625 42.890625 
C 60.09375 41.6875 60.09375 41.484375 61 41.484375 
C 62.09375 41.484375 62.09375 41.6875 62.09375 43.484375 
z
" id="CMR17-67"/>
     </defs>
     <g transform="translate(172.877912 56.834357)scale(0.1 -0.1)">
      <use transform="translate(0 14.943915)scale(0.996264)" xlink:href="#CMMI12-70"/>
      <use transform="translate(63.148204 0)scale(0.697382)" xlink:href="#CMR17-49"/>
      <use transform="translate(125.705484 14.943915)scale(0.996264)" xlink:href="#CMR17-83"/>
      <use transform="translate(176.600854 14.943915)scale(0.996264)" xlink:href="#CMR17-65"/>
      <use transform="translate(243.07083 14.943915)scale(0.996264)" xlink:href="#CMR17-67"/>
     </g>
    </g>
    <g id="line2d_31">
     <path d="M 144.877912 67.271535 
L 164.877912 67.271535 
" style="fill:none;stroke:#d62728;stroke-linecap:square;stroke-width:1.5;"/>
    </g>
    <g id="line2d_32"/>
    <g id="text_16">
     <!-- $F_2$ SAC -->
     <g transform="translate(172.877912 70.771535)scale(0.1 -0.1)">
      <use transform="translate(0 14.943915)scale(0.996264)" xlink:href="#CMMI12-70"/>
      <use transform="translate(63.148204 0)scale(0.697382)" xlink:href="#CMR17-50"/>
      <use transform="translate(125.705484 14.943915)scale(0.996264)" xlink:href="#CMR17-83"/>
      <use transform="translate(176.600854 14.943915)scale(0.996264)" xlink:href="#CMR17-65"/>
      <use transform="translate(243.07083 14.943915)scale(0.996264)" xlink:href="#CMR17-67"/>
     </g>
    </g>
   </g>
  </g>
 </g>
 <defs>
  <clipPath id="p038f352205">
   <rect height="83.16" width="186" x="30" y="12.96"/>
  </clipPath>
 </defs>
</svg>
