<?xml version="1.0" encoding="utf-8" standalone="no"?>
<!DOCTYPE svg PUBLIC "-//W3C//DTD SVG 1.1//EN"
  "http://www.w3.org/Graphics/SVG/1.1/DTD/svg11.dtd">
<!-- Created with matplotlib (http://matplotlib.org/) -->
<svg height="108pt" version="1.1" viewBox="0 0 240 108" width="240pt" xmlns="http://www.w3.org/2000/svg" xmlns:xlink="http://www.w3.org/1999/xlink">
 <defs>
  <style type="text/css">
*{stroke-linecap:butt;stroke-linejoin:round;}
  </style>
 </defs>
 <g id="figure_1">
  <g id="patch_1">
   <path d="M 0 108 
L 240 108 
L 240 0 
L 0 0 
z
" style="fill:#ffffff;"/>
  </g>
  <g id="axes_1">
   <g id="patch_2">
    <path d="M 30 96.12 
L 216 96.12 
L 216 12.96 
L 30 12.96 
z
" style="fill:#ffffff;"/>
   </g>
   <g id="matplotlib.axis_1">
    <g id="xtick_1">
     <g id="line2d_1">
      <path clip-path="url(#p9fa058871f)" d="M 38.454545 96.12 
L 38.454545 12.96 
" style="fill:none;stroke:#b0b0b0;stroke-linecap:square;stroke-width:0.8;"/>
     </g>
     <g id="line2d_2">
      <defs>
       <path d="M 0 0 
L 0 3.5 
" id="me13e192fac" style="stroke:#000000;stroke-width:0.8;"/>
      </defs>
      <g>
       <use style="stroke:#000000;stroke-width:0.8;" x="38.454545" xlink:href="#me13e192fac" y="96.12"/>
      </g>
     </g>
     <g id="text_1">
      <!-- $0$ -->
      <defs>
       <path d="M 42 31.640625 
C 42 37.75 41.90625 48.125 37.703125 56.109375 
C 34 63.109375 28.09375 65.59375 22.90625 65.59375 
C 18.09375 65.59375 12 63.40625 8.203125 56.203125 
C 4.203125 48.71875 3.796875 39.4375 3.796875 31.640625 
C 3.796875 25.953125 3.90625 17.28125 7 9.671875 
C 11.296875 -0.609375 19 -2 22.90625 -2 
C 27.5 -2 34.5 -0.109375 38.59375 9.375 
C 41.59375 16.28125 42 24.359375 42 31.640625 
z
M 22.90625 -0.40625 
C 16.5 -0.40625 12.703125 5.078125 11.296875 12.6875 
C 10.203125 18.5625 10.203125 27.15625 10.203125 32.75 
C 10.203125 40.4375 10.203125 46.828125 11.5 52.921875 
C 13.40625 61.390625 19 64 22.90625 64 
C 27 64 32.296875 61.296875 34.203125 53.125 
C 35.5 47.4375 35.59375 40.734375 35.59375 32.75 
C 35.59375 26.25 35.59375 18.265625 34.40625 12.375 
C 32.296875 1.484375 26.40625 -0.40625 22.90625 -0.40625 
z
" id="CMR17-48"/>
      </defs>
      <g transform="translate(35.963878 110.038498)scale(0.1 -0.1)">
       <use transform="scale(0.996264)" xlink:href="#CMR17-48"/>
      </g>
     </g>
    </g>
    <g id="xtick_2">
     <g id="line2d_3">
      <path clip-path="url(#p9fa058871f)" d="M 72.340499 96.12 
L 72.340499 12.96 
" style="fill:none;stroke:#b0b0b0;stroke-linecap:square;stroke-width:0.8;"/>
     </g>
     <g id="line2d_4">
      <g>
       <use style="stroke:#000000;stroke-width:0.8;" x="72.340499" xlink:href="#me13e192fac" y="96.12"/>
      </g>
     </g>
     <g id="text_2">
      <!-- $100$ -->
      <defs>
       <path d="M 26.59375 63.40625 
C 26.59375 65.5 26.5 65.5 25.09375 65.5 
C 21.203125 61.1875 15.296875 59.796875 9.703125 59.796875 
C 9.40625 59.796875 8.90625 59.796875 8.796875 59.5 
C 8.703125 59.296875 8.703125 59.09375 8.703125 57 
C 11.796875 57 17 57.59375 21 59.984375 
L 21 7.203125 
C 21 3.6875 20.796875 2.5 12.203125 2.5 
L 9.203125 2.5 
L 9.203125 0 
C 14 0 19 0 23.796875 0 
C 28.59375 0 33.59375 0 38.40625 0 
L 38.40625 2.5 
L 35.40625 2.5 
C 26.796875 2.5 26.59375 3.59375 26.59375 7.15625 
z
" id="CMR17-49"/>
      </defs>
      <g transform="translate(64.868496 110.038498)scale(0.1 -0.1)">
       <use transform="scale(0.996264)" xlink:href="#CMR17-49"/>
       <use transform="translate(45.690477 0)scale(0.996264)" xlink:href="#CMR17-48"/>
       <use transform="translate(91.380954 0)scale(0.996264)" xlink:href="#CMR17-48"/>
      </g>
     </g>
    </g>
    <g id="xtick_3">
     <g id="line2d_5">
      <path clip-path="url(#p9fa058871f)" d="M 106.226453 96.12 
L 106.226453 12.96 
" style="fill:none;stroke:#b0b0b0;stroke-linecap:square;stroke-width:0.8;"/>
     </g>
     <g id="line2d_6">
      <g>
       <use style="stroke:#000000;stroke-width:0.8;" x="106.226453" xlink:href="#me13e192fac" y="96.12"/>
      </g>
     </g>
     <g id="text_3">
      <!-- $200$ -->
      <defs>
       <path d="M 41.703125 15.453125 
L 39.90625 15.453125 
C 38.90625 8.375 38.09375 7.171875 37.703125 6.5625 
C 37.203125 5.765625 30 5.765625 28.59375 5.765625 
L 9.40625 5.765625 
C 13 9.671875 20 16.75 28.5 24.953125 
C 34.59375 30.734375 41.703125 37.53125 41.703125 47.421875 
C 41.703125 59.21875 32.296875 66 21.796875 66 
C 10.796875 66 4.09375 56.3125 4.09375 47.34375 
C 4.09375 43.4375 7 42.9375 8.203125 42.9375 
C 9.203125 42.9375 12.203125 43.546875 12.203125 47.03125 
C 12.203125 50.109375 9.59375 51 8.203125 51 
C 7.59375 51 7 50.90625 6.59375 50.703125 
C 8.5 59.21875 14.296875 63.40625 20.40625 63.40625 
C 29.09375 63.40625 34.796875 56.515625 34.796875 47.421875 
C 34.796875 38.734375 29.703125 31.25 24 24.75 
L 4.09375 2.28125 
L 4.09375 0 
L 39.296875 0 
z
" id="CMR17-50"/>
      </defs>
      <g transform="translate(98.75445 110.038498)scale(0.1 -0.1)">
       <use transform="scale(0.996264)" xlink:href="#CMR17-50"/>
       <use transform="translate(45.690477 0)scale(0.996264)" xlink:href="#CMR17-48"/>
       <use transform="translate(91.380954 0)scale(0.996264)" xlink:href="#CMR17-48"/>
      </g>
     </g>
    </g>
    <g id="xtick_4">
     <g id="line2d_7">
      <path clip-path="url(#p9fa058871f)" d="M 140.112407 96.12 
L 140.112407 12.96 
" style="fill:none;stroke:#b0b0b0;stroke-linecap:square;stroke-width:0.8;"/>
     </g>
     <g id="line2d_8">
      <g>
       <use style="stroke:#000000;stroke-width:0.8;" x="140.112407" xlink:href="#me13e192fac" y="96.12"/>
      </g>
     </g>
     <g id="text_4">
      <!-- $300$ -->
      <defs>
       <path d="M 22.09375 33.703125 
C 31 33.703125 34.90625 25.96875 34.90625 17.03125 
C 34.90625 5 28.5 0.390625 22.703125 0.390625 
C 17.40625 0.390625 8.796875 3.03125 6.09375 10.828125 
C 6.59375 10.625 7.09375 10.625 7.59375 10.625 
C 10 10.625 11.796875 12.21875 11.796875 14.8125 
C 11.796875 17.703125 9.59375 19 7.59375 19 
C 5.90625 19 3.296875 18.203125 3.296875 14.46875 
C 3.296875 5.234375 12.296875 -2 22.90625 -2 
C 34 -2 42.5 6.71875 42.5 16.953125 
C 42.5 26.671875 34.5 33.703125 25 34.796875 
C 32.59375 36.375 39.90625 43.0625 39.90625 52.015625 
C 39.90625 59.6875 32 65.296875 23 65.296875 
C 13.90625 65.296875 5.90625 59.828125 5.90625 52.015625 
C 5.90625 48.59375 8.5 48 9.796875 48 
C 11.90625 48 13.703125 49.296875 13.703125 51.890625 
C 13.703125 54.46875 11.90625 55.765625 9.796875 55.765625 
C 9.40625 55.765625 8.90625 55.765625 8.5 55.578125 
C 11.40625 61.859375 19.296875 63 22.796875 63 
C 26.296875 63 32.90625 61.328125 32.90625 51.875 
C 32.90625 49.109375 32.5 44.1875 29.09375 39.84375 
C 26.09375 36 22.703125 36 19.40625 35.6875 
C 18.90625 35.6875 16.59375 35.453125 16.203125 35.453125 
C 15.5 35.359375 15.09375 35.265625 15.09375 34.5 
C 15.09375 33.796875 15.203125 33.703125 17.203125 33.703125 
z
" id="CMR17-51"/>
      </defs>
      <g transform="translate(132.640404 110.038498)scale(0.1 -0.1)">
       <use transform="scale(0.996264)" xlink:href="#CMR17-51"/>
       <use transform="translate(45.690477 0)scale(0.996264)" xlink:href="#CMR17-48"/>
       <use transform="translate(91.380954 0)scale(0.996264)" xlink:href="#CMR17-48"/>
      </g>
     </g>
    </g>
    <g id="xtick_5">
     <g id="line2d_9">
      <path clip-path="url(#p9fa058871f)" d="M 173.99836 96.12 
L 173.99836 12.96 
" style="fill:none;stroke:#b0b0b0;stroke-linecap:square;stroke-width:0.8;"/>
     </g>
     <g id="line2d_10">
      <g>
       <use style="stroke:#000000;stroke-width:0.8;" x="173.99836" xlink:href="#me13e192fac" y="96.12"/>
      </g>
     </g>
     <g id="text_5">
      <!-- $400$ -->
      <defs>
       <path d="M 33.59375 64.40625 
C 33.59375 66.5 33.5 66.5 31.703125 66.5 
L 2 19.59375 
L 2 17 
L 27.796875 17 
L 27.796875 7.140625 
C 27.796875 3.5 27.59375 2.5 20.59375 2.5 
L 18.703125 2.5 
L 18.703125 0 
C 21.90625 0 27.296875 0 30.703125 0 
C 34.09375 0 39.5 0 42.703125 0 
L 42.703125 2.5 
L 40.796875 2.5 
C 33.796875 2.5 33.59375 3.5 33.59375 7.140625 
L 33.59375 17 
L 43.796875 17 
L 43.796875 19.59375 
L 33.59375 19.59375 
z
M 28.09375 57.859375 
L 28.09375 19.59375 
L 4 19.59375 
z
" id="CMR17-52"/>
      </defs>
      <g transform="translate(166.526357 110.038498)scale(0.1 -0.1)">
       <use transform="scale(0.996264)" xlink:href="#CMR17-52"/>
       <use transform="translate(45.690477 0)scale(0.996264)" xlink:href="#CMR17-48"/>
       <use transform="translate(91.380954 0)scale(0.996264)" xlink:href="#CMR17-48"/>
      </g>
     </g>
    </g>
    <g id="xtick_6">
     <g id="line2d_11">
      <path clip-path="url(#p9fa058871f)" d="M 207.884314 96.12 
L 207.884314 12.96 
" style="fill:none;stroke:#b0b0b0;stroke-linecap:square;stroke-width:0.8;"/>
     </g>
     <g id="line2d_12">
      <g>
       <use style="stroke:#000000;stroke-width:0.8;" x="207.884314" xlink:href="#me13e192fac" y="96.12"/>
      </g>
     </g>
     <g id="text_6">
      <!-- $500$ -->
      <defs>
       <path d="M 11.40625 57.6875 
C 12.40625 57.28125 16.5 56 20.703125 56 
C 30 56 35.09375 61.109375 38 64.0625 
C 38 64.953125 38 65.5 37.40625 65.5 
C 37.296875 65.5 37.09375 65.5 36.296875 65.046875 
C 32.796875 63.40625 28.703125 62.078125 23.703125 62.078125 
C 20.703125 62.078125 16.203125 62.484375 11.296875 64.671875 
C 10.203125 65.171875 10 65.171875 9.90625 65.171875 
C 9.40625 65.171875 9.296875 65.0625 9.296875 63.078125 
L 9.296875 34.421875 
C 9.296875 32.640625 9.296875 32.140625 10.296875 32.140625 
C 10.796875 32.140625 11 32.34375 11.5 33.03125 
C 14.703125 37.515625 19.09375 39.40625 24.09375 39.40625 
C 27.59375 39.40625 35.09375 37.21875 35.09375 20.140625 
C 35.09375 16.953125 35.09375 11.171875 32.09375 6.578125 
C 29.59375 2.484375 25.703125 0.390625 21.40625 0.390625 
C 14.796875 0.390625 8.09375 5 6.296875 12.71875 
C 6.703125 12.609375 7.5 12.421875 7.90625 12.421875 
C 9.203125 12.421875 11.703125 13.125 11.703125 16.21875 
C 11.703125 18.90625 9.796875 20 7.90625 20 
C 5.59375 20 4.09375 18.59375 4.09375 15.796875 
C 4.09375 7.09375 11 -2 21.59375 -2 
C 31.90625 -2 41.703125 6.875 41.703125 19.75 
C 41.703125 31.71875 33.90625 41 24.203125 41 
C 19.09375 41 14.796875 39.109375 11.40625 35.53125 
z
" id="CMR17-53"/>
      </defs>
      <g transform="translate(200.412311 110.038498)scale(0.1 -0.1)">
       <use transform="scale(0.996264)" xlink:href="#CMR17-53"/>
       <use transform="translate(45.690477 0)scale(0.996264)" xlink:href="#CMR17-48"/>
       <use transform="translate(91.380954 0)scale(0.996264)" xlink:href="#CMR17-48"/>
      </g>
     </g>
    </g>
    <g id="text_7">
     <!-- $k$ (iteration) -->
     <defs>
      <path d="M 28.09375 66.515625 
C 28.203125 66.921875 28.40625 67.515625 28.40625 68 
C 28.40625 69 27.40625 69 27.203125 69 
C 27.09375 69 23.5 68.640625 21.703125 68.390625 
C 20 68.390625 18.5 68.09375 16.703125 68.09375 
C 14.296875 67.890625 13.59375 67.796875 13.59375 66 
C 13.59375 65 14.59375 65 15.59375 65 
C 20.703125 65 20.703125 64.109375 20.703125 63.125 
C 20.703125 62.734375 20.703125 62.53125 20.203125 60.75 
L 5.90625 3.875 
C 5.5 2.375 5.5 2.1875 5.5 1.578125 
C 5.5 -0.59375 7.203125 -1 8.203125 -1 
C 11 -1 11.59375 1.203125 12.40625 4.296875 
L 17.09375 22.953125 
C 24.296875 22.15625 28.59375 19.15625 28.59375 14.375 
C 28.59375 13.765625 28.59375 13.375 28.296875 11.875 
C 27.90625 10.375 27.90625 9.1875 27.90625 8.6875 
C 27.90625 2.890625 31.703125 -1 36.796875 -1 
C 41.40625 -1 43.796875 3.1875 44.59375 4.59375 
C 46.703125 8.28125 48 13.875 48 14.265625 
C 48 14.765625 47.59375 15.171875 47 15.171875 
C 46.09375 15.171875 46 14.765625 45.59375 13.171875 
C 44.203125 7.984375 42.09375 1 37 1 
C 35 1 33.703125 2 33.703125 5.78125 
C 33.703125 7.6875 34.09375 9.875 34.5 11.375 
C 34.90625 13.171875 34.90625 13.265625 34.90625 14.46875 
C 34.90625 20.359375 29.59375 23.65625 20.40625 24.84375 
C 24 27.046875 27.59375 30.9375 29 32.4375 
C 34.703125 38.8125 38.59375 42.015625 43.203125 42.015625 
C 45.5 42.015625 46.09375 41.40625 46.796875 40.8125 
C 43.09375 40.40625 41.703125 37.8125 41.703125 35.828125 
C 41.703125 33.421875 43.59375 32.625 45 32.625 
C 47.703125 32.625 50.09375 34.921875 50.09375 38.125 
C 50.09375 41.015625 47.796875 44 43.296875 44 
C 37.796875 44 33.296875 40.109375 26.203125 32.125 
C 25.203125 30.9375 21.5 27.140625 17.796875 25.75 
z
" id="CMMI12-107"/>
      <path d="M 30.59375 -24.390625 
C 30.59375 -24.296875 30.59375 -24.09375 30.296875 -23.796875 
C 25.703125 -19.125 13.40625 -6.359375 13.40625 24.703125 
C 13.40625 55.765625 25.5 68.421875 30.40625 73.390625 
C 30.40625 73.5 30.59375 73.703125 30.59375 74 
C 30.59375 74.296875 30.296875 74.5 29.90625 74.5 
C 28.796875 74.5 20.296875 67.125 15.40625 56.15625 
C 10.40625 45.109375 9 34.359375 9 24.8125 
C 9 17.625 9.703125 5.484375 15.703125 -7.359375 
C 20.5 -17.734375 28.703125 -25 29.90625 -25 
C 30.40625 -25 30.59375 -24.796875 30.59375 -24.390625 
z
" id="CMR17-40"/>
      <path d="M 15.5 61.078125 
C 15.5 63.265625 13.703125 65.15625 11.40625 65.15625 
C 9.203125 65.15625 7.296875 63.375 7.296875 61.078125 
C 7.296875 58.890625 9.09375 57 11.40625 57 
C 13.59375 57 15.5 58.796875 15.5 61.078125 
z
M 3.796875 42.28125 
L 3.796875 39.703125 
C 9.40625 39.703125 10.203125 39.09375 10.203125 34.328125 
L 10.203125 6.671875 
C 10.203125 2.875 9.796875 2.390625 3.40625 2.390625 
L 3.40625 -0.203125 
C 5.796875 0 10.09375 0 12.59375 0 
C 15 0 19.09375 0 21.40625 -0.203125 
L 21.40625 2.390625 
C 15.5 2.390625 15.296875 2.984375 15.296875 6.5625 
L 15.296875 43.375 
z
" id="CMR17-105"/>
      <path d="M 15.09375 40 
L 29.09375 40 
L 29.09375 42.578125 
L 15.09375 42.578125 
L 15.09375 61 
L 13.296875 61 
C 13.09375 50.703125 9.59375 41.6875 1.09375 41.6875 
L 1.09375 40 
L 9.796875 40 
L 9.796875 12.046875 
C 9.796875 10.15625 9.796875 -1 21.40625 -1 
C 27.296875 -1 30.703125 4.78125 30.703125 12.140625 
L 30.703125 17.8125 
L 28.90625 17.8125 
L 28.90625 12.234375 
C 28.90625 5.375 26.203125 0.796875 22 0.796875 
C 19.09375 0.796875 15.09375 2.78125 15.09375 11.84375 
z
" id="CMR17-116"/>
      <path d="M 38.09375 23 
C 38.5 23.40625 38.5 23.609375 38.5 24.625 
C 38.5 34.96875 33.09375 44 21.703125 44 
C 11.09375 44 2.703125 33.890625 2.703125 21.609375 
C 2.703125 8.609375 12.203125 -1 22.796875 -1 
C 34 -1 38.40625 9.484375 38.40625 11.5625 
C 38.40625 12.25 37.796875 12.25 37.59375 12.25 
C 36.90625 12.25 36.796875 12.046875 36.40625 10.875 
C 34.203125 4.140625 28.703125 0.796875 23.5 0.796875 
C 19.203125 0.796875 14.90625 3.171875 12.203125 7.5 
C 9.09375 12.546875 9.09375 18.375 9.09375 23 
z
M 9.203125 24.5 
C 9.90625 39.140625 17.59375 42.40625 21.59375 42.40625 
C 28.40625 42.40625 33 35.890625 33.09375 24.5 
z
" id="CMR17-101"/>
      <path d="M 15 23.390625 
C 15 33 19.09375 42 26.59375 42 
C 27.296875 42 28 41.90625 28.703125 41.59375 
C 28.703125 41.59375 26.5 40.890625 26.5 38.3125 
C 26.5 35.90625 28.40625 34.90625 29.90625 34.90625 
C 31.09375 34.90625 33.296875 35.609375 33.296875 38.40625 
C 33.296875 41.609375 30.09375 43.59375 26.703125 43.59375 
C 19.09375 43.59375 15.796875 36.203125 14.796875 32.703125 
L 14.703125 32.703125 
L 14.703125 43.59375 
L 3.09375 42.5 
L 3.09375 39.90625 
C 9 39.90625 9.90625 39.296875 9.90625 34.5 
L 9.90625 6.6875 
C 9.90625 2.875 9.5 2.390625 3.09375 2.390625 
L 3.09375 -0.203125 
C 5.5 0 10.09375 0 12.703125 0 
C 15.59375 0 20.703125 0 23.40625 -0.203125 
L 23.40625 2.390625 
C 16.203125 2.390625 15 2.390625 15 6.875 
z
" id="CMR17-114"/>
      <path d="M 36 25.828125 
C 36 32.375 36 35.84375 31.796875 39.734375 
C 28.09375 43 23.796875 44 20.40625 44 
C 12.5 44 6.796875 37.609375 6.796875 30.796875 
C 6.796875 27 9.796875 27 10.40625 27 
C 11.703125 27 14 27.78125 14 30.53125 
C 14 33 12.09375 34.078125 10.40625 34.078125 
C 10 34.078125 9.5 33.96875 9.203125 33.875 
C 11.296875 40.5 16.703125 42.40625 20.203125 42.40625 
C 25.203125 42.40625 30.703125 37.953125 30.703125 29.453125 
L 30.703125 25 
C 24.796875 25 17.703125 24.203125 12.09375 21.203125 
C 5.796875 17.703125 4 12.703125 4 8.90625 
C 4 1.203125 13 -1 18.296875 -1 
C 23.796875 -1 28.90625 2.171875 31.09375 7.984375 
C 31.296875 3.640625 34.09375 -0.28125 38.5 -0.28125 
C 40.59375 -0.28125 45.90625 1.09375 45.90625 8.859375 
L 45.90625 14.375 
L 44.09375 14.375 
L 44.09375 8.78125 
C 44.09375 2.78125 41.40625 2 40.09375 2 
C 36 2 36 7.15625 36 11.53125 
z
M 30.703125 13.59375 
C 30.703125 4.953125 24.5 0.59375 19 0.59375 
C 14 0.59375 10.09375 4.296875 10.09375 8.90625 
C 10.09375 11.890625 11.40625 17.1875 17.203125 20.390625 
C 22 23.09375 27.5 23.5 30.703125 23.5 
z
" id="CMR17-97"/>
      <path d="M 43.09375 21.1875 
C 43.09375 34 33.796875 44 22.90625 44 
C 12 44 2.703125 34 2.703125 21.1875 
C 2.703125 8.609375 12 -1 22.90625 -1 
C 33.796875 -1 43.09375 8.609375 43.09375 21.1875 
z
M 22.90625 0.796875 
C 18.203125 0.796875 14.203125 3.59375 11.90625 7.5 
C 9.40625 11.984375 9.09375 17.59375 9.09375 22 
C 9.09375 26.203125 9.296875 31.40625 11.90625 35.90625 
C 13.90625 39.203125 17.796875 42.40625 22.90625 42.40625 
C 27.40625 42.40625 31.203125 39.90625 33.59375 36.40625 
C 36.703125 31.703125 36.703125 25.109375 36.703125 22 
C 36.703125 18.09375 36.5 12.109375 33.796875 7.296875 
C 31 2.703125 26.703125 0.796875 22.90625 0.796875 
z
" id="CMR17-111"/>
      <path d="M 41.5 30.203125 
C 41.5 35.296875 40.5 43.59375 28.703125 43.59375 
C 20.796875 43.59375 16.703125 37.5 15.203125 33.5 
L 15.09375 33.5 
L 15.09375 43.59375 
L 3.296875 42.5 
L 3.296875 39.90625 
C 9.203125 39.90625 10.09375 39.296875 10.09375 34.5 
L 10.09375 6.6875 
C 10.09375 2.875 9.703125 2.390625 3.296875 2.390625 
L 3.296875 -0.203125 
C 5.703125 0 10.09375 0 12.703125 0 
C 15.296875 0 19.796875 0 22.203125 -0.203125 
L 22.203125 2.390625 
C 15.796875 2.390625 15.40625 2.78125 15.40625 6.6875 
L 15.40625 25.90625 
C 15.40625 35.109375 21 42 28 42 
C 35.40625 42 36.203125 35.40625 36.203125 30.59375 
L 36.203125 6.6875 
C 36.203125 2.875 35.796875 2.390625 29.40625 2.390625 
L 29.40625 -0.203125 
C 31.796875 0 36.203125 0 38.796875 0 
C 41.40625 0 45.90625 0 48.296875 -0.203125 
L 48.296875 2.390625 
C 41.90625 2.390625 41.5 2.78125 41.5 6.6875 
z
" id="CMR17-110"/>
      <path d="M 26.296875 24.703125 
C 26.296875 31.875 25.59375 44.015625 19.59375 56.859375 
C 14.796875 67.234375 6.59375 74.5 5.40625 74.5 
C 5.09375 74.5 4.703125 74.390625 4.703125 73.890625 
C 4.703125 73.703125 4.796875 73.59375 4.90625 73.390625 
C 9.703125 68.40625 21.90625 55.75 21.90625 24.75 
C 21.90625 -6.359375 9.796875 -19.015625 4.90625 -24.015625 
C 4.796875 -24.203125 4.703125 -24.3125 4.703125 -24.5 
C 4.703125 -25 5.09375 -25 5.40625 -25 
C 6.5 -25 15 -17.625 19.90625 -6.65625 
C 24.90625 4.390625 26.296875 15.140625 26.296875 24.703125 
z
" id="CMR17-41"/>
     </defs>
     <g transform="translate(96.159619 123.447657)scale(0.1 -0.1)">
      <use transform="scale(0.996264)" xlink:href="#CMMI12-107"/>
      <use transform="translate(84.155167 0)scale(0.996264)" xlink:href="#CMR17-40"/>
      <use transform="translate(119.435935 0)scale(0.996264)" xlink:href="#CMR17-105"/>
      <use transform="translate(144.306993 0)scale(0.996264)" xlink:href="#CMR17-116"/>
      <use transform="translate(179.587761 0)scale(0.996264)" xlink:href="#CMR17-101"/>
      <use transform="translate(220.073422 0)scale(0.996264)" xlink:href="#CMR17-114"/>
      <use transform="translate(255.354189 0)scale(0.996264)" xlink:href="#CMR17-97"/>
      <use transform="translate(301.044666 0)scale(0.996264)" xlink:href="#CMR17-116"/>
      <use transform="translate(336.325434 0)scale(0.996264)" xlink:href="#CMR17-105"/>
      <use transform="translate(361.196493 0)scale(0.996264)" xlink:href="#CMR17-111"/>
      <use transform="translate(406.88697 0)scale(0.996264)" xlink:href="#CMR17-110"/>
      <use transform="translate(457.78234 0)scale(0.996264)" xlink:href="#CMR17-41"/>
     </g>
    </g>
   </g>
   <g id="matplotlib.axis_2">
    <g id="ytick_1">
     <g id="line2d_13">
      <path clip-path="url(#p9fa058871f)" d="M 30 92.34 
L 216 92.34 
" style="fill:none;stroke:#b0b0b0;stroke-linecap:square;stroke-width:0.8;"/>
     </g>
     <g id="line2d_14">
      <defs>
       <path d="M 0 0 
L -3.5 0 
" id="mead40c1839" style="stroke:#000000;stroke-width:0.8;"/>
      </defs>
      <g>
       <use style="stroke:#000000;stroke-width:0.8;" x="30" xlink:href="#mead40c1839" y="92.34"/>
      </g>
     </g>
     <g id="text_8">
      <!-- $0$ -->
      <g transform="translate(18.018665 95.799249)scale(0.1 -0.1)">
       <use transform="scale(0.996264)" xlink:href="#CMR17-48"/>
      </g>
     </g>
    </g>
    <g id="ytick_2">
     <g id="line2d_15">
      <path clip-path="url(#p9fa058871f)" d="M 30 66.651927 
L 216 66.651927 
" style="fill:none;stroke:#b0b0b0;stroke-linecap:square;stroke-width:0.8;"/>
     </g>
     <g id="line2d_16">
      <g>
       <use style="stroke:#000000;stroke-width:0.8;" x="30" xlink:href="#mead40c1839" y="66.651927"/>
      </g>
     </g>
     <g id="text_9">
      <!-- $5$ -->
      <g transform="translate(18.018665 70.111176)scale(0.1 -0.1)">
       <use transform="scale(0.996264)" xlink:href="#CMR17-53"/>
      </g>
     </g>
    </g>
    <g id="ytick_3">
     <g id="line2d_17">
      <path clip-path="url(#p9fa058871f)" d="M 30 40.963854 
L 216 40.963854 
" style="fill:none;stroke:#b0b0b0;stroke-linecap:square;stroke-width:0.8;"/>
     </g>
     <g id="line2d_18">
      <g>
       <use style="stroke:#000000;stroke-width:0.8;" x="30" xlink:href="#mead40c1839" y="40.963854"/>
      </g>
     </g>
     <g id="text_10">
      <!-- $10$ -->
      <g transform="translate(13.037329 44.423103)scale(0.1 -0.1)">
       <use transform="scale(0.996264)" xlink:href="#CMR17-49"/>
       <use transform="translate(45.690477 0)scale(0.996264)" xlink:href="#CMR17-48"/>
      </g>
     </g>
    </g>
    <g id="ytick_4">
     <g id="line2d_19">
      <path clip-path="url(#p9fa058871f)" d="M 30 15.275781 
L 216 15.275781 
" style="fill:none;stroke:#b0b0b0;stroke-linecap:square;stroke-width:0.8;"/>
     </g>
     <g id="line2d_20">
      <g>
       <use style="stroke:#000000;stroke-width:0.8;" x="30" xlink:href="#mead40c1839" y="15.275781"/>
      </g>
     </g>
     <g id="text_11">
      <!-- $15$ -->
      <g transform="translate(13.037329 18.73503)scale(0.1 -0.1)">
       <use transform="scale(0.996264)" xlink:href="#CMR17-49"/>
       <use transform="translate(45.690477 0)scale(0.996264)" xlink:href="#CMR17-53"/>
      </g>
     </g>
    </g>
    <g id="text_12">
     <!-- $F$ (N) -->
     <defs>
      <path d="M 29.703125 32.109375 
L 39.296875 32.109375 
C 46.90625 32.109375 47.5 30.40625 47.5 27.515625 
C 47.5 26.21875 47.296875 24.828125 46.796875 22.625 
C 46.59375 22.234375 46.5 21.734375 46.5 21.53125 
C 46.5 20.828125 46.90625 20.4375 47.59375 20.4375 
C 48.40625 20.4375 48.5 20.828125 48.90625 22.421875 
L 54.703125 45.859375 
C 54.703125 46.265625 54.40625 46.859375 53.703125 46.859375 
C 52.796875 46.859375 52.703125 46.46875 52.296875 44.734375 
C 50.203125 37.125 48.203125 35 39.5 35 
L 30.40625 35 
L 36.90625 61.34375 
C 37.796875 64.90625 38 64.90625 42.09375 64.90625 
L 55.5 64.90625 
C 68 64.90625 69.796875 61.21875 69.796875 54.125 
C 69.796875 53.53125 69.796875 51.328125 69.5 48.734375 
C 69.40625 48.34375 69.203125 47.046875 69.203125 46.640625 
C 69.203125 45.84375 69.703125 45.546875 70.296875 45.546875 
C 71 45.546875 71.40625 45.953125 71.59375 47.734375 
L 73.703125 65.21875 
C 73.703125 65.546875 73.90625 66.609375 73.90625 66.828125 
C 73.90625 68 73 68 71.203125 68 
L 23.796875 68 
C 21.90625 68 20.90625 68 20.90625 66.078125 
C 20.90625 64.90625 21.59375 64.90625 23.296875 64.90625 
C 29.5 64.90625 29.5 64.265625 29.5 63.28125 
C 29.5 62.78125 29.40625 62.375 29.09375 61.28125 
L 15.59375 7.390625 
C 14.703125 3.890625 14.5 2.890625 7.5 2.890625 
C 5.59375 2.890625 4.59375 2.890625 4.59375 1.09375 
C 4.59375 0 5.5 0 6.09375 0 
C 8 0 10 0 11.90625 0 
L 24.90625 0 
C 27.09375 0 29.5 0 31.703125 0 
C 32.59375 0 33.796875 0 33.796875 1.796875 
C 33.796875 2.890625 33.203125 2.890625 31 2.890625 
C 23.09375 2.890625 22.90625 3.578125 22.90625 5.0625 
C 22.90625 5.5625 23.09375 6.34375 23.296875 7.015625 
z
" id="CMMI12-70"/>
      <path d="M 20.5 66.40625 
C 19.796875 67.5 19.703125 67.5 17.796875 67.5 
L 5.09375 67.5 
L 5.09375 65 
L 7 65 
C 11 65 12.796875 64.515625 13.09375 64.40625 
L 13.09375 9.53125 
C 13.09375 7.046875 13.09375 2.390625 5.09375 2.390625 
L 5.09375 -0.203125 
C 7.40625 0 11.59375 0 14.09375 0 
C 16.59375 0 20.796875 0 23.09375 -0.203125 
L 23.09375 2.390625 
C 15.09375 2.390625 15.09375 7.046875 15.09375 9.53125 
L 15.09375 63.015625 
C 15.796875 62.421875 15.796875 62.21875 16.5 61.234375 
L 53.59375 1.1875 
C 54.296875 0 54.59375 0 55.09375 0 
C 56.09375 0 56.09375 0.296875 56.09375 2.171875 
L 56.09375 57.890625 
C 56.09375 60.359375 56.09375 65 64.09375 65 
L 64.09375 67.59375 
C 61.796875 67.5 57.59375 67.5 55.09375 67.5 
C 52.59375 67.5 48.40625 67.5 46.09375 67.59375 
L 46.09375 65 
C 54.09375 65 54.09375 60.34375 54.09375 57.859375 
L 54.09375 11.921875 
z
" id="CMR17-78"/>
     </defs>
     <g transform="translate(6.546669 67.705929)rotate(-90)scale(0.1 -0.1)">
      <use transform="scale(0.996264)" xlink:href="#CMMI12-70"/>
      <use transform="translate(106.772759 0)scale(0.996264)" xlink:href="#CMR17-40"/>
      <use transform="translate(142.053527 0)scale(0.996264)" xlink:href="#CMR17-78"/>
      <use transform="translate(211.125956 0)scale(0.996264)" xlink:href="#CMR17-41"/>
     </g>
    </g>
   </g>
   <g id="line2d_21">
    <path clip-path="url(#p9fa058871f)" d="M 38.454545 16.74 
L 39.809984 16.743748 
L 39.809984 92.34 
L 40.487703 92.339649 
L 40.487703 16.74 
L 40.826562 16.74 
L 40.826562 92.322185 
L 41.165422 92.322185 
L 41.165422 16.74 
L 41.843141 16.816066 
L 41.843141 92.34 
L 42.182 92.34 
L 42.182 16.74 
L 42.52086 16.74 
L 42.52086 91.641589 
L 42.859719 91.641589 
L 42.859719 16.74 
L 43.537439 16.74 
L 43.537439 17.767287 
L 43.876298 17.767287 
L 43.876298 92.324461 
L 44.215158 92.324461 
L 44.215158 16.74 
L 53.025506 16.74 
L 53.025506 19.823252 
L 53.364365 19.823252 
L 53.364365 92.34 
L 55.397522 92.300409 
L 55.397522 81.855735 
L 55.736382 81.855735 
L 55.736382 88.489427 
L 56.075241 88.489427 
L 56.075241 47.301187 
L 56.414101 47.301187 
L 56.414101 92.34 
L 57.09182 92.339752 
L 57.09182 92.194709 
L 57.43068 92.194709 
L 57.43068 51.204237 
L 57.769539 51.204237 
L 57.769539 92.339998 
L 58.447258 92.339432 
L 58.447258 92.171604 
L 58.786118 92.171604 
L 58.786118 61.43171 
L 59.124977 61.43171 
L 59.124977 92.339709 
L 59.463837 92.339709 
L 59.463837 92.16106 
L 59.802696 92.16106 
L 59.802696 23.011835 
L 60.141556 23.011835 
L 60.141556 92.34 
L 61.496994 92.317014 
L 61.496994 83.169435 
L 61.835854 83.169435 
L 61.835854 81.054417 
L 62.513573 81.049601 
L 62.513573 29.192166 
L 62.852432 29.192166 
L 62.852432 92.34 
L 63.191292 92.34 
L 63.191292 16.740005 
L 63.530151 16.740005 
L 63.530151 92.34 
L 64.885589 92.337166 
L 64.885589 91.888276 
L 65.224449 91.888276 
L 65.224449 58.15739 
L 65.563308 58.15739 
L 65.563308 92.339998 
L 66.579887 92.323334 
L 66.579887 91.169961 
L 66.918747 91.169961 
L 66.918747 80.407418 
L 67.257606 80.407418 
L 67.257606 92.003662 
L 67.596466 92.003662 
L 67.596466 27.104868 
L 67.935325 27.104868 
L 67.935325 92.34 
L 68.274185 92.34 
L 68.274185 16.747403 
L 68.613044 16.747403 
L 68.613044 92.34 
L 71.323921 92.34 
L 71.323921 17.944383 
L 71.66278 17.944383 
L 71.66278 92.34 
L 74.373656 92.339806 
L 74.373656 16.74315 
L 74.712516 16.74315 
L 74.712516 92.34 
L 75.729095 92.34 
L 75.729095 30.356558 
L 76.067954 30.356558 
L 76.067954 92.34 
L 77.762252 92.34 
L 77.762252 16.791666 
L 78.101111 16.791666 
L 78.101111 92.34 
L 79.456549 92.339993 
L 79.456549 16.74 
L 79.795409 16.74 
L 79.795409 92.33998 
L 80.473128 92.337513 
L 80.473128 91.957562 
L 80.811988 91.957562 
L 80.811988 16.74 
L 81.150847 16.74 
L 81.150847 92.34 
L 81.489707 92.34 
L 81.489707 54.962361 
L 81.828566 54.962361 
L 81.828566 92.339995 
L 82.167426 92.339995 
L 82.167426 16.74 
L 82.506285 16.74 
L 82.506285 92.34 
L 83.184004 92.339986 
L 83.184004 16.74002 
L 83.522864 16.74002 
L 83.522864 92.34 
L 84.200583 92.339998 
L 84.200583 16.740985 
L 84.539443 16.740985 
L 84.539443 92.34 
L 84.878302 92.34 
L 84.878302 82.209374 
L 85.217162 82.209374 
L 85.217162 91.586461 
L 85.556021 91.586461 
L 85.556021 49.827735 
L 85.894881 49.827735 
L 85.894881 92.339966 
L 86.23374 92.339966 
L 86.23374 16.740005 
L 86.5726 16.740005 
L 86.5726 92.34 
L 86.911459 92.34 
L 86.911459 27.971898 
L 87.250319 27.971898 
L 87.250319 92.34 
L 87.928038 92.3366 
L 87.928038 91.75088 
L 88.266897 91.75088 
L 88.266897 44.384713 
L 88.605757 44.384713 
L 88.605757 92.34 
L 88.944617 92.34 
L 88.944617 16.740044 
L 89.283476 16.740044 
L 89.283476 92.34 
L 89.622336 92.34 
L 89.622336 33.501903 
L 89.961195 33.501903 
L 89.961195 92.34 
L 90.638914 92.339097 
L 90.638914 91.831334 
L 90.977774 91.831334 
L 90.977774 34.027494 
L 91.316633 34.027494 
L 91.316633 92.339538 
L 91.655493 92.339538 
L 91.655493 24.515673 
L 91.994352 24.515673 
L 91.994352 92.339984 
L 92.333212 92.339984 
L 92.333212 67.527718 
L 92.672071 67.527718 
L 92.672071 90.127639 
L 93.010931 90.127639 
L 93.010931 19.97684 
L 93.34979 19.97684 
L 93.34979 92.339331 
L 93.68865 92.339331 
L 93.68865 82.640141 
L 94.02751 82.640141 
L 94.02751 34.237006 
L 94.366369 34.237006 
L 94.366369 92.279555 
L 94.705229 92.279555 
L 94.705229 20.393052 
L 95.044088 20.393052 
L 95.044088 92.339971 
L 95.382948 92.339971 
L 95.382948 86.016939 
L 95.721807 86.016939 
L 95.721807 35.856994 
L 96.060667 35.856994 
L 96.060667 92.335309 
L 96.399526 92.335309 
L 96.399526 38.664662 
L 96.738386 38.664662 
L 96.738386 92.337747 
L 97.077245 92.337747 
L 97.077245 21.85174 
L 97.416105 21.85174 
L 97.416105 92.339995 
L 97.754964 92.339995 
L 97.754964 75.283333 
L 98.093824 75.283333 
L 98.093824 85.324321 
L 98.432684 85.324321 
L 98.432684 22.128553 
L 98.771543 22.128553 
L 98.771543 92.339881 
L 99.110403 92.339881 
L 99.110403 29.097172 
L 99.449262 29.097172 
L 99.449262 92.339984 
L 99.788122 92.339984 
L 99.788122 31.6613 
L 100.126981 31.6613 
L 100.126981 92.339964 
L 100.465841 92.339964 
L 100.465841 27.228872 
L 100.8047 27.228872 
L 100.8047 92.339984 
L 101.14356 92.339984 
L 101.14356 83.928393 
L 101.482419 83.928393 
L 101.482419 56.300237 
L 101.821279 56.300237 
L 101.821279 92.312382 
L 102.160138 92.312382 
L 102.160138 16.745884 
L 102.498998 16.745884 
L 102.498998 92.339741 
L 102.837858 92.339741 
L 102.837858 17.221891 
L 103.176717 17.221891 
L 103.176717 92.339998 
L 103.515577 92.339998 
L 103.515577 47.638937 
L 103.854436 47.638937 
L 103.854436 92.338279 
L 104.193296 92.338279 
L 104.193296 92.072997 
L 104.532155 92.072997 
L 104.532155 16.860285 
L 104.871015 16.860285 
L 104.871015 92.339991 
L 105.209874 92.339991 
L 105.209874 33.480109 
L 105.548734 33.480109 
L 105.548734 92.339982 
L 105.887593 92.339982 
L 105.887593 24.256484 
L 106.226453 24.256484 
L 106.226453 92.339998 
L 106.565312 92.339998 
L 106.565312 58.453278 
L 106.904172 58.453278 
L 106.904172 92.274204 
L 107.243032 92.274204 
L 107.243032 85.155637 
L 107.581891 85.155637 
L 107.581891 31.555669 
L 107.920751 31.555669 
L 107.920751 92.077542 
L 108.25961 92.077542 
L 108.25961 17.761192 
L 108.59847 17.761192 
L 108.59847 92.339991 
L 108.937329 92.339991 
L 108.937329 32.299769 
L 109.276189 32.299769 
L 109.276189 92.339946 
L 109.615048 92.339946 
L 109.615048 19.479931 
L 109.953908 19.479931 
L 109.953908 92.339993 
L 110.292767 92.339993 
L 110.292767 39.331965 
L 110.631627 39.331965 
L 110.631627 92.339635 
L 111.309346 92.302345 
L 111.309346 46.24343 
L 111.648206 46.24343 
L 111.648206 92.338614 
L 111.987065 92.338614 
L 111.987065 16.824822 
L 112.325925 16.824822 
L 112.325925 92.339953 
L 112.664784 92.339953 
L 112.664784 19.171902 
L 113.003644 19.171902 
L 113.003644 92.339998 
L 113.342503 92.339998 
L 113.342503 54.508542 
L 113.681363 54.508542 
L 113.681363 92.331035 
L 114.020222 92.331035 
L 114.020222 92.038778 
L 114.359082 92.038778 
L 114.359082 81.131751 
L 114.697941 81.131751 
L 114.697941 50.823807 
L 115.036801 50.823807 
L 115.036801 92.144897 
L 115.37566 92.144897 
L 115.37566 16.755061 
L 115.71452 16.755061 
L 115.71452 92.339015 
L 116.053379 92.339015 
L 116.053379 17.597295 
L 116.392239 17.597295 
L 116.392239 92.33998 
L 116.731099 92.33998 
L 116.731099 50.018541 
L 117.069958 50.018541 
L 117.069958 92.332342 
L 117.408818 92.332342 
L 117.408818 91.826909 
L 117.747677 91.826909 
L 117.747677 26.729866 
L 118.086537 26.729866 
L 118.086537 92.33968 
L 118.425396 92.33968 
L 118.425396 58.799264 
L 118.764256 58.799264 
L 118.764256 91.865921 
L 119.103115 91.865921 
L 119.103115 18.504541 
L 119.441975 18.504541 
L 119.441975 92.339146 
L 119.780834 92.339146 
L 119.780834 40.160621 
L 120.119694 40.160621 
L 120.119694 92.33295 
L 120.458553 92.33295 
L 120.458553 63.52486 
L 120.797413 63.52486 
L 120.797413 90.041859 
L 121.136273 90.041859 
L 121.136273 62.192019 
L 121.475132 62.192019 
L 121.475132 88.272944 
L 121.813992 88.272944 
L 121.813992 18.691652 
L 122.152851 18.691652 
L 122.152851 92.298508 
L 122.491711 92.298508 
L 122.491711 46.237148 
L 122.83057 46.237148 
L 122.83057 92.041522 
L 123.16943 92.041522 
L 123.16943 76.472428 
L 123.508289 76.472428 
L 123.508289 78.60412 
L 123.847149 78.60412 
L 123.847149 44.186367 
L 124.186008 44.186367 
L 124.186008 91.971348 
L 124.524868 91.971348 
L 124.524868 21.281631 
L 124.863727 21.281631 
L 124.863727 92.313473 
L 125.202587 92.313473 
L 125.202587 55.35277 
L 125.541447 55.35277 
L 125.541447 91.399822 
L 125.880306 91.399822 
L 125.880306 75.68125 
L 126.219166 75.68125 
L 126.219166 74.667463 
L 126.558025 74.667463 
L 126.558025 47.476892 
L 126.896885 47.476892 
L 126.896885 91.520656 
L 127.235744 91.520656 
L 127.235744 19.361067 
L 127.574604 19.361067 
L 127.574604 92.308926 
L 127.913463 92.308926 
L 127.913463 49.706166 
L 128.252323 49.706166 
L 128.252323 91.893298 
L 128.591182 91.893298 
L 128.591182 60.558969 
L 128.930042 60.558969 
L 128.930042 90.179513 
L 129.268901 90.179513 
L 129.268901 17.756003 
L 129.607761 17.756003 
L 129.607761 92.330301 
L 129.946621 92.330301 
L 129.946621 52.045165 
L 130.28548 52.045165 
L 130.28548 92.063118 
L 130.62434 92.063118 
L 130.62434 26.158856 
L 130.963199 26.158856 
L 130.963199 92.335573 
L 131.302059 92.335573 
L 131.302059 48.026736 
L 131.640918 48.026736 
L 131.640918 92.290509 
L 131.979778 92.290509 
L 131.979778 38.656049 
L 132.318637 38.656049 
L 132.318637 92.327588 
L 132.657497 92.327588 
L 132.657497 22.281984 
L 132.996356 22.281984 
L 132.996356 92.339169 
L 133.335216 92.339169 
L 133.335216 78.326638 
L 133.674075 78.326638 
L 133.674075 73.884442 
L 134.012935 73.884442 
L 134.012935 77.591241 
L 134.351794 77.591241 
L 134.351794 26.260527 
L 134.690654 26.260527 
L 134.690654 92.335843 
L 135.029514 92.335843 
L 135.029514 36.166199 
L 135.368373 36.166199 
L 135.368373 92.336636 
L 135.707233 92.336636 
L 135.707233 68.181985 
L 136.046092 68.181985 
L 136.046092 87.817719 
L 136.384952 87.817719 
L 136.384952 27.662938 
L 136.723811 27.662938 
L 136.723811 92.33767 
L 137.062671 92.33767 
L 137.062671 52.210304 
L 137.40153 52.210304 
L 137.40153 92.202568 
L 137.74039 92.202568 
L 137.74039 51.176059 
L 138.079249 51.176059 
L 138.079249 92.156412 
L 138.418109 92.156412 
L 138.418109 18.151838 
L 138.756968 18.151838 
L 138.756968 92.339682 
L 139.095828 92.339682 
L 139.095828 88.406868 
L 139.434688 88.406868 
L 139.434688 36.693436 
L 139.773547 36.693436 
L 139.773547 92.336386 
L 140.112407 92.336386 
L 140.112407 55.214968 
L 140.451266 55.214968 
L 140.451266 92.11052 
L 140.790126 92.11052 
L 140.790126 52.997157 
L 141.128985 52.997157 
L 141.128985 91.912737 
L 141.467845 91.912737 
L 141.467845 19.494674 
L 141.806704 19.494674 
L 141.806704 92.339006 
L 142.145564 92.339006 
L 142.145564 87.25014 
L 142.484423 87.25014 
L 142.484423 33.623741 
L 142.823283 33.623741 
L 142.823283 92.334744 
L 143.162142 92.334744 
L 143.162142 63.615844 
L 143.501002 63.615844 
L 143.501002 88.823262 
L 143.839862 88.823262 
L 143.839862 20.773095 
L 144.178721 20.773095 
L 144.178721 92.337067 
L 144.517581 92.337067 
L 144.517581 79.487648 
L 144.85644 79.487648 
L 144.85644 48.934497 
L 145.1953 48.934497 
L 145.1953 92.190676 
L 145.534159 92.190676 
L 145.534159 26.680253 
L 145.873019 26.680253 
L 145.873019 92.335381 
L 146.211878 92.335381 
L 146.211878 80.06972 
L 146.550738 80.06972 
L 146.550738 49.299332 
L 146.889597 49.299332 
L 146.889597 92.208825 
L 147.228457 92.208825 
L 147.228457 30.145228 
L 147.567316 30.145228 
L 147.567316 92.328415 
L 147.906176 92.328415 
L 147.906176 70.356582 
L 148.245036 70.356582 
L 148.245036 82.338817 
L 148.583895 82.338817 
L 148.583895 36.930259 
L 148.922755 36.930259 
L 148.922755 92.277978 
L 149.261614 92.277978 
L 149.261614 38.101065 
L 149.261614 38.101065 
" style="fill:none;stroke:#1f77b4;stroke-linecap:square;stroke-width:1.5;"/>
   </g>
   <g id="line2d_22">
    <path clip-path="url(#p9fa058871f)" d="M 38.454545 16.74 
L 52.008927 16.740578 
L 52.008927 92.34 
L 60.141556 92.332101 
L 60.141556 75.828388 
L 60.480415 75.828388 
L 60.480415 92.339448 
L 61.496994 92.315115 
L 61.496994 92.191454 
L 61.835854 92.191454 
L 61.835854 90.353726 
L 62.174713 90.353726 
L 62.174713 84.274793 
L 62.513573 84.274793 
L 62.513573 92.008828 
L 62.852432 92.008828 
L 62.852432 18.27033 
L 63.191292 18.27033 
L 63.191292 92.34 
L 67.257606 92.269856 
L 67.257606 84.350989 
L 67.596466 84.350989 
L 67.596466 92.158652 
L 67.935325 92.158652 
L 67.935325 16.74002 
L 68.274185 16.74002 
L 68.274185 92.34 
L 70.646201 92.338619 
L 70.646201 91.964335 
L 70.985061 91.964335 
L 70.985061 31.459735 
L 71.323921 31.459735 
L 71.323921 92.34 
L 72.679359 92.312247 
L 72.679359 58.023256 
L 73.018218 58.023256 
L 73.018218 92.339998 
L 73.695937 92.33583 
L 73.695937 85.185588 
L 74.034797 85.185588 
L 74.034797 49.101441 
L 74.373656 49.101441 
L 74.373656 92.34 
L 75.051375 92.338716 
L 75.051375 90.617956 
L 75.390235 90.617956 
L 75.390235 22.914804 
L 75.729095 22.914804 
L 75.729095 92.34 
L 77.084533 92.339727 
L 77.084533 91.996107 
L 77.423392 91.996107 
L 77.423392 24.633146 
L 77.762252 24.633146 
L 77.762252 92.34 
L 78.77883 92.339795 
L 78.77883 91.248219 
L 79.11769 91.248219 
L 79.11769 18.340732 
L 79.456549 18.340732 
L 79.456549 92.34 
L 80.134269 92.339398 
L 80.134269 92.059855 
L 80.473128 92.059855 
L 80.473128 45.357296 
L 80.811988 45.357296 
L 80.811988 92.327716 
L 81.150847 92.327716 
L 81.150847 61.408128 
L 81.489707 61.408128 
L 81.489707 90.913442 
L 81.828566 90.913442 
L 81.828566 19.774035 
L 82.167426 19.774035 
L 82.167426 92.339921 
L 82.506285 92.339921 
L 82.506285 91.828806 
L 82.845145 91.828806 
L 82.845145 31.46582 
L 83.184004 31.46582 
L 83.184004 92.339223 
L 83.522864 92.339223 
L 83.522864 79.316342 
L 83.861723 79.316342 
L 83.861723 38.866556 
L 84.200583 38.866556 
L 84.200583 92.336521 
L 84.539443 92.336521 
L 84.539443 32.128508 
L 84.878302 32.128508 
L 84.878302 92.339601 
L 85.217162 92.339601 
L 85.217162 91.830877 
L 85.556021 91.830877 
L 85.556021 69.180552 
L 85.894881 69.180552 
L 85.894881 36.722486 
L 86.23374 36.722486 
L 86.23374 92.322915 
L 86.5726 92.322915 
L 86.5726 28.043947 
L 86.911459 28.043947 
L 86.911459 92.337339 
L 87.250319 92.337339 
L 87.250319 35.903795 
L 87.589178 35.903795 
L 87.589178 92.336751 
L 87.928038 92.336751 
L 87.928038 91.967324 
L 88.266897 91.967324 
L 88.266897 82.735783 
L 88.605757 82.735783 
L 88.605757 17.368174 
L 88.944617 17.368174 
L 88.944617 92.336517 
L 89.283476 92.336517 
L 89.283476 18.73937 
L 89.622336 18.73937 
L 89.622336 92.339761 
L 89.961195 92.339761 
L 89.961195 47.254749 
L 90.300055 47.254749 
L 90.300055 92.330181 
L 90.977774 92.257574 
L 90.977774 91.58403 
L 91.316633 91.58403 
L 91.316633 16.740828 
L 91.655493 16.740828 
L 91.655493 92.314097 
L 91.994352 92.314097 
L 91.994352 16.743057 
L 92.333212 16.743057 
L 92.333212 92.329661 
L 92.672071 92.329661 
L 92.672071 74.697244 
L 93.010931 74.697244 
L 93.010931 83.843978 
L 93.34979 83.843978 
L 93.34979 16.740034 
L 93.68865 16.740034 
L 93.68865 88.577041 
L 94.02751 88.577041 
L 94.02751 33.628925 
L 94.366369 33.628925 
L 94.366369 50.640302 
L 94.705229 50.640302 
L 94.705229 92.31188 
L 95.044088 92.31188 
L 95.044088 16.742876 
L 95.382948 16.742876 
L 95.382948 92.286535 
L 95.721807 92.286535 
L 95.721807 90.058718 
L 96.060667 90.058718 
L 96.060667 16.740539 
L 96.399526 16.740539 
L 96.399526 92.185355 
L 96.738386 92.185355 
L 96.738386 16.757305 
L 97.077245 16.757305 
L 97.077245 92.33792 
L 97.416105 92.33792 
L 97.416105 16.754777 
L 97.754964 16.754777 
L 97.754964 92.339376 
L 98.093824 92.339376 
L 98.093824 90.904078 
L 98.432684 90.904078 
L 98.432684 58.287752 
L 98.771543 58.287752 
L 98.771543 16.744704 
L 99.110403 16.744704 
L 99.110403 92.339058 
L 99.449262 92.339058 
L 99.449262 16.780618 
L 99.788122 16.780618 
L 99.788122 92.339973 
L 100.126981 92.339973 
L 100.126981 19.052543 
L 100.465841 19.052543 
L 100.465841 92.34 
L 100.8047 92.34 
L 100.8047 42.273985 
L 101.14356 42.273985 
L 101.14356 92.339822 
L 101.821279 92.248571 
L 101.821279 16.927606 
L 102.160138 16.927606 
L 102.160138 92.339995 
L 102.498998 92.339995 
L 102.498998 17.092282 
L 102.837858 17.092282 
L 102.837858 92.339998 
L 103.176717 92.339998 
L 103.176717 17.563267 
L 103.515577 17.563267 
L 103.515577 92.34 
L 103.854436 92.34 
L 103.854436 90.003491 
L 104.193296 90.003491 
L 104.193296 49.624014 
L 104.532155 49.624014 
L 104.532155 92.338648 
L 104.871015 92.338648 
L 104.871015 16.740769 
L 105.209874 16.740769 
L 105.209874 92.338921 
L 105.548734 92.338921 
L 105.548734 16.794533 
L 105.887593 16.794533 
L 105.887593 92.339989 
L 106.226453 92.339989 
L 106.226453 17.350002 
L 106.565312 17.350002 
L 106.565312 92.339998 
L 106.904172 92.339998 
L 106.904172 92.20059 
L 107.243032 92.20059 
L 107.243032 84.664177 
L 107.581891 84.664177 
L 107.581891 40.000228 
L 107.920751 40.000228 
L 107.920751 60.389678 
L 108.25961 60.389678 
L 108.25961 92.29892 
L 108.59847 92.29892 
L 108.59847 16.740407 
L 108.937329 16.740407 
L 108.937329 92.335667 
L 109.276189 92.335667 
L 109.276189 16.777428 
L 109.615048 16.777428 
L 109.615048 92.339984 
L 109.953908 92.339984 
L 109.953908 17.46307 
L 110.292767 17.46307 
L 110.292767 92.34 
L 110.631627 92.34 
L 110.631627 86.403226 
L 110.970486 86.403226 
L 110.970486 68.157884 
L 111.309346 68.157884 
L 111.309346 92.097896 
L 111.648206 92.097896 
L 111.648206 17.005182 
L 111.987065 17.005182 
L 111.987065 92.339923 
L 112.325925 92.339923 
L 112.325925 17.579539 
L 112.664784 17.579539 
L 112.664784 92.339982 
L 113.003644 92.339982 
L 113.003644 20.743168 
L 113.342503 20.743168 
L 113.342503 92.339993 
L 113.681363 92.339993 
L 113.681363 92.034303 
L 114.020222 92.034303 
L 114.020222 90.880534 
L 114.359082 90.880534 
L 114.359082 88.390288 
L 114.697941 88.390288 
L 114.697941 76.108487 
L 115.036801 76.108487 
L 115.036801 18.09268 
L 115.37566 18.09268 
L 115.37566 92.339011 
L 115.71452 92.339011 
L 115.71452 17.501738 
L 116.053379 17.501738 
L 116.053379 92.339101 
L 116.392239 92.339101 
L 116.392239 19.126326 
L 116.731099 19.126326 
L 116.731099 92.33886 
L 117.069958 92.33886 
L 117.069958 84.683878 
L 117.408818 84.683878 
L 117.408818 78.025833 
L 117.747677 78.025833 
L 117.747677 90.95246 
L 118.086537 90.95246 
L 118.086537 16.83199 
L 118.425396 16.83199 
L 118.425396 91.840144 
L 118.764256 91.840144 
L 118.764256 43.876766 
L 119.103115 43.876766 
L 119.103115 92.261817 
L 119.441975 92.261817 
L 119.441975 17.937798 
L 119.780834 17.937798 
L 119.780834 92.311562 
L 120.119694 92.311562 
L 120.119694 44.472877 
L 120.458553 44.472877 
L 120.458553 92.239746 
L 120.797413 92.239746 
L 120.797413 80.149267 
L 121.136273 80.149267 
L 121.136273 84.123012 
L 121.475132 84.123012 
L 121.475132 30.453865 
L 121.813992 30.453865 
L 121.813992 92.273312 
L 122.152851 92.273312 
L 122.152851 19.949814 
L 122.491711 19.949814 
L 122.491711 92.301662 
L 122.83057 92.301662 
L 122.83057 69.391148 
L 123.16943 69.391148 
L 123.16943 89.670719 
L 123.508289 89.670719 
L 123.508289 64.989567 
L 123.847149 64.989567 
L 123.847149 84.557011 
L 124.186008 84.557011 
L 124.186008 18.516462 
L 124.524868 18.516462 
L 124.524868 92.248271 
L 124.863727 92.248271 
L 124.863727 21.83198 
L 125.202587 21.83198 
L 125.202587 92.246712 
L 125.541447 92.246712 
L 125.541447 82.690733 
L 125.880306 82.690733 
L 125.880306 83.897695 
L 126.219166 83.897695 
L 126.219166 62.422688 
L 126.558025 62.422688 
L 126.558025 79.107581 
L 126.896885 79.107581 
L 126.896885 22.689088 
L 127.235744 22.689088 
L 127.235744 92.112399 
L 127.574604 92.112399 
L 127.574604 21.277398 
L 127.913463 21.277398 
L 127.913463 92.100451 
L 128.252323 92.100451 
L 128.252323 62.478933 
L 128.591182 62.478933 
L 128.591182 89.900335 
L 128.930042 89.900335 
L 128.930042 44.286461 
L 129.268901 44.286461 
L 129.268901 91.28885 
L 129.607761 91.28885 
L 129.607761 18.270114 
L 129.946621 18.270114 
L 129.946621 91.745534 
L 130.28548 91.745534 
L 130.28548 54.94412 
L 130.62434 54.94412 
L 130.62434 90.231483 
L 130.963199 90.231483 
L 130.963199 18.801448 
L 131.302059 18.801448 
L 131.302059 91.780109 
L 131.640918 91.780109 
L 131.640918 54.17127 
L 131.979778 54.17127 
L 131.979778 90.14287 
L 132.318637 90.14287 
L 132.318637 23.990822 
L 132.657497 23.990822 
L 132.657497 91.96803 
L 132.996356 91.96803 
L 132.996356 25.639178 
L 133.335216 25.639178 
L 133.335216 92.057595 
L 133.674075 92.057595 
L 133.674075 89.659377 
L 134.012935 89.659377 
L 134.012935 66.640067 
L 134.351794 66.640067 
L 134.351794 76.602547 
L 134.690654 76.602547 
L 134.690654 18.403692 
L 135.029514 18.403692 
L 135.029514 91.899208 
L 135.368373 91.899208 
L 135.368373 36.737258 
L 135.707233 36.737258 
L 135.707233 92.060736 
L 136.046092 92.060736 
L 136.046092 84.421222 
L 136.384952 84.421222 
L 136.384952 75.013221 
L 136.723811 75.013221 
L 136.723811 19.393017 
L 137.062671 19.393017 
L 137.062671 92.153868 
L 137.40153 92.153868 
L 137.40153 73.675665 
L 137.74039 73.675665 
L 137.74039 84.524723 
L 138.079249 84.524723 
L 138.079249 27.511173 
L 138.418109 27.511173 
L 138.418109 92.211655 
L 138.756968 92.211655 
L 138.756968 33.159268 
L 139.095828 33.159268 
L 139.095828 92.150281 
L 139.434688 92.150281 
L 139.434688 91.079789 
L 139.773547 91.079789 
L 139.773547 26.815874 
L 140.112407 26.815874 
L 140.112407 92.189956 
L 140.451266 92.189956 
L 140.451266 79.28622 
L 140.790126 79.28622 
L 140.790126 81.249505 
L 141.128985 81.249505 
L 141.128985 41.395367 
L 141.467845 41.395367 
L 141.467845 91.519631 
L 141.806704 91.519631 
L 141.806704 29.524163 
L 142.145564 29.524163 
L 142.145564 91.540578 
L 142.484423 91.540578 
L 142.484423 86.792585 
L 142.823283 86.792585 
L 142.823283 35.886 
L 143.162142 35.886 
L 143.162142 89.515549 
L 143.501002 89.515549 
L 143.501002 70.939844 
L 143.839862 70.939844 
L 143.839862 80.381626 
L 144.178721 80.381626 
L 144.178721 25.855942 
L 144.517581 25.855942 
L 144.517581 89.954668 
L 144.85644 89.954668 
L 144.85644 83.084673 
L 145.1953 83.084673 
L 145.1953 51.878159 
L 145.534159 51.878159 
L 145.534159 85.912154 
L 145.873019 85.912154 
L 145.873019 29.093821 
L 146.211878 29.093821 
L 146.211878 90.640412 
L 146.550738 90.640412 
L 146.550738 85.265579 
L 146.889597 85.265579 
L 146.889597 54.082945 
L 147.228457 54.082945 
L 147.228457 85.292068 
L 147.567316 85.292068 
L 147.567316 26.987899 
L 147.906176 26.987899 
L 147.906176 91.099118 
L 148.245036 91.099118 
L 148.245036 84.525561 
L 148.583895 84.525561 
L 148.583895 75.243684 
L 148.922755 75.243684 
L 148.922755 29.544992 
L 149.261614 29.544992 
L 149.261614 90.029088 
L 149.261614 90.029088 
" style="fill:none;stroke:#ff7f0e;stroke-linecap:square;stroke-width:1.5;"/>
   </g>
   <g id="line2d_23">
    <path clip-path="url(#p9fa058871f)" d="M 38.454545 88.034188 
L 38.793405 88.034188 
L 38.793405 81.466754 
L 39.132265 81.466754 
L 39.132265 68.025714 
L 39.471124 68.025714 
L 39.471124 40.436185 
L 39.809984 40.436185 
L 39.809984 28.094094 
L 40.148843 28.094094 
L 40.148843 23.5956 
L 40.487703 23.5956 
L 40.487703 21.64454 
L 40.826562 21.64454 
L 40.826562 20.270738 
L 41.165422 20.270738 
L 41.165422 19.284574 
L 41.504281 19.284574 
L 41.504281 18.598976 
L 41.843141 18.598976 
L 41.843141 18.475677 
L 42.182 18.475677 
L 42.182 18.285386 
L 42.52086 18.285386 
L 42.52086 18.161705 
L 43.198579 18.085477 
L 43.198579 17.985079 
L 43.876298 17.895456 
L 43.876298 17.64855 
L 44.215158 17.64855 
L 44.215158 17.436455 
L 44.892877 17.389924 
L 44.892877 17.592023 
L 45.231736 17.592023 
L 45.231736 17.907465 
L 45.570596 17.907465 
L 45.570596 18.360164 
L 45.909455 18.360164 
L 45.909455 18.969661 
L 46.248315 18.969661 
L 46.248315 19.688963 
L 46.587174 19.688963 
L 46.587174 20.616607 
L 46.926034 20.616607 
L 46.926034 21.783807 
L 47.264893 21.783807 
L 47.264893 23.878092 
L 47.603753 23.878092 
L 47.603753 26.728602 
L 47.942612 26.728602 
L 47.942612 29.916186 
L 48.281472 29.916186 
L 48.281472 32.648033 
L 48.620332 32.648033 
L 48.620332 34.743915 
L 48.959191 34.743915 
L 48.959191 36.453879 
L 49.298051 36.453879 
L 49.298051 37.736514 
L 49.63691 37.736514 
L 49.63691 38.62376 
L 49.97577 38.62376 
L 49.97577 39.126049 
L 50.314629 39.126049 
L 50.314629 39.810676 
L 50.653489 39.810676 
L 50.653489 42.101014 
L 50.992348 42.101014 
L 50.992348 43.532509 
L 51.331208 43.532509 
L 51.331208 43.867304 
L 51.670067 43.867304 
L 51.670067 40.867459 
L 52.008927 40.867459 
L 52.008927 39.067866 
L 52.347786 39.067866 
L 52.347786 37.949887 
L 52.686646 37.949887 
L 52.686646 40.789599 
L 53.025506 40.789599 
L 53.025506 41.679981 
L 53.364365 41.679981 
L 53.364365 42.29256 
L 55.736382 42.244921 
L 55.736382 41.967407 
L 56.075241 41.967407 
L 56.075241 41.715753 
L 56.414101 41.715753 
L 56.414101 41.48554 
L 56.75296 41.48554 
L 56.75296 41.29691 
L 57.09182 41.29691 
L 57.09182 41.126183 
L 57.43068 41.126183 
L 57.43068 40.968499 
L 57.769539 40.968499 
L 57.769539 40.821873 
L 58.108399 40.821873 
L 58.108399 40.689177 
L 58.786118 40.591772 
L 58.786118 40.563771 
L 59.463837 40.570684 
L 59.463837 42.058064 
L 59.802696 42.058064 
L 59.802696 49.812713 
L 60.141556 49.812713 
L 60.141556 57.941433 
L 60.480415 57.941433 
L 60.480415 69.673897 
L 60.819275 69.673897 
L 60.819275 76.367398 
L 61.158134 76.367398 
L 61.158134 80.148991 
L 61.496994 80.148991 
L 61.496994 82.516342 
L 61.835854 82.516342 
L 61.835854 84.116541 
L 62.174713 84.116541 
L 62.174713 85.259446 
L 62.513573 85.259446 
L 62.513573 86.109538 
L 62.852432 86.109538 
L 62.852432 86.761153 
L 63.191292 86.761153 
L 63.191292 86.898407 
L 63.530151 86.898407 
L 63.530151 86.368506 
L 63.869011 86.368506 
L 63.869011 85.844243 
L 64.20787 85.844243 
L 64.20787 85.332905 
L 64.54673 85.332905 
L 64.54673 84.841337 
L 64.885589 84.841337 
L 64.885589 84.375552 
L 65.224449 84.375552 
L 65.224449 83.940577 
L 65.563308 83.940577 
L 65.563308 83.5403 
L 65.902168 83.5403 
L 65.902168 83.177325 
L 66.241028 83.177325 
L 66.241028 82.853221 
L 66.579887 82.853221 
L 66.579887 82.568326 
L 66.918747 82.568326 
L 66.918747 82.325855 
L 67.257606 82.325855 
L 67.257606 82.12623 
L 67.596466 82.12623 
L 67.596466 81.867248 
L 67.935325 81.867248 
L 67.935325 81.611603 
L 68.274185 81.611603 
L 68.274185 81.39147 
L 68.613044 81.39147 
L 68.613044 81.205805 
L 68.951904 81.205805 
L 68.951904 81.338655 
L 69.290763 81.338655 
L 69.290763 81.597499 
L 69.629623 81.597499 
L 69.629623 81.903117 
L 69.968482 81.903117 
L 69.968482 82.427362 
L 70.307342 82.427362 
L 70.307342 82.831299 
L 70.646201 82.831299 
L 70.646201 83.197684 
L 70.985061 83.197684 
L 70.985061 83.528732 
L 71.323921 83.528732 
L 71.323921 83.824236 
L 71.66278 83.824236 
L 71.66278 84.088608 
L 72.00164 84.088608 
L 72.00164 84.337978 
L 72.340499 84.337978 
L 72.340499 84.658831 
L 72.679359 84.658831 
L 72.679359 85.060898 
L 73.018218 85.060898 
L 73.018218 85.415686 
L 73.357078 85.415686 
L 73.357078 85.721199 
L 73.695937 85.721199 
L 73.695937 85.984112 
L 74.034797 85.984112 
L 74.034797 86.209828 
L 74.373656 86.209828 
L 74.373656 86.402735 
L 74.712516 86.402735 
L 74.712516 86.566405 
L 75.051375 86.566405 
L 75.051375 86.703806 
L 75.390235 86.703806 
L 75.390235 86.817369 
L 76.067954 86.909127 
L 76.067954 86.980745 
L 78.101111 86.874963 
L 78.101111 86.712575 
L 78.439971 86.712575 
L 78.439971 86.534572 
L 78.77883 86.534572 
L 78.77883 86.337391 
L 79.11769 86.337391 
L 79.11769 86.123856 
L 79.456549 86.123856 
L 79.456549 85.893517 
L 79.795409 85.893517 
L 79.795409 85.601368 
L 80.134269 85.601368 
L 80.134269 85.289016 
L 80.473128 85.289016 
L 80.473128 84.96766 
L 80.811988 84.96766 
L 80.811988 84.634167 
L 81.150847 84.634167 
L 81.150847 84.211345 
L 81.489707 84.211345 
L 81.489707 83.037386 
L 81.828566 83.037386 
L 81.828566 81.861989 
L 82.167426 81.861989 
L 82.167426 80.722187 
L 82.506285 80.722187 
L 82.506285 79.650566 
L 82.845145 79.650566 
L 82.845145 78.672302 
L 83.184004 78.672302 
L 83.184004 77.803507 
L 83.522864 77.803507 
L 83.522864 77.956295 
L 83.861723 77.956295 
L 83.861723 78.096791 
L 85.556021 78.08964 
L 85.556021 77.94774 
L 85.894881 77.94774 
L 85.894881 77.765668 
L 86.23374 77.765668 
L 86.23374 77.581856 
L 86.5726 77.581856 
L 86.5726 77.3955 
L 86.911459 77.3955 
L 86.911459 77.269992 
L 87.589178 77.215602 
L 87.589178 77.137575 
L 87.928038 77.137575 
L 87.928038 76.954275 
L 88.266897 76.954275 
L 88.266897 76.766352 
L 88.605757 76.766352 
L 88.605757 76.408083 
L 88.944617 76.408083 
L 88.944617 75.874765 
L 89.283476 75.874765 
L 89.283476 75.380149 
L 89.622336 75.380149 
L 89.622336 74.922873 
L 89.961195 74.922873 
L 89.961195 74.482881 
L 90.300055 74.482881 
L 90.300055 74.059 
L 90.638914 74.059 
L 90.638914 73.66944 
L 90.977774 73.66944 
L 90.977774 73.31163 
L 91.316633 73.31163 
L 91.316633 72.982877 
L 91.655493 72.982877 
L 91.655493 72.719071 
L 91.994352 72.719071 
L 91.994352 72.493541 
L 92.333212 72.493541 
L 92.333212 72.284465 
L 92.672071 72.284465 
L 92.672071 72.08994 
L 93.010931 72.08994 
L 93.010931 71.908197 
L 93.34979 71.908197 
L 93.34979 71.727922 
L 93.68865 71.727922 
L 93.68865 71.548339 
L 94.02751 71.548339 
L 94.02751 71.379858 
L 94.366369 71.379858 
L 94.366369 71.22128 
L 94.705229 71.22128 
L 94.705229 70.75784 
L 95.044088 70.75784 
L 95.044088 70.339394 
L 95.382948 70.339394 
L 95.382948 69.976933 
L 95.721807 69.976933 
L 95.721807 69.660053 
L 96.060667 69.660053 
L 96.060667 69.380408 
L 96.399526 69.380408 
L 96.399526 69.13138 
L 96.738386 69.13138 
L 96.738386 68.907705 
L 97.077245 68.907705 
L 97.077245 68.703284 
L 97.416105 68.703284 
L 97.416105 67.649287 
L 97.754964 67.649287 
L 97.754964 66.367132 
L 98.093824 66.367132 
L 98.093824 65.30462 
L 98.432684 65.30462 
L 98.432684 64.441372 
L 98.771543 64.441372 
L 98.771543 63.75229 
L 99.110403 63.75229 
L 99.110403 63.368408 
L 99.788122 63.263498 
L 99.788122 63.229588 
L 100.465841 63.31572 
L 100.465841 63.458265 
L 100.8047 63.458265 
L 100.8047 63.634171 
L 101.14356 63.634171 
L 101.14356 63.828695 
L 101.482419 63.828695 
L 101.482419 64.032235 
L 101.821279 64.032235 
L 101.821279 64.232482 
L 102.160138 64.232482 
L 102.160138 64.403625 
L 102.498998 64.403625 
L 102.498998 64.554705 
L 102.837858 64.554705 
L 102.837858 64.970689 
L 103.176717 64.970689 
L 103.176717 65.421759 
L 103.515577 65.421759 
L 103.515577 65.811631 
L 103.854436 65.811631 
L 103.854436 66.155268 
L 104.193296 66.155268 
L 104.193296 66.463576 
L 104.532155 66.463576 
L 104.532155 66.576179 
L 104.871015 66.576179 
L 104.871015 66.758849 
L 105.209874 66.758849 
L 105.209874 66.924585 
L 105.548734 66.924585 
L 105.548734 67.079827 
L 105.887593 67.079827 
L 105.887593 67.229067 
L 106.226453 67.229067 
L 106.226453 67.37522 
L 106.565312 67.37522 
L 106.565312 67.520285 
L 106.904172 67.520285 
L 106.904172 68.143023 
L 107.243032 68.143023 
L 107.243032 68.819672 
L 107.581891 68.819672 
L 107.581891 69.392189 
L 107.920751 69.392189 
L 107.920751 69.67313 
L 108.25961 69.67313 
L 108.25961 69.552222 
L 109.615048 69.640947 
L 109.615048 69.741884 
L 109.953908 69.741884 
L 109.953908 69.911758 
L 110.631627 69.987619 
L 110.631627 70.071299 
L 111.309346 70.159781 
L 111.309346 70.250579 
L 111.987065 70.342084 
L 111.987065 70.429924 
L 112.664784 70.50725 
L 112.664784 70.944976 
L 113.003644 70.944976 
L 113.003644 71.330578 
L 113.342503 71.330578 
L 113.342503 71.656711 
L 113.681363 71.656711 
L 113.681363 71.935258 
L 114.020222 71.935258 
L 114.020222 72.175247 
L 114.359082 72.175247 
L 114.359082 72.383373 
L 114.697941 72.383373 
L 114.697941 72.56483 
L 115.036801 72.56483 
L 115.036801 72.696239 
L 115.37566 72.696239 
L 115.37566 72.833117 
L 115.71452 72.833117 
L 115.71452 73.011378 
L 116.731099 72.934462 
L 116.731099 72.862614 
L 117.069958 72.862614 
L 117.069958 72.688804 
L 117.408818 72.688804 
L 117.408818 72.564125 
L 117.747677 72.564125 
L 117.747677 72.282119 
L 118.086537 72.282119 
L 118.086537 71.662188 
L 118.425396 71.662188 
L 118.425396 71.120745 
L 118.764256 71.120745 
L 118.764256 70.648402 
L 119.103115 70.648402 
L 119.103115 70.236519 
L 119.441975 70.236519 
L 119.441975 69.877483 
L 119.780834 69.877483 
L 119.780834 69.564437 
L 120.119694 69.564437 
L 120.119694 69.291575 
L 120.458553 69.291575 
L 120.458553 69.053797 
L 120.797413 69.053797 
L 120.797413 68.835485 
L 121.136273 68.835485 
L 121.136273 68.642325 
L 121.475132 68.642325 
L 121.475132 68.475604 
L 121.813992 68.475604 
L 121.813992 68.329845 
L 123.16943 68.227429 
L 123.16943 68.163219 
L 123.847149 68.103363 
L 123.847149 67.841099 
L 124.186008 67.841099 
L 124.186008 67.558825 
L 124.524868 67.558825 
L 124.524868 67.278501 
L 124.863727 67.278501 
L 124.863727 66.996347 
L 125.202587 66.996347 
L 125.202587 66.742352 
L 125.541447 66.742352 
L 125.541447 66.514559 
L 125.880306 66.514559 
L 125.880306 66.311171 
L 126.219166 66.311171 
L 126.219166 66.130402 
L 126.558025 66.130402 
L 126.558025 65.970611 
L 126.896885 65.970611 
L 126.896885 66.363198 
L 127.235744 66.363198 
L 127.235744 66.714828 
L 127.574604 66.714828 
L 127.574604 66.922162 
L 127.913463 66.922162 
L 127.913463 67.035265 
L 128.930042 67.116755 
L 128.930042 67.200443 
L 129.946621 67.216404 
L 129.946621 67.61021 
L 130.28548 67.61021 
L 130.28548 67.937016 
L 130.62434 67.937016 
L 130.62434 68.466248 
L 130.963199 68.466248 
L 130.963199 69.302499 
L 131.302059 69.302499 
L 131.302059 70.215392 
L 131.640918 70.215392 
L 131.640918 70.87683 
L 131.979778 70.87683 
L 131.979778 70.539687 
L 132.318637 70.539687 
L 132.318637 70.403571 
L 133.335216 70.476377 
L 133.335216 70.575641 
L 133.674075 70.575641 
L 133.674075 70.692695 
L 134.690654 70.676793 
L 134.690654 70.493783 
L 135.029514 70.493783 
L 135.029514 70.100731 
L 135.368373 70.100731 
L 135.368373 69.700144 
L 135.707233 69.700144 
L 135.707233 69.374308 
L 136.384952 69.272538 
L 136.384952 69.031156 
L 136.723811 69.031156 
L 136.723811 68.78462 
L 137.062671 68.78462 
L 137.062671 68.537922 
L 137.40153 68.537922 
L 137.40153 68.309237 
L 137.74039 68.309237 
L 137.74039 68.11402 
L 138.079249 68.11402 
L 138.079249 67.948038 
L 138.418109 67.948038 
L 138.418109 67.807451 
L 138.756968 67.807451 
L 138.756968 67.689422 
L 139.434688 67.591824 
L 139.434688 67.512159 
L 140.112407 67.447744 
L 140.112407 67.396239 
L 140.451266 67.396239 
L 140.451266 67.157937 
L 140.790126 67.157937 
L 140.790126 66.846909 
L 141.128985 66.846909 
L 141.128985 66.575691 
L 141.467845 66.575691 
L 141.467845 66.340628 
L 142.823283 66.447084 
L 142.823283 66.485507 
L 144.178721 66.588158 
L 144.178721 66.619479 
L 144.85644 66.649781 
L 144.85644 66.734581 
L 145.1953 66.734581 
L 145.1953 66.858316 
L 145.534159 66.858316 
L 145.534159 66.969576 
L 146.211878 67.06994 
L 146.211878 67.160717 
L 146.889597 67.243075 
L 146.889597 67.31796 
L 147.567316 67.386175 
L 147.567316 67.434733 
L 148.245036 67.482213 
L 148.245036 67.588162 
L 148.583895 67.588162 
L 148.583895 67.80971 
L 148.922755 67.80971 
L 148.922755 68.009732 
L 149.261614 68.009732 
L 149.261614 68.171245 
L 149.600474 68.171245 
L 149.600474 68.303453 
L 150.278193 68.41123 
L 150.278193 68.498625 
L 150.955912 68.568956 
L 150.955912 68.625027 
L 151.633631 68.669021 
L 151.633631 68.756628 
L 152.989069 68.65952 
L 152.989069 68.604263 
L 153.666788 68.545521 
L 153.666788 68.484256 
L 154.344507 68.421341 
L 154.344507 68.357557 
L 155.022226 68.293453 
L 155.022226 68.229624 
L 155.699945 68.166468 
L 155.699945 68.104355 
L 156.377664 68.043593 
L 156.377664 67.984428 
L 157.055383 67.927058 
L 157.055383 67.871599 
L 158.071962 67.766953 
L 158.071962 67.71783 
L 159.088541 67.6263 
L 159.088541 67.58386 
L 160.105119 67.50554 
L 160.105119 67.469606 
L 161.460557 67.374076 
L 161.460557 67.346167 
L 163.154855 67.252406 
L 163.154855 67.233148 
L 166.204591 67.129308 
L 166.204591 67.121743 
L 170.948625 67.225279 
L 170.948625 67.26334 
L 172.642922 67.372748 
L 172.642922 67.391433 
L 178.064675 67.498734 
L 178.064675 67.53661 
L 179.758972 67.642721 
L 179.758972 67.680333 
L 184.503006 67.584921 
L 184.503006 67.554813 
L 185.858444 67.460451 
L 185.858444 67.429221 
L 187.552742 67.318556 
L 187.552742 67.292686 
L 189.24704 67.198954 
L 189.24704 67.178226 
L 191.619056 67.0781 
L 191.619056 67.065395 
L 203.47914 67.174537 
L 203.47914 67.179647 
L 207.545455 67.207651 
L 207.545455 67.209711 
" style="fill:none;stroke:#2ca02c;stroke-linecap:square;stroke-width:1.5;"/>
   </g>
   <g id="line2d_24">
    <path clip-path="url(#p9fa058871f)" d="M 38.454545 16.760446 
L 47.264893 16.869364 
L 47.264893 16.878806 
L 48.620332 16.966142 
L 48.620332 17.020282 
L 49.298051 17.09216 
L 49.298051 17.187766 
L 49.63691 17.187766 
L 49.63691 17.312912 
L 49.97577 17.312912 
L 49.97577 17.475956 
L 50.314629 17.475956 
L 50.314629 17.734984 
L 50.653489 17.734984 
L 50.653489 18.213112 
L 50.992348 18.213112 
L 50.992348 18.95969 
L 51.331208 18.95969 
L 51.331208 20.167837 
L 51.670067 20.167837 
L 51.670067 24.118334 
L 52.008927 24.118334 
L 52.008927 31.05856 
L 52.347786 31.05856 
L 52.347786 40.638765 
L 52.686646 40.638765 
L 52.686646 48.899112 
L 53.025506 48.899112 
L 53.025506 56.430174 
L 53.364365 56.430174 
L 53.364365 61.483709 
L 55.397522 61.483709 
L 55.397522 62.495614 
L 55.736382 62.495614 
L 55.736382 68.133028 
L 56.075241 68.133028 
L 56.075241 72.737132 
L 56.414101 72.737132 
L 56.414101 76.432613 
L 56.75296 76.432613 
L 56.75296 79.069872 
L 57.09182 79.069872 
L 57.09182 81.156062 
L 57.43068 81.156062 
L 57.43068 82.840442 
L 57.769539 82.840442 
L 57.769539 84.211278 
L 58.108399 84.211278 
L 58.108399 85.301986 
L 58.447258 85.301986 
L 58.447258 86.018904 
L 58.786118 86.018904 
L 58.786118 86.212626 
L 59.463837 86.165285 
L 59.463837 85.790063 
L 59.802696 85.790063 
L 59.802696 85.104348 
L 60.141556 85.104348 
L 60.141556 84.312329 
L 60.480415 84.312329 
L 60.480415 83.515372 
L 60.819275 83.515372 
L 60.819275 83.062417 
L 61.158134 83.062417 
L 61.158134 82.844089 
L 62.852432 82.949113 
L 62.852432 83.081023 
L 63.191292 83.081023 
L 63.191292 83.44306 
L 63.530151 83.44306 
L 63.530151 84.09962 
L 63.869011 84.09962 
L 63.869011 84.666036 
L 64.20787 84.666036 
L 64.20787 85.157349 
L 64.54673 85.157349 
L 64.54673 85.585461 
L 64.885589 85.585461 
L 64.885589 85.959917 
L 65.224449 85.959917 
L 65.224449 86.288462 
L 65.563308 86.288462 
L 65.563308 86.577387 
L 65.902168 86.577387 
L 65.902168 86.831928 
L 66.241028 86.831928 
L 66.241028 87.056449 
L 66.579887 87.056449 
L 66.579887 87.254522 
L 66.918747 87.254522 
L 66.918747 87.420464 
L 67.257606 87.420464 
L 67.257606 87.552716 
L 67.596466 87.552716 
L 67.596466 87.733258 
L 67.935325 87.733258 
L 67.935325 87.898484 
L 68.274185 87.898484 
L 68.274185 88.050205 
L 68.613044 88.050205 
L 68.613044 88.189335 
L 69.290763 88.283225 
L 69.290763 88.353121 
L 69.968482 88.415069 
L 69.968482 88.469032 
L 72.679359 88.397538 
L 72.679359 88.227579 
L 73.018218 88.227579 
L 73.018218 88.039564 
L 73.357078 88.039564 
L 73.357078 87.844163 
L 73.695937 87.844163 
L 73.695937 87.641967 
L 74.034797 87.641967 
L 74.034797 87.433629 
L 74.373656 87.433629 
L 74.373656 87.219816 
L 74.712516 87.219816 
L 74.712516 87.001193 
L 75.051375 87.001193 
L 75.051375 86.778546 
L 75.390235 86.778546 
L 75.390235 86.552583 
L 75.729095 86.552583 
L 75.729095 86.324128 
L 76.067954 86.324128 
L 76.067954 86.09387 
L 76.406814 86.09387 
L 76.406814 85.862641 
L 76.745673 85.862641 
L 76.745673 85.631193 
L 77.084533 85.631193 
L 77.084533 85.417408 
L 77.762252 85.524315 
L 77.762252 85.218243 
L 78.101111 85.218243 
L 78.101111 84.742046 
L 78.439971 84.742046 
L 78.439971 84.251339 
L 78.77883 84.251339 
L 78.77883 83.733693 
L 79.11769 83.733693 
L 79.11769 83.21047 
L 79.456549 83.21047 
L 79.456549 82.684728 
L 79.795409 82.684728 
L 79.795409 82.159073 
L 80.134269 82.159073 
L 80.134269 81.637735 
L 80.473128 81.637735 
L 80.473128 81.004157 
L 80.811988 81.004157 
L 80.811988 80.362748 
L 81.150847 80.362748 
L 81.150847 79.836831 
L 81.489707 79.836831 
L 81.489707 80.220021 
L 81.828566 80.220021 
L 81.828566 80.538694 
L 82.167426 80.538694 
L 82.167426 80.7987 
L 82.506285 80.7987 
L 82.506285 81.005531 
L 82.845145 81.005531 
L 82.845145 81.164317 
L 83.184004 81.164317 
L 83.184004 81.279865 
L 83.522864 81.279865 
L 83.522864 80.681516 
L 83.861723 80.681516 
L 83.861723 80.035739 
L 84.200583 80.035739 
L 84.200583 79.39325 
L 84.539443 79.39325 
L 84.539443 78.895456 
L 84.878302 78.895456 
L 84.878302 78.458528 
L 85.217162 78.458528 
L 85.217162 78.027399 
L 85.556021 78.027399 
L 85.556021 77.367702 
L 85.894881 77.367702 
L 85.894881 76.748495 
L 86.23374 76.748495 
L 86.23374 76.162086 
L 86.5726 76.162086 
L 86.5726 75.595702 
L 86.911459 75.595702 
L 86.911459 75.06224 
L 87.250319 75.06224 
L 87.250319 74.567844 
L 87.589178 74.567844 
L 87.589178 74.093161 
L 87.928038 74.093161 
L 87.928038 73.548969 
L 88.266897 73.548969 
L 88.266897 73.035968 
L 88.605757 73.035968 
L 88.605757 72.430325 
L 88.944617 72.430325 
L 88.944617 71.719832 
L 89.283476 71.719832 
L 89.283476 71.054463 
L 89.622336 71.054463 
L 89.622336 70.433969 
L 89.961195 70.433969 
L 89.961195 69.855839 
L 90.300055 69.855839 
L 90.300055 69.317945 
L 90.638914 69.317945 
L 90.638914 68.819686 
L 90.977774 68.819686 
L 90.977774 68.359292 
L 91.316633 68.359292 
L 91.316633 67.934995 
L 91.655493 67.934995 
L 91.655493 67.631962 
L 91.994352 67.631962 
L 91.994352 67.391401 
L 92.333212 67.391401 
L 92.333212 67.166888 
L 92.672071 67.166888 
L 92.672071 66.957442 
L 93.010931 66.957442 
L 93.010931 66.762107 
L 93.34979 66.762107 
L 93.34979 66.497097 
L 93.68865 66.497097 
L 93.68865 66.182297 
L 94.02751 66.182297 
L 94.02751 65.925437 
L 94.366369 65.925437 
L 94.366369 65.714342 
L 95.044088 65.666627 
L 95.044088 65.585708 
L 95.721807 65.47566 
L 95.721807 65.348809 
L 96.060667 65.348809 
L 96.060667 65.213418 
L 96.399526 65.213418 
L 96.399526 65.075156 
L 96.738386 65.075156 
L 96.738386 64.901889 
L 97.077245 64.901889 
L 97.077245 64.422729 
L 97.416105 64.422729 
L 97.416105 63.333001 
L 97.754964 63.333001 
L 97.754964 62.146428 
L 98.093824 62.146428 
L 98.093824 61.21009 
L 98.432684 61.21009 
L 98.432684 60.47889 
L 98.771543 60.47889 
L 98.771543 59.913999 
L 99.110403 59.913999 
L 99.110403 59.702706 
L 99.788122 59.798704 
L 99.788122 59.938475 
L 100.126981 59.938475 
L 100.126981 60.470749 
L 100.465841 60.470749 
L 100.465841 60.906611 
L 100.8047 60.906611 
L 100.8047 61.275025 
L 101.14356 61.275025 
L 101.14356 61.595528 
L 101.482419 61.595528 
L 101.482419 61.881109 
L 101.821279 61.881109 
L 101.821279 62.092126 
L 102.837858 62.13024 
L 102.837858 62.224259 
L 103.176717 62.224259 
L 103.176717 62.373035 
L 103.515577 62.373035 
L 103.515577 62.553948 
L 103.854436 62.553948 
L 103.854436 62.758571 
L 104.193296 62.758571 
L 104.193296 62.980362 
L 104.532155 62.980362 
L 104.532155 63.30718 
L 105.548734 63.374457 
L 105.548734 63.460362 
L 105.887593 63.460362 
L 105.887593 63.572798 
L 106.226453 63.572798 
L 106.226453 63.706981 
L 106.565312 63.706981 
L 106.565312 63.859227 
L 106.904172 63.859227 
L 106.904172 64.183052 
L 107.243032 64.183052 
L 107.243032 64.574124 
L 107.581891 64.574124 
L 107.581891 64.981407 
L 107.920751 64.981407 
L 107.920751 65.287728 
L 108.25961 65.287728 
L 108.25961 65.404701 
L 108.59847 65.404701 
L 108.59847 65.519134 
L 108.937329 65.519134 
L 108.937329 65.715268 
L 109.276189 65.715268 
L 109.276189 65.922576 
L 109.615048 65.922576 
L 109.615048 66.127034 
L 109.953908 66.127034 
L 109.953908 66.372384 
L 110.292767 66.372384 
L 110.292767 66.756051 
L 110.631627 66.756051 
L 110.631627 67.098634 
L 110.970486 67.098634 
L 110.970486 67.407459 
L 111.309346 67.407459 
L 111.309346 67.688011 
L 111.648206 67.688011 
L 111.648206 67.944844 
L 111.987065 67.944844 
L 111.987065 68.173286 
L 112.325925 68.173286 
L 112.325925 68.36124 
L 112.664784 68.36124 
L 112.664784 68.527135 
L 113.003644 68.527135 
L 113.003644 68.724053 
L 113.342503 68.724053 
L 113.342503 68.942017 
L 113.681363 68.942017 
L 113.681363 69.171157 
L 114.020222 69.171157 
L 114.020222 69.404499 
L 114.359082 69.404499 
L 114.359082 69.636897 
L 114.697941 69.636897 
L 114.697941 69.864889 
L 115.036801 69.864889 
L 115.036801 69.99355 
L 116.053379 70.068303 
L 116.053379 70.341905 
L 116.392239 70.341905 
L 116.392239 70.82925 
L 116.731099 70.82925 
L 116.731099 71.21051 
L 117.069958 71.21051 
L 117.069958 71.513358 
L 117.408818 71.513358 
L 117.408818 71.741996 
L 118.086537 71.800393 
L 118.086537 71.59806 
L 118.425396 71.59806 
L 118.425396 71.383437 
L 118.764256 71.383437 
L 118.764256 71.164643 
L 119.103115 71.164643 
L 119.103115 70.947747 
L 119.441975 70.947747 
L 119.441975 70.73722 
L 119.780834 70.73722 
L 119.780834 70.536094 
L 120.119694 70.536094 
L 120.119694 70.346488 
L 120.458553 70.346488 
L 120.458553 70.169546 
L 120.797413 70.169546 
L 120.797413 70.008192 
L 121.136273 70.008192 
L 121.136273 69.85956 
L 121.475132 69.85956 
L 121.475132 69.722503 
L 122.83057 69.662076 
L 122.83057 69.532109 
L 123.16943 69.532109 
L 123.16943 69.409266 
L 123.847149 69.302364 
L 123.847149 68.968184 
L 124.186008 68.968184 
L 124.186008 68.626664 
L 124.524868 68.626664 
L 124.524868 68.323988 
L 124.863727 68.323988 
L 124.863727 68.054252 
L 125.202587 68.054252 
L 125.202587 67.808149 
L 125.541447 67.808149 
L 125.541447 67.584776 
L 125.880306 67.584776 
L 125.880306 67.383015 
L 126.219166 67.383015 
L 126.219166 67.201761 
L 126.558025 67.201761 
L 126.558025 67.039785 
L 126.896885 67.039785 
L 126.896885 66.141787 
L 127.235744 66.141787 
L 127.235744 65.340166 
L 127.574604 65.340166 
L 127.574604 64.786275 
L 127.913463 64.786275 
L 127.913463 64.38802 
L 128.252323 64.38802 
L 128.252323 64.091775 
L 128.591182 64.091775 
L 128.591182 63.214708 
L 128.930042 63.214708 
L 128.930042 62.745212 
L 129.268901 62.745212 
L 129.268901 62.448585 
L 129.607761 62.448585 
L 129.607761 62.225581 
L 129.946621 62.225581 
L 129.946621 61.31324 
L 130.28548 61.31324 
L 130.28548 60.709238 
L 130.62434 60.709238 
L 130.62434 60.38112 
L 130.963199 60.38112 
L 130.963199 60.068672 
L 131.640918 60.013461 
L 131.640918 60.706374 
L 131.979778 60.706374 
L 131.979778 62.657281 
L 132.318637 62.657281 
L 132.318637 64.524775 
L 132.657497 64.524775 
L 132.657497 65.96712 
L 132.996356 65.96712 
L 132.996356 67.372963 
L 133.335216 67.372963 
L 133.335216 68.411269 
L 133.674075 68.411269 
L 133.674075 68.910755 
L 134.690654 69.01776 
L 134.690654 69.110718 
L 135.029514 69.110718 
L 135.029514 69.254809 
L 135.707233 69.359474 
L 135.707233 69.428804 
L 137.40153 69.515509 
L 137.40153 69.59137 
L 138.418109 69.694137 
L 138.418109 69.725989 
L 141.806704 69.638326 
L 141.806704 69.54843 
L 142.484423 69.463902 
L 142.484423 69.386199 
L 143.162142 69.314623 
L 143.162142 69.248527 
L 143.839862 69.187385 
L 143.839862 69.130699 
L 144.85644 69.029003 
L 144.85644 69.006075 
L 148.583895 69.112872 
L 148.583895 69.130258 
L 149.261614 69.204967 
L 149.261614 69.28132 
L 149.939333 69.352475 
L 149.939333 69.418485 
L 150.617052 69.479377 
L 150.617052 69.535199 
L 151.633631 69.632086 
L 151.633631 69.673659 
L 151.97249 69.673659 
L 151.97249 69.517957 
L 152.31135 69.517957 
L 152.31135 69.31182 
L 152.65021 69.31182 
L 152.65021 69.123636 
L 152.989069 69.123636 
L 152.989069 68.95289 
L 153.327929 68.95289 
L 153.327929 68.798981 
L 153.666788 68.798981 
L 153.666788 68.661333 
L 154.005648 68.661333 
L 154.005648 68.539132 
L 154.683367 68.431696 
L 154.683367 68.338287 
L 155.361086 68.258054 
L 155.361086 68.190228 
L 156.377664 68.08861 
L 156.377664 68.053206 
L 160.782838 68.148072 
L 160.782838 68.180434 
L 162.138277 68.284063 
L 162.138277 68.319522 
L 163.493715 68.423981 
L 163.493715 68.457211 
L 164.849153 68.548887 
L 164.849153 68.57609 
L 166.88231 68.680442 
L 166.88231 68.694249 
L 174.676079 68.620877 
L 174.676079 68.582006 
L 175.692658 68.495883 
L 175.692658 68.449099 
L 176.709237 68.349108 
L 176.709237 68.296342 
L 177.725815 68.186066 
L 177.725815 68.129184 
L 178.403534 68.069414 
L 178.403534 68.007218 
L 179.081253 67.943406 
L 179.081253 67.878576 
L 179.758972 67.810555 
L 179.758972 67.74077 
L 180.436692 67.670108 
L 180.436692 67.599343 
L 181.114411 67.529168 
L 181.114411 67.460147 
L 181.79213 67.392822 
L 181.79213 67.327654 
L 182.469849 67.26492 
L 182.469849 67.201744 
L 183.147568 67.139132 
L 183.147568 67.079739 
L 184.164146 66.971188 
L 184.164146 66.922094 
L 185.180725 66.834435 
L 185.180725 66.795828 
L 186.875023 66.684958 
L 186.875023 66.666449 
L 197.040809 66.771519 
L 197.040809 66.784988 
L 200.090545 66.893439 
L 200.090545 66.905952 
L 203.818 67.00965 
L 203.818 67.021213 
L 206.867735 67.124556 
L 206.867735 67.138419 
L 207.545455 67.152358 
L 207.545455 67.16633 
" style="fill:none;stroke:#d62728;stroke-linecap:square;stroke-width:1.5;"/>
   </g>
   <g id="patch_3">
    <path d="M 30 96.12 
L 30 12.96 
" style="fill:none;stroke:#000000;stroke-linecap:square;stroke-linejoin:miter;stroke-width:0.8;"/>
   </g>
   <g id="patch_4">
    <path d="M 216 96.12 
L 216 12.96 
" style="fill:none;stroke:#000000;stroke-linecap:square;stroke-linejoin:miter;stroke-width:0.8;"/>
   </g>
   <g id="patch_5">
    <path d="M 30 96.12 
L 216 96.12 
" style="fill:none;stroke:#000000;stroke-linecap:square;stroke-linejoin:miter;stroke-width:0.8;"/>
   </g>
   <g id="patch_6">
    <path d="M 30 12.96 
L 216 12.96 
" style="fill:none;stroke:#000000;stroke-linecap:square;stroke-linejoin:miter;stroke-width:0.8;"/>
   </g>
   <g id="legend_1">
    <g id="patch_7">
     <path d="M 37 76.708713 
L 103.122088 76.708713 
Q 105.122088 76.708713 105.122088 74.708713 
L 105.122088 19.96 
Q 105.122088 17.96 103.122088 17.96 
L 37 17.96 
Q 35 17.96 35 19.96 
L 35 74.708713 
Q 35 76.708713 37 76.708713 
z
" style="fill:#ffffff;opacity:0.8;stroke:#cccccc;stroke-linejoin:miter;"/>
    </g>
    <g id="line2d_25">
     <path d="M 39 25.46 
L 59 25.46 
" style="fill:none;stroke:#1f77b4;stroke-linecap:square;stroke-width:1.5;"/>
    </g>
    <g id="line2d_26"/>
    <g id="text_13">
     <!-- $F_1$ TD3 -->
     <defs>
      <path d="M 62.203125 67.59375 
L 4.5 67.59375 
L 2.796875 45.59375 
L 4.59375 45.59375 
C 5.90625 62.125 7.296875 65 22.703125 65 
C 24.5 65 27.40625 65 28.203125 64.90625 
C 30.09375 64.609375 30.09375 63.40625 30.09375 61.125 
L 30.09375 7.171875 
C 30.09375 3.59375 29.796875 2.5 21.5 2.5 
L 18.703125 2.5 
L 18.703125 0 
C 23.5 0 28.5 0 33.40625 0 
C 38.296875 0 43.296875 0 48.09375 0 
L 48.09375 2.5 
L 45.296875 2.5 
C 37 2.5 36.703125 3.59375 36.703125 7.171875 
L 36.703125 61.125 
C 36.703125 63.3125 36.703125 64.515625 38.5 64.90625 
C 39.296875 65 42.203125 65 44 65 
C 59.296875 65 60.796875 62.125 62.09375 45.59375 
L 63.90625 45.59375 
z
" id="CMR17-84"/>
      <path d="M 5.203125 68 
L 5.203125 65.40625 
C 12.09375 65.40625 13.203125 65.40625 13.203125 60.9375 
L 13.203125 7.0625 
C 13.203125 2.59375 12.09375 2.59375 5.203125 2.59375 
L 5.203125 0 
L 37 0 
C 53.09375 0 66 14.734375 66 33.453125 
C 66 52.28125 53.296875 68 37 68 
z
M 23.796875 2.59375 
C 19.796875 2.59375 19.59375 3.078125 19.59375 6.46875 
L 19.59375 61.53125 
C 19.59375 64.921875 19.796875 65.40625 23.796875 65.40625 
L 35 65.40625 
C 43.296875 65.40625 58.59375 60.53125 58.59375 33.453125 
C 58.59375 19.40625 54.5 13.734375 52.59375 11.046875 
C 50.203125 7.96875 44.5 2.59375 35 2.59375 
z
" id="CMR17-68"/>
     </defs>
     <g transform="translate(67 28.96)scale(0.1 -0.1)">
      <use transform="translate(0 14.943915)scale(0.996264)" xlink:href="#CMMI12-70"/>
      <use transform="translate(63.148204 0)scale(0.697382)" xlink:href="#CMR17-49"/>
      <use transform="translate(125.705484 14.943915)scale(0.996264)" xlink:href="#CMR17-84"/>
      <use transform="translate(192.215365 14.943915)scale(0.996264)" xlink:href="#CMR17-68"/>
      <use transform="translate(262.608921 14.943915)scale(0.996264)" xlink:href="#CMR17-51"/>
     </g>
    </g>
    <g id="line2d_27">
     <path d="M 39 39.397178 
L 59 39.397178 
" style="fill:none;stroke:#ff7f0e;stroke-linecap:square;stroke-width:1.5;"/>
    </g>
    <g id="line2d_28"/>
    <g id="text_14">
     <!-- $F_2$ TD3 -->
     <g transform="translate(67 42.897178)scale(0.1 -0.1)">
      <use transform="translate(0 14.943915)scale(0.996264)" xlink:href="#CMMI12-70"/>
      <use transform="translate(63.148204 0)scale(0.697382)" xlink:href="#CMR17-50"/>
      <use transform="translate(125.705484 14.943915)scale(0.996264)" xlink:href="#CMR17-84"/>
      <use transform="translate(192.215365 14.943915)scale(0.996264)" xlink:href="#CMR17-68"/>
      <use transform="translate(262.608921 14.943915)scale(0.996264)" xlink:href="#CMR17-51"/>
     </g>
    </g>
    <g id="line2d_29">
     <path d="M 39 53.334357 
L 59 53.334357 
" style="fill:none;stroke:#2ca02c;stroke-linecap:square;stroke-width:1.5;"/>
    </g>
    <g id="line2d_30"/>
    <g id="text_15">
     <!-- $F_1$ SAC -->
     <defs>
      <path d="M 43.796875 67.03125 
C 43.796875 68.8125 43.703125 68.921875 43.09375 68.921875 
C 42.5 68.921875 42.296875 68.515625 41.90625 67.625 
L 38.90625 61.046875 
C 35.09375 66.515625 29.296875 69 23 69 
C 12.796875 69 4.59375 60.953125 4.59375 50.828125 
C 4.59375 47.75 5.296875 43.375 8.703125 39.21875 
C 12.40625 34.65625 15.90625 33.859375 23.90625 31.765625 
C 26.90625 30.96875 31.90625 29.671875 32.90625 29.28125 
C 38.59375 26.90625 41.59375 20.953125 41.59375 15.390625 
C 41.59375 8.234375 36.5 0.59375 27.796875 0.59375 
C 17.09375 0.59375 7.09375 6.546875 6.40625 20.484375 
C 6.296875 22.078125 6.203125 22.171875 5.5 22.171875 
C 4.703125 22.171875 4.59375 22.078125 4.59375 20.078125 
L 4.59375 -0.015625 
C 4.59375 -1.796875 4.703125 -1.90625 5.296875 -1.90625 
C 6 -1.90625 6.203125 -1.40625 7.59375 1.6875 
C 7.703125 1.984375 7.703125 2.1875 9.59375 5.953125 
C 14.59375 -0.609375 23 -2 27.796875 -2 
C 38.703125 -2 46.40625 7.046875 46.40625 17.5625 
C 46.40625 22.71875 44.5 26.6875 43.40625 28.484375 
C 39.203125 34.84375 34.703125 36.03125 29.90625 37.21875 
C 29.203125 37.53125 29 37.53125 23.40625 38.90625 
C 18 40.296875 15.703125 41 13.203125 43.6875 
C 10.40625 46.75 9.40625 49.9375 9.40625 53.109375 
C 9.40625 59.5625 14.59375 66.609375 23.09375 66.609375 
C 33.703125 66.609375 40.296875 59.15625 41.796875 46.765625 
C 42.09375 44.96875 42.203125 44.875 42.90625 44.875 
C 43.796875 44.875 43.796875 45.171875 43.796875 46.859375 
z
" id="CMR17-83"/>
      <path d="M 36.296875 68.40625 
C 35.796875 69.703125 35.59375 70 34.59375 70 
C 33.59375 70 33.40625 69.703125 32.90625 68.40625 
L 11.703125 8.84375 
C 9.796875 3.484375 5.796875 2.390625 2.296875 2.390625 
L 2.296875 -0.203125 
C 4.09375 0 8.09375 0 10 0 
C 12.5 0 16.5 0 18.90625 -0.203125 
L 18.90625 2.390625 
C 14.203125 2.390625 13.5 5.640625 13.5 6.859375 
C 13.5 7.765625 13.703125 8.28125 13.90625 8.890625 
L 19.203125 24 
L 45.40625 24 
L 51.40625 6.90625 
C 51.90625 5.703125 51.90625 5.5 51.90625 5.109375 
C 51.90625 2.390625 47.59375 2.390625 45.703125 2.390625 
L 45.703125 0 
C 48.59375 0 53.796875 0 56.90625 0 
C 59.5 0 64.5 0 66.90625 -0.203125 
L 66.90625 2.390625 
C 61.59375 2.390625 59.796875 2.390625 58.5 6.046875 
z
M 32.296875 60.828125 
L 44.5 26.59375 
L 20.09375 26.59375 
z
" id="CMR17-65"/>
      <path d="M 62.09375 67.015625 
C 62.09375 68.796875 62 68.90625 61.40625 68.90625 
C 61 68.90625 60.90625 68.796875 60.203125 67.609375 
L 55.796875 59.25 
C 50.90625 65.421875 44.90625 69 37.203125 69 
C 20.09375 69 4.59375 54 4.59375 33.5625 
C 4.59375 12.90625 20.09375 -2 37.296875 -2 
C 52.59375 -2 62.09375 11.40625 62.09375 22.828125 
C 62.09375 23.8125 62.09375 24.21875 61.203125 24.21875 
C 60.40625 24.21875 60.40625 23.921875 60.296875 23.03125 
C 59.5 9.140625 49.5 0.59375 38.703125 0.59375 
C 28.5 0.59375 12.203125 7.734375 12.203125 33.546875 
C 12.203125 59.453125 28.796875 66.40625 38.5 66.40625 
C 49.796875 66.40625 58 56.6875 59.90625 42.890625 
C 60.09375 41.6875 60.09375 41.484375 61 41.484375 
C 62.09375 41.484375 62.09375 41.6875 62.09375 43.484375 
z
" id="CMR17-67"/>
     </defs>
     <g transform="translate(67 56.834357)scale(0.1 -0.1)">
      <use transform="translate(0 14.943915)scale(0.996264)" xlink:href="#CMMI12-70"/>
      <use transform="translate(63.148204 0)scale(0.697382)" xlink:href="#CMR17-49"/>
      <use transform="translate(125.705484 14.943915)scale(0.996264)" xlink:href="#CMR17-83"/>
      <use transform="translate(176.600854 14.943915)scale(0.996264)" xlink:href="#CMR17-65"/>
      <use transform="translate(243.07083 14.943915)scale(0.996264)" xlink:href="#CMR17-67"/>
     </g>
    </g>
    <g id="line2d_31">
     <path d="M 39 67.271535 
L 59 67.271535 
" style="fill:none;stroke:#d62728;stroke-linecap:square;stroke-width:1.5;"/>
    </g>
    <g id="line2d_32"/>
    <g id="text_16">
     <!-- $F_2$ SAC -->
     <g transform="translate(67 70.771535)scale(0.1 -0.1)">
      <use transform="translate(0 14.943915)scale(0.996264)" xlink:href="#CMMI12-70"/>
      <use transform="translate(63.148204 0)scale(0.697382)" xlink:href="#CMR17-50"/>
      <use transform="translate(125.705484 14.943915)scale(0.996264)" xlink:href="#CMR17-83"/>
      <use transform="translate(176.600854 14.943915)scale(0.996264)" xlink:href="#CMR17-65"/>
      <use transform="translate(243.07083 14.943915)scale(0.996264)" xlink:href="#CMR17-67"/>
     </g>
    </g>
   </g>
  </g>
 </g>
 <defs>
  <clipPath id="p9fa058871f">
   <rect height="83.16" width="186" x="30" y="12.96"/>
  </clipPath>
 </defs>
</svg>
