<?xml version="1.0" encoding="utf-8" standalone="no"?>
<!DOCTYPE svg PUBLIC "-//W3C//DTD SVG 1.1//EN"
  "http://www.w3.org/Graphics/SVG/1.1/DTD/svg11.dtd">
<!-- Created with matplotlib (http://matplotlib.org/) -->
<svg height="288pt" version="1.1" viewBox="0 0 792 288" width="792pt" xmlns="http://www.w3.org/2000/svg" xmlns:xlink="http://www.w3.org/1999/xlink">
 <defs>
  <style type="text/css">
*{stroke-linecap:butt;stroke-linejoin:round;}
  </style>
 </defs>
 <g id="figure_1">
  <g id="patch_1">
   <path d="M 0 288 
L 792 288 
L 792 0 
L 0 0 
z
" style="fill:#ffffff;"/>
  </g>
  <g id="axes_1">
   <g id="patch_2">
    <path d="M 99 256.32 
L 279.529412 256.32 
L 279.529412 34.56 
L 99 34.56 
z
" style="fill:#ffffff;"/>
   </g>
   <g id="matplotlib.axis_1">
    <g id="xtick_1">
     <g id="line2d_1">
      <defs>
       <path d="M 0 0 
L 0 3.5 
" id="m7256e7bba0" style="stroke:#000000;stroke-width:0.8;"/>
      </defs>
      <g>
       <use style="stroke:#000000;stroke-width:0.8;" x="107.095696" xlink:href="#m7256e7bba0" y="256.32"/>
      </g>
     </g>
     <g id="text_1">
      <!-- $0$ -->
      <defs>
       <path d="M 42 31.640625 
C 42 37.75 41.90625 48.125 37.703125 56.109375 
C 34 63.109375 28.09375 65.59375 22.90625 65.59375 
C 18.09375 65.59375 12 63.40625 8.203125 56.203125 
C 4.203125 48.71875 3.796875 39.4375 3.796875 31.640625 
C 3.796875 25.953125 3.90625 17.28125 7 9.671875 
C 11.296875 -0.609375 19 -2 22.90625 -2 
C 27.5 -2 34.5 -0.109375 38.59375 9.375 
C 41.59375 16.28125 42 24.359375 42 31.640625 
z
M 22.90625 -0.40625 
C 16.5 -0.40625 12.703125 5.078125 11.296875 12.6875 
C 10.203125 18.5625 10.203125 27.15625 10.203125 32.75 
C 10.203125 40.4375 10.203125 46.828125 11.5 52.921875 
C 13.40625 61.390625 19 64 22.90625 64 
C 27 64 32.296875 61.296875 34.203125 53.125 
C 35.5 47.4375 35.59375 40.734375 35.59375 32.75 
C 35.59375 26.25 35.59375 18.265625 34.40625 12.375 
C 32.296875 1.484375 26.40625 -0.40625 22.90625 -0.40625 
z
" id="CMR17-48"/>
      </defs>
      <g transform="translate(104.605028 270.238498)scale(0.1 -0.1)">
       <use transform="scale(0.996264)" xlink:href="#CMR17-48"/>
      </g>
     </g>
    </g>
    <g id="xtick_2">
     <g id="line2d_2">
      <g>
       <use style="stroke:#000000;stroke-width:0.8;" x="156.841386" xlink:href="#m7256e7bba0" y="256.32"/>
      </g>
     </g>
     <g id="text_2">
      <!-- $10$ -->
      <defs>
       <path d="M 26.59375 63.40625 
C 26.59375 65.5 26.5 65.5 25.09375 65.5 
C 21.203125 61.1875 15.296875 59.796875 9.703125 59.796875 
C 9.40625 59.796875 8.90625 59.796875 8.796875 59.5 
C 8.703125 59.296875 8.703125 59.09375 8.703125 57 
C 11.796875 57 17 57.59375 21 59.984375 
L 21 7.203125 
C 21 3.6875 20.796875 2.5 12.203125 2.5 
L 9.203125 2.5 
L 9.203125 0 
C 14 0 19 0 23.796875 0 
C 28.59375 0 33.59375 0 38.40625 0 
L 38.40625 2.5 
L 35.40625 2.5 
C 26.796875 2.5 26.59375 3.59375 26.59375 7.15625 
z
" id="CMR17-49"/>
      </defs>
      <g transform="translate(151.86005 270.238498)scale(0.1 -0.1)">
       <use transform="scale(0.996264)" xlink:href="#CMR17-49"/>
       <use transform="translate(45.690477 0)scale(0.996264)" xlink:href="#CMR17-48"/>
      </g>
     </g>
    </g>
    <g id="xtick_3">
     <g id="line2d_3">
      <g>
       <use style="stroke:#000000;stroke-width:0.8;" x="206.587075" xlink:href="#m7256e7bba0" y="256.32"/>
      </g>
     </g>
     <g id="text_3">
      <!-- $20$ -->
      <defs>
       <path d="M 41.703125 15.453125 
L 39.90625 15.453125 
C 38.90625 8.375 38.09375 7.171875 37.703125 6.5625 
C 37.203125 5.765625 30 5.765625 28.59375 5.765625 
L 9.40625 5.765625 
C 13 9.671875 20 16.75 28.5 24.953125 
C 34.59375 30.734375 41.703125 37.53125 41.703125 47.421875 
C 41.703125 59.21875 32.296875 66 21.796875 66 
C 10.796875 66 4.09375 56.3125 4.09375 47.34375 
C 4.09375 43.4375 7 42.9375 8.203125 42.9375 
C 9.203125 42.9375 12.203125 43.546875 12.203125 47.03125 
C 12.203125 50.109375 9.59375 51 8.203125 51 
C 7.59375 51 7 50.90625 6.59375 50.703125 
C 8.5 59.21875 14.296875 63.40625 20.40625 63.40625 
C 29.09375 63.40625 34.796875 56.515625 34.796875 47.421875 
C 34.796875 38.734375 29.703125 31.25 24 24.75 
L 4.09375 2.28125 
L 4.09375 0 
L 39.296875 0 
z
" id="CMR17-50"/>
      </defs>
      <g transform="translate(201.60574 270.238498)scale(0.1 -0.1)">
       <use transform="scale(0.996264)" xlink:href="#CMR17-50"/>
       <use transform="translate(45.690477 0)scale(0.996264)" xlink:href="#CMR17-48"/>
      </g>
     </g>
    </g>
    <g id="xtick_4">
     <g id="line2d_4">
      <g>
       <use style="stroke:#000000;stroke-width:0.8;" x="256.332765" xlink:href="#m7256e7bba0" y="256.32"/>
      </g>
     </g>
     <g id="text_4">
      <!-- $30$ -->
      <defs>
       <path d="M 22.09375 33.703125 
C 31 33.703125 34.90625 25.96875 34.90625 17.03125 
C 34.90625 5 28.5 0.390625 22.703125 0.390625 
C 17.40625 0.390625 8.796875 3.03125 6.09375 10.828125 
C 6.59375 10.625 7.09375 10.625 7.59375 10.625 
C 10 10.625 11.796875 12.21875 11.796875 14.8125 
C 11.796875 17.703125 9.59375 19 7.59375 19 
C 5.90625 19 3.296875 18.203125 3.296875 14.46875 
C 3.296875 5.234375 12.296875 -2 22.90625 -2 
C 34 -2 42.5 6.71875 42.5 16.953125 
C 42.5 26.671875 34.5 33.703125 25 34.796875 
C 32.59375 36.375 39.90625 43.0625 39.90625 52.015625 
C 39.90625 59.6875 32 65.296875 23 65.296875 
C 13.90625 65.296875 5.90625 59.828125 5.90625 52.015625 
C 5.90625 48.59375 8.5 48 9.796875 48 
C 11.90625 48 13.703125 49.296875 13.703125 51.890625 
C 13.703125 54.46875 11.90625 55.765625 9.796875 55.765625 
C 9.40625 55.765625 8.90625 55.765625 8.5 55.578125 
C 11.40625 61.859375 19.296875 63 22.796875 63 
C 26.296875 63 32.90625 61.328125 32.90625 51.875 
C 32.90625 49.109375 32.5 44.1875 29.09375 39.84375 
C 26.09375 36 22.703125 36 19.40625 35.6875 
C 18.90625 35.6875 16.59375 35.453125 16.203125 35.453125 
C 15.5 35.359375 15.09375 35.265625 15.09375 34.5 
C 15.09375 33.796875 15.203125 33.703125 17.203125 33.703125 
z
" id="CMR17-51"/>
      </defs>
      <g transform="translate(251.35143 270.238498)scale(0.1 -0.1)">
       <use transform="scale(0.996264)" xlink:href="#CMR17-51"/>
       <use transform="translate(45.690477 0)scale(0.996264)" xlink:href="#CMR17-48"/>
      </g>
     </g>
    </g>
    <g id="text_5">
     <!-- time steps $\times\ 10^5$ -->
     <defs>
      <path d="M 15.09375 40 
L 29.09375 40 
L 29.09375 42.578125 
L 15.09375 42.578125 
L 15.09375 61 
L 13.296875 61 
C 13.09375 50.703125 9.59375 41.6875 1.09375 41.6875 
L 1.09375 40 
L 9.796875 40 
L 9.796875 12.046875 
C 9.796875 10.15625 9.796875 -1 21.40625 -1 
C 27.296875 -1 30.703125 4.78125 30.703125 12.140625 
L 30.703125 17.8125 
L 28.90625 17.8125 
L 28.90625 12.234375 
C 28.90625 5.375 26.203125 0.796875 22 0.796875 
C 19.09375 0.796875 15.09375 2.78125 15.09375 11.84375 
z
" id="CMR17-116"/>
      <path d="M 15.5 61.078125 
C 15.5 63.265625 13.703125 65.15625 11.40625 65.15625 
C 9.203125 65.15625 7.296875 63.375 7.296875 61.078125 
C 7.296875 58.890625 9.09375 57 11.40625 57 
C 13.59375 57 15.5 58.796875 15.5 61.078125 
z
M 3.796875 42.28125 
L 3.796875 39.703125 
C 9.40625 39.703125 10.203125 39.09375 10.203125 34.328125 
L 10.203125 6.671875 
C 10.203125 2.875 9.796875 2.390625 3.40625 2.390625 
L 3.40625 -0.203125 
C 5.796875 0 10.09375 0 12.59375 0 
C 15 0 19.09375 0 21.40625 -0.203125 
L 21.40625 2.390625 
C 15.5 2.390625 15.296875 2.984375 15.296875 6.5625 
L 15.296875 43.375 
z
" id="CMR17-105"/>
      <path d="M 67.59375 30.203125 
C 67.59375 35.1875 66.703125 43.59375 54.796875 43.59375 
C 48 43.59375 43.296875 39 41.5 33.609375 
L 41.40625 33.609375 
C 40.203125 41.8125 34.296875 43.59375 28.703125 43.59375 
C 20.796875 43.59375 16.703125 37.5 15.203125 33.5 
L 15.09375 33.5 
L 15.09375 43.59375 
L 3.296875 42.5 
L 3.296875 39.90625 
C 9.203125 39.90625 10.09375 39.296875 10.09375 34.5 
L 10.09375 6.6875 
C 10.09375 2.875 9.703125 2.390625 3.296875 2.390625 
L 3.296875 -0.203125 
C 5.703125 0 10.09375 0 12.703125 0 
C 15.296875 0 19.796875 0 22.203125 -0.203125 
L 22.203125 2.390625 
C 15.796875 2.390625 15.40625 2.78125 15.40625 6.6875 
L 15.40625 25.90625 
C 15.40625 35.109375 21 42 28 42 
C 35.40625 42 36.203125 35.40625 36.203125 30.59375 
L 36.203125 6.6875 
C 36.203125 2.875 35.796875 2.390625 29.40625 2.390625 
L 29.40625 -0.203125 
C 31.796875 0 36.203125 0 38.796875 0 
C 41.40625 0 45.90625 0 48.296875 -0.203125 
L 48.296875 2.390625 
C 41.90625 2.390625 41.5 2.78125 41.5 6.6875 
L 41.5 25.90625 
C 41.5 35.109375 47.09375 42 54.09375 42 
C 61.5 42 62.296875 35.40625 62.296875 30.59375 
L 62.296875 6.6875 
C 62.296875 2.875 61.90625 2.390625 55.5 2.390625 
L 55.5 -0.203125 
C 57.90625 0 62.296875 0 64.90625 0 
C 67.5 0 72 0 74.40625 -0.203125 
L 74.40625 2.390625 
C 68 2.390625 67.59375 2.78125 67.59375 6.6875 
z
" id="CMR17-109"/>
      <path d="M 38.09375 23 
C 38.5 23.40625 38.5 23.609375 38.5 24.625 
C 38.5 34.96875 33.09375 44 21.703125 44 
C 11.09375 44 2.703125 33.890625 2.703125 21.609375 
C 2.703125 8.609375 12.203125 -1 22.796875 -1 
C 34 -1 38.40625 9.484375 38.40625 11.5625 
C 38.40625 12.25 37.796875 12.25 37.59375 12.25 
C 36.90625 12.25 36.796875 12.046875 36.40625 10.875 
C 34.203125 4.140625 28.703125 0.796875 23.5 0.796875 
C 19.203125 0.796875 14.90625 3.171875 12.203125 7.5 
C 9.09375 12.546875 9.09375 18.375 9.09375 23 
z
M 9.203125 24.5 
C 9.90625 39.140625 17.59375 42.40625 21.59375 42.40625 
C 28.40625 42.40625 33 35.890625 33.09375 24.5 
z
" id="CMR17-101"/>
      <path d="M 30.90625 42.140625 
C 30.90625 43.953125 30.796875 44.046875 30.203125 44.046875 
C 29.796875 44.046875 29.703125 43.953125 28.5 42.453125 
C 28.203125 42.046875 27.296875 41.03125 27 40.640625 
C 23.796875 44.046875 19.296875 44.046875 17.59375 44.046875 
C 6.5 44.046875 2.5 38.234375 2.5 32.4375 
C 2.5 23.40625 12.703125 21.328125 15.59375 20.703125 
C 21.90625 19.421875 24.09375 19.015625 26.203125 17.203125 
C 27.5 16.015625 29.703125 13.8125 29.703125 10.21875 
C 29.703125 6 27.296875 0.59375 18.09375 0.59375 
C 9.40625 0.59375 6.296875 7.1875 4.5 15.953125 
C 4.203125 17.34375 4.203125 17.453125 3.40625 17.453125 
C 2.59375 17.453125 2.5 17.34375 2.5 15.359375 
L 2.5 0.984375 
C 2.5 -0.796875 2.59375 -0.90625 3.203125 -0.90625 
C 3.703125 -0.90625 3.796875 -0.796875 4.296875 0 
C 4.90625 0.890625 6.40625 3.296875 7 4.3125 
C 9 1.609375 12.5 -1 18.09375 -1 
C 28 -1 33.296875 4.421875 33.296875 12.25 
C 33.296875 17.375 30.59375 20.078125 29.296875 21.28125 
C 26.296875 24.390625 22.796875 25.09375 18.59375 25.890625 
C 13.09375 27.109375 6.09375 28.515625 6.09375 34.640625 
C 6.09375 37.234375 7.5 42.765625 17.59375 42.765625 
C 28.296875 42.765625 28.90625 32.71875 29.09375 29.5 
C 29.203125 29 29.703125 28.890625 30 28.890625 
C 30.90625 28.890625 30.90625 29.203125 30.90625 30.90625 
z
" id="CMR17-115"/>
      <path d="M 22 -16.609375 
C 15.59375 -16.609375 15.203125 -16.203125 15.203125 -12.328125 
L 15.203125 6.28125 
C 18.09375 2.09375 22.296875 -0.59375 27.59375 -0.59375 
C 37.59375 -0.59375 47.703125 8.171875 47.703125 21.6875 
C 47.703125 34.234375 39 43.78125 28.703125 43.78125 
C 22.703125 43.78125 17.796875 40.5 15 36.53125 
L 15 43.78125 
L 3.09375 42.6875 
L 3.09375 40.109375 
C 9 40.109375 9.90625 39.5 9.90625 34.734375 
L 9.90625 -12.328125 
C 9.90625 -16.109375 9.5 -16.609375 3.09375 -16.609375 
L 3.09375 -19.1875 
C 5.5 -19 9.90625 -19 12.5 -19 
C 15.09375 -19 19.59375 -19 22 -19.1875 
z
M 15.203125 31.4375 
C 15.203125 32.84375 15.203125 34.921875 19.09375 38.609375 
C 19.59375 39.015625 23 42 28 42 
C 35.296875 42 41.296875 32.9375 41.296875 21.59375 
C 41.296875 10.25 34.90625 1 27 1 
C 23.40625 1 19.5 2.6875 16.5 7.375 
C 15.203125 9.5625 15.203125 10.15625 15.203125 11.75 
z
" id="CMR17-112"/>
      <path d="M 38.90625 27.890625 
L 18.90625 47.796875 
C 17.703125 49 17.5 49.1875 16.703125 49.1875 
C 15.703125 49.1875 14.703125 48.296875 14.703125 47.1875 
C 14.703125 46.5 14.90625 46.296875 16 45.1875 
L 36 25.09375 
L 16 5 
C 14.90625 3.890625 14.703125 3.6875 14.703125 3 
C 14.703125 1.890625 15.703125 1 16.703125 1 
C 17.5 1 17.703125 1.1875 18.90625 2.390625 
L 38.796875 22.296875 
L 59.5 1.59375 
C 59.703125 1.5 60.40625 1 61 1 
C 62.203125 1 63 1.890625 63 3 
C 63 3.1875 63 3.59375 62.703125 4.09375 
C 62.59375 4.296875 46.703125 20 41.703125 25.09375 
L 60 43.390625 
C 60.5 44 62 45.296875 62.5 45.890625 
C 62.59375 46.09375 63 46.5 63 47.1875 
C 63 48.296875 62.203125 49.1875 61 49.1875 
C 60.203125 49.1875 59.796875 48.796875 58.703125 47.6875 
z
" id="CMSY10-2"/>
      <path d="M 11.40625 57.6875 
C 12.40625 57.28125 16.5 56 20.703125 56 
C 30 56 35.09375 61.109375 38 64.0625 
C 38 64.953125 38 65.5 37.40625 65.5 
C 37.296875 65.5 37.09375 65.5 36.296875 65.046875 
C 32.796875 63.40625 28.703125 62.078125 23.703125 62.078125 
C 20.703125 62.078125 16.203125 62.484375 11.296875 64.671875 
C 10.203125 65.171875 10 65.171875 9.90625 65.171875 
C 9.40625 65.171875 9.296875 65.0625 9.296875 63.078125 
L 9.296875 34.421875 
C 9.296875 32.640625 9.296875 32.140625 10.296875 32.140625 
C 10.796875 32.140625 11 32.34375 11.5 33.03125 
C 14.703125 37.515625 19.09375 39.40625 24.09375 39.40625 
C 27.59375 39.40625 35.09375 37.21875 35.09375 20.140625 
C 35.09375 16.953125 35.09375 11.171875 32.09375 6.578125 
C 29.59375 2.484375 25.703125 0.390625 21.40625 0.390625 
C 14.796875 0.390625 8.09375 5 6.296875 12.71875 
C 6.703125 12.609375 7.5 12.421875 7.90625 12.421875 
C 9.203125 12.421875 11.703125 13.125 11.703125 16.21875 
C 11.703125 18.90625 9.796875 20 7.90625 20 
C 5.59375 20 4.09375 18.59375 4.09375 15.796875 
C 4.09375 7.09375 11 -2 21.59375 -2 
C 31.90625 -2 41.703125 6.875 41.703125 19.75 
C 41.703125 31.71875 33.90625 41 24.203125 41 
C 19.09375 41 14.796875 39.109375 11.40625 35.53125 
z
" id="CMR17-53"/>
     </defs>
     <g transform="translate(139.52645 287.529113)scale(0.14 -0.14)">
      <use transform="scale(0.996264)" xlink:href="#CMR17-116"/>
      <use transform="translate(35.280768 0)scale(0.996264)" xlink:href="#CMR17-105"/>
      <use transform="translate(60.151826 0)scale(0.996264)" xlink:href="#CMR17-109"/>
      <use transform="translate(137.071416 0)scale(0.996264)" xlink:href="#CMR17-101"/>
      <use transform="translate(207.633043 0)scale(0.996264)" xlink:href="#CMR17-115"/>
      <use transform="translate(243.434381 0)scale(0.996264)" xlink:href="#CMR17-116"/>
      <use transform="translate(278.715148 0)scale(0.996264)" xlink:href="#CMR17-101"/>
      <use transform="translate(319.200809 0)scale(0.996264)" xlink:href="#CMR17-112"/>
      <use transform="translate(370.096179 0)scale(0.996264)" xlink:href="#CMR17-115"/>
      <use transform="translate(435.973483 0)scale(0.996264)" xlink:href="#CMSY10-2"/>
      <use transform="translate(543.536917 0)scale(0.996264)" xlink:href="#CMR17-49"/>
      <use transform="translate(589.227394 0)scale(0.996264)" xlink:href="#CMR17-48"/>
      <use transform="translate(634.917871 36.153639)scale(0.697382)" xlink:href="#CMR17-53"/>
     </g>
    </g>
   </g>
   <g id="matplotlib.axis_2">
    <g id="ytick_1">
     <g id="line2d_5">
      <defs>
       <path d="M 0 0 
L -3.5 0 
" id="mb2570e6cde" style="stroke:#000000;stroke-width:0.8;"/>
      </defs>
      <g>
       <use style="stroke:#000000;stroke-width:0.8;" x="99" xlink:href="#mb2570e6cde" y="243.286213"/>
      </g>
     </g>
     <g id="text_6">
      <!-- $-18$ -->
      <defs>
       <path d="M 65.90625 23 
C 67.59375 23 69.40625 23 69.40625 25 
C 69.40625 27 67.59375 27 65.90625 27 
L 11.796875 27 
C 10.09375 27 8.296875 27 8.296875 25 
C 8.296875 23 10.09375 23 11.796875 23 
z
" id="CMSY10-0"/>
       <path d="M 27.203125 35.375 
C 33.5 38.546875 39.90625 43.328125 39.90625 50.984375 
C 39.90625 60.015625 31.09375 65.296875 23 65.296875 
C 13.90625 65.296875 5.90625 58.734375 5.90625 49.6875 
C 5.90625 47.203125 6.5 42.921875 10.40625 39.140625 
C 11.40625 38.15625 15.59375 35.171875 18.296875 33.28125 
C 13.796875 30.984375 3.296875 25.53125 3.296875 14.59375 
C 3.296875 4.359375 13.09375 -2 22.796875 -2 
C 33.5 -2 42.5 5.65625 42.5 15.78125 
C 42.5 24.84375 36.40625 29.015625 32.40625 31.703125 
z
M 14.09375 44.09375 
C 13.296875 44.59375 9.296875 47.671875 9.296875 52.359375 
C 9.296875 58.421875 15.59375 63 22.796875 63 
C 30.703125 63 36.5 57.4375 36.5 50.96875 
C 36.5 41.703125 26.09375 36.421875 25.59375 36.421875 
C 25.5 36.421875 25.40625 36.421875 24.59375 37.03125 
z
M 32.5 23.734375 
C 34 22.640625 38.796875 19.375 38.796875 13.296875 
C 38.796875 5.953125 31.40625 0.390625 23 0.390625 
C 13.90625 0.390625 7 6.84375 7 14.6875 
C 7 22.546875 13.09375 29.09375 20 32.1875 
z
" id="CMR17-56"/>
      </defs>
      <g transform="translate(74.288586 246.745462)scale(0.1 -0.1)">
       <use transform="scale(0.996264)" xlink:href="#CMSY10-0"/>
       <use transform="translate(77.487468 0)scale(0.996264)" xlink:href="#CMR17-49"/>
       <use transform="translate(123.177945 0)scale(0.996264)" xlink:href="#CMR17-56"/>
      </g>
     </g>
    </g>
    <g id="ytick_2">
     <g id="line2d_6">
      <g>
       <use style="stroke:#000000;stroke-width:0.8;" x="99" xlink:href="#mb2570e6cde" y="215.189921"/>
      </g>
     </g>
     <g id="text_7">
      <!-- $-16$ -->
      <defs>
       <path d="M 10.59375 34 
C 10.59375 57.65625 21.796875 63 28.296875 63 
C 30.40625 63 35.5 62.640625 37.5 59 
C 35.90625 59 32.90625 59 32.90625 55.515625 
C 32.90625 52.828125 35.09375 51.921875 36.5 51.921875 
C 37.40625 51.921875 40.09375 52.3125 40.09375 55.625 
C 40.09375 61.78125 35.09375 65.296875 28.203125 65.296875 
C 16.296875 65.296875 3.796875 52.96875 3.796875 31 
C 3.796875 3.953125 15.09375 -2 23.09375 -2 
C 32.796875 -2 42 6.671875 42 20.046875 
C 42 32.515625 33.90625 41.59375 23.703125 41.59375 
C 17.59375 41.59375 13.09375 37.609375 10.59375 30.625 
z
M 23.09375 0.390625 
C 10.796875 0.390625 10.796875 18.75 10.796875 22.4375 
C 10.796875 29.625 14.203125 40 23.5 40 
C 25.203125 40 30.09375 40 33.40625 33.125 
C 35.203125 29.21875 35.203125 25.140625 35.203125 20.140625 
C 35.203125 14.75 35.203125 10.78125 33.09375 6.78125 
C 30.90625 2.671875 27.703125 0.390625 23.09375 0.390625 
z
" id="CMR17-54"/>
      </defs>
      <g transform="translate(74.288586 218.64917)scale(0.1 -0.1)">
       <use transform="scale(0.996264)" xlink:href="#CMSY10-0"/>
       <use transform="translate(77.487468 0)scale(0.996264)" xlink:href="#CMR17-49"/>
       <use transform="translate(123.177945 0)scale(0.996264)" xlink:href="#CMR17-54"/>
      </g>
     </g>
    </g>
    <g id="ytick_3">
     <g id="line2d_7">
      <g>
       <use style="stroke:#000000;stroke-width:0.8;" x="99" xlink:href="#mb2570e6cde" y="187.093629"/>
      </g>
     </g>
     <g id="text_8">
      <!-- $-14$ -->
      <defs>
       <path d="M 33.59375 64.40625 
C 33.59375 66.5 33.5 66.5 31.703125 66.5 
L 2 19.59375 
L 2 17 
L 27.796875 17 
L 27.796875 7.140625 
C 27.796875 3.5 27.59375 2.5 20.59375 2.5 
L 18.703125 2.5 
L 18.703125 0 
C 21.90625 0 27.296875 0 30.703125 0 
C 34.09375 0 39.5 0 42.703125 0 
L 42.703125 2.5 
L 40.796875 2.5 
C 33.796875 2.5 33.59375 3.5 33.59375 7.140625 
L 33.59375 17 
L 43.796875 17 
L 43.796875 19.59375 
L 33.59375 19.59375 
z
M 28.09375 57.859375 
L 28.09375 19.59375 
L 4 19.59375 
z
" id="CMR17-52"/>
      </defs>
      <g transform="translate(74.288586 190.552878)scale(0.1 -0.1)">
       <use transform="scale(0.996264)" xlink:href="#CMSY10-0"/>
       <use transform="translate(77.487468 0)scale(0.996264)" xlink:href="#CMR17-49"/>
       <use transform="translate(123.177945 0)scale(0.996264)" xlink:href="#CMR17-52"/>
      </g>
     </g>
    </g>
    <g id="ytick_4">
     <g id="line2d_8">
      <g>
       <use style="stroke:#000000;stroke-width:0.8;" x="99" xlink:href="#mb2570e6cde" y="158.997337"/>
      </g>
     </g>
     <g id="text_9">
      <!-- $-12$ -->
      <g transform="translate(74.288586 162.456586)scale(0.1 -0.1)">
       <use transform="scale(0.996264)" xlink:href="#CMSY10-0"/>
       <use transform="translate(77.487468 0)scale(0.996264)" xlink:href="#CMR17-49"/>
       <use transform="translate(123.177945 0)scale(0.996264)" xlink:href="#CMR17-50"/>
      </g>
     </g>
    </g>
    <g id="ytick_5">
     <g id="line2d_9">
      <g>
       <use style="stroke:#000000;stroke-width:0.8;" x="99" xlink:href="#mb2570e6cde" y="130.901045"/>
      </g>
     </g>
     <g id="text_10">
      <!-- $-10$ -->
      <g transform="translate(74.288586 134.360294)scale(0.1 -0.1)">
       <use transform="scale(0.996264)" xlink:href="#CMSY10-0"/>
       <use transform="translate(77.487468 0)scale(0.996264)" xlink:href="#CMR17-49"/>
       <use transform="translate(123.177945 0)scale(0.996264)" xlink:href="#CMR17-48"/>
      </g>
     </g>
    </g>
    <g id="ytick_6">
     <g id="line2d_10">
      <g>
       <use style="stroke:#000000;stroke-width:0.8;" x="99" xlink:href="#mb2570e6cde" y="102.804753"/>
      </g>
     </g>
     <g id="text_11">
      <!-- $-8$ -->
      <g transform="translate(79.269921 106.264003)scale(0.1 -0.1)">
       <use transform="scale(0.996264)" xlink:href="#CMSY10-0"/>
       <use transform="translate(77.487468 0)scale(0.996264)" xlink:href="#CMR17-56"/>
      </g>
     </g>
    </g>
    <g id="ytick_7">
     <g id="line2d_11">
      <g>
       <use style="stroke:#000000;stroke-width:0.8;" x="99" xlink:href="#mb2570e6cde" y="74.708462"/>
      </g>
     </g>
     <g id="text_12">
      <!-- $-6$ -->
      <g transform="translate(79.269921 78.167711)scale(0.1 -0.1)">
       <use transform="scale(0.996264)" xlink:href="#CMSY10-0"/>
       <use transform="translate(77.487468 0)scale(0.996264)" xlink:href="#CMR17-54"/>
      </g>
     </g>
    </g>
    <g id="ytick_8">
     <g id="line2d_12">
      <g>
       <use style="stroke:#000000;stroke-width:0.8;" x="99" xlink:href="#mb2570e6cde" y="46.61217"/>
      </g>
     </g>
     <g id="text_13">
      <!-- $-4$ -->
      <g transform="translate(79.269921 50.071419)scale(0.1 -0.1)">
       <use transform="scale(0.996264)" xlink:href="#CMSY10-0"/>
       <use transform="translate(77.487468 0)scale(0.996264)" xlink:href="#CMR17-52"/>
      </g>
     </g>
    </g>
    <g id="text_14">
     <!-- episode return $\times\ 10^3$ -->
     <defs>
      <path d="M 43.09375 21.1875 
C 43.09375 34 33.796875 44 22.90625 44 
C 12 44 2.703125 34 2.703125 21.1875 
C 2.703125 8.609375 12 -1 22.90625 -1 
C 33.796875 -1 43.09375 8.609375 43.09375 21.1875 
z
M 22.90625 0.796875 
C 18.203125 0.796875 14.203125 3.59375 11.90625 7.5 
C 9.40625 11.984375 9.09375 17.59375 9.09375 22 
C 9.09375 26.203125 9.296875 31.40625 11.90625 35.90625 
C 13.90625 39.203125 17.796875 42.40625 22.90625 42.40625 
C 27.40625 42.40625 31.203125 39.90625 33.59375 36.40625 
C 36.703125 31.703125 36.703125 25.109375 36.703125 22 
C 36.703125 18.09375 36.5 12.109375 33.796875 7.296875 
C 31 2.703125 26.703125 0.796875 22.90625 0.796875 
z
" id="CMR17-111"/>
      <path d="M 29.203125 67.59375 
L 29.203125 65 
C 35.09375 65 36 64.40625 36 59.6875 
L 36 36.640625 
C 35.59375 37.140625 31.5 43.59375 23.40625 43.59375 
C 13.203125 43.59375 3.296875 34.5 3.296875 21.3125 
C 3.296875 8.203125 12.59375 -1 22.40625 -1 
C 30.90625 -1 35.296875 5.265625 35.796875 5.9375 
L 35.796875 -0.984375 
L 47.90625 -0.984375 
L 47.90625 2 
C 42 2 41.09375 2.59375 41.09375 7.390625 
L 41.09375 68.6875 
z
M 35.796875 11.796875 
C 35.796875 8.796875 34 6.09375 31.703125 4.09375 
C 28.296875 1.09375 24.90625 0.59375 23 0.59375 
C 20.09375 0.59375 9.703125 2.09375 9.703125 21.1875 
C 9.703125 40.8125 21.296875 42 23.90625 42 
C 28.5 42 32.203125 39.40625 34.5 35.796875 
C 35.796875 33.703125 35.796875 33.40625 35.796875 31.609375 
z
" id="CMR17-100"/>
      <path d="M 15 23.390625 
C 15 33 19.09375 42 26.59375 42 
C 27.296875 42 28 41.90625 28.703125 41.59375 
C 28.703125 41.59375 26.5 40.890625 26.5 38.3125 
C 26.5 35.90625 28.40625 34.90625 29.90625 34.90625 
C 31.09375 34.90625 33.296875 35.609375 33.296875 38.40625 
C 33.296875 41.609375 30.09375 43.59375 26.703125 43.59375 
C 19.09375 43.59375 15.796875 36.203125 14.796875 32.703125 
L 14.703125 32.703125 
L 14.703125 43.59375 
L 3.09375 42.5 
L 3.09375 39.90625 
C 9 39.90625 9.90625 39.296875 9.90625 34.5 
L 9.90625 6.6875 
C 9.90625 2.875 9.5 2.390625 3.09375 2.390625 
L 3.09375 -0.203125 
C 5.5 0 10.09375 0 12.703125 0 
C 15.59375 0 20.703125 0 23.40625 -0.203125 
L 23.40625 2.390625 
C 16.203125 2.390625 15 2.390625 15 6.875 
z
" id="CMR17-114"/>
      <path d="M 29.40625 42.078125 
L 29.40625 39.5 
C 35.296875 39.5 36.203125 38.890625 36.203125 34.15625 
L 36.203125 16.125 
C 36.203125 7.8125 31.703125 0.59375 24.296875 0.59375 
C 16.09375 0.59375 15.40625 5.4375 15.40625 10.59375 
L 15.40625 43.171875 
L 3.296875 42.078125 
L 3.296875 39.5 
C 7.296875 39.5 10 39.5 10.09375 35.53125 
L 10.09375 16.53125 
C 10.09375 9.890625 10.09375 5.640625 12.703125 2.859375 
C 14 1.578125 16.5 -1 23.703125 -1 
C 32.203125 -1 35.5 5.890625 36.296875 7.90625 
L 36.40625 7.90625 
L 36.40625 -0.984375 
L 48.296875 -0.984375 
L 48.296875 2 
C 42.40625 2 41.5 2.59375 41.5 7.390625 
L 41.5 43.171875 
z
" id="CMR17-117"/>
      <path d="M 41.5 30.203125 
C 41.5 35.296875 40.5 43.59375 28.703125 43.59375 
C 20.796875 43.59375 16.703125 37.5 15.203125 33.5 
L 15.09375 33.5 
L 15.09375 43.59375 
L 3.296875 42.5 
L 3.296875 39.90625 
C 9.203125 39.90625 10.09375 39.296875 10.09375 34.5 
L 10.09375 6.6875 
C 10.09375 2.875 9.703125 2.390625 3.296875 2.390625 
L 3.296875 -0.203125 
C 5.703125 0 10.09375 0 12.703125 0 
C 15.296875 0 19.796875 0 22.203125 -0.203125 
L 22.203125 2.390625 
C 15.796875 2.390625 15.40625 2.78125 15.40625 6.6875 
L 15.40625 25.90625 
C 15.40625 35.109375 21 42 28 42 
C 35.40625 42 36.203125 35.40625 36.203125 30.59375 
L 36.203125 6.6875 
C 36.203125 2.875 35.796875 2.390625 29.40625 2.390625 
L 29.40625 -0.203125 
C 31.796875 0 36.203125 0 38.796875 0 
C 41.40625 0 45.90625 0 48.296875 -0.203125 
L 48.296875 2.390625 
C 41.90625 2.390625 41.5 2.78125 41.5 6.6875 
z
" id="CMR17-110"/>
     </defs>
     <g transform="translate(67.576557 207.469535)rotate(-90)scale(0.14 -0.14)">
      <use transform="scale(0.996264)" xlink:href="#CMR17-101"/>
      <use transform="translate(40.48566 0)scale(0.996264)" xlink:href="#CMR17-112"/>
      <use transform="translate(91.38103 0)scale(0.996264)" xlink:href="#CMR17-105"/>
      <use transform="translate(116.252089 0)scale(0.996264)" xlink:href="#CMR17-115"/>
      <use transform="translate(152.053426 0)scale(0.996264)" xlink:href="#CMR17-111"/>
      <use transform="translate(200.346342 0)scale(0.996264)" xlink:href="#CMR17-100"/>
      <use transform="translate(251.241712 0)scale(0.996264)" xlink:href="#CMR17-101"/>
      <use transform="translate(321.803339 0)scale(0.996264)" xlink:href="#CMR17-114"/>
      <use transform="translate(357.084107 0)scale(0.996264)" xlink:href="#CMR17-101"/>
      <use transform="translate(397.569767 0)scale(0.996264)" xlink:href="#CMR17-116"/>
      <use transform="translate(432.850535 0)scale(0.996264)" xlink:href="#CMR17-117"/>
      <use transform="translate(483.745905 0)scale(0.996264)" xlink:href="#CMR17-114"/>
      <use transform="translate(519.026672 0)scale(0.996264)" xlink:href="#CMR17-110"/>
      <use transform="translate(599.998009 0)scale(0.996264)" xlink:href="#CMSY10-2"/>
      <use transform="translate(707.561443 0)scale(0.996264)" xlink:href="#CMR17-49"/>
      <use transform="translate(753.25192 0)scale(0.996264)" xlink:href="#CMR17-48"/>
      <use transform="translate(798.942397 36.153639)scale(0.697382)" xlink:href="#CMR17-51"/>
     </g>
    </g>
   </g>
   <g id="line2d_13">
    <path clip-path="url(#p5b0d82f640)" d="M 107.650808 204.436065 
L 108.490565 246.24 
L 110.435124 202.528673 
L 114.070489 130.177717 
L 115.966496 117.831386 
L 117.856236 116.047875 
L 119.918244 102.569104 
L 122.040644 121.3813 
L 124.161502 84.190096 
L 126.22366 101.316089 
L 128.305318 97.783584 
L 130.427718 99.252754 
L 132.614687 73.970454 
L 134.871848 69.286261 
L 137.168955 56.306584 
L 139.535208 59.49338 
L 141.908625 58.027235 
L 144.212248 56.963863 
L 146.503833 64.599565 
L 148.799846 61.917851 
L 151.179679 49.912043 
L 153.50723 61.489616 
L 155.826474 69.433122 
L 158.105473 59.19096 
L 160.428249 62.02656 
L 162.253567 44.64 
L 162.742916 61.54919 
L 163.312006 71.015205 
L 163.881445 71.10859 
L 164.470683 82.24287 
L 165.054896 71.157292 
L 165.623092 65.766481 
L 166.228646 66.27777 
L 166.755602 64.8978 
L 167.279822 72.393076 
L 167.754645 87.863706 
L 168.273343 92.100121 
L 168.849547 86.385455 
L 169.325365 92.917795 
L 169.891371 83.17758 
L 170.458373 82.102286 
L 171.0398 88.959537 
L 171.563175 77.657036 
L 172.134255 76.893607 
L 172.733144 67.35639 
L 173.282038 66.238205 
L 174.475884 57.515932 
L 175.060496 60.128866 
L 175.612474 54.712277 
L 176.784582 49.771583 
L 177.406403 45.601495 
L 178.016733 48.819039 
L 178.630843 48.639095 
L 179.23003 46.377042 
L 179.813647 52.003146 
L 180.414774 48.959088 
L 180.973816 51.384602 
L 181.558725 60.818673 
L 182.118613 62.393958 
L 182.740136 60.780335 
L 183.297984 58.643481 
L 183.91095 50.651478 
L 184.532771 47.859244 
L 185.120417 49.705471 
L 185.692543 53.448088 
L 186.212136 65.318957 
L 186.713672 73.234915 
L 187.264108 73.301671 
L 187.862648 70.895844 
L 188.470939 63.447624 
L 189.025404 58.349018 
L 189.647225 58.483491 
L 190.224524 61.975738 
L 190.676961 79.074273 
L 191.278735 77.023456 
L 191.836633 81.370088 
L 192.44751 78.952655 
L 193.037892 60.847373 
L 194.102549 75.339242 
L 194.568367 102.229019 
L 195.109402 112.504587 
L 195.696948 110.447109 
L 196.260517 107.597737 
L 196.83299 82.623878 
L 197.993209 75.616968 
L 198.556977 69.206424 
L 199.174968 68.544508 
L 199.762066 63.088066 
L 200.35981 59.164332 
L 201.579227 49.942527 
L 202.152993 50.482955 
L 202.764368 53.318671 
L 203.351914 60.637158 
L 203.949459 63.451808 
L 204.523674 65.394287 
L 205.112563 61.614499 
L 205.72941 58.759556 
L 206.315563 61.080148 
L 206.924152 58.657611 
L 207.522643 59.71815 
L 208.122178 56.457519 
L 208.707585 56.089434 
L 209.314333 54.15885 
L 209.912227 55.036482 
L 210.534048 55.265615 
L 211.107914 51.890658 
L 211.735754 50.505948 
L 212.332902 50.643562 
L 212.950047 53.680219 
L 214.155335 49.367877 
L 214.721889 52.916824 
L 215.339979 51.165161 
L 215.960904 51.351313 
L 216.55636 56.770838 
L 217.17072 54.091278 
L 217.768613 54.317441 
L 218.387201 55.02087 
L 219.009022 51.615532 
L 219.610398 51.122914 
L 220.22605 49.972558 
L 220.809169 59.004143 
L 221.359108 60.391713 
L 221.955857 61.111743 
L 222.570366 60.948008 
L 223.167662 52.556861 
L 223.781176 53.03921 
L 224.388421 56.103949 
L 225.002631 56.340367 
L 225.602365 58.511189 
L 226.146583 64.295657 
L 226.753431 62.361808 
L 227.353613 64.334571 
L 227.937478 63.966726 
L 228.552683 58.161961 
L 229.112819 60.815126 
L 229.687083 61.069879 
L 230.307313 58.962603 
L 230.91416 60.979835 
L 231.489619 53.485616 
L 232.086666 52.635497 
L 232.691474 55.962226 
L 233.25967 55.971239 
L 233.827815 62.014549 
L 234.439637 64.310268 
L 235.037183 60.220172 
L 235.619953 61.723825 
L 236.16248 62.145413 
L 236.805045 56.382511 
L 237.426866 60.951307 
L 237.994663 55.665857 
L 238.615788 51.886556 
L 239.237609 52.545399 
L 239.805406 51.74947 
L 240.413249 54.915571 
L 241.005919 58.692512 
L 241.005919 58.692512 
" style="fill:none;stroke:#1f77b4;stroke-linecap:square;stroke-width:1.5;"/>
   </g>
   <g id="line2d_14">
    <path clip-path="url(#p5b0d82f640)" d="M 107.205882 201.244612 
L 107.327759 199.958383 
L 107.441229 200.784974 
L 107.711597 209.126513 
L 107.994948 214.247063 
L 108.155229 215.281234 
L 108.312674 220.993918 
L 108.470318 220.414432 
L 108.646468 226.914333 
L 108.808291 223.018332 
L 108.990509 221.607619 
L 109.21138 230.752358 
L 109.412701 223.511828 
L 109.781067 216.750116 
L 110.150927 197.823285 
L 110.597046 167.201564 
L 110.981829 153.25015 
L 111.440882 146.858395 
L 111.839892 149.473545 
L 112.666168 147.501824 
L 113.119302 139.572455 
L 113.572634 137.862121 
L 114.008556 146.605816 
L 114.796378 139.387141 
L 115.61952 122.337493 
L 116.008929 124.333743 
L 116.395702 124.82348 
L 116.756557 131.064849 
L 117.150991 131.072806 
L 117.546121 128.848356 
L 117.908369 135.027084 
L 118.257236 133.385441 
L 118.566902 141.560488 
L 118.946064 139.71579 
L 119.362436 135.783736 
L 119.715033 135.730507 
L 120.135732 124.972316 
L 120.529818 125.997268 
L 120.975539 123.537059 
L 121.421211 119.333152 
L 121.842258 122.314336 
L 122.257734 120.495649 
L 122.636 126.02177 
L 123.077344 129.06233 
L 123.523414 127.879267 
L 123.926205 131.53221 
L 124.324966 128.288214 
L 124.745218 128.036623 
L 125.255957 125.118285 
L 125.821714 119.997105 
L 126.230027 119.936509 
L 126.709426 118.392475 
L 127.062471 125.457704 
L 127.508243 129.817829 
L 127.922027 130.893733 
L 128.382672 128.780818 
L 128.799591 123.629456 
L 129.660191 110.060634 
L 130.097506 114.030223 
L 130.604215 113.934493 
L 131.663898 123.924385 
L 132.215627 122.633794 
L 132.721989 117.786703 
L 133.253422 117.393533 
L 134.264354 108.542708 
L 134.725198 111.027885 
L 135.254343 107.74553 
L 135.713197 105.65484 
L 136.221449 107.644779 
L 136.777456 101.58074 
L 137.861017 95.607157 
L 138.870009 92.062751 
L 139.396269 93.551511 
L 139.879498 97.61954 
L 140.341337 98.065473 
L 140.870233 99.369831 
L 141.447582 91.641553 
L 141.977025 82.544028 
L 142.442446 84.461503 
L 143.010293 81.545182 
L 143.53501 93.007646 
L 144.030726 98.992102 
L 144.586784 93.659911 
L 145.092349 97.140634 
L 145.559461 90.649595 
L 146.091093 86.555953 
L 146.55522 84.177907 
L 147.105905 77.095432 
L 147.568092 77.657804 
L 148.119275 74.304728 
L 148.695081 74.901479 
L 149.222435 76.523162 
L 149.799037 71.550887 
L 150.325198 74.3336 
L 150.87628 72.099327 
L 151.474572 67.900173 
L 152.072714 72.911856 
L 152.626035 73.522045 
L 153.154533 73.069431 
L 153.680544 88.023195 
L 154.171833 88.069469 
L 154.723562 82.758701 
L 155.258925 85.73745 
L 155.880597 77.410034 
L 156.479386 79.957961 
L 157.100909 83.497861 
L 157.69925 80.721713 
L 158.936574 66.992346 
L 160.080626 76.581708 
L 160.651209 83.642822 
L 161.27303 80.378974 
L 161.885549 75.643953 
L 162.459912 68.560546 
L 163.011642 63.293095 
L 163.633463 62.270152 
L 164.208175 62.818277 
L 165.224828 73.380013 
L 165.819488 81.384472 
L 166.396737 79.055636 
L 167.002987 73.952407 
L 167.584116 70.422481 
L 168.079086 76.412478 
L 168.639969 75.966607 
L 169.173839 76.166547 
L 169.693533 86.5823 
L 170.231632 81.797267 
L 170.818631 86.986013 
L 171.381354 88.162168 
L 171.977755 76.746684 
L 173.139616 63.88737 
L 173.694081 67.838918 
L 174.26148 69.533476 
L 174.760678 79.699285 
L 175.341211 86.446854 
L 175.949352 78.711237 
L 176.527745 78.840859 
L 177.000926 82.139505 
L 177.581209 89.673475 
L 178.130899 101.984028 
L 178.691235 104.921386 
L 179.212569 102.885681 
L 179.789172 92.39625 
L 180.337469 84.648862 
L 180.934765 80.903948 
L 181.523655 64.198281 
L 182.023798 68.259731 
L 182.554833 67.582286 
L 183.15203 64.155203 
L 183.691174 69.181737 
L 184.215643 75.337569 
L 184.788315 84.630122 
L 185.247219 97.4848 
L 185.779697 97.847384 
L 186.946283 81.979447 
L 187.544077 80.120139 
L 188.165898 74.80164 
L 188.762996 75.166453 
L 189.312487 84.376193 
L 189.841084 84.211792 
L 190.420721 86.906635 
L 190.981156 92.63098 
L 191.579945 87.179113 
L 192.134659 91.971795 
L 192.726086 99.791508 
L 193.276721 91.321204 
L 193.80696 91.108451 
L 194.383065 81.110383 
L 194.981605 75.941742 
L 195.603426 71.864906 
L 196.177143 64.385818 
L 196.717332 69.105865 
L 197.273986 69.300666 
L 198.384907 81.080386 
L 198.985834 71.359721 
L 199.566566 74.151529 
L 200.761457 69.967027 
L 201.359102 76.577009 
L 202.519967 80.191148 
L 203.11796 75.48065 
L 203.727793 72.119912 
L 204.875973 63.104576 
L 205.449988 60.333717 
L 206.058925 59.868495 
L 206.647218 57.231169 
L 207.736549 77.158251 
L 208.35837 73.487809 
L 208.980191 73.505596 
L 210.149613 61.979346 
L 210.703282 71.200678 
L 211.275358 77.007618 
L 211.870764 80.062527 
L 212.48194 79.775418 
L 213.050931 74.848545 
L 213.636736 74.053501 
L 214.204732 75.638102 
L 214.728903 79.396639 
L 215.773413 90.27081 
L 218.135985 71.094638 
L 218.686272 77.169411 
L 219.268744 78.574281 
L 219.812862 80.482839 
L 220.341162 82.810037 
L 222.701595 60.75322 
L 223.301378 61.111736 
L 223.847536 76.263107 
L 224.394092 83.46497 
L 224.986414 82.434736 
L 225.566598 79.759792 
L 226.148125 69.940021 
L 226.722986 63.671489 
L 227.298295 66.451492 
L 227.833708 71.993225 
L 228.382801 72.653289 
L 228.882248 84.16678 
L 230.060425 75.755556 
L 230.619566 73.576351 
L 231.210296 61.206732 
L 231.75153 65.739317 
L 232.373351 62.233873 
L 232.971493 65.677905 
L 235.262929 83.780395 
L 235.769091 91.635339 
L 236.387281 80.599279 
L 237.009102 78.324961 
L 238.204889 55.634653 
L 238.804274 62.035401 
L 239.375256 66.695613 
L 239.997077 67.547035 
L 240.604472 68.163466 
L 241.218085 65.172871 
L 241.807422 63.092346 
L 242.308709 76.2135 
L 243.281586 94.437368 
L 243.823764 94.445887 
L 244.383801 92.198842 
L 244.907076 86.921877 
L 245.502034 83.389646 
L 246.063365 81.945911 
L 246.672351 71.249572 
L 247.288651 67.356898 
L 247.863114 61.870679 
L 248.441805 64.824082 
L 249.03955 66.890243 
L 249.661371 66.346817 
L 250.259811 64.039636 
L 250.881633 62.494655 
L 252.125275 63.891492 
L 252.747096 64.230815 
L 253.368917 62.692968 
L 253.93368 67.159607 
L 254.513068 75.529887 
L 255.134242 76.285736 
L 255.698408 78.411842 
L 256.27317 74.367177 
L 256.871213 68.735242 
L 257.493034 70.655469 
L 258.678573 78.128225 
L 259.866699 80.83997 
L 260.45922 79.440355 
L 261.072535 72.029272 
L 261.653664 70.619484 
L 262.859052 63.123577 
L 263.460576 71.462661 
L 264.058221 72.578631 
L 264.656065 74.373343 
L 265.277886 72.157543 
L 265.899707 65.21553 
L 266.498794 60.05901 
L 267.715027 56.892429 
L 268.336201 59.16436 
L 268.958022 62.455488 
L 270.744539 67.861767 
L 271.323529 74.34537 
L 271.323529 74.34537 
" style="fill:none;stroke:#ff7f0e;stroke-linecap:square;stroke-width:1.5;"/>
   </g>
   <g id="patch_3">
    <path d="M 99 256.32 
L 99 34.56 
" style="fill:none;stroke:#000000;stroke-linecap:square;stroke-linejoin:miter;stroke-width:0.8;"/>
   </g>
   <g id="patch_4">
    <path d="M 279.529412 256.32 
L 279.529412 34.56 
" style="fill:none;stroke:#000000;stroke-linecap:square;stroke-linejoin:miter;stroke-width:0.8;"/>
   </g>
   <g id="patch_5">
    <path d="M 99 256.32 
L 279.529412 256.32 
" style="fill:none;stroke:#000000;stroke-linecap:square;stroke-linejoin:miter;stroke-width:0.8;"/>
   </g>
   <g id="patch_6">
    <path d="M 99 34.56 
L 279.529412 34.56 
" style="fill:none;stroke:#000000;stroke-linecap:square;stroke-linejoin:miter;stroke-width:0.8;"/>
   </g>
   <g id="legend_1">
    <g id="patch_7">
     <path d="M 220.604101 251.32 
L 272.529412 251.32 
Q 274.529412 251.32 274.529412 249.32 
L 274.529412 222.445643 
Q 274.529412 220.445643 272.529412 220.445643 
L 220.604101 220.445643 
Q 218.604101 220.445643 218.604101 222.445643 
L 218.604101 249.32 
Q 218.604101 251.32 220.604101 251.32 
z
" style="fill:#ffffff;opacity:0.8;stroke:#cccccc;stroke-linejoin:miter;"/>
    </g>
    <g id="line2d_15">
     <path d="M 222.604101 227.945643 
L 242.604101 227.945643 
" style="fill:none;stroke:#1f77b4;stroke-linecap:square;stroke-width:1.5;"/>
    </g>
    <g id="line2d_16"/>
    <g id="text_15">
     <!-- SAC -->
     <defs>
      <path d="M 43.796875 67.03125 
C 43.796875 68.8125 43.703125 68.921875 43.09375 68.921875 
C 42.5 68.921875 42.296875 68.515625 41.90625 67.625 
L 38.90625 61.046875 
C 35.09375 66.515625 29.296875 69 23 69 
C 12.796875 69 4.59375 60.953125 4.59375 50.828125 
C 4.59375 47.75 5.296875 43.375 8.703125 39.21875 
C 12.40625 34.65625 15.90625 33.859375 23.90625 31.765625 
C 26.90625 30.96875 31.90625 29.671875 32.90625 29.28125 
C 38.59375 26.90625 41.59375 20.953125 41.59375 15.390625 
C 41.59375 8.234375 36.5 0.59375 27.796875 0.59375 
C 17.09375 0.59375 7.09375 6.546875 6.40625 20.484375 
C 6.296875 22.078125 6.203125 22.171875 5.5 22.171875 
C 4.703125 22.171875 4.59375 22.078125 4.59375 20.078125 
L 4.59375 -0.015625 
C 4.59375 -1.796875 4.703125 -1.90625 5.296875 -1.90625 
C 6 -1.90625 6.203125 -1.40625 7.59375 1.6875 
C 7.703125 1.984375 7.703125 2.1875 9.59375 5.953125 
C 14.59375 -0.609375 23 -2 27.796875 -2 
C 38.703125 -2 46.40625 7.046875 46.40625 17.5625 
C 46.40625 22.71875 44.5 26.6875 43.40625 28.484375 
C 39.203125 34.84375 34.703125 36.03125 29.90625 37.21875 
C 29.203125 37.53125 29 37.53125 23.40625 38.90625 
C 18 40.296875 15.703125 41 13.203125 43.6875 
C 10.40625 46.75 9.40625 49.9375 9.40625 53.109375 
C 9.40625 59.5625 14.59375 66.609375 23.09375 66.609375 
C 33.703125 66.609375 40.296875 59.15625 41.796875 46.765625 
C 42.09375 44.96875 42.203125 44.875 42.90625 44.875 
C 43.796875 44.875 43.796875 45.171875 43.796875 46.859375 
z
" id="CMR17-83"/>
      <path d="M 36.296875 68.40625 
C 35.796875 69.703125 35.59375 70 34.59375 70 
C 33.59375 70 33.40625 69.703125 32.90625 68.40625 
L 11.703125 8.84375 
C 9.796875 3.484375 5.796875 2.390625 2.296875 2.390625 
L 2.296875 -0.203125 
C 4.09375 0 8.09375 0 10 0 
C 12.5 0 16.5 0 18.90625 -0.203125 
L 18.90625 2.390625 
C 14.203125 2.390625 13.5 5.640625 13.5 6.859375 
C 13.5 7.765625 13.703125 8.28125 13.90625 8.890625 
L 19.203125 24 
L 45.40625 24 
L 51.40625 6.90625 
C 51.90625 5.703125 51.90625 5.5 51.90625 5.109375 
C 51.90625 2.390625 47.59375 2.390625 45.703125 2.390625 
L 45.703125 0 
C 48.59375 0 53.796875 0 56.90625 0 
C 59.5 0 64.5 0 66.90625 -0.203125 
L 66.90625 2.390625 
C 61.59375 2.390625 59.796875 2.390625 58.5 6.046875 
z
M 32.296875 60.828125 
L 44.5 26.59375 
L 20.09375 26.59375 
z
" id="CMR17-65"/>
      <path d="M 62.09375 67.015625 
C 62.09375 68.796875 62 68.90625 61.40625 68.90625 
C 61 68.90625 60.90625 68.796875 60.203125 67.609375 
L 55.796875 59.25 
C 50.90625 65.421875 44.90625 69 37.203125 69 
C 20.09375 69 4.59375 54 4.59375 33.5625 
C 4.59375 12.90625 20.09375 -2 37.296875 -2 
C 52.59375 -2 62.09375 11.40625 62.09375 22.828125 
C 62.09375 23.8125 62.09375 24.21875 61.203125 24.21875 
C 60.40625 24.21875 60.40625 23.921875 60.296875 23.03125 
C 59.5 9.140625 49.5 0.59375 38.703125 0.59375 
C 28.5 0.59375 12.203125 7.734375 12.203125 33.546875 
C 12.203125 59.453125 28.796875 66.40625 38.5 66.40625 
C 49.796875 66.40625 58 56.6875 59.90625 42.890625 
C 60.09375 41.6875 60.09375 41.484375 61 41.484375 
C 62.09375 41.484375 62.09375 41.6875 62.09375 43.484375 
z
" id="CMR17-67"/>
     </defs>
     <g transform="translate(250.604101 231.445643)scale(0.1 -0.1)">
      <use transform="scale(0.996264)" xlink:href="#CMR17-83"/>
      <use transform="translate(50.89537 0)scale(0.996264)" xlink:href="#CMR17-65"/>
      <use transform="translate(117.365346 0)scale(0.996264)" xlink:href="#CMR17-67"/>
     </g>
    </g>
    <g id="line2d_17">
     <path d="M 222.604101 241.882822 
L 242.604101 241.882822 
" style="fill:none;stroke:#ff7f0e;stroke-linecap:square;stroke-width:1.5;"/>
    </g>
    <g id="line2d_18"/>
    <g id="text_16">
     <!-- TD3 -->
     <defs>
      <path d="M 62.203125 67.59375 
L 4.5 67.59375 
L 2.796875 45.59375 
L 4.59375 45.59375 
C 5.90625 62.125 7.296875 65 22.703125 65 
C 24.5 65 27.40625 65 28.203125 64.90625 
C 30.09375 64.609375 30.09375 63.40625 30.09375 61.125 
L 30.09375 7.171875 
C 30.09375 3.59375 29.796875 2.5 21.5 2.5 
L 18.703125 2.5 
L 18.703125 0 
C 23.5 0 28.5 0 33.40625 0 
C 38.296875 0 43.296875 0 48.09375 0 
L 48.09375 2.5 
L 45.296875 2.5 
C 37 2.5 36.703125 3.59375 36.703125 7.171875 
L 36.703125 61.125 
C 36.703125 63.3125 36.703125 64.515625 38.5 64.90625 
C 39.296875 65 42.203125 65 44 65 
C 59.296875 65 60.796875 62.125 62.09375 45.59375 
L 63.90625 45.59375 
z
" id="CMR17-84"/>
      <path d="M 5.203125 68 
L 5.203125 65.40625 
C 12.09375 65.40625 13.203125 65.40625 13.203125 60.9375 
L 13.203125 7.0625 
C 13.203125 2.59375 12.09375 2.59375 5.203125 2.59375 
L 5.203125 0 
L 37 0 
C 53.09375 0 66 14.734375 66 33.453125 
C 66 52.28125 53.296875 68 37 68 
z
M 23.796875 2.59375 
C 19.796875 2.59375 19.59375 3.078125 19.59375 6.46875 
L 19.59375 61.53125 
C 19.59375 64.921875 19.796875 65.40625 23.796875 65.40625 
L 35 65.40625 
C 43.296875 65.40625 58.59375 60.53125 58.59375 33.453125 
C 58.59375 19.40625 54.5 13.734375 52.59375 11.046875 
C 50.203125 7.96875 44.5 2.59375 35 2.59375 
z
" id="CMR17-68"/>
     </defs>
     <g transform="translate(250.604101 245.382822)scale(0.1 -0.1)">
      <use transform="scale(0.996264)" xlink:href="#CMR17-84"/>
      <use transform="translate(66.509881 0)scale(0.996264)" xlink:href="#CMR17-68"/>
      <use transform="translate(136.903436 0)scale(0.996264)" xlink:href="#CMR17-51"/>
     </g>
    </g>
   </g>
  </g>
  <g id="axes_2">
   <g id="patch_8">
    <path d="M 315.635294 256.32 
L 496.164706 256.32 
L 496.164706 34.56 
L 315.635294 34.56 
z
" style="fill:#ffffff;"/>
   </g>
   <g id="matplotlib.axis_3">
    <g id="xtick_5">
     <g id="line2d_19">
      <g>
       <use style="stroke:#000000;stroke-width:0.8;" x="323.73099" xlink:href="#m7256e7bba0" y="256.32"/>
      </g>
     </g>
     <g id="text_17">
      <!-- $0$ -->
      <g transform="translate(321.240322 270.238498)scale(0.1 -0.1)">
       <use transform="scale(0.996264)" xlink:href="#CMR17-48"/>
      </g>
     </g>
    </g>
    <g id="xtick_6">
     <g id="line2d_20">
      <g>
       <use style="stroke:#000000;stroke-width:0.8;" x="373.47668" xlink:href="#m7256e7bba0" y="256.32"/>
      </g>
     </g>
     <g id="text_18">
      <!-- $10$ -->
      <g transform="translate(368.495344 270.238498)scale(0.1 -0.1)">
       <use transform="scale(0.996264)" xlink:href="#CMR17-49"/>
       <use transform="translate(45.690477 0)scale(0.996264)" xlink:href="#CMR17-48"/>
      </g>
     </g>
    </g>
    <g id="xtick_7">
     <g id="line2d_21">
      <g>
       <use style="stroke:#000000;stroke-width:0.8;" x="423.22237" xlink:href="#m7256e7bba0" y="256.32"/>
      </g>
     </g>
     <g id="text_19">
      <!-- $20$ -->
      <g transform="translate(418.241034 270.238498)scale(0.1 -0.1)">
       <use transform="scale(0.996264)" xlink:href="#CMR17-50"/>
       <use transform="translate(45.690477 0)scale(0.996264)" xlink:href="#CMR17-48"/>
      </g>
     </g>
    </g>
    <g id="xtick_8">
     <g id="line2d_22">
      <g>
       <use style="stroke:#000000;stroke-width:0.8;" x="472.968059" xlink:href="#m7256e7bba0" y="256.32"/>
      </g>
     </g>
     <g id="text_20">
      <!-- $30$ -->
      <g transform="translate(467.986724 270.238498)scale(0.1 -0.1)">
       <use transform="scale(0.996264)" xlink:href="#CMR17-51"/>
       <use transform="translate(45.690477 0)scale(0.996264)" xlink:href="#CMR17-48"/>
      </g>
     </g>
    </g>
    <g id="text_21">
     <!-- time steps $\times\ 10^5$ -->
     <g transform="translate(356.161744 287.529113)scale(0.14 -0.14)">
      <use transform="scale(0.996264)" xlink:href="#CMR17-116"/>
      <use transform="translate(35.280768 0)scale(0.996264)" xlink:href="#CMR17-105"/>
      <use transform="translate(60.151826 0)scale(0.996264)" xlink:href="#CMR17-109"/>
      <use transform="translate(137.071416 0)scale(0.996264)" xlink:href="#CMR17-101"/>
      <use transform="translate(207.633043 0)scale(0.996264)" xlink:href="#CMR17-115"/>
      <use transform="translate(243.434381 0)scale(0.996264)" xlink:href="#CMR17-116"/>
      <use transform="translate(278.715148 0)scale(0.996264)" xlink:href="#CMR17-101"/>
      <use transform="translate(319.200809 0)scale(0.996264)" xlink:href="#CMR17-112"/>
      <use transform="translate(370.096179 0)scale(0.996264)" xlink:href="#CMR17-115"/>
      <use transform="translate(435.973483 0)scale(0.996264)" xlink:href="#CMSY10-2"/>
      <use transform="translate(543.536917 0)scale(0.996264)" xlink:href="#CMR17-49"/>
      <use transform="translate(589.227394 0)scale(0.996264)" xlink:href="#CMR17-48"/>
      <use transform="translate(634.917871 36.153639)scale(0.697382)" xlink:href="#CMR17-53"/>
     </g>
    </g>
   </g>
   <g id="matplotlib.axis_4">
    <g id="ytick_9">
     <g id="line2d_23">
      <g>
       <use style="stroke:#000000;stroke-width:0.8;" x="315.635294" xlink:href="#mb2570e6cde" y="243.303072"/>
      </g>
     </g>
     <g id="text_22">
      <!-- $0$ -->
      <g transform="translate(303.653959 246.762322)scale(0.1 -0.1)">
       <use transform="scale(0.996264)" xlink:href="#CMR17-48"/>
      </g>
     </g>
    </g>
    <g id="ytick_10">
     <g id="line2d_24">
      <g>
       <use style="stroke:#000000;stroke-width:0.8;" x="315.635294" xlink:href="#mb2570e6cde" y="203.988513"/>
      </g>
     </g>
     <g id="text_23">
      <!-- $2$ -->
      <g transform="translate(303.653959 207.447762)scale(0.1 -0.1)">
       <use transform="scale(0.996264)" xlink:href="#CMR17-50"/>
      </g>
     </g>
    </g>
    <g id="ytick_11">
     <g id="line2d_25">
      <g>
       <use style="stroke:#000000;stroke-width:0.8;" x="315.635294" xlink:href="#mb2570e6cde" y="164.673954"/>
      </g>
     </g>
     <g id="text_24">
      <!-- $4$ -->
      <g transform="translate(303.653959 168.133203)scale(0.1 -0.1)">
       <use transform="scale(0.996264)" xlink:href="#CMR17-52"/>
      </g>
     </g>
    </g>
    <g id="ytick_12">
     <g id="line2d_26">
      <g>
       <use style="stroke:#000000;stroke-width:0.8;" x="315.635294" xlink:href="#mb2570e6cde" y="125.359394"/>
      </g>
     </g>
     <g id="text_25">
      <!-- $6$ -->
      <g transform="translate(303.653959 128.818643)scale(0.1 -0.1)">
       <use transform="scale(0.996264)" xlink:href="#CMR17-54"/>
      </g>
     </g>
    </g>
    <g id="ytick_13">
     <g id="line2d_27">
      <g>
       <use style="stroke:#000000;stroke-width:0.8;" x="315.635294" xlink:href="#mb2570e6cde" y="86.044835"/>
      </g>
     </g>
     <g id="text_26">
      <!-- $8$ -->
      <g transform="translate(303.653959 89.504084)scale(0.1 -0.1)">
       <use transform="scale(0.996264)" xlink:href="#CMR17-56"/>
      </g>
     </g>
    </g>
    <g id="ytick_14">
     <g id="line2d_28">
      <g>
       <use style="stroke:#000000;stroke-width:0.8;" x="315.635294" xlink:href="#mb2570e6cde" y="46.730275"/>
      </g>
     </g>
     <g id="text_27">
      <!-- $10$ -->
      <g transform="translate(298.672624 50.189524)scale(0.1 -0.1)">
       <use transform="scale(0.996264)" xlink:href="#CMR17-49"/>
       <use transform="translate(45.690477 0)scale(0.996264)" xlink:href="#CMR17-48"/>
      </g>
     </g>
    </g>
    <g id="text_28">
     <!-- actor loss $\times\ 10^3$ -->
     <defs>
      <path d="M 36 25.828125 
C 36 32.375 36 35.84375 31.796875 39.734375 
C 28.09375 43 23.796875 44 20.40625 44 
C 12.5 44 6.796875 37.609375 6.796875 30.796875 
C 6.796875 27 9.796875 27 10.40625 27 
C 11.703125 27 14 27.78125 14 30.53125 
C 14 33 12.09375 34.078125 10.40625 34.078125 
C 10 34.078125 9.5 33.96875 9.203125 33.875 
C 11.296875 40.5 16.703125 42.40625 20.203125 42.40625 
C 25.203125 42.40625 30.703125 37.953125 30.703125 29.453125 
L 30.703125 25 
C 24.796875 25 17.703125 24.203125 12.09375 21.203125 
C 5.796875 17.703125 4 12.703125 4 8.90625 
C 4 1.203125 13 -1 18.296875 -1 
C 23.796875 -1 28.90625 2.171875 31.09375 7.984375 
C 31.296875 3.640625 34.09375 -0.28125 38.5 -0.28125 
C 40.59375 -0.28125 45.90625 1.09375 45.90625 8.859375 
L 45.90625 14.375 
L 44.09375 14.375 
L 44.09375 8.78125 
C 44.09375 2.78125 41.40625 2 40.09375 2 
C 36 2 36 7.15625 36 11.53125 
z
M 30.703125 13.59375 
C 30.703125 4.953125 24.5 0.59375 19 0.59375 
C 14 0.59375 10.09375 4.296875 10.09375 8.90625 
C 10.09375 11.890625 11.40625 17.1875 17.203125 20.390625 
C 22 23.09375 27.5 23.5 30.703125 23.5 
z
" id="CMR17-97"/>
      <path d="M 34.90625 35 
C 33 35 30.203125 35 30.203125 31.515625 
C 30.203125 28.71875 32.5 27.921875 33.796875 27.921875 
C 34.5 27.921875 37.40625 28.234375 37.40625 31.625 
C 37.40625 38.546875 30.59375 43.796875 22.90625 43.796875 
C 12.296875 43.796875 3.296875 34.03125 3.296875 21.296875 
C 3.296875 8.0625 12.703125 -1 22.90625 -1 
C 35.296875 -1 38.40625 10.578125 38.40625 11.6875 
C 38.40625 12.09375 38.296875 12.390625 37.59375 12.390625 
C 36.90625 12.390625 36.796875 12.296875 36.40625 10.984375 
C 33.796875 2.8125 28.09375 0.796875 23.796875 0.796875 
C 17.40625 0.796875 9.703125 6.671875 9.703125 21.390625 
C 9.703125 36.53125 17.09375 42 23 42 
C 26.90625 42 32.703125 40.203125 34.90625 35 
z
" id="CMR17-99"/>
      <path d="M 15.296875 68.6875 
L 3.40625 67.59375 
L 3.40625 65 
C 9.296875 65 10.203125 64.40625 10.203125 59.640625 
L 10.203125 6.65625 
C 10.203125 2.875 9.796875 2.390625 3.40625 2.390625 
L 3.40625 -0.203125 
C 5.796875 0 10.203125 0 12.703125 0 
C 15.296875 0 19.703125 0 22.09375 -0.203125 
L 22.09375 2.390625 
C 15.703125 2.390625 15.296875 2.78125 15.296875 6.65625 
z
" id="CMR17-108"/>
     </defs>
     <g transform="translate(291.960595 192.902093)rotate(-90)scale(0.14 -0.14)">
      <use transform="scale(0.996264)" xlink:href="#CMR17-97"/>
      <use transform="translate(45.690477 0)scale(0.996264)" xlink:href="#CMR17-99"/>
      <use transform="translate(86.176138 0)scale(0.996264)" xlink:href="#CMR17-116"/>
      <use transform="translate(121.456905 0)scale(0.996264)" xlink:href="#CMR17-111"/>
      <use transform="translate(167.147382 0)scale(0.996264)" xlink:href="#CMR17-114"/>
      <use transform="translate(232.504117 0)scale(0.996264)" xlink:href="#CMR17-108"/>
      <use transform="translate(257.375175 0)scale(0.996264)" xlink:href="#CMR17-111"/>
      <use transform="translate(303.065652 0)scale(0.996264)" xlink:href="#CMR17-115"/>
      <use transform="translate(338.86699 0)scale(0.996264)" xlink:href="#CMR17-115"/>
      <use transform="translate(404.744294 0)scale(0.996264)" xlink:href="#CMSY10-2"/>
      <use transform="translate(512.307728 0)scale(0.996264)" xlink:href="#CMR17-49"/>
      <use transform="translate(557.998205 0)scale(0.996264)" xlink:href="#CMR17-48"/>
      <use transform="translate(603.688682 36.153639)scale(0.697382)" xlink:href="#CMR17-51"/>
     </g>
    </g>
   </g>
   <g id="line2d_29">
    <path clip-path="url(#pa2815f94c5)" d="M 324.286102 142.77296 
L 325.125859 59.680641 
L 327.070418 99.982556 
L 328.75222 99.643881 
L 330.705783 104.830437 
L 332.60179 122.684814 
L 334.49153 137.500673 
L 336.553538 148.11951 
L 338.675938 153.653169 
L 340.796796 165.691155 
L 342.858954 178.587651 
L 344.940612 186.672456 
L 347.063012 191.28274 
L 349.249981 185.098472 
L 351.507142 195.865065 
L 353.804249 201.479465 
L 356.170502 195.943834 
L 358.543919 198.519979 
L 360.847542 203.849398 
L 363.139127 208.600749 
L 365.43514 203.60971 
L 367.814973 206.454645 
L 370.142525 211.243693 
L 372.461768 216.980756 
L 374.740767 229.062995 
L 377.063543 224.805072 
L 378.888861 229.410922 
L 379.37821 226.690312 
L 379.947301 225.759104 
L 380.516739 223.90815 
L 381.105977 226.16791 
L 381.69019 221.690906 
L 382.258386 223.752534 
L 382.86394 226.399432 
L 383.390896 226.776008 
L 383.915116 228.601001 
L 384.389939 228.163154 
L 385.484841 221.543409 
L 385.960659 228.346049 
L 386.526665 229.214148 
L 387.093667 228.599449 
L 387.675094 226.878388 
L 388.198469 230.605098 
L 389.368438 222.867458 
L 390.532785 227.192317 
L 391.111178 230.971122 
L 391.69579 225.432989 
L 392.247768 224.506734 
L 392.798055 225.705958 
L 393.419876 223.655812 
L 394.041697 227.116853 
L 395.266137 229.707882 
L 395.865324 231.86948 
L 396.448941 227.562426 
L 397.050068 230.521559 
L 397.60911 230.331799 
L 398.19402 230.479392 
L 398.753907 230.323547 
L 399.37543 228.804686 
L 399.933278 230.621696 
L 400.546244 227.324287 
L 401.755711 229.898581 
L 402.327837 231.503471 
L 402.84743 229.376185 
L 403.348966 230.059446 
L 403.899402 230.23597 
L 404.497943 231.480147 
L 405.106233 230.083739 
L 405.660698 234.489942 
L 406.282519 234.281668 
L 406.859818 234.441567 
L 407.312255 233.635543 
L 407.914029 237.726129 
L 408.471927 233.912353 
L 409.082804 235.958702 
L 409.673186 234.345753 
L 410.226358 238.021741 
L 410.737843 234.380852 
L 411.203662 237.267957 
L 411.744696 236.257715 
L 412.332242 238.041556 
L 412.895811 238.468077 
L 413.468284 237.894095 
L 414.03046 239.34293 
L 414.628503 236.47466 
L 415.192271 240.738726 
L 415.810262 236.550128 
L 416.39736 233.633977 
L 416.995105 233.732974 
L 417.616926 232.868713 
L 418.214521 229.389313 
L 418.788287 230.993955 
L 419.399662 229.849549 
L 419.987208 226.330626 
L 420.584754 229.757599 
L 421.158968 229.723911 
L 421.747858 228.243962 
L 422.364704 228.964061 
L 422.950858 228.660193 
L 423.559446 229.723797 
L 424.157937 228.865165 
L 424.757472 225.410417 
L 426.547521 229.085255 
L 427.169342 226.504849 
L 427.743208 226.002598 
L 428.371048 226.614488 
L 428.968196 228.338077 
L 429.585341 231.441382 
L 430.183632 229.136948 
L 430.790629 229.827856 
L 431.357183 227.733837 
L 431.975273 228.162729 
L 432.596199 225.047874 
L 433.191654 230.752066 
L 433.806014 229.584223 
L 434.403907 229.674405 
L 435.022495 228.699314 
L 435.644316 226.583215 
L 436.245692 229.846088 
L 436.861344 228.005154 
L 437.444463 229.151043 
L 437.994402 225.830273 
L 438.591151 227.920464 
L 439.20566 224.91853 
L 439.802956 230.399467 
L 440.41647 230.01083 
L 441.023715 225.473814 
L 441.637925 228.792679 
L 442.237659 229.969313 
L 442.781877 226.996917 
L 443.388725 227.899338 
L 443.988907 229.878441 
L 444.572772 231.210346 
L 445.187977 227.696085 
L 445.748113 225.452376 
L 446.322378 227.401195 
L 446.942607 226.102179 
L 447.549454 227.015909 
L 448.124913 223.78516 
L 448.72196 229.095763 
L 449.326768 227.485532 
L 449.894964 226.600747 
L 450.463109 228.493417 
L 451.074932 228.571272 
L 451.672477 222.492077 
L 452.255248 227.941407 
L 452.797774 223.447195 
L 453.440339 228.952652 
L 454.06216 225.691256 
L 454.629958 226.856274 
L 455.251082 222.798008 
L 455.872903 221.549199 
L 456.440701 221.731792 
L 457.048543 225.718176 
L 457.641213 224.948608 
L 457.641213 224.948608 
" style="fill:none;stroke:#1f77b4;stroke-linecap:square;stroke-width:1.5;"/>
   </g>
   <g id="line2d_30">
    <path clip-path="url(#pa2815f94c5)" d="M 323.841176 225.889416 
L 324.346891 159.166047 
L 324.790523 123.701368 
L 325.443585 72.086669 
L 325.846674 48.977924 
L 326.047995 44.64 
L 326.416362 45.794481 
L 326.786221 52.075961 
L 327.23234 62.311357 
L 327.617123 68.480326 
L 328.076176 69.265868 
L 328.475186 71.032777 
L 328.949362 74.728461 
L 329.301462 80.670719 
L 329.754596 83.659374 
L 330.207928 84.416717 
L 330.64385 85.549429 
L 331.020474 87.255101 
L 331.431672 91.397211 
L 332.644223 99.428083 
L 333.030996 103.852814 
L 333.391851 105.812859 
L 333.786285 106.223157 
L 334.543663 111.063311 
L 334.89253 108.988153 
L 335.202197 112.588008 
L 335.99773 115.995138 
L 336.350327 116.032735 
L 336.771026 117.354946 
L 337.165112 118.216353 
L 338.056505 121.268952 
L 338.477552 124.312913 
L 338.893028 124.473933 
L 339.712638 129.95413 
L 340.158708 131.060667 
L 340.561499 131.253919 
L 340.96026 133.674654 
L 341.380512 132.479447 
L 341.891251 133.710023 
L 342.457009 134.277522 
L 342.865321 135.51904 
L 343.34472 136.022317 
L 343.697766 135.845439 
L 344.143537 140.433648 
L 344.557321 139.850207 
L 345.017966 142.367481 
L 345.434885 143.166144 
L 346.7328 152.895701 
L 347.239509 151.635687 
L 347.723435 152.132561 
L 348.299192 154.63395 
L 348.850922 157.577925 
L 349.357283 157.570698 
L 349.888716 157.119521 
L 350.899648 155.795121 
L 351.360492 159.508082 
L 351.889637 158.462963 
L 352.348491 158.726955 
L 352.856743 158.768937 
L 353.920107 157.936872 
L 354.496311 158.344713 
L 354.999489 158.503977 
L 355.505303 158.146854 
L 356.031563 160.471922 
L 356.514792 160.611836 
L 356.976631 159.866568 
L 357.505527 161.081326 
L 358.082876 165.021363 
L 359.07774 166.716079 
L 360.170305 170.116102 
L 360.66602 170.235841 
L 361.222078 169.462642 
L 361.727643 170.203542 
L 362.194755 171.666042 
L 362.726387 171.337752 
L 363.190515 173.740677 
L 365.330375 187.864452 
L 365.857729 188.825297 
L 366.434332 189.372466 
L 366.960492 190.741589 
L 367.511574 190.468777 
L 368.708008 196.222275 
L 369.261329 195.665503 
L 369.789828 197.576818 
L 370.315839 197.694502 
L 370.807127 199.040234 
L 371.358856 201.777136 
L 371.894219 203.793543 
L 372.515891 205.135016 
L 373.11468 204.752275 
L 373.736203 205.13204 
L 374.334544 209.926977 
L 374.956365 212.671656 
L 375.571869 214.040942 
L 376.71592 211.354407 
L 377.286503 211.237922 
L 377.908324 209.143606 
L 378.520843 207.81237 
L 379.095207 205.221148 
L 379.646936 203.288774 
L 380.268757 203.273712 
L 380.843469 202.748151 
L 381.36565 201.491611 
L 381.860122 200.895227 
L 382.454782 202.333937 
L 383.032031 202.949677 
L 383.638281 203.853705 
L 384.219411 205.496283 
L 385.275263 211.584449 
L 385.809134 211.663344 
L 386.328827 214.020207 
L 386.866926 213.802962 
L 387.453925 213.996919 
L 388.016648 213.230237 
L 388.613049 212.137377 
L 389.202188 212.226254 
L 389.77491 205.608427 
L 390.329375 211.244475 
L 390.896775 212.466783 
L 391.395973 211.423555 
L 391.976505 209.743642 
L 392.584646 210.377558 
L 393.163039 210.668317 
L 394.216503 207.386888 
L 394.766193 207.703292 
L 395.326529 208.408248 
L 395.847864 208.326799 
L 396.424466 208.519216 
L 396.972763 208.509829 
L 397.570059 209.288216 
L 398.659092 211.939259 
L 399.787324 218.204395 
L 400.326468 220.025367 
L 400.850937 220.4218 
L 401.882513 222.503806 
L 402.999652 231.144152 
L 403.581577 231.390745 
L 404.179371 234.005999 
L 404.801192 238.81659 
L 405.39829 238.955739 
L 405.947781 240.362006 
L 406.476378 242.576406 
L 407.056015 246.24 
L 407.61645 245.369183 
L 408.215239 245.893755 
L 408.769953 245.340196 
L 409.36138 244.180863 
L 409.912015 242.551785 
L 410.442254 240.232713 
L 411.018359 238.701956 
L 411.616899 238.366357 
L 412.23872 239.096862 
L 412.812437 239.403595 
L 413.352626 238.435201 
L 414.482151 235.968257 
L 415.621129 234.977518 
L 416.804579 234.395262 
L 417.396751 232.903809 
L 417.994396 230.860146 
L 418.578162 229.622207 
L 419.155261 228.701181 
L 419.753254 228.800536 
L 420.363087 228.139019 
L 420.938047 228.12242 
L 421.511267 228.872107 
L 422.085283 227.204484 
L 422.69422 226.631811 
L 423.282512 226.734408 
L 423.793898 227.908164 
L 424.371843 228.308434 
L 424.993664 227.120224 
L 426.192535 223.52162 
L 426.784907 223.184073 
L 428.506058 218.056622 
L 429.117234 218.059379 
L 429.686225 218.355534 
L 430.27203 217.956289 
L 430.840026 217.34437 
L 432.966505 218.611996 
L 433.565095 218.239186 
L 434.185673 216.964372 
L 435.321566 215.459759 
L 435.904038 214.532302 
L 436.448157 214.882029 
L 436.976456 214.882164 
L 437.543507 214.208499 
L 438.142097 212.825022 
L 438.763918 212.636684 
L 439.336889 212.269024 
L 439.936673 212.29541 
L 440.482831 212.121914 
L 441.029386 212.095898 
L 441.621708 212.454612 
L 442.201892 213.214234 
L 442.783419 213.59131 
L 443.358281 215.113931 
L 443.93359 215.478339 
L 444.469002 215.149545 
L 445.018095 214.135797 
L 445.517542 214.67169 
L 446.12623 217.158974 
L 446.695719 218.562999 
L 447.254861 218.942932 
L 449.008645 222.309352 
L 449.606787 222.458298 
L 450.204083 223.045487 
L 450.7486 223.839116 
L 451.898223 222.752152 
L 453.022575 225.493638 
L 453.644396 226.283121 
L 454.218362 226.756621 
L 454.840183 226.97053 
L 455.439569 228.594009 
L 456.632371 236.225348 
L 457.239766 238.28272 
L 458.442716 240.892932 
L 458.944003 240.886713 
L 459.91688 243.382991 
L 461.019095 242.607973 
L 461.54237 239.971676 
L 462.137328 237.766924 
L 462.698659 236.529124 
L 464.498408 230.817334 
L 465.0771 229.561762 
L 465.674844 228.854074 
L 466.296665 227.834094 
L 466.895106 229.132285 
L 467.516927 228.274559 
L 468.760569 231.170242 
L 469.38239 230.125988 
L 470.004211 229.681788 
L 470.568974 228.567061 
L 471.148362 226.84973 
L 471.769536 225.621087 
L 472.908464 224.249111 
L 474.702343 224.276822 
L 475.313867 225.02194 
L 475.89629 224.319564 
L 476.501993 224.39752 
L 477.094514 224.073446 
L 477.707829 224.15015 
L 478.288958 225.072122 
L 478.899835 224.233967 
L 479.494346 224.424151 
L 480.095871 225.318414 
L 480.693515 224.86599 
L 481.291359 225.42485 
L 481.91318 225.317158 
L 483.134089 225.925209 
L 483.731783 226.451802 
L 484.350321 226.115459 
L 484.971495 226.55435 
L 485.593316 225.028903 
L 486.789999 224.390498 
L 487.958824 222.452486 
L 487.958824 222.452486 
" style="fill:none;stroke:#ff7f0e;stroke-linecap:square;stroke-width:1.5;"/>
   </g>
   <g id="patch_9">
    <path d="M 315.635294 256.32 
L 315.635294 34.56 
" style="fill:none;stroke:#000000;stroke-linecap:square;stroke-linejoin:miter;stroke-width:0.8;"/>
   </g>
   <g id="patch_10">
    <path d="M 496.164706 256.32 
L 496.164706 34.56 
" style="fill:none;stroke:#000000;stroke-linecap:square;stroke-linejoin:miter;stroke-width:0.8;"/>
   </g>
   <g id="patch_11">
    <path d="M 315.635294 256.32 
L 496.164706 256.32 
" style="fill:none;stroke:#000000;stroke-linecap:square;stroke-linejoin:miter;stroke-width:0.8;"/>
   </g>
   <g id="patch_12">
    <path d="M 315.635294 34.56 
L 496.164706 34.56 
" style="fill:none;stroke:#000000;stroke-linecap:square;stroke-linejoin:miter;stroke-width:0.8;"/>
   </g>
   <g id="legend_2">
    <g id="patch_13">
     <path d="M 437.239395 70.434357 
L 489.164706 70.434357 
Q 491.164706 70.434357 491.164706 68.434357 
L 491.164706 41.56 
Q 491.164706 39.56 489.164706 39.56 
L 437.239395 39.56 
Q 435.239395 39.56 435.239395 41.56 
L 435.239395 68.434357 
Q 435.239395 70.434357 437.239395 70.434357 
z
" style="fill:#ffffff;opacity:0.8;stroke:#cccccc;stroke-linejoin:miter;"/>
    </g>
    <g id="line2d_31">
     <path d="M 439.239395 47.06 
L 459.239395 47.06 
" style="fill:none;stroke:#1f77b4;stroke-linecap:square;stroke-width:1.5;"/>
    </g>
    <g id="line2d_32"/>
    <g id="text_29">
     <!-- SAC -->
     <g transform="translate(467.239395 50.56)scale(0.1 -0.1)">
      <use transform="scale(0.996264)" xlink:href="#CMR17-83"/>
      <use transform="translate(50.89537 0)scale(0.996264)" xlink:href="#CMR17-65"/>
      <use transform="translate(117.365346 0)scale(0.996264)" xlink:href="#CMR17-67"/>
     </g>
    </g>
    <g id="line2d_33">
     <path d="M 439.239395 60.997178 
L 459.239395 60.997178 
" style="fill:none;stroke:#ff7f0e;stroke-linecap:square;stroke-width:1.5;"/>
    </g>
    <g id="line2d_34"/>
    <g id="text_30">
     <!-- TD3 -->
     <g transform="translate(467.239395 64.497178)scale(0.1 -0.1)">
      <use transform="scale(0.996264)" xlink:href="#CMR17-84"/>
      <use transform="translate(66.509881 0)scale(0.996264)" xlink:href="#CMR17-68"/>
      <use transform="translate(136.903436 0)scale(0.996264)" xlink:href="#CMR17-51"/>
     </g>
    </g>
   </g>
  </g>
  <g id="axes_3">
   <g id="patch_14">
    <path d="M 532.270588 256.32 
L 712.8 256.32 
L 712.8 34.56 
L 532.270588 34.56 
z
" style="fill:#ffffff;"/>
   </g>
   <g id="matplotlib.axis_5">
    <g id="xtick_9">
     <g id="line2d_35">
      <g>
       <use style="stroke:#000000;stroke-width:0.8;" x="540.366284" xlink:href="#m7256e7bba0" y="256.32"/>
      </g>
     </g>
     <g id="text_31">
      <!-- $0$ -->
      <g transform="translate(537.875616 270.238498)scale(0.1 -0.1)">
       <use transform="scale(0.996264)" xlink:href="#CMR17-48"/>
      </g>
     </g>
    </g>
    <g id="xtick_10">
     <g id="line2d_36">
      <g>
       <use style="stroke:#000000;stroke-width:0.8;" x="590.111974" xlink:href="#m7256e7bba0" y="256.32"/>
      </g>
     </g>
     <g id="text_32">
      <!-- $10$ -->
      <g transform="translate(585.130639 270.238498)scale(0.1 -0.1)">
       <use transform="scale(0.996264)" xlink:href="#CMR17-49"/>
       <use transform="translate(45.690477 0)scale(0.996264)" xlink:href="#CMR17-48"/>
      </g>
     </g>
    </g>
    <g id="xtick_11">
     <g id="line2d_37">
      <g>
       <use style="stroke:#000000;stroke-width:0.8;" x="639.857664" xlink:href="#m7256e7bba0" y="256.32"/>
      </g>
     </g>
     <g id="text_33">
      <!-- $20$ -->
      <g transform="translate(634.876328 270.238498)scale(0.1 -0.1)">
       <use transform="scale(0.996264)" xlink:href="#CMR17-50"/>
       <use transform="translate(45.690477 0)scale(0.996264)" xlink:href="#CMR17-48"/>
      </g>
     </g>
    </g>
    <g id="xtick_12">
     <g id="line2d_38">
      <g>
       <use style="stroke:#000000;stroke-width:0.8;" x="689.603353" xlink:href="#m7256e7bba0" y="256.32"/>
      </g>
     </g>
     <g id="text_34">
      <!-- $30$ -->
      <g transform="translate(684.622018 270.238498)scale(0.1 -0.1)">
       <use transform="scale(0.996264)" xlink:href="#CMR17-51"/>
       <use transform="translate(45.690477 0)scale(0.996264)" xlink:href="#CMR17-48"/>
      </g>
     </g>
    </g>
    <g id="text_35">
     <!-- time steps $\times\ 10^5$ -->
     <g transform="translate(572.797038 287.529113)scale(0.14 -0.14)">
      <use transform="scale(0.996264)" xlink:href="#CMR17-116"/>
      <use transform="translate(35.280768 0)scale(0.996264)" xlink:href="#CMR17-105"/>
      <use transform="translate(60.151826 0)scale(0.996264)" xlink:href="#CMR17-109"/>
      <use transform="translate(137.071416 0)scale(0.996264)" xlink:href="#CMR17-101"/>
      <use transform="translate(207.633043 0)scale(0.996264)" xlink:href="#CMR17-115"/>
      <use transform="translate(243.434381 0)scale(0.996264)" xlink:href="#CMR17-116"/>
      <use transform="translate(278.715148 0)scale(0.996264)" xlink:href="#CMR17-101"/>
      <use transform="translate(319.200809 0)scale(0.996264)" xlink:href="#CMR17-112"/>
      <use transform="translate(370.096179 0)scale(0.996264)" xlink:href="#CMR17-115"/>
      <use transform="translate(435.973483 0)scale(0.996264)" xlink:href="#CMSY10-2"/>
      <use transform="translate(543.536917 0)scale(0.996264)" xlink:href="#CMR17-49"/>
      <use transform="translate(589.227394 0)scale(0.996264)" xlink:href="#CMR17-48"/>
      <use transform="translate(634.917871 36.153639)scale(0.697382)" xlink:href="#CMR17-53"/>
     </g>
    </g>
   </g>
   <g id="matplotlib.axis_6">
    <g id="ytick_15">
     <g id="line2d_39">
      <g>
       <use style="stroke:#000000;stroke-width:0.8;" x="532.270588" xlink:href="#mb2570e6cde" y="247.790769"/>
      </g>
     </g>
     <g id="text_36">
      <!-- $0$ -->
      <g transform="translate(520.289253 251.250018)scale(0.1 -0.1)">
       <use transform="scale(0.996264)" xlink:href="#CMR17-48"/>
      </g>
     </g>
    </g>
    <g id="ytick_16">
     <g id="line2d_40">
      <g>
       <use style="stroke:#000000;stroke-width:0.8;" x="532.270588" xlink:href="#mb2570e6cde" y="205.144615"/>
      </g>
     </g>
     <g id="text_37">
      <!-- $10$ -->
      <g transform="translate(515.307918 208.603865)scale(0.1 -0.1)">
       <use transform="scale(0.996264)" xlink:href="#CMR17-49"/>
       <use transform="translate(45.690477 0)scale(0.996264)" xlink:href="#CMR17-48"/>
      </g>
     </g>
    </g>
    <g id="ytick_17">
     <g id="line2d_41">
      <g>
       <use style="stroke:#000000;stroke-width:0.8;" x="532.270588" xlink:href="#mb2570e6cde" y="162.498462"/>
      </g>
     </g>
     <g id="text_38">
      <!-- $20$ -->
      <g transform="translate(515.307918 165.957711)scale(0.1 -0.1)">
       <use transform="scale(0.996264)" xlink:href="#CMR17-50"/>
       <use transform="translate(45.690477 0)scale(0.996264)" xlink:href="#CMR17-48"/>
      </g>
     </g>
    </g>
    <g id="ytick_18">
     <g id="line2d_42">
      <g>
       <use style="stroke:#000000;stroke-width:0.8;" x="532.270588" xlink:href="#mb2570e6cde" y="119.852308"/>
      </g>
     </g>
     <g id="text_39">
      <!-- $30$ -->
      <g transform="translate(515.307918 123.311557)scale(0.1 -0.1)">
       <use transform="scale(0.996264)" xlink:href="#CMR17-51"/>
       <use transform="translate(45.690477 0)scale(0.996264)" xlink:href="#CMR17-48"/>
      </g>
     </g>
    </g>
    <g id="ytick_19">
     <g id="line2d_43">
      <g>
       <use style="stroke:#000000;stroke-width:0.8;" x="532.270588" xlink:href="#mb2570e6cde" y="77.206154"/>
      </g>
     </g>
     <g id="text_40">
      <!-- $40$ -->
      <g transform="translate(515.307918 80.665403)scale(0.1 -0.1)">
       <use transform="scale(0.996264)" xlink:href="#CMR17-52"/>
       <use transform="translate(45.690477 0)scale(0.996264)" xlink:href="#CMR17-48"/>
      </g>
     </g>
    </g>
    <g id="ytick_20">
     <g id="line2d_44">
      <g>
       <use style="stroke:#000000;stroke-width:0.8;" x="532.270588" xlink:href="#mb2570e6cde" y="34.56"/>
      </g>
     </g>
     <g id="text_41">
      <!-- $50$ -->
      <g transform="translate(515.307918 38.019249)scale(0.1 -0.1)">
       <use transform="scale(0.996264)" xlink:href="#CMR17-53"/>
       <use transform="translate(45.690477 0)scale(0.996264)" xlink:href="#CMR17-48"/>
      </g>
     </g>
    </g>
    <g id="text_42">
     <!-- critic loss $\times\ 10^4$ -->
     <g transform="translate(508.595889 192.902093)rotate(-90)scale(0.14 -0.14)">
      <use transform="scale(0.996264)" xlink:href="#CMR17-99"/>
      <use transform="translate(40.48566 0)scale(0.996264)" xlink:href="#CMR17-114"/>
      <use transform="translate(75.766428 0)scale(0.996264)" xlink:href="#CMR17-105"/>
      <use transform="translate(100.637487 0)scale(0.996264)" xlink:href="#CMR17-116"/>
      <use transform="translate(135.918255 0)scale(0.996264)" xlink:href="#CMR17-105"/>
      <use transform="translate(160.789313 0)scale(0.996264)" xlink:href="#CMR17-99"/>
      <use transform="translate(231.35094 0)scale(0.996264)" xlink:href="#CMR17-108"/>
      <use transform="translate(256.221998 0)scale(0.996264)" xlink:href="#CMR17-111"/>
      <use transform="translate(301.912475 0)scale(0.996264)" xlink:href="#CMR17-115"/>
      <use transform="translate(337.713813 0)scale(0.996264)" xlink:href="#CMR17-115"/>
      <use transform="translate(403.591117 0)scale(0.996264)" xlink:href="#CMSY10-2"/>
      <use transform="translate(511.154551 0)scale(0.996264)" xlink:href="#CMR17-49"/>
      <use transform="translate(556.845028 0)scale(0.996264)" xlink:href="#CMR17-48"/>
      <use transform="translate(602.535505 36.153639)scale(0.697382)" xlink:href="#CMR17-52"/>
     </g>
    </g>
   </g>
   <g id="line2d_45">
    <path clip-path="url(#p8f06383022)" d="M 540.921396 194.508408 
L 541.761153 242.19443 
L 543.705712 242.567934 
L 545.387514 244.112952 
L 547.341077 244.792975 
L 549.237085 242.492245 
L 551.126824 238.885878 
L 553.188832 245.810638 
L 555.311232 243.394201 
L 557.43209 244.957287 
L 559.494248 245.094592 
L 561.575906 243.019103 
L 563.698306 245.232417 
L 565.885276 245.867364 
L 568.142437 243.428448 
L 570.439543 245.37672 
L 572.805796 245.493607 
L 575.179213 245.407442 
L 577.482836 246.382805 
L 579.774421 247.035802 
L 582.070434 237.607836 
L 584.450268 244.873395 
L 586.777819 242.870039 
L 589.097062 247.209262 
L 591.376061 240.881164 
L 593.698837 247.120423 
L 595.524156 241.437601 
L 596.013504 247.036155 
L 596.582595 247.283079 
L 597.152034 247.387439 
L 597.741271 244.666333 
L 598.325485 247.466411 
L 598.89368 247.342936 
L 599.499234 247.086914 
L 600.02619 247.580518 
L 600.55041 247.571612 
L 601.025233 247.095914 
L 601.543931 245.851859 
L 602.120136 247.117494 
L 602.595953 246.957606 
L 603.16196 95.319575 
L 603.728961 246.825001 
L 604.310389 246.614798 
L 604.833763 247.464729 
L 605.404843 243.808614 
L 606.552626 247.143125 
L 607.168079 245.016691 
L 607.746473 244.379598 
L 608.331084 247.002294 
L 608.883062 246.404199 
L 609.433349 246.717595 
L 610.05517 247.252705 
L 610.676991 244.717457 
L 611.287321 247.56441 
L 611.901432 246.873081 
L 612.500618 240.318762 
L 613.084235 247.501918 
L 613.685362 247.091649 
L 614.244404 183.709965 
L 614.829314 246.109892 
L 615.389201 241.871347 
L 616.010724 245.633197 
L 616.568572 122.434039 
L 617.181539 245.959584 
L 617.80336 227.247421 
L 618.391006 242.753825 
L 618.963131 235.456985 
L 619.482724 247.509675 
L 619.984261 244.22979 
L 620.534697 247.435771 
L 621.133237 247.568217 
L 621.741527 246.983487 
L 622.295992 247.493922 
L 622.917814 247.677074 
L 623.495112 247.572561 
L 623.947549 246.994253 
L 624.549323 245.054599 
L 625.107221 246.678597 
L 625.718098 247.42877 
L 626.30848 247.127078 
L 626.861652 247.165072 
L 627.373137 246.811117 
L 627.838956 246.10519 
L 628.37999 246.935681 
L 628.967536 246.200675 
L 629.531105 247.306274 
L 630.103579 246.0599 
L 630.665755 247.387732 
L 631.263797 247.585838 
L 632.445556 246.591168 
L 633.032654 246.768471 
L 633.630399 247.510797 
L 634.25222 240.748384 
L 634.849815 246.374483 
L 635.423582 247.473728 
L 636.034956 247.500605 
L 636.622502 245.620751 
L 637.220048 246.164031 
L 637.794262 247.57639 
L 638.383152 246.328871 
L 638.999998 247.523672 
L 639.586152 246.714701 
L 640.19474 247.553409 
L 640.793231 247.155299 
L 641.392766 237.665569 
L 641.978173 247.508495 
L 642.584921 246.885241 
L 643.182815 247.324902 
L 643.804636 243.918548 
L 644.378502 247.475836 
L 645.006343 245.164864 
L 645.60349 247.599532 
L 646.220635 145.553652 
L 646.818926 100.110364 
L 647.425923 246.128812 
L 647.992477 245.955966 
L 648.610567 246.90518 
L 649.231493 246.288657 
L 649.826949 135.829076 
L 650.441308 246.056945 
L 651.039201 246.28155 
L 651.657789 247.328607 
L 652.27961 247.548676 
L 652.880986 247.118003 
L 653.496638 246.002279 
L 654.079757 247.209595 
L 654.629696 246.177997 
L 655.226445 247.268754 
L 655.840954 247.551656 
L 656.43825 247.608813 
L 657.051764 245.399381 
L 657.65901 247.386079 
L 658.27322 247.629877 
L 658.872954 247.064499 
L 659.417171 246.860855 
L 660.024019 247.547421 
L 660.624201 247.415398 
L 661.208066 246.470278 
L 661.823271 247.545862 
L 662.383407 247.048027 
L 662.957672 244.981219 
L 663.577901 245.690363 
L 664.184749 247.421674 
L 664.760207 246.915184 
L 665.357255 247.378348 
L 665.962063 247.66861 
L 666.530258 241.545319 
L 667.098403 247.550532 
L 667.710226 245.095133 
L 668.307771 247.042799 
L 668.890542 247.184774 
L 670.075633 245.11624 
L 670.697454 247.359023 
L 671.265252 247.236479 
L 671.886376 245.529869 
L 673.683837 247.427052 
L 674.276507 247.609514 
L 674.276507 247.609514 
" style="fill:none;stroke:#1f77b4;stroke-linecap:square;stroke-width:1.5;"/>
   </g>
   <g id="line2d_46">
    <path clip-path="url(#p8f06383022)" d="M 540.587305 -1 
L 540.711817 108.796959 
L 540.851553 180.090966 
L 540.982185 147.258479 
L 541.126 172.554864 
L 541.265537 150.497821 
L 541.425817 206.50706 
L 541.583262 154.644906 
L 541.740907 196.7005 
L 542.078879 227.802649 
L 542.261097 223.884615 
L 542.481968 231.18205 
L 542.683289 225.531716 
L 543.051656 223.090004 
L 543.421515 222.081086 
L 543.867634 224.114722 
L 544.252417 219.839091 
L 544.71147 219.672411 
L 545.110481 217.704737 
L 545.584656 216.995388 
L 545.936756 202.413356 
L 546.38989 228.517738 
L 546.843222 215.53721 
L 547.279144 215.696143 
L 548.066966 212.002164 
L 548.502341 225.833063 
L 548.890108 216.843838 
L 549.279518 221.280389 
L 549.66629 219.730533 
L 550.027146 215.240556 
L 550.421579 225.43962 
L 550.816709 220.060389 
L 551.178957 220.717711 
L 551.527824 234.362122 
L 551.837491 219.449401 
L 552.216652 220.27702 
L 552.633024 216.095022 
L 552.985621 226.123671 
L 553.406321 226.878401 
L 553.800406 209.051619 
L 554.246127 220.485965 
L 554.691799 223.834472 
L 555.112846 224.939902 
L 555.528322 217.072658 
L 555.906589 226.25014 
L 556.347932 223.893341 
L 556.794002 227.489378 
L 557.196793 222.916807 
L 557.595554 226.453499 
L 558.015806 224.990495 
L 558.526545 225.004383 
L 559.092303 219.683672 
L 559.500615 211.667608 
L 559.980014 216.912425 
L 560.33306 214.000232 
L 560.778831 229.837728 
L 561.192615 227.624311 
L 561.653261 223.887328 
L 562.070179 223.929158 
L 562.511175 229.906803 
L 562.93078 226.119673 
L 563.368094 234.477219 
L 563.874804 229.544766 
L 564.35873 231.699946 
L 564.934486 232.658375 
L 565.486216 227.320935 
L 565.992577 231.555343 
L 566.52401 228.776662 
L 567.006792 239.956915 
L 567.534942 239.964948 
L 567.995786 200.756596 
L 568.524931 231.918754 
L 568.983785 228.536332 
L 569.492037 229.854132 
L 570.048045 230.386581 
L 570.555401 231.667713 
L 571.131605 235.992511 
L 571.634783 231.65863 
L 572.140597 235.860339 
L 572.666857 232.534129 
L 573.150086 231.741807 
L 573.611925 231.708563 
L 574.140822 226.36106 
L 574.71817 237.141525 
L 575.713034 228.92276 
L 576.280881 230.91375 
L 576.805599 235.933234 
L 577.301314 231.063129 
L 577.857372 232.588768 
L 578.362937 233.171626 
L 578.830049 229.337602 
L 579.361681 235.105419 
L 579.825809 231.145572 
L 580.376494 231.294919 
L 580.838681 236.605289 
L 581.389863 239.079464 
L 581.965669 239.736949 
L 582.493023 239.145258 
L 583.069626 220.668798 
L 583.595786 240.438846 
L 584.146869 235.590014 
L 584.74516 242.622783 
L 585.343302 239.637694 
L 585.896623 236.221448 
L 586.425122 245.212672 
L 586.951133 239.063048 
L 587.442421 238.184541 
L 587.994151 238.563178 
L 588.529514 239.273246 
L 589.151186 236.707726 
L 589.749974 242.536334 
L 590.969838 234.692783 
L 591.591659 240.293836 
L 592.207163 242.292383 
L 592.750634 234.85242 
L 593.351214 235.360013 
L 593.921797 239.029904 
L 594.543618 238.418163 
L 595.156137 242.497564 
L 595.730501 237.426205 
L 596.28223 237.252919 
L 596.904051 240.637735 
L 597.478763 236.751759 
L 598.000944 238.100182 
L 598.495416 242.797073 
L 599.090076 239.164198 
L 599.667325 237.818545 
L 600.273576 237.121702 
L 600.854705 240.01704 
L 601.349674 246.58327 
L 602.444428 233.650033 
L 602.964121 238.710286 
L 603.50222 236.733125 
L 604.089219 232.259908 
L 604.651942 242.809905 
L 605.248344 243.957609 
L 605.837482 239.834769 
L 606.410204 247.101017 
L 606.964669 230.610841 
L 607.532069 236.329016 
L 608.031267 236.85313 
L 608.611799 239.857407 
L 609.21994 239.800102 
L 609.798333 240.275155 
L 610.271514 234.013858 
L 610.851798 236.232441 
L 611.401487 235.408727 
L 611.961823 236.855339 
L 612.483158 239.014117 
L 613.05976 237.81944 
L 613.608057 231.834601 
L 614.205353 235.380193 
L 614.794243 237.379676 
L 615.294386 240.043083 
L 616.422618 235.833885 
L 616.961762 236.297129 
L 617.486231 236.12086 
L 618.058903 237.744106 
L 618.517807 227.580998 
L 619.050285 239.04749 
L 619.634946 236.109881 
L 620.216871 230.899411 
L 620.814665 238.184071 
L 621.436486 231.12269 
L 622.033584 227.8681 
L 623.111673 220.906024 
L 623.691309 232.911566 
L 624.251744 231.645687 
L 624.850533 234.277785 
L 625.405247 208.228625 
L 625.996674 233.809326 
L 626.547309 231.46479 
L 627.077548 236.475424 
L 627.653653 224.740015 
L 628.252193 226.185958 
L 628.874014 231.431485 
L 629.447731 232.709322 
L 629.98792 224.395794 
L 631.117445 230.526077 
L 631.655495 234.91462 
L 632.256423 237.096083 
L 632.837154 235.005314 
L 633.439873 242.337067 
L 634.032045 236.540663 
L 634.62969 231.841701 
L 635.213456 235.135681 
L 635.790556 233.461185 
L 636.388548 234.504152 
L 636.998381 233.366016 
L 637.573342 232.678303 
L 638.146561 245.822249 
L 638.720577 151.479495 
L 639.329514 242.230159 
L 639.917806 223.719559 
L 641.007137 230.15216 
L 641.628958 229.538777 
L 642.25078 226.331474 
L 642.442239 -1 
M 643.217936 -1 
L 643.420201 236.381966 
L 643.973871 224.40994 
L 644.545946 232.794521 
L 645.141352 228.037427 
L 645.752528 230.209234 
L 646.321519 196.793302 
L 646.907324 234.318229 
L 647.475321 233.236055 
L 647.999491 217.174826 
L 648.528387 227.651168 
L 649.044001 225.093682 
L 649.6018 238.481067 
L 650.200389 234.460115 
L 650.820967 232.350758 
L 651.406573 233.147218 
L 651.95686 227.047788 
L 652.539332 232.47122 
L 653.083451 236.042231 
L 654.178801 227.89909 
L 654.777391 229.688143 
L 655.399212 229.966353 
L 655.972183 232.683124 
L 656.571967 222.496786 
L 657.118125 236.115631 
L 657.664681 236.740804 
L 658.257002 232.452162 
L 658.837186 236.940785 
L 659.418714 238.098846 
L 660.568884 238.059477 
L 661.104296 227.297775 
L 661.653389 234.895176 
L 662.152836 237.676981 
L 662.761524 226.471774 
L 663.331013 222.428275 
L 663.890155 229.257084 
L 664.480885 238.747229 
L 665.022118 237.561395 
L 665.643939 233.776507 
L 666.242081 236.285623 
L 666.839378 233.648248 
L 667.383894 246.88523 
L 667.991786 231.262343 
L 668.533517 234.016906 
L 669.039679 238.752588 
L 669.657869 232.748416 
L 670.27969 235.617234 
L 670.853656 231.461092 
L 671.475477 230.290415 
L 672.074863 231.962716 
L 672.645844 230.843922 
L 673.267665 223.366212 
L 673.87506 230.85488 
L 674.488673 240.466247 
L 675.07801 227.937094 
L 675.579297 236.538093 
L 676.046807 227.820232 
L 676.552174 232.443071 
L 677.094352 233.591816 
L 677.654389 235.951346 
L 678.177664 231.476751 
L 679.333953 239.628668 
L 680.559239 233.2531 
L 681.133702 235.933974 
L 681.712394 232.400407 
L 682.310138 237.186002 
L 682.931959 233.937125 
L 683.5304 244.464966 
L 684.152221 242.479633 
L 684.774042 226.760293 
L 685.395863 240.479842 
L 686.017684 230.175474 
L 686.639505 228.269441 
L 687.204268 241.287433 
L 687.783656 235.915549 
L 688.404831 243.704821 
L 688.968996 230.338349 
L 689.543758 238.497394 
L 690.141801 240.778956 
L 690.763622 232.288138 
L 691.337637 238.347167 
L 691.949161 237.254767 
L 692.531584 235.018969 
L 693.137287 234.027793 
L 693.729808 233.312743 
L 694.343123 232.976718 
L 694.924252 240.485799 
L 695.535129 231.802704 
L 696.12964 231.701228 
L 696.731165 230.485613 
L 697.328809 236.001697 
L 697.926653 238.647071 
L 698.548474 226.053768 
L 699.170295 240.146045 
L 699.769383 241.147671 
L 700.367077 239.02252 
L 700.985615 235.90135 
L 701.606789 241.784114 
L 702.228611 236.208609 
L 702.832424 238.798852 
L 703.425293 237.851582 
L 704.015128 238.736618 
L 704.594118 239.999528 
L 704.594118 239.999528 
" style="fill:none;stroke:#ff7f0e;stroke-linecap:square;stroke-width:1.5;"/>
   </g>
   <g id="patch_15">
    <path d="M 532.270588 256.32 
L 532.270588 34.56 
" style="fill:none;stroke:#000000;stroke-linecap:square;stroke-linejoin:miter;stroke-width:0.8;"/>
   </g>
   <g id="patch_16">
    <path d="M 712.8 256.32 
L 712.8 34.56 
" style="fill:none;stroke:#000000;stroke-linecap:square;stroke-linejoin:miter;stroke-width:0.8;"/>
   </g>
   <g id="patch_17">
    <path d="M 532.270588 256.32 
L 712.8 256.32 
" style="fill:none;stroke:#000000;stroke-linecap:square;stroke-linejoin:miter;stroke-width:0.8;"/>
   </g>
   <g id="patch_18">
    <path d="M 532.270588 34.56 
L 712.8 34.56 
" style="fill:none;stroke:#000000;stroke-linecap:square;stroke-linejoin:miter;stroke-width:0.8;"/>
   </g>
   <g id="legend_3">
    <g id="patch_19">
     <path d="M 653.874689 70.434357 
L 705.8 70.434357 
Q 707.8 70.434357 707.8 68.434357 
L 707.8 41.56 
Q 707.8 39.56 705.8 39.56 
L 653.874689 39.56 
Q 651.874689 39.56 651.874689 41.56 
L 651.874689 68.434357 
Q 651.874689 70.434357 653.874689 70.434357 
z
" style="fill:#ffffff;opacity:0.8;stroke:#cccccc;stroke-linejoin:miter;"/>
    </g>
    <g id="line2d_47">
     <path d="M 655.874689 47.06 
L 675.874689 47.06 
" style="fill:none;stroke:#1f77b4;stroke-linecap:square;stroke-width:1.5;"/>
    </g>
    <g id="line2d_48"/>
    <g id="text_43">
     <!-- SAC -->
     <g transform="translate(683.874689 50.56)scale(0.1 -0.1)">
      <use transform="scale(0.996264)" xlink:href="#CMR17-83"/>
      <use transform="translate(50.89537 0)scale(0.996264)" xlink:href="#CMR17-65"/>
      <use transform="translate(117.365346 0)scale(0.996264)" xlink:href="#CMR17-67"/>
     </g>
    </g>
    <g id="line2d_49">
     <path d="M 655.874689 60.997178 
L 675.874689 60.997178 
" style="fill:none;stroke:#ff7f0e;stroke-linecap:square;stroke-width:1.5;"/>
    </g>
    <g id="line2d_50"/>
    <g id="text_44">
     <!-- TD3 -->
     <g transform="translate(683.874689 64.497178)scale(0.1 -0.1)">
      <use transform="scale(0.996264)" xlink:href="#CMR17-84"/>
      <use transform="translate(66.509881 0)scale(0.996264)" xlink:href="#CMR17-68"/>
      <use transform="translate(136.903436 0)scale(0.996264)" xlink:href="#CMR17-51"/>
     </g>
    </g>
   </g>
  </g>
 </g>
 <defs>
  <clipPath id="p5b0d82f640">
   <rect height="221.76" width="180.529412" x="99" y="34.56"/>
  </clipPath>
  <clipPath id="pa2815f94c5">
   <rect height="221.76" width="180.529412" x="315.635294" y="34.56"/>
  </clipPath>
  <clipPath id="p8f06383022">
   <rect height="221.76" width="180.529412" x="532.270588" y="34.56"/>
  </clipPath>
 </defs>
</svg>
