<?xml version="1.0" encoding="utf-8" standalone="no"?>
<!DOCTYPE svg PUBLIC "-//W3C//DTD SVG 1.1//EN"
  "http://www.w3.org/Graphics/SVG/1.1/DTD/svg11.dtd">
<!-- Created with matplotlib (http://matplotlib.org/) -->
<svg height="216pt" version="1.1" viewBox="0 0 792 216" width="792pt" xmlns="http://www.w3.org/2000/svg" xmlns:xlink="http://www.w3.org/1999/xlink">
 <defs>
  <style type="text/css">
*{stroke-linecap:butt;stroke-linejoin:round;}
  </style>
 </defs>
 <g id="figure_1">
  <g id="patch_1">
   <path d="M 0 216 
L 792 216 
L 792 0 
L 0 0 
z
" style="fill:#ffffff;"/>
  </g>
  <g id="axes_1">
   <g id="patch_2">
    <path d="M 99 192.24 
L 279.529412 192.24 
L 279.529412 25.92 
L 99 25.92 
z
" style="fill:#ffffff;"/>
   </g>
   <g id="matplotlib.axis_1">
    <g id="xtick_1">
     <g id="line2d_1">
      <defs>
       <path d="M 0 0 
L 0 3.5 
" id="me3dd527854" style="stroke:#000000;stroke-width:0.8;"/>
      </defs>
      <g>
       <use style="stroke:#000000;stroke-width:0.8;" x="107.083386" xlink:href="#me3dd527854" y="192.24"/>
      </g>
     </g>
     <g id="text_1">
      <!-- $0$ -->
      <defs>
       <path d="M 42 31.640625 
C 42 37.75 41.90625 48.125 37.703125 56.109375 
C 34 63.109375 28.09375 65.59375 22.90625 65.59375 
C 18.09375 65.59375 12 63.40625 8.203125 56.203125 
C 4.203125 48.71875 3.796875 39.4375 3.796875 31.640625 
C 3.796875 25.953125 3.90625 17.28125 7 9.671875 
C 11.296875 -0.609375 19 -2 22.90625 -2 
C 27.5 -2 34.5 -0.109375 38.59375 9.375 
C 41.59375 16.28125 42 24.359375 42 31.640625 
z
M 22.90625 -0.40625 
C 16.5 -0.40625 12.703125 5.078125 11.296875 12.6875 
C 10.203125 18.5625 10.203125 27.15625 10.203125 32.75 
C 10.203125 40.4375 10.203125 46.828125 11.5 52.921875 
C 13.40625 61.390625 19 64 22.90625 64 
C 27 64 32.296875 61.296875 34.203125 53.125 
C 35.5 47.4375 35.59375 40.734375 35.59375 32.75 
C 35.59375 26.25 35.59375 18.265625 34.40625 12.375 
C 32.296875 1.484375 26.40625 -0.40625 22.90625 -0.40625 
z
" id="CMR17-48"/>
      </defs>
      <g transform="translate(104.592718 206.158498)scale(0.1 -0.1)">
       <use transform="scale(0.996264)" xlink:href="#CMR17-48"/>
      </g>
     </g>
    </g>
    <g id="xtick_2">
     <g id="line2d_2">
      <g>
       <use style="stroke:#000000;stroke-width:0.8;" x="151.370012" xlink:href="#me3dd527854" y="192.24"/>
      </g>
     </g>
     <g id="text_2">
      <!-- $10$ -->
      <defs>
       <path d="M 26.59375 63.40625 
C 26.59375 65.5 26.5 65.5 25.09375 65.5 
C 21.203125 61.1875 15.296875 59.796875 9.703125 59.796875 
C 9.40625 59.796875 8.90625 59.796875 8.796875 59.5 
C 8.703125 59.296875 8.703125 59.09375 8.703125 57 
C 11.796875 57 17 57.59375 21 59.984375 
L 21 7.203125 
C 21 3.6875 20.796875 2.5 12.203125 2.5 
L 9.203125 2.5 
L 9.203125 0 
C 14 0 19 0 23.796875 0 
C 28.59375 0 33.59375 0 38.40625 0 
L 38.40625 2.5 
L 35.40625 2.5 
C 26.796875 2.5 26.59375 3.59375 26.59375 7.15625 
z
" id="CMR17-49"/>
      </defs>
      <g transform="translate(146.388677 206.158498)scale(0.1 -0.1)">
       <use transform="scale(0.996264)" xlink:href="#CMR17-49"/>
       <use transform="translate(45.690477 0)scale(0.996264)" xlink:href="#CMR17-48"/>
      </g>
     </g>
    </g>
    <g id="xtick_3">
     <g id="line2d_3">
      <g>
       <use style="stroke:#000000;stroke-width:0.8;" x="195.656639" xlink:href="#me3dd527854" y="192.24"/>
      </g>
     </g>
     <g id="text_3">
      <!-- $20$ -->
      <defs>
       <path d="M 41.703125 15.453125 
L 39.90625 15.453125 
C 38.90625 8.375 38.09375 7.171875 37.703125 6.5625 
C 37.203125 5.765625 30 5.765625 28.59375 5.765625 
L 9.40625 5.765625 
C 13 9.671875 20 16.75 28.5 24.953125 
C 34.59375 30.734375 41.703125 37.53125 41.703125 47.421875 
C 41.703125 59.21875 32.296875 66 21.796875 66 
C 10.796875 66 4.09375 56.3125 4.09375 47.34375 
C 4.09375 43.4375 7 42.9375 8.203125 42.9375 
C 9.203125 42.9375 12.203125 43.546875 12.203125 47.03125 
C 12.203125 50.109375 9.59375 51 8.203125 51 
C 7.59375 51 7 50.90625 6.59375 50.703125 
C 8.5 59.21875 14.296875 63.40625 20.40625 63.40625 
C 29.09375 63.40625 34.796875 56.515625 34.796875 47.421875 
C 34.796875 38.734375 29.703125 31.25 24 24.75 
L 4.09375 2.28125 
L 4.09375 0 
L 39.296875 0 
z
" id="CMR17-50"/>
      </defs>
      <g transform="translate(190.675304 206.158498)scale(0.1 -0.1)">
       <use transform="scale(0.996264)" xlink:href="#CMR17-50"/>
       <use transform="translate(45.690477 0)scale(0.996264)" xlink:href="#CMR17-48"/>
      </g>
     </g>
    </g>
    <g id="xtick_4">
     <g id="line2d_4">
      <g>
       <use style="stroke:#000000;stroke-width:0.8;" x="239.943266" xlink:href="#me3dd527854" y="192.24"/>
      </g>
     </g>
     <g id="text_4">
      <!-- $30$ -->
      <defs>
       <path d="M 22.09375 33.703125 
C 31 33.703125 34.90625 25.96875 34.90625 17.03125 
C 34.90625 5 28.5 0.390625 22.703125 0.390625 
C 17.40625 0.390625 8.796875 3.03125 6.09375 10.828125 
C 6.59375 10.625 7.09375 10.625 7.59375 10.625 
C 10 10.625 11.796875 12.21875 11.796875 14.8125 
C 11.796875 17.703125 9.59375 19 7.59375 19 
C 5.90625 19 3.296875 18.203125 3.296875 14.46875 
C 3.296875 5.234375 12.296875 -2 22.90625 -2 
C 34 -2 42.5 6.71875 42.5 16.953125 
C 42.5 26.671875 34.5 33.703125 25 34.796875 
C 32.59375 36.375 39.90625 43.0625 39.90625 52.015625 
C 39.90625 59.6875 32 65.296875 23 65.296875 
C 13.90625 65.296875 5.90625 59.828125 5.90625 52.015625 
C 5.90625 48.59375 8.5 48 9.796875 48 
C 11.90625 48 13.703125 49.296875 13.703125 51.890625 
C 13.703125 54.46875 11.90625 55.765625 9.796875 55.765625 
C 9.40625 55.765625 8.90625 55.765625 8.5 55.578125 
C 11.40625 61.859375 19.296875 63 22.796875 63 
C 26.296875 63 32.90625 61.328125 32.90625 51.875 
C 32.90625 49.109375 32.5 44.1875 29.09375 39.84375 
C 26.09375 36 22.703125 36 19.40625 35.6875 
C 18.90625 35.6875 16.59375 35.453125 16.203125 35.453125 
C 15.5 35.359375 15.09375 35.265625 15.09375 34.5 
C 15.09375 33.796875 15.203125 33.703125 17.203125 33.703125 
z
" id="CMR17-51"/>
      </defs>
      <g transform="translate(234.96193 206.158498)scale(0.1 -0.1)">
       <use transform="scale(0.996264)" xlink:href="#CMR17-51"/>
       <use transform="translate(45.690477 0)scale(0.996264)" xlink:href="#CMR17-48"/>
      </g>
     </g>
    </g>
    <g id="text_5">
     <!-- time steps $\times\ 10^5$ -->
     <defs>
      <path d="M 15.09375 40 
L 29.09375 40 
L 29.09375 42.578125 
L 15.09375 42.578125 
L 15.09375 61 
L 13.296875 61 
C 13.09375 50.703125 9.59375 41.6875 1.09375 41.6875 
L 1.09375 40 
L 9.796875 40 
L 9.796875 12.046875 
C 9.796875 10.15625 9.796875 -1 21.40625 -1 
C 27.296875 -1 30.703125 4.78125 30.703125 12.140625 
L 30.703125 17.8125 
L 28.90625 17.8125 
L 28.90625 12.234375 
C 28.90625 5.375 26.203125 0.796875 22 0.796875 
C 19.09375 0.796875 15.09375 2.78125 15.09375 11.84375 
z
" id="CMR17-116"/>
      <path d="M 15.5 61.078125 
C 15.5 63.265625 13.703125 65.15625 11.40625 65.15625 
C 9.203125 65.15625 7.296875 63.375 7.296875 61.078125 
C 7.296875 58.890625 9.09375 57 11.40625 57 
C 13.59375 57 15.5 58.796875 15.5 61.078125 
z
M 3.796875 42.28125 
L 3.796875 39.703125 
C 9.40625 39.703125 10.203125 39.09375 10.203125 34.328125 
L 10.203125 6.671875 
C 10.203125 2.875 9.796875 2.390625 3.40625 2.390625 
L 3.40625 -0.203125 
C 5.796875 0 10.09375 0 12.59375 0 
C 15 0 19.09375 0 21.40625 -0.203125 
L 21.40625 2.390625 
C 15.5 2.390625 15.296875 2.984375 15.296875 6.5625 
L 15.296875 43.375 
z
" id="CMR17-105"/>
      <path d="M 67.59375 30.203125 
C 67.59375 35.1875 66.703125 43.59375 54.796875 43.59375 
C 48 43.59375 43.296875 39 41.5 33.609375 
L 41.40625 33.609375 
C 40.203125 41.8125 34.296875 43.59375 28.703125 43.59375 
C 20.796875 43.59375 16.703125 37.5 15.203125 33.5 
L 15.09375 33.5 
L 15.09375 43.59375 
L 3.296875 42.5 
L 3.296875 39.90625 
C 9.203125 39.90625 10.09375 39.296875 10.09375 34.5 
L 10.09375 6.6875 
C 10.09375 2.875 9.703125 2.390625 3.296875 2.390625 
L 3.296875 -0.203125 
C 5.703125 0 10.09375 0 12.703125 0 
C 15.296875 0 19.796875 0 22.203125 -0.203125 
L 22.203125 2.390625 
C 15.796875 2.390625 15.40625 2.78125 15.40625 6.6875 
L 15.40625 25.90625 
C 15.40625 35.109375 21 42 28 42 
C 35.40625 42 36.203125 35.40625 36.203125 30.59375 
L 36.203125 6.6875 
C 36.203125 2.875 35.796875 2.390625 29.40625 2.390625 
L 29.40625 -0.203125 
C 31.796875 0 36.203125 0 38.796875 0 
C 41.40625 0 45.90625 0 48.296875 -0.203125 
L 48.296875 2.390625 
C 41.90625 2.390625 41.5 2.78125 41.5 6.6875 
L 41.5 25.90625 
C 41.5 35.109375 47.09375 42 54.09375 42 
C 61.5 42 62.296875 35.40625 62.296875 30.59375 
L 62.296875 6.6875 
C 62.296875 2.875 61.90625 2.390625 55.5 2.390625 
L 55.5 -0.203125 
C 57.90625 0 62.296875 0 64.90625 0 
C 67.5 0 72 0 74.40625 -0.203125 
L 74.40625 2.390625 
C 68 2.390625 67.59375 2.78125 67.59375 6.6875 
z
" id="CMR17-109"/>
      <path d="M 38.09375 23 
C 38.5 23.40625 38.5 23.609375 38.5 24.625 
C 38.5 34.96875 33.09375 44 21.703125 44 
C 11.09375 44 2.703125 33.890625 2.703125 21.609375 
C 2.703125 8.609375 12.203125 -1 22.796875 -1 
C 34 -1 38.40625 9.484375 38.40625 11.5625 
C 38.40625 12.25 37.796875 12.25 37.59375 12.25 
C 36.90625 12.25 36.796875 12.046875 36.40625 10.875 
C 34.203125 4.140625 28.703125 0.796875 23.5 0.796875 
C 19.203125 0.796875 14.90625 3.171875 12.203125 7.5 
C 9.09375 12.546875 9.09375 18.375 9.09375 23 
z
M 9.203125 24.5 
C 9.90625 39.140625 17.59375 42.40625 21.59375 42.40625 
C 28.40625 42.40625 33 35.890625 33.09375 24.5 
z
" id="CMR17-101"/>
      <path d="M 30.90625 42.140625 
C 30.90625 43.953125 30.796875 44.046875 30.203125 44.046875 
C 29.796875 44.046875 29.703125 43.953125 28.5 42.453125 
C 28.203125 42.046875 27.296875 41.03125 27 40.640625 
C 23.796875 44.046875 19.296875 44.046875 17.59375 44.046875 
C 6.5 44.046875 2.5 38.234375 2.5 32.4375 
C 2.5 23.40625 12.703125 21.328125 15.59375 20.703125 
C 21.90625 19.421875 24.09375 19.015625 26.203125 17.203125 
C 27.5 16.015625 29.703125 13.8125 29.703125 10.21875 
C 29.703125 6 27.296875 0.59375 18.09375 0.59375 
C 9.40625 0.59375 6.296875 7.1875 4.5 15.953125 
C 4.203125 17.34375 4.203125 17.453125 3.40625 17.453125 
C 2.59375 17.453125 2.5 17.34375 2.5 15.359375 
L 2.5 0.984375 
C 2.5 -0.796875 2.59375 -0.90625 3.203125 -0.90625 
C 3.703125 -0.90625 3.796875 -0.796875 4.296875 0 
C 4.90625 0.890625 6.40625 3.296875 7 4.3125 
C 9 1.609375 12.5 -1 18.09375 -1 
C 28 -1 33.296875 4.421875 33.296875 12.25 
C 33.296875 17.375 30.59375 20.078125 29.296875 21.28125 
C 26.296875 24.390625 22.796875 25.09375 18.59375 25.890625 
C 13.09375 27.109375 6.09375 28.515625 6.09375 34.640625 
C 6.09375 37.234375 7.5 42.765625 17.59375 42.765625 
C 28.296875 42.765625 28.90625 32.71875 29.09375 29.5 
C 29.203125 29 29.703125 28.890625 30 28.890625 
C 30.90625 28.890625 30.90625 29.203125 30.90625 30.90625 
z
" id="CMR17-115"/>
      <path d="M 22 -16.609375 
C 15.59375 -16.609375 15.203125 -16.203125 15.203125 -12.328125 
L 15.203125 6.28125 
C 18.09375 2.09375 22.296875 -0.59375 27.59375 -0.59375 
C 37.59375 -0.59375 47.703125 8.171875 47.703125 21.6875 
C 47.703125 34.234375 39 43.78125 28.703125 43.78125 
C 22.703125 43.78125 17.796875 40.5 15 36.53125 
L 15 43.78125 
L 3.09375 42.6875 
L 3.09375 40.109375 
C 9 40.109375 9.90625 39.5 9.90625 34.734375 
L 9.90625 -12.328125 
C 9.90625 -16.109375 9.5 -16.609375 3.09375 -16.609375 
L 3.09375 -19.1875 
C 5.5 -19 9.90625 -19 12.5 -19 
C 15.09375 -19 19.59375 -19 22 -19.1875 
z
M 15.203125 31.4375 
C 15.203125 32.84375 15.203125 34.921875 19.09375 38.609375 
C 19.59375 39.015625 23 42 28 42 
C 35.296875 42 41.296875 32.9375 41.296875 21.59375 
C 41.296875 10.25 34.90625 1 27 1 
C 23.40625 1 19.5 2.6875 16.5 7.375 
C 15.203125 9.5625 15.203125 10.15625 15.203125 11.75 
z
" id="CMR17-112"/>
      <path d="M 38.90625 27.890625 
L 18.90625 47.796875 
C 17.703125 49 17.5 49.1875 16.703125 49.1875 
C 15.703125 49.1875 14.703125 48.296875 14.703125 47.1875 
C 14.703125 46.5 14.90625 46.296875 16 45.1875 
L 36 25.09375 
L 16 5 
C 14.90625 3.890625 14.703125 3.6875 14.703125 3 
C 14.703125 1.890625 15.703125 1 16.703125 1 
C 17.5 1 17.703125 1.1875 18.90625 2.390625 
L 38.796875 22.296875 
L 59.5 1.59375 
C 59.703125 1.5 60.40625 1 61 1 
C 62.203125 1 63 1.890625 63 3 
C 63 3.1875 63 3.59375 62.703125 4.09375 
C 62.59375 4.296875 46.703125 20 41.703125 25.09375 
L 60 43.390625 
C 60.5 44 62 45.296875 62.5 45.890625 
C 62.59375 46.09375 63 46.5 63 47.1875 
C 63 48.296875 62.203125 49.1875 61 49.1875 
C 60.203125 49.1875 59.796875 48.796875 58.703125 47.6875 
z
" id="CMSY10-2"/>
      <path d="M 11.40625 57.6875 
C 12.40625 57.28125 16.5 56 20.703125 56 
C 30 56 35.09375 61.109375 38 64.0625 
C 38 64.953125 38 65.5 37.40625 65.5 
C 37.296875 65.5 37.09375 65.5 36.296875 65.046875 
C 32.796875 63.40625 28.703125 62.078125 23.703125 62.078125 
C 20.703125 62.078125 16.203125 62.484375 11.296875 64.671875 
C 10.203125 65.171875 10 65.171875 9.90625 65.171875 
C 9.40625 65.171875 9.296875 65.0625 9.296875 63.078125 
L 9.296875 34.421875 
C 9.296875 32.640625 9.296875 32.140625 10.296875 32.140625 
C 10.796875 32.140625 11 32.34375 11.5 33.03125 
C 14.703125 37.515625 19.09375 39.40625 24.09375 39.40625 
C 27.59375 39.40625 35.09375 37.21875 35.09375 20.140625 
C 35.09375 16.953125 35.09375 11.171875 32.09375 6.578125 
C 29.59375 2.484375 25.703125 0.390625 21.40625 0.390625 
C 14.796875 0.390625 8.09375 5 6.296875 12.71875 
C 6.703125 12.609375 7.5 12.421875 7.90625 12.421875 
C 9.203125 12.421875 11.703125 13.125 11.703125 16.21875 
C 11.703125 18.90625 9.796875 20 7.90625 20 
C 5.59375 20 4.09375 18.59375 4.09375 15.796875 
C 4.09375 7.09375 11 -2 21.59375 -2 
C 31.90625 -2 41.703125 6.875 41.703125 19.75 
C 41.703125 31.71875 33.90625 41 24.203125 41 
C 19.09375 41 14.796875 39.109375 11.40625 35.53125 
z
" id="CMR17-53"/>
     </defs>
     <g transform="translate(139.52645 223.449113)scale(0.14 -0.14)">
      <use transform="scale(0.996264)" xlink:href="#CMR17-116"/>
      <use transform="translate(35.280768 0)scale(0.996264)" xlink:href="#CMR17-105"/>
      <use transform="translate(60.151826 0)scale(0.996264)" xlink:href="#CMR17-109"/>
      <use transform="translate(137.071416 0)scale(0.996264)" xlink:href="#CMR17-101"/>
      <use transform="translate(207.633043 0)scale(0.996264)" xlink:href="#CMR17-115"/>
      <use transform="translate(243.434381 0)scale(0.996264)" xlink:href="#CMR17-116"/>
      <use transform="translate(278.715148 0)scale(0.996264)" xlink:href="#CMR17-101"/>
      <use transform="translate(319.200809 0)scale(0.996264)" xlink:href="#CMR17-112"/>
      <use transform="translate(370.096179 0)scale(0.996264)" xlink:href="#CMR17-115"/>
      <use transform="translate(435.973483 0)scale(0.996264)" xlink:href="#CMSY10-2"/>
      <use transform="translate(543.536917 0)scale(0.996264)" xlink:href="#CMR17-49"/>
      <use transform="translate(589.227394 0)scale(0.996264)" xlink:href="#CMR17-48"/>
      <use transform="translate(634.917871 36.153639)scale(0.697382)" xlink:href="#CMR17-53"/>
     </g>
    </g>
   </g>
   <g id="matplotlib.axis_2">
    <g id="ytick_1">
     <g id="line2d_5">
      <defs>
       <path d="M 0 0 
L -3.5 0 
" id="md52f1a7a5e" style="stroke:#000000;stroke-width:0.8;"/>
      </defs>
      <g>
       <use style="stroke:#000000;stroke-width:0.8;" x="99" xlink:href="#md52f1a7a5e" y="192.24"/>
      </g>
     </g>
     <g id="text_6">
      <!-- $-14$ -->
      <defs>
       <path d="M 65.90625 23 
C 67.59375 23 69.40625 23 69.40625 25 
C 69.40625 27 67.59375 27 65.90625 27 
L 11.796875 27 
C 10.09375 27 8.296875 27 8.296875 25 
C 8.296875 23 10.09375 23 11.796875 23 
z
" id="CMSY10-0"/>
       <path d="M 33.59375 64.40625 
C 33.59375 66.5 33.5 66.5 31.703125 66.5 
L 2 19.59375 
L 2 17 
L 27.796875 17 
L 27.796875 7.140625 
C 27.796875 3.5 27.59375 2.5 20.59375 2.5 
L 18.703125 2.5 
L 18.703125 0 
C 21.90625 0 27.296875 0 30.703125 0 
C 34.09375 0 39.5 0 42.703125 0 
L 42.703125 2.5 
L 40.796875 2.5 
C 33.796875 2.5 33.59375 3.5 33.59375 7.140625 
L 33.59375 17 
L 43.796875 17 
L 43.796875 19.59375 
L 33.59375 19.59375 
z
M 28.09375 57.859375 
L 28.09375 19.59375 
L 4 19.59375 
z
" id="CMR17-52"/>
      </defs>
      <g transform="translate(74.288586 195.699249)scale(0.1 -0.1)">
       <use transform="scale(0.996264)" xlink:href="#CMSY10-0"/>
       <use transform="translate(77.487468 0)scale(0.996264)" xlink:href="#CMR17-49"/>
       <use transform="translate(123.177945 0)scale(0.996264)" xlink:href="#CMR17-52"/>
      </g>
     </g>
    </g>
    <g id="ytick_2">
     <g id="line2d_6">
      <g>
       <use style="stroke:#000000;stroke-width:0.8;" x="99" xlink:href="#md52f1a7a5e" y="158.976"/>
      </g>
     </g>
     <g id="text_7">
      <!-- $-12$ -->
      <g transform="translate(74.288586 162.435249)scale(0.1 -0.1)">
       <use transform="scale(0.996264)" xlink:href="#CMSY10-0"/>
       <use transform="translate(77.487468 0)scale(0.996264)" xlink:href="#CMR17-49"/>
       <use transform="translate(123.177945 0)scale(0.996264)" xlink:href="#CMR17-50"/>
      </g>
     </g>
    </g>
    <g id="ytick_3">
     <g id="line2d_7">
      <g>
       <use style="stroke:#000000;stroke-width:0.8;" x="99" xlink:href="#md52f1a7a5e" y="125.712"/>
      </g>
     </g>
     <g id="text_8">
      <!-- $-10$ -->
      <g transform="translate(74.288586 129.171249)scale(0.1 -0.1)">
       <use transform="scale(0.996264)" xlink:href="#CMSY10-0"/>
       <use transform="translate(77.487468 0)scale(0.996264)" xlink:href="#CMR17-49"/>
       <use transform="translate(123.177945 0)scale(0.996264)" xlink:href="#CMR17-48"/>
      </g>
     </g>
    </g>
    <g id="ytick_4">
     <g id="line2d_8">
      <g>
       <use style="stroke:#000000;stroke-width:0.8;" x="99" xlink:href="#md52f1a7a5e" y="92.448"/>
      </g>
     </g>
     <g id="text_9">
      <!-- $-8$ -->
      <defs>
       <path d="M 27.203125 35.375 
C 33.5 38.546875 39.90625 43.328125 39.90625 50.984375 
C 39.90625 60.015625 31.09375 65.296875 23 65.296875 
C 13.90625 65.296875 5.90625 58.734375 5.90625 49.6875 
C 5.90625 47.203125 6.5 42.921875 10.40625 39.140625 
C 11.40625 38.15625 15.59375 35.171875 18.296875 33.28125 
C 13.796875 30.984375 3.296875 25.53125 3.296875 14.59375 
C 3.296875 4.359375 13.09375 -2 22.796875 -2 
C 33.5 -2 42.5 5.65625 42.5 15.78125 
C 42.5 24.84375 36.40625 29.015625 32.40625 31.703125 
z
M 14.09375 44.09375 
C 13.296875 44.59375 9.296875 47.671875 9.296875 52.359375 
C 9.296875 58.421875 15.59375 63 22.796875 63 
C 30.703125 63 36.5 57.4375 36.5 50.96875 
C 36.5 41.703125 26.09375 36.421875 25.59375 36.421875 
C 25.5 36.421875 25.40625 36.421875 24.59375 37.03125 
z
M 32.5 23.734375 
C 34 22.640625 38.796875 19.375 38.796875 13.296875 
C 38.796875 5.953125 31.40625 0.390625 23 0.390625 
C 13.90625 0.390625 7 6.84375 7 14.6875 
C 7 22.546875 13.09375 29.09375 20 32.1875 
z
" id="CMR17-56"/>
      </defs>
      <g transform="translate(79.269921 95.907249)scale(0.1 -0.1)">
       <use transform="scale(0.996264)" xlink:href="#CMSY10-0"/>
       <use transform="translate(77.487468 0)scale(0.996264)" xlink:href="#CMR17-56"/>
      </g>
     </g>
    </g>
    <g id="ytick_5">
     <g id="line2d_9">
      <g>
       <use style="stroke:#000000;stroke-width:0.8;" x="99" xlink:href="#md52f1a7a5e" y="59.184"/>
      </g>
     </g>
     <g id="text_10">
      <!-- $-6$ -->
      <defs>
       <path d="M 10.59375 34 
C 10.59375 57.65625 21.796875 63 28.296875 63 
C 30.40625 63 35.5 62.640625 37.5 59 
C 35.90625 59 32.90625 59 32.90625 55.515625 
C 32.90625 52.828125 35.09375 51.921875 36.5 51.921875 
C 37.40625 51.921875 40.09375 52.3125 40.09375 55.625 
C 40.09375 61.78125 35.09375 65.296875 28.203125 65.296875 
C 16.296875 65.296875 3.796875 52.96875 3.796875 31 
C 3.796875 3.953125 15.09375 -2 23.09375 -2 
C 32.796875 -2 42 6.671875 42 20.046875 
C 42 32.515625 33.90625 41.59375 23.703125 41.59375 
C 17.59375 41.59375 13.09375 37.609375 10.59375 30.625 
z
M 23.09375 0.390625 
C 10.796875 0.390625 10.796875 18.75 10.796875 22.4375 
C 10.796875 29.625 14.203125 40 23.5 40 
C 25.203125 40 30.09375 40 33.40625 33.125 
C 35.203125 29.21875 35.203125 25.140625 35.203125 20.140625 
C 35.203125 14.75 35.203125 10.78125 33.09375 6.78125 
C 30.90625 2.671875 27.703125 0.390625 23.09375 0.390625 
z
" id="CMR17-54"/>
      </defs>
      <g transform="translate(79.269921 62.643249)scale(0.1 -0.1)">
       <use transform="scale(0.996264)" xlink:href="#CMSY10-0"/>
       <use transform="translate(77.487468 0)scale(0.996264)" xlink:href="#CMR17-54"/>
      </g>
     </g>
    </g>
    <g id="ytick_6">
     <g id="line2d_10">
      <g>
       <use style="stroke:#000000;stroke-width:0.8;" x="99" xlink:href="#md52f1a7a5e" y="25.92"/>
      </g>
     </g>
     <g id="text_11">
      <!-- $-4$ -->
      <g transform="translate(79.269921 29.379249)scale(0.1 -0.1)">
       <use transform="scale(0.996264)" xlink:href="#CMSY10-0"/>
       <use transform="translate(77.487468 0)scale(0.996264)" xlink:href="#CMR17-52"/>
      </g>
     </g>
    </g>
    <g id="text_12">
     <!-- episode return $\times\ 10^3$ -->
     <defs>
      <path d="M 43.09375 21.1875 
C 43.09375 34 33.796875 44 22.90625 44 
C 12 44 2.703125 34 2.703125 21.1875 
C 2.703125 8.609375 12 -1 22.90625 -1 
C 33.796875 -1 43.09375 8.609375 43.09375 21.1875 
z
M 22.90625 0.796875 
C 18.203125 0.796875 14.203125 3.59375 11.90625 7.5 
C 9.40625 11.984375 9.09375 17.59375 9.09375 22 
C 9.09375 26.203125 9.296875 31.40625 11.90625 35.90625 
C 13.90625 39.203125 17.796875 42.40625 22.90625 42.40625 
C 27.40625 42.40625 31.203125 39.90625 33.59375 36.40625 
C 36.703125 31.703125 36.703125 25.109375 36.703125 22 
C 36.703125 18.09375 36.5 12.109375 33.796875 7.296875 
C 31 2.703125 26.703125 0.796875 22.90625 0.796875 
z
" id="CMR17-111"/>
      <path d="M 29.203125 67.59375 
L 29.203125 65 
C 35.09375 65 36 64.40625 36 59.6875 
L 36 36.640625 
C 35.59375 37.140625 31.5 43.59375 23.40625 43.59375 
C 13.203125 43.59375 3.296875 34.5 3.296875 21.3125 
C 3.296875 8.203125 12.59375 -1 22.40625 -1 
C 30.90625 -1 35.296875 5.265625 35.796875 5.9375 
L 35.796875 -0.984375 
L 47.90625 -0.984375 
L 47.90625 2 
C 42 2 41.09375 2.59375 41.09375 7.390625 
L 41.09375 68.6875 
z
M 35.796875 11.796875 
C 35.796875 8.796875 34 6.09375 31.703125 4.09375 
C 28.296875 1.09375 24.90625 0.59375 23 0.59375 
C 20.09375 0.59375 9.703125 2.09375 9.703125 21.1875 
C 9.703125 40.8125 21.296875 42 23.90625 42 
C 28.5 42 32.203125 39.40625 34.5 35.796875 
C 35.796875 33.703125 35.796875 33.40625 35.796875 31.609375 
z
" id="CMR17-100"/>
      <path d="M 15 23.390625 
C 15 33 19.09375 42 26.59375 42 
C 27.296875 42 28 41.90625 28.703125 41.59375 
C 28.703125 41.59375 26.5 40.890625 26.5 38.3125 
C 26.5 35.90625 28.40625 34.90625 29.90625 34.90625 
C 31.09375 34.90625 33.296875 35.609375 33.296875 38.40625 
C 33.296875 41.609375 30.09375 43.59375 26.703125 43.59375 
C 19.09375 43.59375 15.796875 36.203125 14.796875 32.703125 
L 14.703125 32.703125 
L 14.703125 43.59375 
L 3.09375 42.5 
L 3.09375 39.90625 
C 9 39.90625 9.90625 39.296875 9.90625 34.5 
L 9.90625 6.6875 
C 9.90625 2.875 9.5 2.390625 3.09375 2.390625 
L 3.09375 -0.203125 
C 5.5 0 10.09375 0 12.703125 0 
C 15.59375 0 20.703125 0 23.40625 -0.203125 
L 23.40625 2.390625 
C 16.203125 2.390625 15 2.390625 15 6.875 
z
" id="CMR17-114"/>
      <path d="M 29.40625 42.078125 
L 29.40625 39.5 
C 35.296875 39.5 36.203125 38.890625 36.203125 34.15625 
L 36.203125 16.125 
C 36.203125 7.8125 31.703125 0.59375 24.296875 0.59375 
C 16.09375 0.59375 15.40625 5.4375 15.40625 10.59375 
L 15.40625 43.171875 
L 3.296875 42.078125 
L 3.296875 39.5 
C 7.296875 39.5 10 39.5 10.09375 35.53125 
L 10.09375 16.53125 
C 10.09375 9.890625 10.09375 5.640625 12.703125 2.859375 
C 14 1.578125 16.5 -1 23.703125 -1 
C 32.203125 -1 35.5 5.890625 36.296875 7.90625 
L 36.40625 7.90625 
L 36.40625 -0.984375 
L 48.296875 -0.984375 
L 48.296875 2 
C 42.40625 2 41.5 2.59375 41.5 7.390625 
L 41.5 43.171875 
z
" id="CMR17-117"/>
      <path d="M 41.5 30.203125 
C 41.5 35.296875 40.5 43.59375 28.703125 43.59375 
C 20.796875 43.59375 16.703125 37.5 15.203125 33.5 
L 15.09375 33.5 
L 15.09375 43.59375 
L 3.296875 42.5 
L 3.296875 39.90625 
C 9.203125 39.90625 10.09375 39.296875 10.09375 34.5 
L 10.09375 6.6875 
C 10.09375 2.875 9.703125 2.390625 3.296875 2.390625 
L 3.296875 -0.203125 
C 5.703125 0 10.09375 0 12.703125 0 
C 15.296875 0 19.796875 0 22.203125 -0.203125 
L 22.203125 2.390625 
C 15.796875 2.390625 15.40625 2.78125 15.40625 6.6875 
L 15.40625 25.90625 
C 15.40625 35.109375 21 42 28 42 
C 35.40625 42 36.203125 35.40625 36.203125 30.59375 
L 36.203125 6.6875 
C 36.203125 2.875 35.796875 2.390625 29.40625 2.390625 
L 29.40625 -0.203125 
C 31.796875 0 36.203125 0 38.796875 0 
C 41.40625 0 45.90625 0 48.296875 -0.203125 
L 48.296875 2.390625 
C 41.90625 2.390625 41.5 2.78125 41.5 6.6875 
z
" id="CMR17-110"/>
     </defs>
     <g transform="translate(67.576557 171.109535)rotate(-90)scale(0.14 -0.14)">
      <use transform="scale(0.996264)" xlink:href="#CMR17-101"/>
      <use transform="translate(40.48566 0)scale(0.996264)" xlink:href="#CMR17-112"/>
      <use transform="translate(91.38103 0)scale(0.996264)" xlink:href="#CMR17-105"/>
      <use transform="translate(116.252089 0)scale(0.996264)" xlink:href="#CMR17-115"/>
      <use transform="translate(152.053426 0)scale(0.996264)" xlink:href="#CMR17-111"/>
      <use transform="translate(200.346342 0)scale(0.996264)" xlink:href="#CMR17-100"/>
      <use transform="translate(251.241712 0)scale(0.996264)" xlink:href="#CMR17-101"/>
      <use transform="translate(321.803339 0)scale(0.996264)" xlink:href="#CMR17-114"/>
      <use transform="translate(357.084107 0)scale(0.996264)" xlink:href="#CMR17-101"/>
      <use transform="translate(397.569767 0)scale(0.996264)" xlink:href="#CMR17-116"/>
      <use transform="translate(432.850535 0)scale(0.996264)" xlink:href="#CMR17-117"/>
      <use transform="translate(483.745905 0)scale(0.996264)" xlink:href="#CMR17-114"/>
      <use transform="translate(519.026672 0)scale(0.996264)" xlink:href="#CMR17-110"/>
      <use transform="translate(599.998009 0)scale(0.996264)" xlink:href="#CMSY10-2"/>
      <use transform="translate(707.561443 0)scale(0.996264)" xlink:href="#CMR17-49"/>
      <use transform="translate(753.25192 0)scale(0.996264)" xlink:href="#CMR17-48"/>
      <use transform="translate(798.942397 36.153639)scale(0.697382)" xlink:href="#CMR17-51"/>
     </g>
    </g>
   </g>
   <g id="line2d_11">
    <path clip-path="url(#pb1fceec036)" d="M 107.57758 212.772204 
L 107.641442 217 
M 109.839378 217 
L 110.056347 210.513988 
L 113.292769 124.855631 
L 114.98071 110.238458 
L 116.66307 108.126908 
L 118.498795 92.169008 
L 120.388284 114.441302 
L 122.2764 70.409577 
L 124.112258 90.685528 
L 125.965476 86.503294 
L 127.854965 88.242687 
L 129.801938 58.310252 
L 131.811399 52.764503 
L 133.856423 37.397493 
L 135.963005 41.170431 
L 138.075964 39.434621 
L 140.126789 38.175664 
L 142.166897 47.21579 
L 144.210946 44.040832 
L 146.329618 29.826815 
L 148.401745 43.533832 
L 150.466477 52.938375 
L 152.49538 40.812389 
L 154.563255 44.169535 
L 156.188264 23.585092 
L 156.623912 43.604364 
L 157.130551 54.811449 
L 157.6375 54.922009 
L 158.162075 68.104201 
L 158.682177 54.979669 
L 159.188019 48.597334 
L 159.72712 49.202664 
L 160.196248 47.568879 
L 160.662941 56.442749 
L 161.085657 74.758869 
L 161.547433 79.774481 
L 162.060405 73.008725 
L 162.484007 80.742548 
L 162.9879 69.21083 
L 163.492679 67.937759 
L 164.010301 76.056254 
L 164.476241 62.674901 
L 164.984651 61.771056 
L 165.517818 50.479674 
L 166.006477 49.155822 
L 167.069311 38.829274 
L 167.589768 41.922802 
L 168.081172 35.509948 
L 169.124654 29.660519 
L 169.678237 24.723434 
L 170.221589 28.532775 
L 170.768308 28.319734 
L 171.30174 25.641625 
L 171.821311 32.30253 
L 172.35647 28.698583 
L 172.854163 31.570218 
L 173.374886 42.739484 
L 173.873332 44.604509 
L 174.426649 42.694095 
L 174.923279 40.164212 
L 175.468979 30.702252 
L 176.022562 27.396447 
L 176.54572 29.582248 
L 177.05506 34.013238 
L 177.517634 48.067498 
L 177.964132 57.439427 
L 178.454163 57.518461 
L 178.98702 54.670134 
L 179.528557 45.851974 
L 180.022175 39.815589 
L 180.575758 39.974795 
L 181.089705 44.109366 
L 181.492491 64.352808 
L 182.028227 61.924788 
L 182.524901 67.07089 
L 183.068741 64.208821 
L 183.594335 42.773462 
L 184.542157 59.9308 
L 184.956857 91.766372 
L 185.438518 103.931909 
L 185.961588 101.496003 
L 186.463311 98.122549 
L 186.972962 68.555287 
L 188.005859 60.259606 
L 188.507759 52.669981 
L 189.057932 51.88632 
L 189.580602 45.426282 
L 190.11275 40.780863 
L 191.198349 29.862905 
L 191.709151 30.502733 
L 192.253433 33.860018 
L 192.776503 42.524583 
L 193.308473 45.856928 
L 193.819674 48.156684 
L 194.343939 43.681685 
L 194.893093 40.301637 
L 195.414923 43.049052 
L 195.956725 40.180941 
L 196.489538 41.436543 
L 197.02328 37.57619 
L 197.544445 37.140404 
L 198.084609 34.85473 
L 198.61689 35.893783 
L 199.170473 36.16506 
L 199.681363 32.169352 
L 200.240305 30.529955 
L 200.771922 30.69288 
L 201.321341 34.288064 
L 202.394362 29.18256 
L 202.898743 33.38426 
L 203.449004 31.310417 
L 204.00179 31.530807 
L 204.5319 37.947137 
L 205.07884 34.774729 
L 205.611121 35.04249 
L 206.161825 35.8753 
L 206.715408 31.843623 
L 207.250789 31.260399 
L 207.798881 29.898459 
L 208.318008 40.591211 
L 208.807597 42.233994 
L 209.338859 43.086457 
L 209.885932 42.892607 
L 210.417682 32.958089 
L 210.963869 33.529156 
L 211.504476 37.157588 
L 212.051283 37.437489 
L 212.585202 40.007588 
L 213.069698 46.855985 
L 213.60995 44.566445 
L 214.144268 46.902056 
L 214.664061 46.466554 
L 215.211753 39.594127 
L 215.710421 42.735285 
L 216.221666 43.036894 
L 216.773831 40.542029 
L 217.314084 42.930289 
L 217.826391 34.057669 
L 218.35792 33.051189 
L 218.896356 36.989798 
L 219.402198 37.000469 
L 219.907996 44.155315 
L 220.452677 46.873283 
L 220.984648 42.030902 
L 221.503466 43.811119 
L 221.986456 44.310249 
L 222.558506 37.487385 
L 223.112089 42.896513 
L 223.617577 36.638918 
L 224.170539 32.164496 
L 224.724122 32.944519 
L 225.22961 32.002196 
L 225.770748 35.750633 
L 226.298379 40.222261 
L 226.298379 40.222261 
" style="fill:none;stroke:#1f77b4;stroke-linecap:square;stroke-width:1.5;"/>
   </g>
   <g id="line2d_12">
    <path clip-path="url(#pb1fceec036)" d="M 107.462137 217 
L 107.562921 214.916319 
L 107.709343 217 
M 110.38186 217 
L 111.020954 192.299057 
L 111.361695 173.124456 
L 111.716121 171.168425 
L 112.037465 177.481861 
L 112.666999 203.092689 
L 113.023329 195.746006 
L 113.352335 183.268855 
L 113.906626 148.432985 
L 114.198918 155.424776 
L 114.501883 155.882367 
L 114.796566 149.418382 
L 115.335357 151.693767 
L 115.745938 171.348795 
L 116.150718 176.304303 
L 116.397129 165.464624 
L 116.838224 168.116567 
L 117.178744 152.987213 
L 117.472984 147.729861 
L 117.937019 132.346235 
L 118.182367 136.037159 
L 118.313013 143.067557 
L 118.590158 140.107158 
L 118.721645 150.087593 
L 119.115929 153.388817 
L 119.223989 160.137219 
L 119.44582 155.664884 
L 119.621018 159.24588 
L 119.979784 147.080693 
L 120.241474 144.52224 
L 120.75418 132.001349 
L 121.027561 134.56586 
L 121.250456 133.715159 
L 121.546158 130.414519 
L 121.860681 125.201654 
L 122.135436 124.023836 
L 122.468383 112.030897 
L 122.824934 113.428375 
L 123.075198 115.736926 
L 123.361289 111.753659 
L 123.666513 119.648304 
L 123.920851 121.812413 
L 124.209334 116.946644 
L 124.622307 113.648261 
L 124.954412 107.342313 
L 125.912155 124.035319 
L 126.643947 122.133115 
L 126.971402 113.271394 
L 127.246865 115.152759 
L 127.629147 116.732409 
L 128.370063 108.843124 
L 128.79827 94.87161 
L 129.658936 80.812698 
L 130.080944 84.716516 
L 130.514421 85.348783 
L 130.998253 86.857106 
L 131.431863 84.423758 
L 131.926722 78.139705 
L 132.303335 81.773188 
L 132.636193 87.04813 
L 133.080255 84.356313 
L 133.543272 86.267084 
L 133.987998 85.550243 
L 134.41656 79.87087 
L 134.885733 78.598993 
L 135.413186 74.92134 
L 135.838559 73.898626 
L 136.370575 64.75546 
L 136.831333 70.680074 
L 137.299132 74.403449 
L 137.801387 70.724358 
L 138.291596 78.608584 
L 139.629539 83.224931 
L 140.118773 77.974611 
L 140.605306 68.886206 
L 141.080147 68.946464 
L 141.551003 68.692875 
L 142.067031 71.821218 
L 142.618488 68.82827 
L 143.087084 73.174273 
L 144.109574 61.555392 
L 144.621926 59.9177 
L 145.039283 50.625805 
L 145.492955 53.639932 
L 146.00482 53.825654 
L 146.447377 58.206902 
L 146.919915 57.34575 
L 147.408839 56.769542 
L 147.941253 57.964252 
L 149.004354 49.380451 
L 149.499079 49.510811 
L 149.96617 58.734741 
L 150.475511 63.581061 
L 150.967757 65.973689 
L 151.485113 66.410913 
L 151.938564 69.374154 
L 152.476691 74.331919 
L 152.953082 85.713055 
L 154.011488 67.509916 
L 155.030213 44.047637 
L 155.539067 50.752144 
L 156.068336 50.584143 
L 156.621919 50.908086 
L 157.153713 49.390286 
L 157.689227 43.134323 
L 158.183111 43.124732 
L 158.666234 50.969051 
L 159.18669 55.191256 
L 160.187657 75.788453 
L 160.619141 87.369953 
L 161.086542 91.384835 
L 161.531933 93.473199 
L 162.027722 88.727329 
L 162.487816 85.961707 
L 162.978556 77.98849 
L 163.476559 77.061427 
L 164.483415 54.794191 
L 164.913483 62.281426 
L 165.372956 58.288081 
L 165.830437 72.922008 
L 166.807489 69.529876 
L 167.250222 73.526818 
L 167.703895 71.120489 
L 168.160711 72.004089 
L 168.586394 76.061793 
L 169.631603 57.484417 
L 170.078455 58.901004 
L 170.569948 48.529897 
L 171.633137 49.668815 
L 172.090618 48.02807 
L 172.644201 40.694706 
L 173.70925 35.164558 
L 174.207253 37.406126 
L 174.7177 51.490758 
L 175.246306 54.393781 
L 175.71415 64.46384 
L 176.213747 63.60406 
L 176.530574 76.900085 
L 176.905637 99.792636 
L 177.366528 102.959603 
L 177.916789 97.766748 
L 178.387645 90.090057 
L 178.825152 77.514543 
L 179.333297 66.975678 
L 179.793302 72.945973 
L 180.266815 70.521226 
L 180.772214 62.403673 
L 181.280359 64.634139 
L 181.782392 60.950752 
L 182.294655 50.788568 
L 182.807849 49.957634 
L 183.331316 53.098629 
L 183.863243 50.598834 
L 184.348625 55.535152 
L 184.865627 58.702046 
L 185.304729 64.154792 
L 185.779127 68.658742 
L 186.272923 65.474136 
L 186.762157 69.784594 
L 187.227432 58.722413 
L 187.729909 60.190691 
L 188.2625 51.671793 
L 188.774586 41.142235 
L 189.296017 38.681568 
L 189.794684 35.035327 
L 190.319613 42.616116 
L 190.822488 42.511524 
L 191.324123 45.036892 
L 191.820531 44.388163 
L 192.374114 40.657917 
L 192.927697 38.047749 
L 193.370342 46.791252 
L 193.923925 45.656743 
L 194.443141 53.537152 
L 194.922101 64.119083 
L 195.422673 65.4545 
L 195.922669 74.132424 
L 196.466597 70.53508 
L 196.947506 72.331084 
L 197.448786 61.669323 
L 197.957728 57.758683 
L 198.458078 55.783917 
L 198.903646 58.120989 
L 199.428265 62.387771 
L 199.882159 63.176184 
L 200.361119 71.102509 
L 201.356461 62.914514 
L 201.872356 56.279978 
L 202.908176 36.672231 
L 203.39121 38.263129 
L 203.944793 36.767093 
L 204.475391 34.852521 
L 205.008026 36.071473 
L 205.506295 35.311907 
L 206.008771 41.378461 
L 206.562354 36.433349 
L 207.047159 44.576329 
L 208.042191 51.596064 
L 208.567342 58.112373 
L 209.088729 52.840419 
L 209.537086 62.237945 
L 209.951698 65.746169 
L 210.475431 62.258118 
L 210.999697 66.594563 
L 212.039768 52.955007 
L 212.564742 59.983457 
L 213.596664 48.203323 
L 214.117741 44.638553 
L 214.607905 42.284816 
L 215.109806 43.098818 
L 215.625568 43.564968 
L 216.072508 53.567468 
L 216.594958 51.671753 
L 217.06072 59.841297 
L 217.54805 65.483938 
L 218.075371 57.289592 
L 218.602249 57.964277 
L 219.103485 53.786932 
L 219.595642 48.187259 
L 220.128145 44.683349 
L 220.643021 48.739997 
L 221.100502 44.667399 
L 221.611348 44.94449 
L 222.066127 50.577606 
L 222.605627 44.514194 
L 223.050309 56.352784 
L 223.526523 56.984296 
L 224.078467 53.333743 
L 224.613051 54.635489 
L 225.102064 43.561687 
L 225.647454 41.9825 
L 226.197007 41.957658 
L 226.707809 42.681174 
L 227.200719 43.049181 
L 227.717942 49.09264 
L 228.174006 57.566855 
L 228.675596 62.212705 
L 229.21793 63.446137 
L 229.686837 61.396097 
L 230.164469 63.850259 
L 230.681559 62.111557 
L 231.147366 73.786815 
L 231.660604 72.786117 
L 232.179244 57.927318 
L 232.653643 60.209751 
L 233.165729 46.091701 
L 234.062976 73.496104 
L 234.616559 68.354063 
L 235.130151 71.804025 
L 235.637986 58.283907 
L 236.141967 51.922898 
L 236.679873 57.210461 
L 237.722956 52.465435 
L 238.259134 52.683308 
L 238.785968 47.946347 
L 239.314839 45.3931 
L 239.767581 59.354104 
L 240.282103 61.575581 
L 240.77767 73.474234 
L 241.158136 88.091951 
L 241.572482 93.578676 
L 242.015171 111.758629 
L 242.545061 99.21214 
L 243.050814 90.65146 
L 243.533627 80.262071 
L 244.069849 60.222241 
L 244.585036 59.472737 
L 245.138353 54.056382 
L 245.670501 38.443303 
L 246.176697 37.185801 
L 246.686436 44.431116 
L 247.226202 46.759043 
L 247.670219 54.959643 
L 248.189657 58.794732 
L 248.68115 61.312872 
L 249.221137 58.849013 
L 249.731452 61.423075 
L 250.228968 60.165426 
L 250.741364 50.740621 
L 251.293397 53.848385 
L 251.821116 49.282795 
L 252.34857 45.983341 
L 252.855386 51.889609 
L 253.398074 53.392572 
L 253.853164 57.887476 
L 254.395586 53.582143 
L 254.935662 54.718308 
L 255.467854 43.802445 
L 255.919578 45.184777 
L 256.690962 69.99493 
L 257.098133 90.73207 
L 257.545783 91.107435 
L 258.011147 90.330043 
L 258.485013 83.055403 
L 258.962246 83.771237 
L 259.441206 78.227802 
L 259.95781 66.182604 
L 260.438187 63.719858 
L 260.94456 51.583257 
L 261.489374 47.231106 
L 262.022496 46.587193 
L 262.524264 43.232994 
L 263.010575 42.637036 
L 263.53608 48.088531 
L 264.991516 72.867596 
L 265.535754 66.321881 
L 266.047221 62.613635 
L 267.021969 51.303607 
L 267.575552 49.914876 
L 268.103537 49.855495 
L 268.643037 42.755393 
L 269.150473 44.022917 
L 269.68085 56.57181 
L 270.229561 52.260223 
L 270.783144 46.303361 
L 271.323529 42.426131 
L 271.323529 42.426131 
" style="fill:none;stroke:#ff7f0e;stroke-linecap:square;stroke-width:1.5;"/>
   </g>
   <g id="patch_3">
    <path d="M 99 192.24 
L 99 25.92 
" style="fill:none;stroke:#000000;stroke-linecap:square;stroke-linejoin:miter;stroke-width:0.8;"/>
   </g>
   <g id="patch_4">
    <path d="M 279.529412 192.24 
L 279.529412 25.92 
" style="fill:none;stroke:#000000;stroke-linecap:square;stroke-linejoin:miter;stroke-width:0.8;"/>
   </g>
   <g id="patch_5">
    <path d="M 99 192.24 
L 279.529412 192.24 
" style="fill:none;stroke:#000000;stroke-linecap:square;stroke-linejoin:miter;stroke-width:0.8;"/>
   </g>
   <g id="patch_6">
    <path d="M 99 25.92 
L 279.529412 25.92 
" style="fill:none;stroke:#000000;stroke-linecap:square;stroke-linejoin:miter;stroke-width:0.8;"/>
   </g>
   <g id="legend_1">
    <g id="patch_7">
     <path d="M 220.604101 187.24 
L 272.529412 187.24 
Q 274.529412 187.24 274.529412 185.24 
L 274.529412 158.365643 
Q 274.529412 156.365643 272.529412 156.365643 
L 220.604101 156.365643 
Q 218.604101 156.365643 218.604101 158.365643 
L 218.604101 185.24 
Q 218.604101 187.24 220.604101 187.24 
z
" style="fill:#ffffff;opacity:0.8;stroke:#cccccc;stroke-linejoin:miter;"/>
    </g>
    <g id="line2d_13">
     <path d="M 222.604101 163.865643 
L 242.604101 163.865643 
" style="fill:none;stroke:#1f77b4;stroke-linecap:square;stroke-width:1.5;"/>
    </g>
    <g id="line2d_14"/>
    <g id="text_13">
     <!-- SAC -->
     <defs>
      <path d="M 43.796875 67.03125 
C 43.796875 68.8125 43.703125 68.921875 43.09375 68.921875 
C 42.5 68.921875 42.296875 68.515625 41.90625 67.625 
L 38.90625 61.046875 
C 35.09375 66.515625 29.296875 69 23 69 
C 12.796875 69 4.59375 60.953125 4.59375 50.828125 
C 4.59375 47.75 5.296875 43.375 8.703125 39.21875 
C 12.40625 34.65625 15.90625 33.859375 23.90625 31.765625 
C 26.90625 30.96875 31.90625 29.671875 32.90625 29.28125 
C 38.59375 26.90625 41.59375 20.953125 41.59375 15.390625 
C 41.59375 8.234375 36.5 0.59375 27.796875 0.59375 
C 17.09375 0.59375 7.09375 6.546875 6.40625 20.484375 
C 6.296875 22.078125 6.203125 22.171875 5.5 22.171875 
C 4.703125 22.171875 4.59375 22.078125 4.59375 20.078125 
L 4.59375 -0.015625 
C 4.59375 -1.796875 4.703125 -1.90625 5.296875 -1.90625 
C 6 -1.90625 6.203125 -1.40625 7.59375 1.6875 
C 7.703125 1.984375 7.703125 2.1875 9.59375 5.953125 
C 14.59375 -0.609375 23 -2 27.796875 -2 
C 38.703125 -2 46.40625 7.046875 46.40625 17.5625 
C 46.40625 22.71875 44.5 26.6875 43.40625 28.484375 
C 39.203125 34.84375 34.703125 36.03125 29.90625 37.21875 
C 29.203125 37.53125 29 37.53125 23.40625 38.90625 
C 18 40.296875 15.703125 41 13.203125 43.6875 
C 10.40625 46.75 9.40625 49.9375 9.40625 53.109375 
C 9.40625 59.5625 14.59375 66.609375 23.09375 66.609375 
C 33.703125 66.609375 40.296875 59.15625 41.796875 46.765625 
C 42.09375 44.96875 42.203125 44.875 42.90625 44.875 
C 43.796875 44.875 43.796875 45.171875 43.796875 46.859375 
z
" id="CMR17-83"/>
      <path d="M 36.296875 68.40625 
C 35.796875 69.703125 35.59375 70 34.59375 70 
C 33.59375 70 33.40625 69.703125 32.90625 68.40625 
L 11.703125 8.84375 
C 9.796875 3.484375 5.796875 2.390625 2.296875 2.390625 
L 2.296875 -0.203125 
C 4.09375 0 8.09375 0 10 0 
C 12.5 0 16.5 0 18.90625 -0.203125 
L 18.90625 2.390625 
C 14.203125 2.390625 13.5 5.640625 13.5 6.859375 
C 13.5 7.765625 13.703125 8.28125 13.90625 8.890625 
L 19.203125 24 
L 45.40625 24 
L 51.40625 6.90625 
C 51.90625 5.703125 51.90625 5.5 51.90625 5.109375 
C 51.90625 2.390625 47.59375 2.390625 45.703125 2.390625 
L 45.703125 0 
C 48.59375 0 53.796875 0 56.90625 0 
C 59.5 0 64.5 0 66.90625 -0.203125 
L 66.90625 2.390625 
C 61.59375 2.390625 59.796875 2.390625 58.5 6.046875 
z
M 32.296875 60.828125 
L 44.5 26.59375 
L 20.09375 26.59375 
z
" id="CMR17-65"/>
      <path d="M 62.09375 67.015625 
C 62.09375 68.796875 62 68.90625 61.40625 68.90625 
C 61 68.90625 60.90625 68.796875 60.203125 67.609375 
L 55.796875 59.25 
C 50.90625 65.421875 44.90625 69 37.203125 69 
C 20.09375 69 4.59375 54 4.59375 33.5625 
C 4.59375 12.90625 20.09375 -2 37.296875 -2 
C 52.59375 -2 62.09375 11.40625 62.09375 22.828125 
C 62.09375 23.8125 62.09375 24.21875 61.203125 24.21875 
C 60.40625 24.21875 60.40625 23.921875 60.296875 23.03125 
C 59.5 9.140625 49.5 0.59375 38.703125 0.59375 
C 28.5 0.59375 12.203125 7.734375 12.203125 33.546875 
C 12.203125 59.453125 28.796875 66.40625 38.5 66.40625 
C 49.796875 66.40625 58 56.6875 59.90625 42.890625 
C 60.09375 41.6875 60.09375 41.484375 61 41.484375 
C 62.09375 41.484375 62.09375 41.6875 62.09375 43.484375 
z
" id="CMR17-67"/>
     </defs>
     <g transform="translate(250.604101 167.365643)scale(0.1 -0.1)">
      <use transform="scale(0.996264)" xlink:href="#CMR17-83"/>
      <use transform="translate(50.89537 0)scale(0.996264)" xlink:href="#CMR17-65"/>
      <use transform="translate(117.365346 0)scale(0.996264)" xlink:href="#CMR17-67"/>
     </g>
    </g>
    <g id="line2d_15">
     <path d="M 222.604101 177.802822 
L 242.604101 177.802822 
" style="fill:none;stroke:#ff7f0e;stroke-linecap:square;stroke-width:1.5;"/>
    </g>
    <g id="line2d_16"/>
    <g id="text_14">
     <!-- TD3 -->
     <defs>
      <path d="M 62.203125 67.59375 
L 4.5 67.59375 
L 2.796875 45.59375 
L 4.59375 45.59375 
C 5.90625 62.125 7.296875 65 22.703125 65 
C 24.5 65 27.40625 65 28.203125 64.90625 
C 30.09375 64.609375 30.09375 63.40625 30.09375 61.125 
L 30.09375 7.171875 
C 30.09375 3.59375 29.796875 2.5 21.5 2.5 
L 18.703125 2.5 
L 18.703125 0 
C 23.5 0 28.5 0 33.40625 0 
C 38.296875 0 43.296875 0 48.09375 0 
L 48.09375 2.5 
L 45.296875 2.5 
C 37 2.5 36.703125 3.59375 36.703125 7.171875 
L 36.703125 61.125 
C 36.703125 63.3125 36.703125 64.515625 38.5 64.90625 
C 39.296875 65 42.203125 65 44 65 
C 59.296875 65 60.796875 62.125 62.09375 45.59375 
L 63.90625 45.59375 
z
" id="CMR17-84"/>
      <path d="M 5.203125 68 
L 5.203125 65.40625 
C 12.09375 65.40625 13.203125 65.40625 13.203125 60.9375 
L 13.203125 7.0625 
C 13.203125 2.59375 12.09375 2.59375 5.203125 2.59375 
L 5.203125 0 
L 37 0 
C 53.09375 0 66 14.734375 66 33.453125 
C 66 52.28125 53.296875 68 37 68 
z
M 23.796875 2.59375 
C 19.796875 2.59375 19.59375 3.078125 19.59375 6.46875 
L 19.59375 61.53125 
C 19.59375 64.921875 19.796875 65.40625 23.796875 65.40625 
L 35 65.40625 
C 43.296875 65.40625 58.59375 60.53125 58.59375 33.453125 
C 58.59375 19.40625 54.5 13.734375 52.59375 11.046875 
C 50.203125 7.96875 44.5 2.59375 35 2.59375 
z
" id="CMR17-68"/>
     </defs>
     <g transform="translate(250.604101 181.302822)scale(0.1 -0.1)">
      <use transform="scale(0.996264)" xlink:href="#CMR17-84"/>
      <use transform="translate(66.509881 0)scale(0.996264)" xlink:href="#CMR17-68"/>
      <use transform="translate(136.903436 0)scale(0.996264)" xlink:href="#CMR17-51"/>
     </g>
    </g>
   </g>
  </g>
  <g id="axes_2">
   <g id="patch_8">
    <path d="M 315.635294 192.24 
L 496.164706 192.24 
L 496.164706 25.92 
L 315.635294 25.92 
z
" style="fill:#ffffff;"/>
   </g>
   <g id="matplotlib.axis_3">
    <g id="xtick_5">
     <g id="line2d_17">
      <g>
       <use style="stroke:#000000;stroke-width:0.8;" x="323.71868" xlink:href="#me3dd527854" y="192.24"/>
      </g>
     </g>
     <g id="text_15">
      <!-- $0$ -->
      <g transform="translate(321.228012 206.158498)scale(0.1 -0.1)">
       <use transform="scale(0.996264)" xlink:href="#CMR17-48"/>
      </g>
     </g>
    </g>
    <g id="xtick_6">
     <g id="line2d_18">
      <g>
       <use style="stroke:#000000;stroke-width:0.8;" x="368.005306" xlink:href="#me3dd527854" y="192.24"/>
      </g>
     </g>
     <g id="text_16">
      <!-- $10$ -->
      <g transform="translate(363.023971 206.158498)scale(0.1 -0.1)">
       <use transform="scale(0.996264)" xlink:href="#CMR17-49"/>
       <use transform="translate(45.690477 0)scale(0.996264)" xlink:href="#CMR17-48"/>
      </g>
     </g>
    </g>
    <g id="xtick_7">
     <g id="line2d_19">
      <g>
       <use style="stroke:#000000;stroke-width:0.8;" x="412.291933" xlink:href="#me3dd527854" y="192.24"/>
      </g>
     </g>
     <g id="text_17">
      <!-- $20$ -->
      <g transform="translate(407.310598 206.158498)scale(0.1 -0.1)">
       <use transform="scale(0.996264)" xlink:href="#CMR17-50"/>
       <use transform="translate(45.690477 0)scale(0.996264)" xlink:href="#CMR17-48"/>
      </g>
     </g>
    </g>
    <g id="xtick_8">
     <g id="line2d_20">
      <g>
       <use style="stroke:#000000;stroke-width:0.8;" x="456.57856" xlink:href="#me3dd527854" y="192.24"/>
      </g>
     </g>
     <g id="text_18">
      <!-- $30$ -->
      <g transform="translate(451.597225 206.158498)scale(0.1 -0.1)">
       <use transform="scale(0.996264)" xlink:href="#CMR17-51"/>
       <use transform="translate(45.690477 0)scale(0.996264)" xlink:href="#CMR17-48"/>
      </g>
     </g>
    </g>
    <g id="text_19">
     <!-- time steps $\times\ 10^5$ -->
     <g transform="translate(356.161744 223.449113)scale(0.14 -0.14)">
      <use transform="scale(0.996264)" xlink:href="#CMR17-116"/>
      <use transform="translate(35.280768 0)scale(0.996264)" xlink:href="#CMR17-105"/>
      <use transform="translate(60.151826 0)scale(0.996264)" xlink:href="#CMR17-109"/>
      <use transform="translate(137.071416 0)scale(0.996264)" xlink:href="#CMR17-101"/>
      <use transform="translate(207.633043 0)scale(0.996264)" xlink:href="#CMR17-115"/>
      <use transform="translate(243.434381 0)scale(0.996264)" xlink:href="#CMR17-116"/>
      <use transform="translate(278.715148 0)scale(0.996264)" xlink:href="#CMR17-101"/>
      <use transform="translate(319.200809 0)scale(0.996264)" xlink:href="#CMR17-112"/>
      <use transform="translate(370.096179 0)scale(0.996264)" xlink:href="#CMR17-115"/>
      <use transform="translate(435.973483 0)scale(0.996264)" xlink:href="#CMSY10-2"/>
      <use transform="translate(543.536917 0)scale(0.996264)" xlink:href="#CMR17-49"/>
      <use transform="translate(589.227394 0)scale(0.996264)" xlink:href="#CMR17-48"/>
      <use transform="translate(634.917871 36.153639)scale(0.697382)" xlink:href="#CMR17-53"/>
     </g>
    </g>
   </g>
   <g id="matplotlib.axis_4">
    <g id="ytick_7">
     <g id="line2d_21">
      <g>
       <use style="stroke:#000000;stroke-width:0.8;" x="315.635294" xlink:href="#md52f1a7a5e" y="192.24"/>
      </g>
     </g>
     <g id="text_20">
      <!-- $0$ -->
      <g transform="translate(303.653959 195.699249)scale(0.1 -0.1)">
       <use transform="scale(0.996264)" xlink:href="#CMR17-48"/>
      </g>
     </g>
    </g>
    <g id="ytick_8">
     <g id="line2d_22">
      <g>
       <use style="stroke:#000000;stroke-width:0.8;" x="315.635294" xlink:href="#md52f1a7a5e" y="171.45"/>
      </g>
     </g>
     <g id="text_21">
      <!-- $1$ -->
      <g transform="translate(303.653959 174.909249)scale(0.1 -0.1)">
       <use transform="scale(0.996264)" xlink:href="#CMR17-49"/>
      </g>
     </g>
    </g>
    <g id="ytick_9">
     <g id="line2d_23">
      <g>
       <use style="stroke:#000000;stroke-width:0.8;" x="315.635294" xlink:href="#md52f1a7a5e" y="150.66"/>
      </g>
     </g>
     <g id="text_22">
      <!-- $2$ -->
      <g transform="translate(303.653959 154.119249)scale(0.1 -0.1)">
       <use transform="scale(0.996264)" xlink:href="#CMR17-50"/>
      </g>
     </g>
    </g>
    <g id="ytick_10">
     <g id="line2d_24">
      <g>
       <use style="stroke:#000000;stroke-width:0.8;" x="315.635294" xlink:href="#md52f1a7a5e" y="129.87"/>
      </g>
     </g>
     <g id="text_23">
      <!-- $3$ -->
      <g transform="translate(303.653959 133.329249)scale(0.1 -0.1)">
       <use transform="scale(0.996264)" xlink:href="#CMR17-51"/>
      </g>
     </g>
    </g>
    <g id="ytick_11">
     <g id="line2d_25">
      <g>
       <use style="stroke:#000000;stroke-width:0.8;" x="315.635294" xlink:href="#md52f1a7a5e" y="109.08"/>
      </g>
     </g>
     <g id="text_24">
      <!-- $4$ -->
      <g transform="translate(303.653959 112.539249)scale(0.1 -0.1)">
       <use transform="scale(0.996264)" xlink:href="#CMR17-52"/>
      </g>
     </g>
    </g>
    <g id="ytick_12">
     <g id="line2d_26">
      <g>
       <use style="stroke:#000000;stroke-width:0.8;" x="315.635294" xlink:href="#md52f1a7a5e" y="88.29"/>
      </g>
     </g>
     <g id="text_25">
      <!-- $5$ -->
      <g transform="translate(303.653959 91.749249)scale(0.1 -0.1)">
       <use transform="scale(0.996264)" xlink:href="#CMR17-53"/>
      </g>
     </g>
    </g>
    <g id="ytick_13">
     <g id="line2d_27">
      <g>
       <use style="stroke:#000000;stroke-width:0.8;" x="315.635294" xlink:href="#md52f1a7a5e" y="67.5"/>
      </g>
     </g>
     <g id="text_26">
      <!-- $6$ -->
      <g transform="translate(303.653959 70.959249)scale(0.1 -0.1)">
       <use transform="scale(0.996264)" xlink:href="#CMR17-54"/>
      </g>
     </g>
    </g>
    <g id="ytick_14">
     <g id="line2d_28">
      <g>
       <use style="stroke:#000000;stroke-width:0.8;" x="315.635294" xlink:href="#md52f1a7a5e" y="46.71"/>
      </g>
     </g>
     <g id="text_27">
      <!-- $7$ -->
      <defs>
       <path d="M 45.09375 61.578125 
L 45.09375 63.765625 
L 21.59375 63.765625 
C 9.90625 63.765625 9.703125 65.078125 9.296875 67 
L 7.5 67 
L 4.59375 48.34375 
L 6.40625 48.34375 
C 6.703125 50.234375 7.40625 55.3125 8.59375 57.203125 
C 9.203125 58 16.59375 58 18.296875 58 
L 40.296875 58 
L 29.203125 41.578125 
C 21.796875 30.53125 16.703125 15.609375 16.703125 2.578125 
C 16.703125 1.390625 16.703125 -2 20.296875 -2 
C 23.90625 -2 23.90625 1.390625 23.90625 2.671875 
L 23.90625 7.265625 
C 23.90625 23.5625 26.703125 34.3125 31.296875 41.1875 
z
" id="CMR17-55"/>
      </defs>
      <g transform="translate(303.653959 50.169249)scale(0.1 -0.1)">
       <use transform="scale(0.996264)" xlink:href="#CMR17-55"/>
      </g>
     </g>
    </g>
    <g id="ytick_15">
     <g id="line2d_29">
      <g>
       <use style="stroke:#000000;stroke-width:0.8;" x="315.635294" xlink:href="#md52f1a7a5e" y="25.92"/>
      </g>
     </g>
     <g id="text_28">
      <!-- $8$ -->
      <g transform="translate(303.653959 29.379249)scale(0.1 -0.1)">
       <use transform="scale(0.996264)" xlink:href="#CMR17-56"/>
      </g>
     </g>
    </g>
    <g id="text_29">
     <!-- actor loss $\times\ 10^3$ -->
     <defs>
      <path d="M 36 25.828125 
C 36 32.375 36 35.84375 31.796875 39.734375 
C 28.09375 43 23.796875 44 20.40625 44 
C 12.5 44 6.796875 37.609375 6.796875 30.796875 
C 6.796875 27 9.796875 27 10.40625 27 
C 11.703125 27 14 27.78125 14 30.53125 
C 14 33 12.09375 34.078125 10.40625 34.078125 
C 10 34.078125 9.5 33.96875 9.203125 33.875 
C 11.296875 40.5 16.703125 42.40625 20.203125 42.40625 
C 25.203125 42.40625 30.703125 37.953125 30.703125 29.453125 
L 30.703125 25 
C 24.796875 25 17.703125 24.203125 12.09375 21.203125 
C 5.796875 17.703125 4 12.703125 4 8.90625 
C 4 1.203125 13 -1 18.296875 -1 
C 23.796875 -1 28.90625 2.171875 31.09375 7.984375 
C 31.296875 3.640625 34.09375 -0.28125 38.5 -0.28125 
C 40.59375 -0.28125 45.90625 1.09375 45.90625 8.859375 
L 45.90625 14.375 
L 44.09375 14.375 
L 44.09375 8.78125 
C 44.09375 2.78125 41.40625 2 40.09375 2 
C 36 2 36 7.15625 36 11.53125 
z
M 30.703125 13.59375 
C 30.703125 4.953125 24.5 0.59375 19 0.59375 
C 14 0.59375 10.09375 4.296875 10.09375 8.90625 
C 10.09375 11.890625 11.40625 17.1875 17.203125 20.390625 
C 22 23.09375 27.5 23.5 30.703125 23.5 
z
" id="CMR17-97"/>
      <path d="M 34.90625 35 
C 33 35 30.203125 35 30.203125 31.515625 
C 30.203125 28.71875 32.5 27.921875 33.796875 27.921875 
C 34.5 27.921875 37.40625 28.234375 37.40625 31.625 
C 37.40625 38.546875 30.59375 43.796875 22.90625 43.796875 
C 12.296875 43.796875 3.296875 34.03125 3.296875 21.296875 
C 3.296875 8.0625 12.703125 -1 22.90625 -1 
C 35.296875 -1 38.40625 10.578125 38.40625 11.6875 
C 38.40625 12.09375 38.296875 12.390625 37.59375 12.390625 
C 36.90625 12.390625 36.796875 12.296875 36.40625 10.984375 
C 33.796875 2.8125 28.09375 0.796875 23.796875 0.796875 
C 17.40625 0.796875 9.703125 6.671875 9.703125 21.390625 
C 9.703125 36.53125 17.09375 42 23 42 
C 26.90625 42 32.703125 40.203125 34.90625 35 
z
" id="CMR17-99"/>
      <path d="M 15.296875 68.6875 
L 3.40625 67.59375 
L 3.40625 65 
C 9.296875 65 10.203125 64.40625 10.203125 59.640625 
L 10.203125 6.65625 
C 10.203125 2.875 9.796875 2.390625 3.40625 2.390625 
L 3.40625 -0.203125 
C 5.796875 0 10.203125 0 12.703125 0 
C 15.296875 0 19.703125 0 22.09375 -0.203125 
L 22.09375 2.390625 
C 15.703125 2.390625 15.296875 2.78125 15.296875 6.65625 
z
" id="CMR17-108"/>
     </defs>
     <g transform="translate(296.94193 156.542093)rotate(-90)scale(0.14 -0.14)">
      <use transform="scale(0.996264)" xlink:href="#CMR17-97"/>
      <use transform="translate(45.690477 0)scale(0.996264)" xlink:href="#CMR17-99"/>
      <use transform="translate(86.176138 0)scale(0.996264)" xlink:href="#CMR17-116"/>
      <use transform="translate(121.456905 0)scale(0.996264)" xlink:href="#CMR17-111"/>
      <use transform="translate(167.147382 0)scale(0.996264)" xlink:href="#CMR17-114"/>
      <use transform="translate(232.504117 0)scale(0.996264)" xlink:href="#CMR17-108"/>
      <use transform="translate(257.375175 0)scale(0.996264)" xlink:href="#CMR17-111"/>
      <use transform="translate(303.065652 0)scale(0.996264)" xlink:href="#CMR17-115"/>
      <use transform="translate(338.86699 0)scale(0.996264)" xlink:href="#CMR17-115"/>
      <use transform="translate(404.744294 0)scale(0.996264)" xlink:href="#CMSY10-2"/>
      <use transform="translate(512.307728 0)scale(0.996264)" xlink:href="#CMR17-49"/>
      <use transform="translate(557.998205 0)scale(0.996264)" xlink:href="#CMR17-48"/>
      <use transform="translate(603.688682 36.153639)scale(0.697382)" xlink:href="#CMR17-51"/>
     </g>
    </g>
   </g>
   <g id="line2d_30">
    <path clip-path="url(#pef5fefb7b9)" d="M 324.212874 85.916996 
L 324.952281 -1 
M 324.999604 -1 
L 326.691641 40.660861 
L 328.188883 40.30267 
L 329.928063 45.788093 
L 331.616004 64.671301 
L 333.298364 80.340901 
L 335.134089 91.571632 
L 337.023578 97.42416 
L 338.911694 110.155817 
L 340.747552 123.795452 
L 342.60077 132.346132 
L 344.490259 137.222077 
L 346.437232 130.68145 
L 348.446693 142.068451 
L 350.491717 148.006372 
L 352.598299 142.151758 
L 354.711258 144.87635 
L 356.762083 150.512869 
L 358.802191 155.538009 
L 360.84624 150.259369 
L 362.964913 153.268239 
L 365.03704 158.333248 
L 367.101771 164.400901 
L 369.130674 177.179361 
L 371.198549 172.676081 
L 372.823559 177.547336 
L 373.259206 174.669955 
L 373.765845 173.685087 
L 374.272794 171.727475 
L 374.797369 174.117451 
L 375.317471 169.382466 
L 376.362414 174.362313 
L 376.831543 174.760589 
L 377.298235 176.690745 
L 377.720951 176.227667 
L 378.6957 169.22647 
L 379.119301 176.421102 
L 379.623194 177.339223 
L 380.127973 176.689103 
L 380.645595 174.868869 
L 381.111535 178.810325 
L 382.153112 170.626815 
L 383.189685 175.200887 
L 383.704606 179.19744 
L 384.225062 173.340181 
L 384.716466 172.360552 
L 385.206365 173.628879 
L 385.759948 171.460597 
L 386.313531 175.121074 
L 387.403602 177.861408 
L 387.937034 180.147565 
L 388.456605 175.592324 
L 388.991764 178.721971 
L 389.489458 178.521277 
L 390.01018 178.677375 
L 390.508626 178.51255 
L 391.061943 176.906167 
L 391.558573 178.827879 
L 392.104273 175.340462 
L 393.181014 178.063095 
L 393.690354 179.760465 
L 394.152928 177.510597 
L 394.599426 178.23323 
L 395.089457 178.419926 
L 395.622314 179.735797 
L 396.163851 178.258923 
L 396.65747 182.919027 
L 397.211052 182.698752 
L 397.724999 182.867864 
L 398.127786 182.015395 
L 398.663521 186.341694 
L 399.160195 182.308155 
L 399.704035 184.472422 
L 400.229629 182.766529 
L 400.722096 186.65434 
L 401.177451 182.80365 
L 401.592151 185.85712 
L 402.073813 184.788665 
L 402.596882 186.675296 
L 403.098605 187.126395 
L 403.608256 186.519339 
L 404.108739 188.051661 
L 404.641153 185.018111 
L 405.143053 189.527887 
L 405.693226 185.097928 
L 406.215897 182.013738 
L 406.748045 182.118439 
L 407.301627 181.204376 
L 407.833643 177.524482 
L 408.344445 179.221589 
L 408.888727 178.011238 
L 409.411797 174.289543 
L 409.943768 177.91399 
L 410.454968 177.878361 
L 410.979233 176.313132 
L 411.528387 177.074725 
L 412.050217 176.753347 
L 412.592019 177.87824 
L 413.124832 176.970131 
L 413.658574 173.316309 
L 415.252184 177.202903 
L 415.805767 174.473806 
L 416.316657 173.942612 
L 416.875599 174.589762 
L 417.407216 176.41267 
L 417.956636 179.694798 
L 418.489271 177.257574 
L 419.029656 177.988295 
L 419.534037 175.773612 
L 420.084298 176.227218 
L 420.637084 172.932874 
L 421.167195 178.965761 
L 421.714134 177.730623 
L 422.246415 177.826001 
L 422.79712 176.794723 
L 423.350702 174.556686 
L 423.886083 178.007578 
L 424.434175 176.060563 
L 424.953303 177.272482 
L 425.442891 173.760357 
L 425.974154 175.970993 
L 426.521226 172.796076 
L 427.052976 178.592845 
L 427.599163 178.181813 
L 428.13977 173.383358 
L 428.686577 176.893468 
L 429.220496 178.137903 
L 429.704992 174.994228 
L 430.245244 175.948649 
L 430.779563 178.041795 
L 431.299355 179.450449 
L 431.847047 175.733684 
L 432.345715 173.360685 
L 432.85696 175.421801 
L 433.409125 174.047932 
L 433.949378 175.014314 
L 434.461686 171.597398 
L 434.993214 177.214016 
L 435.531651 175.510999 
L 436.037492 174.575229 
L 436.54329 176.576961 
L 437.087971 176.659302 
L 437.619942 170.229803 
L 438.13876 175.993143 
L 438.62175 171.239958 
L 439.1938 177.062659 
L 439.747383 173.61333 
L 440.252871 174.84548 
L 440.805833 170.553363 
L 441.359416 169.232594 
L 441.864904 169.425708 
L 442.406042 173.641801 
L 442.933673 172.827888 
L 442.933673 172.827888 
" style="fill:none;stroke:#1f77b4;stroke-linecap:square;stroke-width:1.5;"/>
   </g>
   <g id="line2d_31">
    <path clip-path="url(#pef5fefb7b9)" d="M 323.841176 179.736477 
L 324.912027 46.954171 
L 325.24927 18.90039 
L 325.546291 -1 
M 338.074551 -1 
L 338.181452 0.52335 
L 339.710492 14.624472 
L 339.996584 14.937784 
L 340.301807 19.405644 
L 340.556145 19.610824 
L 340.844628 22.220507 
L 341.589706 25.776307 
L 341.842982 29.588329 
L 342.221544 31.658883 
L 343.279241 39.587486 
L 343.606697 41.016007 
L 343.882159 47.681567 
L 344.553235 47.317996 
L 345.005357 48.74473 
L 345.433564 54.301395 
L 345.929087 54.924639 
L 346.716238 57.183653 
L 347.633547 64.15082 
L 348.067157 60.891551 
L 348.562016 72.120831 
L 350.178566 81.364199 
L 350.623293 82.617721 
L 351.521027 87.400832 
L 352.473854 93.998002 
L 353.005869 96.30085 
L 353.466627 97.102036 
L 353.934426 97.059492 
L 354.436681 100.107643 
L 354.92689 99.665378 
L 355.310146 101.647737 
L 355.797078 98.737269 
L 356.264833 100.51585 
L 357.2406 98.760648 
L 357.715442 102.336985 
L 358.186297 103.548144 
L 358.702325 105.188077 
L 359.253782 106.076241 
L 359.722379 107.715397 
L 360.235262 108.82448 
L 360.744868 110.780146 
L 361.25722 114.087091 
L 361.674577 114.702665 
L 362.12825 117.341822 
L 363.082671 120.653284 
L 363.555209 121.157665 
L 364.044133 123.870314 
L 364.576547 123.294056 
L 365.10905 123.713084 
L 365.639648 126.587764 
L 366.134374 126.854074 
L 366.601465 128.344184 
L 367.110805 129.045658 
L 367.603051 129.944425 
L 368.573858 132.603108 
L 369.111985 134.196345 
L 369.588376 137.532272 
L 370.141959 139.779516 
L 370.646782 140.523718 
L 371.17955 139.884268 
L 371.665508 144.055769 
L 372.174361 144.69294 
L 372.70363 143.269241 
L 373.789007 146.041417 
L 374.324521 146.368799 
L 374.818405 147.988571 
L 375.301528 147.176487 
L 375.821985 147.102819 
L 376.321892 147.807212 
L 376.822951 147.137105 
L 377.254436 148.046297 
L 377.721837 145.907094 
L 378.167227 145.414053 
L 378.663016 145.05409 
L 379.12311 145.554893 
L 379.61385 146.536256 
L 381.118709 150.212193 
L 381.548777 151.945699 
L 382.465731 151.531081 
L 382.993761 151.272622 
L 383.885516 150.557758 
L 384.339189 150.009556 
L 384.796005 149.643386 
L 385.221688 148.152815 
L 385.734085 147.907025 
L 386.266897 148.611109 
L 386.713749 151.377778 
L 387.205242 151.087621 
L 387.735441 152.687667 
L 388.268431 153.728499 
L 389.279495 153.783784 
L 389.812484 153.229448 
L 390.344544 153.082974 
L 390.842547 152.779499 
L 391.352995 151.765839 
L 391.8816 152.706082 
L 392.349444 151.91879 
L 392.849041 152.195432 
L 393.165868 151.026855 
L 393.540931 151.227418 
L 394.001822 149.990769 
L 394.552083 151.272808 
L 395.022939 151.441267 
L 395.460446 152.105489 
L 396.428596 154.448472 
L 396.902109 154.714316 
L 397.407508 154.011619 
L 397.915653 153.655668 
L 398.417686 152.327301 
L 399.443143 151.897068 
L 399.966611 151.541542 
L 400.498537 151.554046 
L 400.983919 152.212545 
L 401.500921 151.617122 
L 401.940023 151.99377 
L 402.414421 149.396688 
L 402.908217 148.816974 
L 404.365203 150.691622 
L 404.897794 152.807309 
L 405.40988 154.32723 
L 405.931311 155.266076 
L 406.429978 156.49593 
L 406.954907 155.443043 
L 407.457782 155.470893 
L 409.009408 152.593036 
L 410.559219 147.67696 
L 411.078435 147.031693 
L 411.557395 145.61002 
L 412.057967 143.304192 
L 412.557963 142.25583 
L 413.101891 142.625173 
L 413.5828 142.105011 
L 414.08408 142.424663 
L 414.593022 141.825671 
L 415.093372 142.305592 
L 415.53894 142.942865 
L 416.063559 141.675 
L 416.517453 142.482815 
L 416.996413 142.824408 
L 417.991755 144.846799 
L 418.50765 146.336309 
L 418.997283 148.336809 
L 419.54347 149.229779 
L 420.026504 150.568394 
L 420.580087 151.597172 
L 421.110685 153.90293 
L 421.64332 155.556806 
L 422.141589 158.17359 
L 422.644065 159.975448 
L 423.197648 161.129288 
L 423.682454 161.427839 
L 424.677485 163.577493 
L 425.202636 164.262936 
L 425.724023 164.723237 
L 426.586992 165.04616 
L 427.110726 163.991588 
L 427.634991 164.031158 
L 428.135341 163.570978 
L 428.675062 162.515383 
L 429.200036 161.071082 
L 429.710838 161.40979 
L 430.231958 161.110426 
L 430.753035 161.169556 
L 431.7451 160.530106 
L 432.260862 160.021708 
L 432.707802 160.420093 
L 433.230252 159.858773 
L 433.696014 160.403516 
L 434.183344 159.974968 
L 434.710665 160.028006 
L 435.237543 159.943402 
L 435.738779 159.504414 
L 436.230936 159.303587 
L 437.735796 161.578912 
L 438.246642 161.117649 
L 438.701422 161.804585 
L 439.240921 161.764068 
L 441.248345 163.626306 
L 441.737358 162.835938 
L 442.282748 163.09024 
L 442.832301 163.874697 
L 443.343103 163.77131 
L 443.836013 163.875798 
L 444.353237 165.052306 
L 445.310891 165.551447 
L 445.853225 165.39809 
L 447.316853 167.515472 
L 447.78266 166.879398 
L 448.295898 166.9756 
L 448.814538 165.934623 
L 449.288937 165.699215 
L 449.801023 165.770703 
L 450.228035 166.559099 
L 451.251853 164.31147 
L 451.765445 164.369312 
L 453.315167 158.038767 
L 453.826899 157.636456 
L 454.35825 156.554257 
L 454.894428 156.312284 
L 455.421262 156.831031 
L 455.950133 156.904966 
L 456.402875 157.082902 
L 457.412964 156.703771 
L 457.793431 156.879613 
L 458.207776 157.630015 
L 458.650465 157.439078 
L 459.180355 157.928272 
L 459.686108 158.072348 
L 460.168921 158.630788 
L 461.773647 161.743151 
L 462.305795 161.955728 
L 463.32173 162.802568 
L 463.861496 162.856741 
L 464.305513 163.050502 
L 464.824951 163.078403 
L 465.316444 163.807607 
L 465.856431 164.162823 
L 466.366746 164.724453 
L 466.864262 164.90299 
L 467.376658 166.19567 
L 467.928691 167.043865 
L 468.45641 167.06635 
L 468.983864 167.741982 
L 469.49068 166.749404 
L 470.033368 166.491613 
L 470.488458 166.011661 
L 471.03088 166.703518 
L 471.570956 166.629783 
L 472.103148 166.882154 
L 472.554872 166.645698 
L 472.970856 165.88283 
L 473.326256 166.179826 
L 473.733428 164.909984 
L 474.181077 164.578971 
L 474.646441 163.73202 
L 475.120308 163.740316 
L 475.59754 162.748032 
L 476.0765 160.663205 
L 477.073481 160.753943 
L 477.579854 160.115823 
L 478.65779 156.029043 
L 479.159558 155.796823 
L 479.645869 153.755774 
L 480.171375 153.179856 
L 480.64874 152.400944 
L 481.62681 149.587899 
L 482.171049 149.703921 
L 482.682515 149.24191 
L 483.126754 149.496034 
L 483.657263 147.964101 
L 484.210846 147.828692 
L 484.738831 148.823349 
L 485.785767 149.916722 
L 486.316144 149.16078 
L 486.864855 150.510836 
L 487.958824 150.394113 
L 487.958824 150.394113 
" style="fill:none;stroke:#ff7f0e;stroke-linecap:square;stroke-width:1.5;"/>
   </g>
   <g id="patch_9">
    <path d="M 315.635294 192.24 
L 315.635294 25.92 
" style="fill:none;stroke:#000000;stroke-linecap:square;stroke-linejoin:miter;stroke-width:0.8;"/>
   </g>
   <g id="patch_10">
    <path d="M 496.164706 192.24 
L 496.164706 25.92 
" style="fill:none;stroke:#000000;stroke-linecap:square;stroke-linejoin:miter;stroke-width:0.8;"/>
   </g>
   <g id="patch_11">
    <path d="M 315.635294 192.24 
L 496.164706 192.24 
" style="fill:none;stroke:#000000;stroke-linecap:square;stroke-linejoin:miter;stroke-width:0.8;"/>
   </g>
   <g id="patch_12">
    <path d="M 315.635294 25.92 
L 496.164706 25.92 
" style="fill:none;stroke:#000000;stroke-linecap:square;stroke-linejoin:miter;stroke-width:0.8;"/>
   </g>
   <g id="legend_2">
    <g id="patch_13">
     <path d="M 437.239395 61.794357 
L 489.164706 61.794357 
Q 491.164706 61.794357 491.164706 59.794357 
L 491.164706 32.92 
Q 491.164706 30.92 489.164706 30.92 
L 437.239395 30.92 
Q 435.239395 30.92 435.239395 32.92 
L 435.239395 59.794357 
Q 435.239395 61.794357 437.239395 61.794357 
z
" style="fill:#ffffff;opacity:0.8;stroke:#cccccc;stroke-linejoin:miter;"/>
    </g>
    <g id="line2d_32">
     <path d="M 439.239395 38.42 
L 459.239395 38.42 
" style="fill:none;stroke:#1f77b4;stroke-linecap:square;stroke-width:1.5;"/>
    </g>
    <g id="line2d_33"/>
    <g id="text_30">
     <!-- SAC -->
     <g transform="translate(467.239395 41.92)scale(0.1 -0.1)">
      <use transform="scale(0.996264)" xlink:href="#CMR17-83"/>
      <use transform="translate(50.89537 0)scale(0.996264)" xlink:href="#CMR17-65"/>
      <use transform="translate(117.365346 0)scale(0.996264)" xlink:href="#CMR17-67"/>
     </g>
    </g>
    <g id="line2d_34">
     <path d="M 439.239395 52.357178 
L 459.239395 52.357178 
" style="fill:none;stroke:#ff7f0e;stroke-linecap:square;stroke-width:1.5;"/>
    </g>
    <g id="line2d_35"/>
    <g id="text_31">
     <!-- TD3 -->
     <g transform="translate(467.239395 55.857178)scale(0.1 -0.1)">
      <use transform="scale(0.996264)" xlink:href="#CMR17-84"/>
      <use transform="translate(66.509881 0)scale(0.996264)" xlink:href="#CMR17-68"/>
      <use transform="translate(136.903436 0)scale(0.996264)" xlink:href="#CMR17-51"/>
     </g>
    </g>
   </g>
  </g>
  <g id="axes_3">
   <g id="patch_14">
    <path d="M 532.270588 192.24 
L 712.8 192.24 
L 712.8 25.92 
L 532.270588 25.92 
z
" style="fill:#ffffff;"/>
   </g>
   <g id="matplotlib.axis_5">
    <g id="xtick_9">
     <g id="line2d_36">
      <g>
       <use style="stroke:#000000;stroke-width:0.8;" x="540.353974" xlink:href="#me3dd527854" y="192.24"/>
      </g>
     </g>
     <g id="text_32">
      <!-- $0$ -->
      <g transform="translate(537.863306 206.158498)scale(0.1 -0.1)">
       <use transform="scale(0.996264)" xlink:href="#CMR17-48"/>
      </g>
     </g>
    </g>
    <g id="xtick_10">
     <g id="line2d_37">
      <g>
       <use style="stroke:#000000;stroke-width:0.8;" x="584.640601" xlink:href="#me3dd527854" y="192.24"/>
      </g>
     </g>
     <g id="text_33">
      <!-- $10$ -->
      <g transform="translate(579.659265 206.158498)scale(0.1 -0.1)">
       <use transform="scale(0.996264)" xlink:href="#CMR17-49"/>
       <use transform="translate(45.690477 0)scale(0.996264)" xlink:href="#CMR17-48"/>
      </g>
     </g>
    </g>
    <g id="xtick_11">
     <g id="line2d_38">
      <g>
       <use style="stroke:#000000;stroke-width:0.8;" x="628.927227" xlink:href="#me3dd527854" y="192.24"/>
      </g>
     </g>
     <g id="text_34">
      <!-- $20$ -->
      <g transform="translate(623.945892 206.158498)scale(0.1 -0.1)">
       <use transform="scale(0.996264)" xlink:href="#CMR17-50"/>
       <use transform="translate(45.690477 0)scale(0.996264)" xlink:href="#CMR17-48"/>
      </g>
     </g>
    </g>
    <g id="xtick_12">
     <g id="line2d_39">
      <g>
       <use style="stroke:#000000;stroke-width:0.8;" x="673.213854" xlink:href="#me3dd527854" y="192.24"/>
      </g>
     </g>
     <g id="text_35">
      <!-- $30$ -->
      <g transform="translate(668.232519 206.158498)scale(0.1 -0.1)">
       <use transform="scale(0.996264)" xlink:href="#CMR17-51"/>
       <use transform="translate(45.690477 0)scale(0.996264)" xlink:href="#CMR17-48"/>
      </g>
     </g>
    </g>
    <g id="text_36">
     <!-- time steps $\times\ 10^5$ -->
     <g transform="translate(572.797038 223.449113)scale(0.14 -0.14)">
      <use transform="scale(0.996264)" xlink:href="#CMR17-116"/>
      <use transform="translate(35.280768 0)scale(0.996264)" xlink:href="#CMR17-105"/>
      <use transform="translate(60.151826 0)scale(0.996264)" xlink:href="#CMR17-109"/>
      <use transform="translate(137.071416 0)scale(0.996264)" xlink:href="#CMR17-101"/>
      <use transform="translate(207.633043 0)scale(0.996264)" xlink:href="#CMR17-115"/>
      <use transform="translate(243.434381 0)scale(0.996264)" xlink:href="#CMR17-116"/>
      <use transform="translate(278.715148 0)scale(0.996264)" xlink:href="#CMR17-101"/>
      <use transform="translate(319.200809 0)scale(0.996264)" xlink:href="#CMR17-112"/>
      <use transform="translate(370.096179 0)scale(0.996264)" xlink:href="#CMR17-115"/>
      <use transform="translate(435.973483 0)scale(0.996264)" xlink:href="#CMSY10-2"/>
      <use transform="translate(543.536917 0)scale(0.996264)" xlink:href="#CMR17-49"/>
      <use transform="translate(589.227394 0)scale(0.996264)" xlink:href="#CMR17-48"/>
      <use transform="translate(634.917871 36.153639)scale(0.697382)" xlink:href="#CMR17-53"/>
     </g>
    </g>
   </g>
   <g id="matplotlib.axis_6">
    <g id="ytick_16">
     <g id="line2d_40">
      <g>
       <use style="stroke:#000000;stroke-width:0.8;" x="532.270588" xlink:href="#md52f1a7a5e" y="185.843077"/>
      </g>
     </g>
     <g id="text_37">
      <!-- $0$ -->
      <g transform="translate(520.289253 189.302326)scale(0.1 -0.1)">
       <use transform="scale(0.996264)" xlink:href="#CMR17-48"/>
      </g>
     </g>
    </g>
    <g id="ytick_17">
     <g id="line2d_41">
      <g>
       <use style="stroke:#000000;stroke-width:0.8;" x="532.270588" xlink:href="#md52f1a7a5e" y="153.858462"/>
      </g>
     </g>
     <g id="text_38">
      <!-- $5$ -->
      <g transform="translate(520.289253 157.317711)scale(0.1 -0.1)">
       <use transform="scale(0.996264)" xlink:href="#CMR17-53"/>
      </g>
     </g>
    </g>
    <g id="ytick_18">
     <g id="line2d_42">
      <g>
       <use style="stroke:#000000;stroke-width:0.8;" x="532.270588" xlink:href="#md52f1a7a5e" y="121.873846"/>
      </g>
     </g>
     <g id="text_39">
      <!-- $10$ -->
      <g transform="translate(515.307918 125.333095)scale(0.1 -0.1)">
       <use transform="scale(0.996264)" xlink:href="#CMR17-49"/>
       <use transform="translate(45.690477 0)scale(0.996264)" xlink:href="#CMR17-48"/>
      </g>
     </g>
    </g>
    <g id="ytick_19">
     <g id="line2d_43">
      <g>
       <use style="stroke:#000000;stroke-width:0.8;" x="532.270588" xlink:href="#md52f1a7a5e" y="89.889231"/>
      </g>
     </g>
     <g id="text_40">
      <!-- $15$ -->
      <g transform="translate(515.307918 93.34848)scale(0.1 -0.1)">
       <use transform="scale(0.996264)" xlink:href="#CMR17-49"/>
       <use transform="translate(45.690477 0)scale(0.996264)" xlink:href="#CMR17-53"/>
      </g>
     </g>
    </g>
    <g id="ytick_20">
     <g id="line2d_44">
      <g>
       <use style="stroke:#000000;stroke-width:0.8;" x="532.270588" xlink:href="#md52f1a7a5e" y="57.904615"/>
      </g>
     </g>
     <g id="text_41">
      <!-- $20$ -->
      <g transform="translate(515.307918 61.363865)scale(0.1 -0.1)">
       <use transform="scale(0.996264)" xlink:href="#CMR17-50"/>
       <use transform="translate(45.690477 0)scale(0.996264)" xlink:href="#CMR17-48"/>
      </g>
     </g>
    </g>
    <g id="ytick_21">
     <g id="line2d_45">
      <g>
       <use style="stroke:#000000;stroke-width:0.8;" x="532.270588" xlink:href="#md52f1a7a5e" y="25.92"/>
      </g>
     </g>
     <g id="text_42">
      <!-- $25$ -->
      <g transform="translate(515.307918 29.379249)scale(0.1 -0.1)">
       <use transform="scale(0.996264)" xlink:href="#CMR17-50"/>
       <use transform="translate(45.690477 0)scale(0.996264)" xlink:href="#CMR17-53"/>
      </g>
     </g>
    </g>
    <g id="text_43">
     <!-- critic loss $\times\ 10^4$ -->
     <g transform="translate(508.595889 156.542093)rotate(-90)scale(0.14 -0.14)">
      <use transform="scale(0.996264)" xlink:href="#CMR17-99"/>
      <use transform="translate(40.48566 0)scale(0.996264)" xlink:href="#CMR17-114"/>
      <use transform="translate(75.766428 0)scale(0.996264)" xlink:href="#CMR17-105"/>
      <use transform="translate(100.637487 0)scale(0.996264)" xlink:href="#CMR17-116"/>
      <use transform="translate(135.918255 0)scale(0.996264)" xlink:href="#CMR17-105"/>
      <use transform="translate(160.789313 0)scale(0.996264)" xlink:href="#CMR17-99"/>
      <use transform="translate(231.35094 0)scale(0.996264)" xlink:href="#CMR17-108"/>
      <use transform="translate(256.221998 0)scale(0.996264)" xlink:href="#CMR17-111"/>
      <use transform="translate(301.912475 0)scale(0.996264)" xlink:href="#CMR17-115"/>
      <use transform="translate(337.713813 0)scale(0.996264)" xlink:href="#CMR17-115"/>
      <use transform="translate(403.591117 0)scale(0.996264)" xlink:href="#CMSY10-2"/>
      <use transform="translate(511.154551 0)scale(0.996264)" xlink:href="#CMR17-49"/>
      <use transform="translate(556.845028 0)scale(0.996264)" xlink:href="#CMR17-48"/>
      <use transform="translate(602.535505 36.153639)scale(0.697382)" xlink:href="#CMR17-52"/>
     </g>
    </g>
   </g>
   <g id="line2d_46">
    <path clip-path="url(#p33dda49909)" d="M 540.848168 105.919535 
L 541.595771 177.448568 
L 543.326935 178.008824 
L 544.824177 180.32635 
L 546.563357 181.346386 
L 548.251298 177.895291 
L 549.933658 172.485741 
L 551.769383 182.87288 
L 553.658872 179.248224 
L 555.546988 181.592854 
L 557.382846 181.798811 
L 559.236064 178.685577 
L 561.125553 182.005548 
L 563.072526 182.95797 
L 565.081988 179.299596 
L 567.127011 182.222004 
L 569.233593 182.397334 
L 571.346552 182.268086 
L 573.397377 183.731131 
L 575.437485 184.710625 
L 577.481534 170.568676 
L 579.600207 181.467016 
L 581.672334 178.461981 
L 583.737065 184.970816 
L 585.765968 175.478668 
L 587.833843 184.837558 
L 589.458853 176.313324 
L 589.8945 184.711156 
L 590.401139 185.081541 
L 590.908088 185.238082 
L 591.432663 181.156423 
L 591.952765 185.356539 
L 592.458607 185.171327 
L 592.997708 184.787294 
L 593.466837 185.5277 
L 593.933529 185.514342 
L 594.356245 184.800794 
L 594.818022 182.934712 
L 595.330994 184.833164 
L 595.754595 184.593332 
L 596.165746 -1 
M 596.351475 -1 
L 596.763267 184.394425 
L 597.28089 184.079119 
L 597.746829 185.354016 
L 598.25524 179.869844 
L 599.277065 184.87161 
L 599.824979 181.681959 
L 600.3399 180.72632 
L 600.860356 184.660364 
L 601.351761 183.763221 
L 601.841659 184.233316 
L 602.395242 185.03598 
L 602.948825 181.233109 
L 603.492177 185.503538 
L 604.038896 184.466544 
L 604.572328 174.635067 
L 605.091899 185.4098 
L 605.627059 184.794396 
L 606.124752 89.721871 
L 606.645474 183.321761 
L 607.14392 176.963944 
L 607.697237 182.606719 
L 608.190664 -1 
M 608.197378 -1 
L 608.739567 183.096299 
L 609.29315 155.028054 
L 609.816308 178.28766 
L 610.325648 167.342401 
L 610.788222 185.421436 
L 611.23472 180.501609 
L 611.724751 185.310579 
L 612.257608 185.509248 
L 612.799145 184.632154 
L 613.292764 185.397806 
L 613.846347 185.672534 
L 614.360293 185.515765 
L 614.76308 184.648303 
L 615.298815 181.738822 
L 615.79549 184.174818 
L 616.339329 185.300078 
L 616.864923 184.847541 
L 617.35739 184.904531 
L 617.812745 184.373598 
L 618.227445 183.314708 
L 618.709107 184.560445 
L 619.232176 183.457935 
L 619.733899 185.116334 
L 620.24355 183.246774 
L 620.744033 185.238522 
L 621.276447 185.53568 
L 622.32852 184.043675 
L 622.851191 184.30963 
L 623.383339 185.423118 
L 623.936922 175.279499 
L 624.468937 183.718648 
L 624.979739 185.367516 
L 625.524021 185.407831 
L 626.047091 182.588049 
L 626.579062 183.40297 
L 627.090262 185.521508 
L 627.614527 183.650229 
L 628.163682 185.442432 
L 628.685511 184.228974 
L 629.227313 185.487037 
L 629.760126 184.889872 
L 630.293868 170.655277 
L 630.815033 185.419666 
L 631.355197 184.484784 
L 631.887478 185.144276 
L 632.441061 180.034745 
L 632.951952 185.370677 
L 633.510893 181.90422 
L 634.04251 185.55622 
L 634.59193 32.487401 
L 634.853598 -1 
M 635.210121 -1 
L 635.66495 183.350142 
L 636.169331 183.090872 
L 636.719592 184.514693 
L 637.272378 183.589908 
L 637.802489 17.900537 
L 638.349429 183.24234 
L 638.881709 183.579248 
L 639.432414 185.149834 
L 639.985997 185.479937 
L 640.521378 184.833927 
L 641.069469 183.160341 
L 641.588597 184.971316 
L 642.078185 183.423918 
L 642.609448 185.060054 
L 643.15652 185.484407 
L 643.68827 185.570142 
L 644.234457 182.255995 
L 644.775064 185.236042 
L 645.321871 185.601739 
L 645.85579 184.753671 
L 646.340286 184.448206 
L 646.880539 185.478055 
L 647.414857 185.28002 
L 647.934649 183.862341 
L 648.482342 185.475717 
L 648.981009 184.728964 
L 649.492254 181.628751 
L 650.044419 182.692467 
L 650.584672 185.289435 
L 651.09698 184.529699 
L 651.628508 185.224445 
L 652.166945 185.659838 
L 652.672786 176.474901 
L 653.178584 185.482722 
L 653.723265 181.799622 
L 654.255236 184.721121 
L 654.774054 184.934084 
L 655.829094 181.831283 
L 656.382677 185.195457 
L 656.888165 185.011642 
L 657.441128 182.451726 
L 659.041336 185.297501 
L 659.568967 185.571194 
L 659.568967 185.571194 
" style="fill:none;stroke:#1f77b4;stroke-linecap:square;stroke-width:1.5;"/>
   </g>
   <g id="line2d_47">
    <path clip-path="url(#p33dda49909)" d="M 540.520317 -1 
L 540.593122 102.034504 
L 540.701225 71.967471 
L 541.098255 145.947617 
L 541.23262 132.943367 
L 541.388598 147.249288 
L 541.547321 144.576481 
L 541.704362 156.064748 
L 541.884564 150.707095 
L 542.051613 153.737005 
L 542.225615 150.911726 
L 542.64873 137.753958 
L 542.843989 124.851679 
L 543.093456 132.974017 
L 543.470247 134.186824 
L 543.869535 132.350712 
L 544.291542 113.484297 
L 544.632283 66.964088 
L 545.308053 136.874671 
L 545.626031 105.574471 
L 545.937587 95.488188 
L 546.293918 69.103019 
L 546.622923 90.109415 
L 546.901442 78.757265 
L 547.177214 88.904434 
L 547.772471 33.240769 
L 548.067154 71.037718 
L 548.387081 81.143577 
L 548.605945 72.19877 
L 548.82884 43.190913 
L 549.286852 146.992569 
L 549.421306 53.431537 
L 549.667717 98.87245 
L 549.832685 101.469131 
L 550.108812 98.240514 
L 550.743572 28.257666 
L 550.961905 62.506432 
L 551.207607 31.558208 
L 551.452955 133.885219 
L 551.583601 34.369796 
L 551.860747 126.985392 
L 551.992234 22.437555 
L 552.212338 49.312338 
L 552.494577 98.210858 
L 552.716408 21.329078 
L 552.891606 33.376194 
L 553.250372 97.85377 
L 553.512062 95.601713 
L 553.826719 86.176077 
L 554.024768 92.499325 
L 554.29815 78.877397 
L 554.521044 55.611358 
L 554.816746 9.304312 
L 555.13127 88.576772 
L 555.406024 91.316774 
L 556.095522 115.73251 
L 556.345786 73.539345 
L 556.631878 110.476443 
L 556.937101 165.869964 
L 557.191439 104.031898 
L 557.479922 105.845181 
L 557.892895 110.827105 
L 558.225001 118.001649 
L 558.478276 143.482048 
L 558.856838 133.443551 
L 559.590756 95.54671 
L 559.914535 106.684582 
L 560.241991 82.380353 
L 560.517453 173.190903 
L 560.899736 105.376721 
L 561.188529 160.106151 
L 561.640651 90.465664 
L 562.068858 128.23859 
L 562.564381 139.830154 
L 562.929525 125.143658 
L 563.351532 132.02117 
L 563.785009 144.791975 
L 564.268841 139.747714 
L 564.702451 173.106521 
L 565.19731 138.82092 
L 565.573923 132.964901 
L 565.906782 148.343722 
L 566.350844 143.255072 
L 566.81386 163.479561 
L 567.258587 129.343708 
L 567.687148 150.545235 
L 568.156321 147.76508 
L 568.683775 157.280423 
L 569.109148 159.65135 
L 569.641163 146.957318 
L 570.101921 153.153656 
L 570.569721 156.566267 
L 571.071975 148.356166 
L 571.562184 155.974744 
L 571.94544 158.305015 
L 572.432372 157.704207 
L 572.900127 159.955336 
L 573.389362 154.086155 
L 573.875894 153.801282 
L 574.350736 159.319352 
L 574.821591 154.204608 
L 575.337619 159.217794 
L 575.889076 145.63961 
L 576.357673 149.176189 
L 576.870556 148.608814 
L 577.380162 157.291753 
L 577.892514 153.61784 
L 578.309872 159.944819 
L 578.763544 154.798522 
L 579.275409 155.641824 
L 579.717965 157.819176 
L 580.190503 155.048074 
L 580.679427 153.732275 
L 581.211841 153.56628 
L 581.744344 151.042349 
L 582.274942 157.350869 
L 582.769668 161.224551 
L 583.236759 159.413385 
L 583.746099 156.089973 
L 584.238345 161.386131 
L 584.755701 160.326973 
L 585.209152 157.751604 
L 585.747279 163.790732 
L 586.22367 162.060132 
L 586.777253 163.137763 
L 587.282076 148.982789 
L 587.814844 164.690601 
L 588.300802 129.948062 
L 588.809655 178.3731 
L 589.338924 163.679553 
L 589.892507 162.166903 
L 590.424301 162.535628 
L 590.959815 166.214886 
L 591.453699 155.416764 
L 591.936822 157.450581 
L 592.457279 145.51976 
L 592.957186 157.550811 
L 593.458245 154.42763 
L 593.88973 162.073508 
L 594.802521 171.441961 
L 595.29831 159.313308 
L 595.758404 167.239584 
L 596.249144 165.179655 
L 596.747147 171.358415 
L 597.257506 168.95835 
L 597.754004 162.545331 
L 598.184071 161.230618 
L 598.643545 170.562168 
L 599.101026 160.259655 
L 599.629055 169.274224 
L 600.078077 165.871616 
L 600.520811 177.67242 
L 600.974483 164.347489 
L 601.431299 170.877866 
L 601.856982 167.996134 
L 602.369379 168.31661 
L 602.902191 164.171668 
L 603.349043 180.798474 
L 603.840536 166.464778 
L 604.370736 160.638141 
L 604.903725 163.422156 
L 605.361206 169.899812 
L 605.914789 170.44473 
L 606.447778 167.824254 
L 606.979838 172.595149 
L 607.477841 169.381446 
L 607.988289 178.450134 
L 608.516894 165.395264 
L 608.984738 174.847614 
L 609.484335 170.024621 
L 609.801162 173.045608 
L 610.176225 160.666942 
L 610.637116 171.809427 
L 611.187377 171.01557 
L 612.09574 164.78636 
L 612.603885 169.707663 
L 613.06389 166.464437 
L 613.537403 167.011185 
L 614.042802 160.745436 
L 614.550947 167.051263 
L 615.05298 171.396764 
L 615.565243 174.663855 
L 616.078437 163.653513 
L 616.601905 166.179115 
L 617.133831 174.505876 
L 617.619213 171.03088 
L 618.136215 164.346499 
L 618.575317 181.139447 
L 619.049715 172.799296 
L 619.543511 168.565702 
L 620.498021 172.185689 
L 621.000497 181.825738 
L 621.533088 173.044782 
L 622.045174 170.988231 
L 622.566605 167.672837 
L 623.065272 168.733668 
L 623.590202 179.906402 
L 624.093076 176.463079 
L 624.594711 171.929289 
L 625.09112 165.537791 
L 625.644702 172.752618 
L 626.198285 169.104754 
L 626.64093 175.070376 
L 627.194513 174.780722 
L 627.713729 171.336011 
L 628.192689 170.438417 
L 628.693261 166.850436 
L 629.193257 165.790708 
L 629.737185 161.714985 
L 630.218094 169.228762 
L 630.719374 169.837474 
L 631.228316 170.004342 
L 631.728666 168.572382 
L 632.174234 163.705063 
L 633.152747 172.363283 
L 633.631707 166.308359 
L 634.094281 167.176011 
L 635.142944 170.190125 
L 635.632577 168.512557 
L 636.178764 170.162784 
L 636.661798 164.688305 
L 637.215381 175.902746 
L 637.745979 178.568319 
L 638.278614 170.685309 
L 638.776883 175.93101 
L 639.279359 161.792083 
L 639.832942 172.773485 
L 640.317748 169.206234 
L 640.802509 167.448972 
L 641.31278 173.813216 
L 641.83793 172.364353 
L 642.359317 172.197066 
L 642.807675 170.277295 
L 643.222286 163.611828 
L 643.74602 163.720258 
L 644.270285 173.390885 
L 644.770635 175.343568 
L 645.310356 160.00475 
L 645.83533 168.591464 
L 646.346132 165.324415 
L 646.867253 169.193176 
L 647.388329 144.389756 
L 647.878493 174.434549 
L 648.380394 84.15276 
L 648.896156 173.671223 
L 649.343096 170.921188 
L 649.865546 162.272597 
L 650.331308 169.671657 
L 650.818638 164.601996 
L 651.345959 167.690054 
L 651.872837 169.713684 
L 652.374073 163.928438 
L 652.86623 166.589623 
L 653.398733 170.482628 
L 654.37109 172.712152 
L 654.881936 163.264617 
L 655.336716 170.688717 
L 655.876215 168.825305 
L 656.320897 148.353429 
L 656.797111 162.581483 
L 657.349056 166.827165 
L 657.88364 163.319093 
L 658.372652 177.692167 
L 658.918042 173.856126 
L 659.467595 176.40014 
L 659.978397 160.918046 
L 660.471307 182.919806 
L 660.988531 161.320495 
L 661.444594 170.212183 
L 661.946185 176.771597 
L 662.488519 177.435102 
L 662.957426 168.597972 
L 663.952147 166.596131 
L 664.417954 149.073433 
L 664.931192 164.258449 
L 665.449833 165.877919 
L 665.924231 170.204289 
L 666.863329 150.368785 
L 667.333564 160.803458 
L 667.887147 162.178759 
L 668.400739 165.174512 
L 668.908574 170.733862 
L 669.412556 166.99278 
L 669.950461 166.755072 
L 670.462193 160.250187 
L 670.993544 158.704146 
L 671.529722 161.316939 
L 672.056556 154.013574 
L 672.585427 163.770176 
L 673.038169 156.896018 
L 673.552691 155.765239 
L 674.048258 169.782773 
L 674.428725 160.953879 
L 674.84307 165.199874 
L 675.28576 156.194583 
L 675.815649 163.167891 
L 676.321402 150.371214 
L 676.804215 165.791495 
L 677.340438 155.2807 
L 677.855624 161.800979 
L 678.408941 160.765604 
L 678.941089 158.425025 
L 679.447285 163.750771 
L 679.957024 152.298225 
L 680.49679 150.418494 
L 680.940807 151.810796 
L 681.460245 150.052497 
L 681.951738 166.142714 
L 682.491725 170.194889 
L 683.00204 166.401667 
L 683.499556 156.18394 
L 684.011952 163.895866 
L 684.563985 160.200036 
L 685.091704 160.454814 
L 685.619158 163.070293 
L 686.125974 161.539472 
L 686.668663 162.174756 
L 687.123752 148.19017 
L 687.666175 169.344809 
L 688.20625 167.078053 
L 688.738442 167.075014 
L 689.60615 158.246673 
L 689.96155 163.212347 
L 690.368722 151.935834 
L 690.816371 155.433971 
L 691.281735 172.136921 
L 691.755602 167.204009 
L 692.232834 154.904331 
L 692.711794 160.926112 
L 693.228398 169.478561 
L 693.708775 161.681709 
L 694.215148 163.754102 
L 694.759962 160.038374 
L 695.293085 167.330855 
L 695.794852 161.699028 
L 696.281164 166.278977 
L 696.806669 165.795476 
L 697.284034 173.223632 
L 697.766758 164.707835 
L 698.262104 167.258464 
L 699.317809 159.105333 
L 699.762048 164.086889 
L 700.292558 165.272525 
L 700.84614 165.100282 
L 701.374126 161.451774 
L 701.913625 165.708179 
L 702.421061 166.561037 
L 702.951438 158.290442 
L 703.500149 158.968361 
L 704.053732 162.822615 
L 704.594118 164.681653 
L 704.594118 164.681653 
" style="fill:none;stroke:#ff7f0e;stroke-linecap:square;stroke-width:1.5;"/>
   </g>
   <g id="patch_15">
    <path d="M 532.270588 192.24 
L 532.270588 25.92 
" style="fill:none;stroke:#000000;stroke-linecap:square;stroke-linejoin:miter;stroke-width:0.8;"/>
   </g>
   <g id="patch_16">
    <path d="M 712.8 192.24 
L 712.8 25.92 
" style="fill:none;stroke:#000000;stroke-linecap:square;stroke-linejoin:miter;stroke-width:0.8;"/>
   </g>
   <g id="patch_17">
    <path d="M 532.270588 192.24 
L 712.8 192.24 
" style="fill:none;stroke:#000000;stroke-linecap:square;stroke-linejoin:miter;stroke-width:0.8;"/>
   </g>
   <g id="patch_18">
    <path d="M 532.270588 25.92 
L 712.8 25.92 
" style="fill:none;stroke:#000000;stroke-linecap:square;stroke-linejoin:miter;stroke-width:0.8;"/>
   </g>
   <g id="legend_3">
    <g id="patch_19">
     <path d="M 653.874689 61.794357 
L 705.8 61.794357 
Q 707.8 61.794357 707.8 59.794357 
L 707.8 32.92 
Q 707.8 30.92 705.8 30.92 
L 653.874689 30.92 
Q 651.874689 30.92 651.874689 32.92 
L 651.874689 59.794357 
Q 651.874689 61.794357 653.874689 61.794357 
z
" style="fill:#ffffff;opacity:0.8;stroke:#cccccc;stroke-linejoin:miter;"/>
    </g>
    <g id="line2d_48">
     <path d="M 655.874689 38.42 
L 675.874689 38.42 
" style="fill:none;stroke:#1f77b4;stroke-linecap:square;stroke-width:1.5;"/>
    </g>
    <g id="line2d_49"/>
    <g id="text_44">
     <!-- SAC -->
     <g transform="translate(683.874689 41.92)scale(0.1 -0.1)">
      <use transform="scale(0.996264)" xlink:href="#CMR17-83"/>
      <use transform="translate(50.89537 0)scale(0.996264)" xlink:href="#CMR17-65"/>
      <use transform="translate(117.365346 0)scale(0.996264)" xlink:href="#CMR17-67"/>
     </g>
    </g>
    <g id="line2d_50">
     <path d="M 655.874689 52.357178 
L 675.874689 52.357178 
" style="fill:none;stroke:#ff7f0e;stroke-linecap:square;stroke-width:1.5;"/>
    </g>
    <g id="line2d_51"/>
    <g id="text_45">
     <!-- TD3 -->
     <g transform="translate(683.874689 55.857178)scale(0.1 -0.1)">
      <use transform="scale(0.996264)" xlink:href="#CMR17-84"/>
      <use transform="translate(66.509881 0)scale(0.996264)" xlink:href="#CMR17-68"/>
      <use transform="translate(136.903436 0)scale(0.996264)" xlink:href="#CMR17-51"/>
     </g>
    </g>
   </g>
  </g>
 </g>
 <defs>
  <clipPath id="pb1fceec036">
   <rect height="166.32" width="180.529412" x="99" y="25.92"/>
  </clipPath>
  <clipPath id="pef5fefb7b9">
   <rect height="166.32" width="180.529412" x="315.635294" y="25.92"/>
  </clipPath>
  <clipPath id="p33dda49909">
   <rect height="166.32" width="180.529412" x="532.270588" y="25.92"/>
  </clipPath>
 </defs>
</svg>
